<svg width="32" height="24" viewBox="0 0 32 24" fill="none" xmlns="http://www.w3.org/2000/svg">
<path fill-rule="evenodd" clip-rule="evenodd" d="M3.9509 7.43485L5.01154 6.99597C5.8266 6.6587 6.64149 6.41955 7.44945 6.30691C8.12683 6.20323 8.75793 6.142 9.32224 6.142C10.54 6.142 11.8218 6.31728 12.8682 6.92969V4H20.2322C22.577 4 24.6928 4.63039 26.2005 6.22478C27.633 7.72694 28.2802 9.64918 28.2802 11.796C28.2802 13.9895 27.6214 15.9502 26.1522 17.47C24.6478 19.0263 22.6331 19.7 20.3762 19.7H3.55788L3 14.7721L4.05864 14.102C4.3519 13.9164 4.63967 13.7353 4.92194 13.5585L3.13657 13.3678L3.9509 7.43485ZM7.14444 14.5326C6.50558 14.9258 5.83352 15.3456 5.12824 15.792L5.34424 17.7H13.5162L13.7862 14.766L11.8602 14.586L11.7342 15.648H7.91824C8.11876 15.5418 8.31893 15.4357 8.51873 15.3295C8.96151 15.0943 9.40251 14.859 9.84174 14.6237C9.983 14.5481 10.1241 14.4724 10.265 14.3967C10.2927 14.3818 10.3205 14.3669 10.3482 14.352C10.5632 14.2365 10.7682 14.1167 10.9634 13.9927C10.964 13.9923 10.9646 13.9919 10.9653 13.9915C11.1399 13.8805 11.3067 13.7659 11.4656 13.648C11.6245 13.5301 11.7754 13.4087 11.9185 13.2839C11.9418 13.2636 11.9648 13.2432 11.9876 13.2227C12.1135 13.1099 12.2331 12.9943 12.3462 12.876C12.4204 12.8002 12.4895 12.7222 12.5535 12.6421C12.9553 12.1389 13.1562 11.5509 13.1562 10.878C13.1562 10.5897 13.1085 10.3144 13.013 10.052C12.9731 9.94229 12.9248 9.83484 12.8682 9.72965C12.7277 9.4685 12.5357 9.22128 12.2922 8.988C11.7282 8.424 10.7382 8.142 9.32224 8.142C8.89024 8.142 8.36224 8.19 7.73824 8.286C7.12624 8.37 6.47224 8.556 5.77624 8.844L5.39824 11.598L7.25224 11.796L7.52224 10.464C7.53981 10.4552 7.55778 10.4467 7.57615 10.4384C7.75856 10.3562 7.98059 10.2987 8.24224 10.266C8.53024 10.218 8.78224 10.194 8.99824 10.194C9.41824 10.194 9.78424 10.278 10.0962 10.446C10.4082 10.602 10.5642 10.872 10.5642 11.256C10.5642 11.4923 10.5047 11.7259 10.3857 11.9567C10.2569 12.2064 10.0584 12.4528 9.79024 12.696C9.71822 12.7612 9.6429 12.8268 9.56427 12.8929C9.3858 13.0431 9.19029 13.1957 8.97774 13.3509C8.84344 13.4489 8.70233 13.5479 8.55442 13.648C8.42901 13.7328 8.29871 13.8184 8.16351 13.9047C8.08347 13.9558 8.00171 14.0071 7.91824 14.0587C7.87667 14.0844 7.83466 14.1102 7.79224 14.136C7.62485 14.2379 7.45501 14.3417 7.28271 14.4476C7.23679 14.4758 7.19071 14.5041 7.14444 14.5326ZM14.8682 15.648V17.7H20.3762C22.2242 17.7 23.6702 17.16 24.7142 16.08C25.7582 15 26.2802 13.572 26.2802 11.796C26.2802 10.068 25.7702 8.67 24.7502 7.602C23.7422 6.534 22.2362 6 20.2322 6H14.8682V8.052H16.1282V15.648H14.8682ZM22.7702 14.748C23.3822 14.148 23.6882 13.176 23.6882 11.832C23.6882 9.44548 22.6389 8.18902 20.5402 8.06261C20.4228 8.05554 20.3022 8.052 20.1782 8.052H18.5402V15.648H20.1782C20.3021 15.648 20.4227 15.6444 20.5402 15.6372C21.4928 15.5785 22.2361 15.2821 22.7702 14.748ZM20.5402 13.6314C21.0503 13.5812 21.2617 13.428 21.356 13.3338L21.363 13.3268L21.3701 13.3199C21.4284 13.2627 21.6882 12.9359 21.6882 11.832C21.6882 10.845 21.456 10.4774 21.3451 10.3579C21.2741 10.2815 21.0811 10.1193 20.5402 10.0679V13.6314Z" fill="#333333"/>
<path d="M5.77624 8.844C6.47224 8.556 7.12624 8.37 7.73824 8.286C8.36224 8.19 8.89024 8.142 9.32224 8.142C10.7382 8.142 11.7282 8.424 12.2922 8.988C12.8682 9.54 13.1562 10.17 13.1562 10.878C13.1562 11.658 12.8862 12.324 12.3462 12.876C11.8182 13.428 11.1522 13.92 10.3482 14.352C9.54424 14.784 8.73424 15.216 7.91824 15.648H11.7342L11.8602 14.586L13.7862 14.766L13.5162 17.7H5.34424L5.12824 15.792C6.07624 15.192 6.96424 14.64 7.79224 14.136C8.62024 13.632 9.28624 13.152 9.79024 12.696C10.3062 12.228 10.5642 11.748 10.5642 11.256C10.5642 10.872 10.4082 10.602 10.0962 10.446C9.78424 10.278 9.41824 10.194 8.99824 10.194C8.78224 10.194 8.53024 10.218 8.24224 10.266C7.95424 10.302 7.71424 10.368 7.52224 10.464L7.25224 11.796L5.39824 11.598L5.77624 8.844Z" fill="white"/>
<path d="M26.2802 11.796C26.2802 13.572 25.7582 15 24.7142 16.08C23.6702 17.16 22.2242 17.7 20.3762 17.7H14.8682V15.648H16.1282V8.052H14.8682V6H20.2322C22.2362 6 23.7422 6.534 24.7502 7.602C25.7702 8.67 26.2802 10.068 26.2802 11.796ZM23.6882 11.832C23.6882 9.312 22.5182 8.052 20.1782 8.052H18.5402V15.648H20.1782C21.3062 15.648 22.1702 15.348 22.7702 14.748C23.3822 14.148 23.6882 13.176 23.6882 11.832Z" fill="white"/>
<path fill-rule="evenodd" clip-rule="evenodd" d="M4.86357 8.13949L5.39389 7.92005C6.14932 7.60745 6.88384 7.39482 7.59401 7.29649C8.24443 7.1967 8.82396 7.14206 9.32224 7.14206C10.8099 7.14206 12.1387 7.42669 12.9915 8.27312C13.7323 8.9862 14.1562 9.86503 14.1562 10.8781C14.1562 11.9146 13.7873 12.831 13.0651 13.5712C13.0288 13.6091 12.992 13.6467 12.9547 13.684L14.8735 13.8633L14.8013 14.6481H15.1282V9.05206H13.8682V5.00006H20.2322C22.4065 5.00006 24.2175 5.5822 25.4754 6.91347C26.7016 8.19856 27.2802 9.85871 27.2802 11.7961C27.2802 13.7808 26.6898 15.4752 25.4332 16.7751C24.159 18.0932 22.4287 18.7001 20.3762 18.7001H4.45106L4.06412 15.2821L4.59344 14.9471C5.54562 14.3444 6.43861 13.7893 7.27229 13.2819C7.50202 13.142 7.71629 13.0056 7.91552 12.8726L4.2674 12.483L4.86357 8.13949ZM8.07644 12.7637C8.4936 12.4774 8.8396 12.2076 9.11884 11.955C9.47049 11.6359 9.54886 11.4177 9.56197 11.297C9.42601 11.2362 9.24505 11.1941 8.99824 11.1941C8.85264 11.1941 8.65786 11.2106 8.40664 11.2525L8.38651 11.2558L8.38197 11.2564L8.07644 12.7637ZM7.52224 10.464C7.71424 10.368 7.95424 10.302 8.24224 10.266C8.53024 10.218 8.78224 10.194 8.99824 10.194C9.41824 10.194 9.78424 10.278 10.0962 10.446C10.4082 10.602 10.5642 10.872 10.5642 11.256C10.5642 11.748 10.3062 12.228 9.79024 12.696C9.28624 13.152 8.62024 13.632 7.79224 14.136C6.96424 14.64 6.07624 15.192 5.12824 15.792L5.34424 17.7H13.5162L13.7862 14.766L11.8602 14.586L11.7342 15.648H7.91824C8.54787 15.3147 9.17392 14.9814 9.79641 14.6481C9.98066 14.5494 10.1646 14.4507 10.3482 14.352C10.5474 14.245 10.7381 14.1343 10.9204 14.0199C11.1568 13.8715 11.379 13.7169 11.5869 13.5562C11.8656 13.3406 12.1187 13.1138 12.3462 12.876C12.8862 12.324 13.1562 11.658 13.1562 10.878C13.1562 10.17 12.8682 9.54 12.2922 8.988C11.7282 8.424 10.7382 8.142 9.32224 8.142C8.89024 8.142 8.36224 8.19 7.73824 8.286C7.12624 8.37 6.47224 8.556 5.77624 8.844L5.39824 11.598L7.25224 11.796L7.52224 10.464ZM24.7502 7.602C23.7422 6.534 22.2362 6 20.2322 6H14.8682V8.052H16.1282V15.648H14.8682V17.7H20.3762C22.2242 17.7 23.6702 17.16 24.7142 16.08C25.7582 15 26.2802 13.572 26.2802 11.796C26.2802 10.068 25.7702 8.67 24.7502 7.602ZM22.0701 14.034C22.4053 13.7054 22.6882 13.056 22.6882 11.8321C22.6882 10.7086 22.4259 10.0522 22.0779 9.67751C21.7429 9.31676 21.1743 9.05206 20.1782 9.05206H19.5402V14.6481H20.1782C21.1313 14.6481 21.7061 14.398 22.0631 14.041L22.0701 14.034ZM18.5402 15.648V8.052H20.1782C22.5182 8.052 23.6882 9.312 23.6882 11.832C23.6882 13.176 23.3822 14.148 22.7702 14.748C22.1702 15.348 21.3062 15.648 20.1782 15.648H18.5402Z" fill="#1875FF"/>
</svg>
