<svg width="32" height="24" viewBox="0 0 32 24" fill="none" xmlns="http://www.w3.org/2000/svg">
<path fill-rule="evenodd" clip-rule="evenodd" d="M3.81433 5.43485L4.87497 4.99597C5.70765 4.65141 6.55151 4.41456 7.40267 4.30438C8.09634 4.20395 8.72662 4.142 9.25767 4.142C10.4715 4.142 11.6367 4.38163 12.6613 4.95859V2H20.0253C22.3701 2 24.4859 2.63039 25.9936 4.22476C27.4261 5.72692 28.0733 7.64917 28.0733 9.796C28.0733 11.9895 27.4145 13.9502 25.9453 15.47C24.4409 17.0263 22.4262 17.7 20.1693 17.7H14.5868C14.2357 18.2223 13.7705 18.6818 13.1823 19.057C11.9238 19.8709 10.4789 20.238 8.93367 20.238C7.37825 20.238 5.83915 19.8901 4.68129 18.844C3.55905 17.8425 3.04562 16.4998 3.02782 15.0404L3.00949 13.5374L6.08767 12.6054V11.6976L3 11.3678L3.81433 5.43485ZM8.13167 11.1459C8.11709 11.146 8.10242 11.146 8.08767 11.146V12.73C8.41608 12.7391 8.71674 12.7647 8.98967 12.8068C8.99434 12.8075 8.99901 12.8082 9.00367 12.809C9.25121 12.8478 9.47577 12.9002 9.67736 12.9663C9.83319 13.0174 9.9753 13.0766 10.1037 13.144C10.344 13.2702 10.5241 13.4399 10.6441 13.6533C10.6729 13.7045 10.6983 13.7582 10.7201 13.8144C10.7892 13.9919 10.8237 14.1945 10.8237 14.422C10.8237 14.866 10.6737 15.274 10.3737 15.646C10.0857 16.006 9.59967 16.186 8.91567 16.186C8.20767 16.186 7.70967 16 7.42167 15.628C7.37871 15.5707 7.33895 15.513 7.3024 15.455C7.14867 15.2107 7.05162 14.9593 7.01124 14.7009C6.99686 14.6088 6.98967 14.5159 6.98967 14.422L5.02767 15.016C5.0367 15.7568 5.22598 16.382 5.5955 16.8916C5.60388 16.9031 5.61235 16.9146 5.62091 16.926C5.73633 17.0802 5.86858 17.2235 6.01767 17.356C6.66567 17.944 7.63767 18.238 8.93367 18.238C10.1577 18.238 11.2137 17.95 12.1017 17.374C12.3135 17.2395 12.5 17.0865 12.6613 16.9151C12.9763 16.5804 13.195 16.1753 13.3172 15.7C13.3949 15.3983 13.4337 15.0683 13.4337 14.71C13.4337 14.3272 13.3794 13.9732 13.2708 13.648C13.1919 13.4117 13.0843 13.1906 12.9481 12.9847C12.9192 12.9411 12.8891 12.8982 12.8577 12.856C12.7979 12.7757 12.7324 12.6996 12.6613 12.6277C12.4893 12.4538 12.2842 12.3046 12.0459 12.1801C11.8662 12.0862 11.6677 12.0063 11.4503 11.9405C11.319 11.9007 11.1809 11.866 11.0358 11.8364C11.0251 11.8343 11.0144 11.8321 11.0037 11.83V11.758C11.0088 11.7559 11.014 11.7538 11.0191 11.7516C11.1479 11.6984 11.27 11.6428 11.3853 11.5847C11.6125 11.4703 11.8135 11.3464 11.9883 11.2131C12.2234 11.0338 12.4112 10.8375 12.5517 10.624C12.6228 10.5173 12.6859 10.4074 12.7408 10.2944C12.9267 9.91204 13.0197 9.4939 13.0197 9.04C13.0197 8.67521 12.9702 8.34587 12.8712 8.052C12.8164 7.88926 12.7465 7.73739 12.6613 7.5964C12.4855 7.30522 12.2449 7.06042 11.9397 6.862C11.2317 6.382 10.3377 6.142 9.25767 6.142C8.86167 6.142 8.33367 6.19 7.67367 6.286C7.01367 6.37 6.33567 6.556 5.63967 6.844L5.26167 9.598L7.11567 9.796L7.38567 8.464C7.40319 8.45524 7.42115 8.44673 7.43957 8.43847C7.62301 8.35621 7.85104 8.29872 8.12367 8.266C8.43567 8.218 8.69967 8.194 8.91567 8.194C9.92367 8.194 10.4277 8.62 10.4277 9.472C10.4277 9.57774 10.4087 9.70487 10.3706 9.85339C10.3538 9.91908 10.3333 9.98896 10.309 10.063C10.301 10.0876 10.2925 10.1125 10.2837 10.138C10.1877 10.402 9.97167 10.636 9.63567 10.84C9.61481 10.8531 9.59315 10.8658 9.5707 10.8781C9.41834 10.9615 9.22933 11.0254 9.00367 11.0699C8.96808 11.0769 8.93157 11.0834 8.89415 11.0895C8.67211 11.1253 8.41795 11.1441 8.13167 11.1459ZM14.6613 13.648V15.7H20.1693C22.0173 15.7 23.4633 15.16 24.5073 14.08C25.5513 13 26.0733 11.572 26.0733 9.796C26.0733 8.068 25.5633 6.67 24.5433 5.602C23.5353 4.534 22.0293 4 20.0253 4H14.6613V6.052H15.9213V13.648H14.6613ZM22.5633 12.748C23.1753 12.148 23.4813 11.176 23.4813 9.832C23.4813 7.44548 22.432 6.18902 20.3333 6.06261C20.2159 6.05554 20.0953 6.052 19.9713 6.052H18.3333V13.648H19.9713C20.0952 13.648 20.2158 13.6444 20.3333 13.6372C21.2859 13.5785 22.0292 13.2821 22.5633 12.748ZM20.3333 11.6314C20.8434 11.5812 21.0549 11.428 21.1491 11.3338L21.1561 11.3268L21.1632 11.3199C21.2215 11.2627 21.4813 10.9359 21.4813 9.832C21.4813 8.84499 21.2492 8.47736 21.1382 8.3579C21.0673 8.28147 20.8743 8.11925 20.3333 8.06792V11.6314Z" fill="#333333"/>
<path d="M5.63967 6.844C6.33567 6.556 7.01367 6.37 7.67367 6.286C8.33367 6.19 8.86167 6.142 9.25767 6.142C10.3377 6.142 11.2317 6.382 11.9397 6.862C12.6597 7.33 13.0197 8.056 13.0197 9.04C13.0197 9.628 12.8637 10.156 12.5517 10.624C12.2517 11.08 11.7357 11.458 11.0037 11.758V11.83C11.8557 11.998 12.4737 12.34 12.8577 12.856C13.2417 13.372 13.4337 13.99 13.4337 14.71C13.4337 15.922 12.9897 16.81 12.1017 17.374C11.2137 17.95 10.1577 18.238 8.93367 18.238C7.63767 18.238 6.66567 17.944 6.01767 17.356C5.36967 16.78 5.03967 16 5.02767 15.016L6.98967 14.422C6.98967 14.842 7.13367 15.244 7.42167 15.628C7.70967 16 8.20767 16.186 8.91567 16.186C9.59967 16.186 10.0857 16.006 10.3737 15.646C10.6737 15.274 10.8237 14.866 10.8237 14.422C10.8237 13.822 10.5837 13.396 10.1037 13.144C9.62367 12.892 8.95167 12.754 8.08767 12.73V11.146C8.79567 11.146 9.31167 11.044 9.63567 10.84C9.97167 10.636 10.1877 10.402 10.2837 10.138C10.3797 9.862 10.4277 9.64 10.4277 9.472C10.4277 8.62 9.92367 8.194 8.91567 8.194C8.69967 8.194 8.43567 8.218 8.12367 8.266C7.82367 8.302 7.57767 8.368 7.38567 8.464L7.11567 9.796L5.26167 9.598L5.63967 6.844Z" fill="white"/>
<path d="M26.0733 9.796C26.0733 11.572 25.5513 13 24.5073 14.08C23.4633 15.16 22.0173 15.7 20.1693 15.7H14.6613V13.648H15.9213V6.052H14.6613V4H20.0253C22.0293 4 23.5353 4.534 24.5433 5.602C25.5633 6.67 26.0733 8.068 26.0733 9.796ZM23.4813 9.832C23.4813 7.312 22.3113 6.052 19.9713 6.052H18.3333V13.648H19.9713C21.0993 13.648 21.9633 13.348 22.5633 12.748C23.1753 12.148 23.4813 11.176 23.4813 9.832Z" fill="white"/>
<path fill-rule="evenodd" clip-rule="evenodd" d="M4.72699 6.13943L5.25731 5.91998C6.02161 5.60372 6.7826 5.39226 7.53834 5.29516C8.2148 5.19701 8.79395 5.142 9.25766 5.142C10.4817 5.142 11.5821 5.41419 12.4929 6.02896C13.5363 6.71111 14.0197 7.77869 14.0197 9.04C14.0197 9.81494 13.8109 10.5368 13.3854 11.1762C13.2802 11.3356 13.1607 11.4841 13.0285 11.6224C13.2653 11.8028 13.4775 12.0139 13.6599 12.259C13.7535 12.3848 13.8383 12.5146 13.9144 12.648H14.9213V7.052H13.6613V3H20.0253C22.1996 3 24.0106 3.58214 25.2685 4.91341C26.4947 6.1985 27.0733 7.85865 27.0733 9.796C27.0733 11.7808 26.4829 13.4751 25.2263 14.775C23.9521 16.0931 22.2218 16.7 20.1693 16.7H14.011C13.7161 17.3058 13.2634 17.8198 12.642 18.2155C11.5687 18.9105 10.3182 19.238 8.93366 19.238C7.50824 19.238 6.25255 18.9172 5.34946 18.1C4.4643 17.3112 4.04263 16.2498 4.02773 15.0282L4.01857 14.2767L7.08766 13.3475V10.7987L4.13083 10.4829L4.72699 6.13943ZM8.06505 10.146H8.08766C8.74373 10.146 9.02407 10.0434 9.10285 9.99377L9.10973 9.98943L9.11668 9.98521C9.29154 9.87905 9.337 9.80801 9.34417 9.79499C9.37945 9.69213 9.40145 9.61237 9.41425 9.55317C9.42658 9.49611 9.42759 9.47086 9.42766 9.47086C9.42767 9.47086 9.42766 9.47124 9.42766 9.472C9.42766 9.35543 9.41021 9.29831 9.40289 9.27974C9.40209 9.27773 9.40139 9.27609 9.40081 9.27481C9.40053 9.27463 9.40024 9.27443 9.39992 9.27422C9.397 9.2723 9.3921 9.26932 9.38473 9.26558C9.36994 9.25808 9.3448 9.24734 9.30597 9.2364C9.22606 9.21389 9.10049 9.194 8.91566 9.194C8.76794 9.194 8.55812 9.21093 8.27572 9.25437L8.2593 9.2569L8.24493 9.25862L8.06505 10.146ZM7.38567 8.464C7.57767 8.368 7.82367 8.302 8.12367 8.266C8.43567 8.218 8.69967 8.194 8.91567 8.194C9.92367 8.194 10.4277 8.62 10.4277 9.472C10.4277 9.64 10.3797 9.862 10.2837 10.138C10.1877 10.402 9.97167 10.636 9.63567 10.84C9.31167 11.044 8.79567 11.146 8.08767 11.146V12.73C8.95167 12.754 9.62367 12.892 10.1037 13.144C10.5837 13.396 10.8237 13.822 10.8237 14.422C10.8237 14.866 10.6737 15.274 10.3737 15.646C10.0857 16.006 9.59967 16.186 8.91567 16.186C8.20767 16.186 7.70967 16 7.42167 15.628C7.3615 15.5478 7.30761 15.4668 7.26001 15.385C7.07978 15.0752 6.98967 14.7543 6.98967 14.422L5.02767 15.016C5.03967 16 5.36967 16.78 6.01767 17.356C6.66567 17.944 7.63767 18.238 8.93367 18.238C10.1577 18.238 11.2137 17.95 12.1017 17.374C12.9897 16.81 13.4337 15.922 13.4337 14.71C13.4337 13.99 13.2417 13.372 12.8577 12.856C12.6872 12.6269 12.4705 12.4321 12.2077 12.2716C11.8862 12.0752 11.4955 11.9301 11.0358 11.8364C11.0251 11.8343 11.0144 11.8321 11.0037 11.83V11.758C11.0088 11.7559 11.014 11.7538 11.0191 11.7516C11.4641 11.5679 11.8285 11.355 12.1125 11.1131C12.2905 10.9615 12.4369 10.7984 12.5517 10.624C12.8637 10.156 13.0197 9.628 13.0197 9.04C13.0197 8.056 12.6597 7.33 11.9397 6.862C11.2317 6.382 10.3377 6.142 9.25767 6.142C8.86167 6.142 8.33367 6.19 7.67367 6.286C7.01367 6.37 6.33567 6.556 5.63967 6.844L5.26167 9.598L7.11567 9.796L7.38567 8.464ZM8.21523 15.0194C8.24175 15.0512 8.37952 15.186 8.91566 15.186C9.44712 15.186 9.57231 15.0469 9.59279 15.0213L9.59524 15.0182C9.76359 14.8095 9.82366 14.6196 9.82366 14.422C9.82366 14.2552 9.79084 14.176 9.77241 14.1433C9.75715 14.1163 9.72739 14.0759 9.63883 14.0294C9.35082 13.8782 8.85228 13.7516 8.05989 13.7296L7.98966 13.7277V14.422C7.98966 14.5933 8.04281 14.7865 8.21523 15.0194ZM24.5433 5.602C23.5353 4.534 22.0293 4 20.0253 4H14.6613V6.052H15.9213V13.648H14.6613V15.7H20.1693C22.0173 15.7 23.4633 15.16 24.5073 14.08C25.5513 13 26.0733 11.572 26.0733 9.796C26.0733 8.068 25.5633 6.67 24.5433 5.602ZM21.8632 12.0339C22.1984 11.7053 22.4813 11.0559 22.4813 9.832C22.4813 8.70849 22.219 8.05218 21.871 7.67745C21.536 7.3167 20.9674 7.052 19.9713 7.052H19.3333V12.648H19.9713C20.9244 12.648 21.4992 12.3979 21.8562 12.0409L21.8632 12.0339ZM18.3333 13.648V6.052H19.9713C22.3113 6.052 23.4813 7.312 23.4813 9.832C23.4813 11.176 23.1753 12.148 22.5633 12.748C21.9633 13.348 21.0993 13.648 19.9713 13.648H18.3333Z" fill="#FF0340"/>
</svg>
