<svg width="32" height="24" viewBox="0 0 32 24" fill="none" xmlns="http://www.w3.org/2000/svg">
<mask id="path-1-outside-1_25_331" maskUnits="userSpaceOnUse" x="5" y="1" width="21" height="21" fill="black">
<rect fill="white" x="5" y="1" width="21" height="21"/>
<path fill-rule="evenodd" clip-rule="evenodd" d="M11.25 3.85C11.25 3.38056 10.8694 3 10.4 3C9.93056 3 9.55 3.38056 9.55 3.85V3.99491C8.8254 4.25104 8.25113 4.82537 7.99508 5.55H7.85C7.38056 5.55 7 5.93056 7 6.4C7 6.86944 7.38056 7.25 7.85 7.25H7.99523C8.25135 7.97444 8.82554 8.5486 9.55 8.80467V10.65H7.85C7.38056 10.65 7 11.0306 7 11.5C7 11.9694 7.38056 12.35 7.85 12.35H9.55V14.195C8.82544 14.4511 8.25118 15.0254 7.99512 15.75H7.85C7.38056 15.75 7 16.1306 7 16.6C7 17.0694 7.38056 17.45 7.85 17.45H7.99519C8.25129 18.1745 8.82551 18.7487 9.55 19.0048V19.15C9.55 19.6194 9.93056 20 10.4 20C10.8694 20 11.25 19.6194 11.25 19.15V19.0048C11.9745 18.7487 12.5488 18.1745 12.8049 17.45H14.65V19.15C14.65 19.6194 15.0306 20 15.5 20C15.9694 20 16.35 19.6194 16.35 19.15V17.45H18.1952C18.4513 18.1745 19.0255 18.7487 19.75 19.0048V19.15C19.75 19.6194 20.1306 20 20.6 20C21.0694 20 21.45 19.6194 21.45 19.15V19.0048C22.1745 18.7487 22.7488 18.1745 23.0049 17.45H23.15C23.6194 17.45 24 17.0694 24 16.6C24 16.1306 23.6194 15.75 23.15 15.75H23.005C22.7489 15.0254 22.1746 14.4511 21.45 14.195V12.35H23.15C23.6194 12.35 24 11.9694 24 11.5C24 11.0306 23.6194 10.65 23.15 10.65H21.45V7.25H23.15C23.6194 7.25 24 6.86944 24 6.4C24 5.93056 23.6194 5.55 23.15 5.55H21.45V3.85C21.45 3.38056 21.0694 3 20.6 3C20.1306 3 19.75 3.38056 19.75 3.85V5.55H16.35V3.85C16.35 3.38056 15.9694 3 15.5 3C15.0306 3 14.65 3.38056 14.65 3.85V5.55H12.805C12.549 4.82533 11.9746 4.25098 11.25 3.99487V3.85ZM10.3866 5.5499C10.3911 5.54997 10.3955 5.55 10.4 5.55C10.4045 5.55 10.409 5.54997 10.4134 5.5499C10.8745 5.55702 11.2465 5.93126 11.25 6.39321C11.25 6.39547 11.25 6.39773 11.25 6.4C11.25 6.4022 11.25 6.40439 11.25 6.40658C11.2464 6.8729 10.8672 7.24979 10.4001 7.24979C9.93061 7.24979 9.55005 6.86923 9.55005 6.39979C9.55005 5.93484 9.92336 5.55708 10.3866 5.5499ZM12.8049 7.25C12.5487 7.97447 11.9745 8.54865 11.25 8.80471V10.65H13.0951C13.3512 9.92549 13.9255 9.35127 14.65 9.09519V7.25H12.8049ZM16.35 9.09521C17.0745 9.3513 17.6487 9.92551 17.9048 10.65H19.75V7.25H16.35V9.09521ZM17.9049 12.35C17.6488 13.0746 17.0746 13.6489 16.35 13.905V15.75H18.1951C18.4512 15.0254 19.0254 14.4511 19.75 14.195V12.35H17.9049ZM20.5907 15.75C20.1255 15.755 19.75 16.1336 19.75 16.5999C19.75 17.0693 20.1306 17.4499 20.6 17.4499C21.0679 17.4499 21.4475 17.0719 21.45 16.6046C21.45 16.6031 21.45 16.6015 21.45 16.6C21.45 16.5984 21.45 16.5969 21.45 16.5953C21.4476 16.1311 21.073 15.7549 20.6093 15.7499C20.6062 15.75 20.6031 15.75 20.6 15.75C20.5969 15.75 20.5938 15.75 20.5907 15.75ZM15.5093 12.35C15.5062 12.35 15.5031 12.35 15.5 12.35C15.4969 12.35 15.4938 12.35 15.4907 12.35C15.0271 12.3451 14.6525 11.969 14.65 11.5048C14.65 11.5032 14.65 11.5016 14.65 11.5C14.65 11.4984 14.65 11.4969 14.65 11.4953C14.6526 11.0281 15.0321 10.6501 15.5 10.6501C15.9694 10.6501 16.35 11.0307 16.35 11.5001C16.35 11.9664 15.9744 12.3451 15.5093 12.35ZM13.095 12.35C13.3511 13.0746 13.9254 13.6489 14.65 13.905V15.75H12.805C12.5489 15.0254 11.9746 14.4511 11.25 14.195V12.35H13.095ZM10.3907 15.75C10.3938 15.75 10.3969 15.75 10.4 15.75C10.4031 15.75 10.4062 15.75 10.4094 15.7499C10.8723 15.7549 11.2465 16.13 11.25 16.5933C11.25 16.5955 11.25 16.5978 11.25 16.6C11.25 16.6022 11.25 16.6044 11.25 16.6066C11.2464 17.073 10.8672 17.4499 10.4001 17.4499C9.93061 17.4499 9.55005 17.0693 9.55005 16.5999C9.55005 16.1336 9.92556 15.755 10.3907 15.75Z"/>
</mask>
<path fill-rule="evenodd" clip-rule="evenodd" d="M11.25 3.85C11.25 3.38056 10.8694 3 10.4 3C9.93056 3 9.55 3.38056 9.55 3.85V3.99491C8.8254 4.25104 8.25113 4.82537 7.99508 5.55H7.85C7.38056 5.55 7 5.93056 7 6.4C7 6.86944 7.38056 7.25 7.85 7.25H7.99523C8.25135 7.97444 8.82554 8.5486 9.55 8.80467V10.65H7.85C7.38056 10.65 7 11.0306 7 11.5C7 11.9694 7.38056 12.35 7.85 12.35H9.55V14.195C8.82544 14.4511 8.25118 15.0254 7.99512 15.75H7.85C7.38056 15.75 7 16.1306 7 16.6C7 17.0694 7.38056 17.45 7.85 17.45H7.99519C8.25129 18.1745 8.82551 18.7487 9.55 19.0048V19.15C9.55 19.6194 9.93056 20 10.4 20C10.8694 20 11.25 19.6194 11.25 19.15V19.0048C11.9745 18.7487 12.5488 18.1745 12.8049 17.45H14.65V19.15C14.65 19.6194 15.0306 20 15.5 20C15.9694 20 16.35 19.6194 16.35 19.15V17.45H18.1952C18.4513 18.1745 19.0255 18.7487 19.75 19.0048V19.15C19.75 19.6194 20.1306 20 20.6 20C21.0694 20 21.45 19.6194 21.45 19.15V19.0048C22.1745 18.7487 22.7488 18.1745 23.0049 17.45H23.15C23.6194 17.45 24 17.0694 24 16.6C24 16.1306 23.6194 15.75 23.15 15.75H23.005C22.7489 15.0254 22.1746 14.4511 21.45 14.195V12.35H23.15C23.6194 12.35 24 11.9694 24 11.5C24 11.0306 23.6194 10.65 23.15 10.65H21.45V7.25H23.15C23.6194 7.25 24 6.86944 24 6.4C24 5.93056 23.6194 5.55 23.15 5.55H21.45V3.85C21.45 3.38056 21.0694 3 20.6 3C20.1306 3 19.75 3.38056 19.75 3.85V5.55H16.35V3.85C16.35 3.38056 15.9694 3 15.5 3C15.0306 3 14.65 3.38056 14.65 3.85V5.55H12.805C12.549 4.82533 11.9746 4.25098 11.25 3.99487V3.85ZM10.3866 5.5499C10.3911 5.54997 10.3955 5.55 10.4 5.55C10.4045 5.55 10.409 5.54997 10.4134 5.5499C10.8745 5.55702 11.2465 5.93126 11.25 6.39321C11.25 6.39547 11.25 6.39773 11.25 6.4C11.25 6.4022 11.25 6.40439 11.25 6.40658C11.2464 6.8729 10.8672 7.24979 10.4001 7.24979C9.93061 7.24979 9.55005 6.86923 9.55005 6.39979C9.55005 5.93484 9.92336 5.55708 10.3866 5.5499ZM12.8049 7.25C12.5487 7.97447 11.9745 8.54865 11.25 8.80471V10.65H13.0951C13.3512 9.92549 13.9255 9.35127 14.65 9.09519V7.25H12.8049ZM16.35 9.09521C17.0745 9.3513 17.6487 9.92551 17.9048 10.65H19.75V7.25H16.35V9.09521ZM17.9049 12.35C17.6488 13.0746 17.0746 13.6489 16.35 13.905V15.75H18.1951C18.4512 15.0254 19.0254 14.4511 19.75 14.195V12.35H17.9049ZM20.5907 15.75C20.1255 15.755 19.75 16.1336 19.75 16.5999C19.75 17.0693 20.1306 17.4499 20.6 17.4499C21.0679 17.4499 21.4475 17.0719 21.45 16.6046C21.45 16.6031 21.45 16.6015 21.45 16.6C21.45 16.5984 21.45 16.5969 21.45 16.5953C21.4476 16.1311 21.073 15.7549 20.6093 15.7499C20.6062 15.75 20.6031 15.75 20.6 15.75C20.5969 15.75 20.5938 15.75 20.5907 15.75ZM15.5093 12.35C15.5062 12.35 15.5031 12.35 15.5 12.35C15.4969 12.35 15.4938 12.35 15.4907 12.35C15.0271 12.3451 14.6525 11.969 14.65 11.5048C14.65 11.5032 14.65 11.5016 14.65 11.5C14.65 11.4984 14.65 11.4969 14.65 11.4953C14.6526 11.0281 15.0321 10.6501 15.5 10.6501C15.9694 10.6501 16.35 11.0307 16.35 11.5001C16.35 11.9664 15.9744 12.3451 15.5093 12.35ZM13.095 12.35C13.3511 13.0746 13.9254 13.6489 14.65 13.905V15.75H12.805C12.5489 15.0254 11.9746 14.4511 11.25 14.195V12.35H13.095ZM10.3907 15.75C10.3938 15.75 10.3969 15.75 10.4 15.75C10.4031 15.75 10.4062 15.75 10.4094 15.7499C10.8723 15.7549 11.2465 16.13 11.25 16.5933C11.25 16.5955 11.25 16.5978 11.25 16.6C11.25 16.6022 11.25 16.6044 11.25 16.6066C11.2464 17.073 10.8672 17.4499 10.4001 17.4499C9.93061 17.4499 9.55005 17.0693 9.55005 16.5999C9.55005 16.1336 9.92556 15.755 10.3907 15.75Z" fill="white"/>
<path d="M9.55 3.99491L10.2165 5.88058C11.0157 5.59809 11.55 4.84253 11.55 3.99491H9.55ZM7.99508 5.55V7.55C8.84278 7.55 9.59839 7.0156 9.88082 6.21633L7.99508 5.55ZM7.99523 7.25L9.88085 6.58334C9.59833 5.78425 8.8428 5.25 7.99523 5.25V7.25ZM9.55 8.80467H11.55C11.55 7.95706 11.0157 7.20149 10.2165 6.91901L9.55 8.80467ZM9.55 10.65V12.65C10.6546 12.65 11.55 11.7546 11.55 10.65H9.55ZM9.55 12.35H11.55C11.55 11.2454 10.6546 10.35 9.55 10.35V12.35ZM9.55 14.195L10.2165 16.0807C11.0157 15.7982 11.55 15.0426 11.55 14.195H9.55ZM7.99512 15.75V17.75C8.84278 17.75 9.59838 17.2156 9.88082 16.4164L7.99512 15.75ZM7.99519 17.45L9.88084 16.7834C9.59834 15.9843 8.84279 15.45 7.99519 15.45V17.45ZM9.55 19.0048H11.55C11.55 18.1572 11.0157 17.4016 10.2165 17.1191L9.55 19.0048ZM11.25 19.0048L10.5835 17.1191C9.78434 17.4016 9.25 18.1572 9.25 19.0048H11.25ZM12.8049 17.45V15.45C11.9573 15.45 11.2018 15.9843 10.9193 16.7834L12.8049 17.45ZM14.65 17.45H16.65C16.65 16.3454 15.7546 15.45 14.65 15.45V17.45ZM16.35 17.45V15.45C15.2454 15.45 14.35 16.3454 14.35 17.45H16.35ZM18.1952 17.45L20.0808 16.7834C19.7983 15.9843 19.0428 15.45 18.1952 15.45V17.45ZM19.75 19.0048H21.75C21.75 18.1572 21.2157 17.4016 20.4165 17.1191L19.75 19.0048ZM21.45 19.0048L20.7835 17.1191C19.9843 17.4016 19.45 18.1572 19.45 19.0048H21.45ZM23.0049 17.45V15.45C22.1573 15.45 21.4017 15.9843 21.1192 16.7834L23.0049 17.45ZM23.005 15.75L21.1193 16.4164C21.4017 17.2156 22.1573 17.75 23.005 17.75V15.75ZM21.45 14.195H19.45C19.45 15.0426 19.9843 15.7982 20.7835 16.0807L21.45 14.195ZM21.45 12.35V10.35C20.3454 10.35 19.45 11.2454 19.45 12.35H21.45ZM21.45 10.65H19.45C19.45 11.7546 20.3454 12.65 21.45 12.65V10.65ZM21.45 7.25V5.25C20.3454 5.25 19.45 6.14543 19.45 7.25H21.45ZM21.45 5.55H19.45C19.45 6.65457 20.3454 7.55 21.45 7.55V5.55ZM19.75 5.55V7.55C20.8546 7.55 21.75 6.65457 21.75 5.55L19.75 5.55ZM16.35 5.55H14.35C14.35 6.65457 15.2454 7.55 16.35 7.55V5.55ZM14.65 5.55V7.55C15.7546 7.55 16.65 6.65457 16.65 5.55L14.65 5.55ZM12.805 5.55L10.9193 6.21633C11.2017 7.0156 11.9573 7.55 12.805 7.55V5.55ZM11.25 3.99487H9.25C9.25 4.84252 9.78434 5.59811 10.5835 5.88057L11.25 3.99487ZM10.3866 5.5499L10.4175 3.55014C10.3969 3.54982 10.3762 3.54982 10.3556 3.55014L10.3866 5.5499ZM10.4134 5.5499L10.4443 3.55013C10.4237 3.54982 10.4031 3.54982 10.3824 3.55014L10.4134 5.5499ZM11.25 6.39321L13.25 6.40881C13.25 6.39856 13.25 6.3883 13.25 6.37804L11.25 6.39321ZM11.25 6.40658L13.25 6.42223C13.25 6.41194 13.25 6.40165 13.25 6.39135L11.25 6.40658ZM11.25 8.80471L10.5835 6.91902C9.78434 7.20148 9.25 7.95706 9.25 8.80471H11.25ZM12.8049 7.25V5.25C11.9573 5.25 11.2018 5.78425 10.9193 6.58334L12.8049 7.25ZM11.25 10.65H9.25C9.25 11.7546 10.1454 12.65 11.25 12.65V10.65ZM13.0951 10.65V12.65C13.9427 12.65 14.6983 12.1157 14.9808 11.3166L13.0951 10.65ZM14.65 9.09519L15.3165 10.9809C16.1157 10.6984 16.65 9.94284 16.65 9.09519H14.65ZM14.65 7.25H16.65C16.65 6.14543 15.7546 5.25 14.65 5.25V7.25ZM17.9048 10.65L16.0192 11.3166C16.3017 12.1157 17.0572 12.65 17.9048 12.65V10.65ZM16.35 9.09521H14.35C14.35 9.94284 14.8843 10.6984 15.6835 10.9809L16.35 9.09521ZM19.75 10.65V12.65C20.8546 12.65 21.75 11.7546 21.75 10.65H19.75ZM19.75 7.25H21.75C21.75 6.14543 20.8546 5.25 19.75 5.25V7.25ZM16.35 7.25V5.25C15.2454 5.25 14.35 6.14543 14.35 7.25H16.35ZM16.35 13.905L15.6835 12.0193C14.8843 12.3018 14.35 13.0574 14.35 13.905H16.35ZM17.9049 12.35V10.35C17.0572 10.35 16.3016 10.8844 16.0192 11.6836L17.9049 12.35ZM16.35 15.75H14.35C14.35 16.8546 15.2454 17.75 16.35 17.75V15.75ZM18.1951 15.75V17.75C19.0428 17.75 19.7984 17.2156 20.0808 16.4164L18.1951 15.75ZM19.75 14.195L20.4165 16.0807C21.2157 15.7982 21.75 15.0426 21.75 14.195H19.75ZM19.75 12.35H21.75C21.75 11.2454 20.8546 10.35 19.75 10.35V12.35ZM20.5907 15.75L20.6122 13.7501C20.5978 13.7499 20.5835 13.7499 20.5691 13.7501L20.5907 15.75ZM21.45 16.6046L23.45 16.6154C23.45 16.6085 23.45 16.6015 23.45 16.5946L21.45 16.6046ZM21.45 16.5953L23.45 16.6063C23.45 16.5991 23.45 16.5919 23.45 16.5847L21.45 16.5953ZM20.6093 15.7499L20.6308 13.7501C20.6165 13.7499 20.6022 13.7499 20.5879 13.7501L20.6093 15.7499ZM15.5093 12.35L15.4876 14.3499C15.502 14.3501 15.5163 14.3501 15.5307 14.3499L15.5093 12.35ZM15.4907 12.35L15.4693 14.3499C15.4837 14.3501 15.498 14.3501 15.5123 14.3499L15.4907 12.35ZM14.65 11.5048L12.65 11.4936C12.65 11.5009 12.65 11.5083 12.65 11.5157L14.65 11.5048ZM14.65 11.4953L12.65 11.4842C12.65 11.4915 12.65 11.4989 12.65 11.5062L14.65 11.4953ZM13.095 12.35L14.9807 11.6836C14.6983 10.8844 13.9427 10.35 13.095 10.35V12.35ZM14.65 13.905H16.65C16.65 13.0574 16.1157 12.3018 15.3165 12.0193L14.65 13.905ZM14.65 15.75V17.75C15.7546 17.75 16.65 16.8546 16.65 15.75H14.65ZM12.805 15.75L10.9193 16.4164C11.2017 17.2156 11.9573 17.75 12.805 17.75V15.75ZM11.25 14.195H9.25C9.25 15.0426 9.78434 15.7982 10.5835 16.0807L11.25 14.195ZM11.25 12.35V10.35C10.1454 10.35 9.25 11.2454 9.25 12.35H11.25ZM10.3907 15.75L10.4122 13.7501C10.3979 13.7499 10.3835 13.7499 10.3691 13.7501L10.3907 15.75ZM10.4094 15.7499L10.4308 13.7501C10.4165 13.7499 10.4022 13.7499 10.3879 13.7501L10.4094 15.7499ZM11.25 16.5933L13.25 16.609C13.25 16.5986 13.25 16.5883 13.25 16.578L11.25 16.5933ZM11.25 16.6066L13.25 16.6222C13.25 16.612 13.25 16.6017 13.25 16.5915L11.25 16.6066ZM10.4 5C9.76487 5 9.25 4.48513 9.25 3.85H13.25C13.25 2.27599 11.974 1 10.4 1V5ZM11.55 3.85C11.55 4.48513 11.0351 5 10.4 5V1C8.82599 1 7.55 2.27599 7.55 3.85H11.55ZM11.55 3.99491V3.85H7.55V3.99491H11.55ZM8.88347 2.10925C7.58914 2.56676 6.56672 3.58927 6.10934 4.88367L9.88082 6.21633C9.93554 6.06146 10.0617 5.93532 10.2165 5.88058L8.88347 2.10925ZM7.85 7.55H7.99508V3.55H7.85V7.55ZM9 6.4C9 7.03513 8.48513 7.55 7.85 7.55V3.55C6.27599 3.55 5 4.82599 5 6.4H9ZM7.85 5.25C8.48513 5.25 9 5.76487 9 6.4H5C5 7.97401 6.27599 9.25 7.85 9.25V5.25ZM7.99523 5.25H7.85V9.25H7.99523V5.25ZM6.1096 7.91666C6.56711 9.2107 7.58938 10.2329 8.88347 10.6903L10.2165 6.91901C10.0617 6.86428 9.93559 6.73817 9.88085 6.58334L6.1096 7.91666ZM11.55 10.65V8.80467H7.55V10.65H11.55ZM7.85 12.65H9.55V8.65H7.85V12.65ZM9 11.5C9 12.1351 8.48513 12.65 7.85 12.65V8.65C6.27599 8.65 5 9.92599 5 11.5H9ZM7.85 10.35C8.48513 10.35 9 10.8649 9 11.5H5C5 13.074 6.27599 14.35 7.85 14.35V10.35ZM9.55 10.35H7.85V14.35H9.55V10.35ZM11.55 14.195V12.35H7.55V14.195H11.55ZM9.88082 16.4164C9.93555 16.2616 10.0617 16.1354 10.2165 16.0807L8.88347 12.3093C7.5892 12.7668 6.56682 13.7893 6.10941 15.0836L9.88082 16.4164ZM7.85 17.75H7.99512V13.75H7.85V17.75ZM9 16.6C9 17.2351 8.48513 17.75 7.85 17.75V13.75C6.27599 13.75 5 15.026 5 16.6H9ZM7.85 15.45C8.48513 15.45 9 15.9649 9 16.6H5C5 18.174 6.27599 19.45 7.85 19.45V15.45ZM7.99519 15.45H7.85V19.45H7.99519V15.45ZM10.2165 17.1191C10.0617 17.0644 9.93557 16.9383 9.88084 16.7834L6.10954 18.1166C6.56701 19.4107 7.58932 20.433 8.88347 20.8904L10.2165 17.1191ZM11.55 19.15V19.0048H7.55V19.15H11.55ZM10.4 18C11.0351 18 11.55 18.5149 11.55 19.15H7.55C7.55 20.724 8.82598 22 10.4 22V18ZM9.25 19.15C9.25 18.5149 9.76487 18 10.4 18V22C11.974 22 13.25 20.724 13.25 19.15H9.25ZM9.25 19.0048V19.15H13.25V19.0048H9.25ZM10.9193 16.7834C10.8645 16.9383 10.7384 17.0644 10.5835 17.1191L11.9165 20.8905C13.2107 20.4331 14.2331 19.4108 14.6906 18.1166L10.9193 16.7834ZM14.65 15.45H12.8049V19.45H14.65V15.45ZM16.65 19.15V17.45H12.65V19.15H16.65ZM15.5 18C16.1351 18 16.65 18.5149 16.65 19.15H12.65C12.65 20.724 13.926 22 15.5 22V18ZM14.35 19.15C14.35 18.5149 14.8649 18 15.5 18V22C17.074 22 18.35 20.724 18.35 19.15H14.35ZM14.35 17.45V19.15H18.35V17.45H14.35ZM18.1952 15.45H16.35V19.45H18.1952V15.45ZM16.3095 18.1166C16.767 19.4107 17.7893 20.433 19.0835 20.8905L20.4165 17.1191C20.2617 17.0644 20.1355 16.9383 20.0808 16.7834L16.3095 18.1166ZM21.75 19.15V19.0048H17.75V19.15H21.75ZM20.6 18C21.2351 18 21.75 18.5149 21.75 19.15H17.75C17.75 20.724 19.026 22 20.6 22V18ZM19.45 19.15C19.45 18.5149 19.9649 18 20.6 18V22C22.174 22 23.45 20.724 23.45 19.15H19.45ZM19.45 19.0048V19.15H23.45V19.0048H19.45ZM22.1165 20.8905C23.4107 20.4331 24.4331 19.4108 24.8905 18.1166L21.1192 16.7834C21.0645 16.9383 20.9384 17.0644 20.7835 17.1191L22.1165 20.8905ZM23.15 15.45H23.0049V19.45H23.15V15.45ZM22 16.6C22 15.9649 22.5149 15.45 23.15 15.45V19.45C24.724 19.45 26 18.174 26 16.6H22ZM23.15 17.75C22.5149 17.75 22 17.2351 22 16.6H26C26 15.026 24.724 13.75 23.15 13.75V17.75ZM23.005 17.75H23.15V13.75H23.005V17.75ZM24.8907 15.0836C24.4332 13.7892 23.4108 12.7668 22.1165 12.3093L20.7835 16.0807C20.9384 16.1354 21.0645 16.2615 21.1193 16.4164L24.8907 15.0836ZM19.45 12.35V14.195H23.45V12.35H19.45ZM23.15 10.35H21.45V14.35H23.15V10.35ZM22 11.5C22 10.8649 22.5149 10.35 23.15 10.35V14.35C24.724 14.35 26 13.074 26 11.5H22ZM23.15 12.65C22.5149 12.65 22 12.1351 22 11.5H26C26 9.92599 24.724 8.65 23.15 8.65V12.65ZM21.45 12.65H23.15V8.65H21.45V12.65ZM19.45 7.25V10.65H23.45V7.25H19.45ZM23.15 5.25H21.45V9.25H23.15V5.25ZM22 6.4C22 5.76487 22.5149 5.25 23.15 5.25V9.25C24.724 9.25 26 7.97401 26 6.4H22ZM23.15 7.55C22.5149 7.55 22 7.03513 22 6.4H26C26 4.82599 24.724 3.55 23.15 3.55V7.55ZM21.45 7.55H23.15V3.55H21.45V7.55ZM19.45 3.85V5.55H23.45V3.85H19.45ZM20.6 5C19.9649 5 19.45 4.48513 19.45 3.85H23.45C23.45 2.27599 22.174 1 20.6 1V5ZM21.75 3.85C21.75 4.48513 21.2351 5 20.6 5V1C19.026 1 17.75 2.27599 17.75 3.85H21.75ZM21.75 5.55V3.85H17.75V5.55H21.75ZM16.35 7.55H19.75V3.55H16.35V7.55ZM14.35 3.85V5.55H18.35V3.85H14.35ZM15.5 5C14.8649 5 14.35 4.48513 14.35 3.85H18.35C18.35 2.27599 17.074 1 15.5 1V5ZM16.65 3.85C16.65 4.48513 16.1351 5 15.5 5V1C13.926 1 12.65 2.27599 12.65 3.85H16.65ZM16.65 5.55V3.85H12.65V5.55H16.65ZM12.805 7.55H14.65V3.55H12.805V7.55ZM14.6908 4.88367C14.2334 3.58921 13.2109 2.56666 11.9165 2.10918L10.5835 5.88057C10.7384 5.9353 10.8646 6.06145 10.9193 6.21633L14.6908 4.88367ZM9.25 3.85V3.99487H13.25V3.85H9.25ZM10.4 3.55C10.4058 3.55 10.4117 3.55005 10.4175 3.55014L10.3557 7.54966C10.3705 7.54989 10.3852 7.55 10.4 7.55V3.55ZM10.3824 3.55014C10.3883 3.55005 10.3942 3.55 10.4 3.55V7.55C10.4148 7.55 10.4296 7.54989 10.4445 7.54966L10.3824 3.55014ZM10.3826 7.54966C9.758 7.54001 9.25483 7.03388 9.25008 6.40838L13.25 6.37804C13.2382 4.82864 11.9911 3.57403 10.4443 3.55013L10.3826 7.54966ZM13.25 6.4C13.25 6.40307 13.25 6.406 13.25 6.40881L9.25009 6.37761C9.25003 6.38494 9.25 6.3924 9.25 6.4H13.25ZM13.25 6.39135C13.25 6.39439 13.25 6.39727 13.25 6.4H9.25C9.25 6.40712 9.25003 6.41439 9.25008 6.42181L13.25 6.39135ZM9.25009 6.39093C9.25503 5.75969 9.7679 5.24979 10.4001 5.24979V9.24979C11.9666 9.24979 13.2377 7.98611 13.25 6.42223L9.25009 6.39093ZM10.4001 5.24979C11.0352 5.24979 11.5501 5.76467 11.5501 6.39979H7.55005C7.55005 7.9738 8.82604 9.24979 10.4001 9.24979V5.24979ZM11.5501 6.39979C11.5501 7.02902 11.045 7.53992 10.4176 7.54966L10.3556 3.55014C8.80171 3.57424 7.55005 4.84066 7.55005 6.39979H11.5501ZM11.9165 10.6904C13.2106 10.233 14.233 9.21076 14.6905 7.91666L10.9193 6.58334C10.8645 6.73818 10.7384 6.86429 10.5835 6.91902L11.9165 10.6904ZM9.25 8.80471V10.65H13.25V8.80471H9.25ZM11.25 12.65H13.0951V8.65H11.25V12.65ZM13.9835 7.20951C12.6893 7.66693 11.6669 8.68925 11.2095 9.98343L14.9808 11.3166C15.0355 11.1617 15.1616 11.0356 15.3165 10.9809L13.9835 7.20951ZM16.65 9.09519V7.25H12.65V9.09519H16.65ZM14.65 5.25H12.8049V9.25H14.65V5.25ZM19.7905 9.98343C19.333 8.68928 18.3107 7.66698 17.0165 7.20954L15.6835 10.9809C15.8383 11.0356 15.9645 11.1617 16.0192 11.3166L19.7905 9.98343ZM17.9048 12.65H19.75V8.65H17.9048V12.65ZM21.75 10.65V7.25H17.75V10.65H21.75ZM19.75 5.25H16.35V9.25H19.75V5.25ZM14.35 7.25V9.09521H18.35V7.25H14.35ZM17.0165 15.7907C18.3108 15.3332 19.3332 14.3107 19.7906 13.0164L16.0192 11.6836C15.9645 11.8384 15.8383 11.9646 15.6835 12.0193L17.0165 15.7907ZM14.35 13.905V15.75H18.35V13.905H14.35ZM16.35 17.75H18.1951V13.75H16.35V17.75ZM19.0835 12.3093C17.7892 12.7668 16.7668 13.7893 16.3094 15.0836L20.0808 16.4164C20.1355 16.2616 20.2617 16.1354 20.4165 16.0807L19.0835 12.3093ZM21.75 14.195V12.35H17.75V14.195H21.75ZM19.75 10.35H17.9049V14.35H19.75V10.35ZM21.75 16.5999C21.75 17.2309 21.242 17.7431 20.6122 17.7498L20.5691 13.7501C19.0091 13.7669 17.75 15.0362 17.75 16.5999H21.75ZM20.6 15.4499C21.2352 15.4499 21.75 15.9648 21.75 16.5999H17.75C17.75 18.1739 19.026 19.4499 20.6 19.4499V15.4499ZM19.45 16.5938C19.4535 15.9613 19.967 15.4499 20.6 15.4499V19.4499C22.1688 19.4499 23.4415 18.1824 23.45 16.6154L19.45 16.5938ZM23.45 16.5946C23.45 16.5955 23.45 16.5974 23.45 16.6H19.45C19.45 16.6056 19.45 16.6106 19.45 16.6146L23.45 16.5946ZM23.45 16.6C23.45 16.6017 23.45 16.6038 23.45 16.6063L19.45 16.5843C19.45 16.5899 19.45 16.5952 19.45 16.6H23.45ZM20.5879 17.7498C19.9601 17.7431 19.4534 17.2343 19.45 16.6059L23.45 16.5847C23.4417 15.0279 22.1859 13.7668 20.6308 13.7501L20.5879 17.7498ZM20.5879 13.7501C20.5917 13.75 20.5958 13.75 20.6 13.75V17.75C20.6105 17.75 20.6207 17.7499 20.6308 17.7498L20.5879 13.7501ZM20.6 13.75C20.6038 13.75 20.6079 13.75 20.6122 13.7501L20.5692 17.7498C20.5797 17.7499 20.5899 17.75 20.6 17.75V13.75ZM15.5 14.35C15.4961 14.35 15.492 14.35 15.4876 14.3499L15.5309 10.3502C15.5204 10.3501 15.5101 10.35 15.5 10.35V14.35ZM15.5123 14.3499C15.508 14.35 15.5039 14.35 15.5 14.35V10.35C15.4899 10.35 15.4796 10.3501 15.4691 10.3502L15.5123 14.3499ZM15.5121 10.3502C16.1398 10.3569 16.6465 10.8655 16.65 11.494L12.65 11.5157C12.6585 13.0725 13.9144 14.3333 15.4693 14.3499L15.5121 10.3502ZM12.65 11.5C12.65 11.4981 12.65 11.4959 12.65 11.4936L16.65 11.5161C16.65 11.5105 16.65 11.5052 16.65 11.5H12.65ZM12.65 11.5062C12.65 11.5041 12.65 11.5021 12.65 11.5H16.65C16.65 11.4948 16.65 11.4896 16.65 11.4844L12.65 11.5062ZM16.65 11.5064C16.6464 12.1388 16.133 12.6501 15.5 12.6501V8.6501C13.9313 8.6501 12.6587 9.91735 12.65 11.4842L16.65 11.5064ZM15.5 12.6501C14.8648 12.6501 14.35 12.1352 14.35 11.5001H18.35C18.35 9.92609 17.074 8.6501 15.5 8.6501V12.6501ZM14.35 11.5001C14.35 10.869 14.858 10.3569 15.4878 10.3502L15.5307 14.3499C17.0908 14.3332 18.35 13.0638 18.35 11.5001H14.35ZM11.2093 13.0164C11.6668 14.3108 12.6892 15.3332 13.9835 15.7907L15.3165 12.0193C15.1616 11.9646 15.0355 11.8385 14.9807 11.6836L11.2093 13.0164ZM16.65 15.75V13.905H12.65V15.75H16.65ZM12.805 17.75H14.65V13.75H12.805V17.75ZM10.5835 16.0807C10.7384 16.1354 10.8645 16.2615 10.9193 16.4164L14.6907 15.0836C14.2333 13.7892 13.2108 12.7667 11.9165 12.3093L10.5835 16.0807ZM9.25 12.35V14.195H13.25V12.35H9.25ZM13.095 10.35H11.25V14.35H13.095V10.35ZM10.4 13.75C10.4039 13.75 10.4079 13.75 10.4122 13.7501L10.3691 17.7498C10.3796 17.7499 10.3899 17.75 10.4 17.75V13.75ZM10.3879 13.7501C10.3918 13.75 10.3958 13.75 10.4 13.75V17.75C10.4105 17.75 10.4207 17.7499 10.4308 17.7498L10.3879 13.7501ZM13.25 16.578C13.2381 15.0241 11.9836 13.7667 10.4308 13.7501L10.3879 17.7498C9.76102 17.7431 9.25488 17.2358 9.25008 16.6086L13.25 16.578ZM13.25 16.6C13.25 16.6028 13.25 16.6058 13.25 16.609L9.25009 16.5775C9.25003 16.5852 9.25 16.5927 9.25 16.6H13.25ZM13.25 16.5915C13.25 16.5942 13.25 16.597 13.25 16.6H9.25C9.25 16.6074 9.25003 16.6146 9.25008 16.6217L13.25 16.5915ZM10.4001 19.4499C11.9666 19.4499 13.2378 18.1861 13.25 16.6222L9.25009 16.5911C9.25499 15.9598 9.76788 15.4499 10.4001 15.4499V19.4499ZM7.55005 16.5999C7.55005 18.1739 8.82604 19.4499 10.4001 19.4499V15.4499C11.0352 15.4499 11.5501 15.9648 11.5501 16.5999H7.55005ZM10.3691 13.7501C8.80909 13.7669 7.55005 15.0362 7.55005 16.5999H11.5501C11.5501 17.2309 11.042 17.743 10.4123 17.7498L10.3691 13.7501Z" fill="#333333" mask="url(#path-1-outside-1_25_331)"/>
<mask id="path-3-outside-2_25_331" maskUnits="userSpaceOnUse" x="6" y="2" width="19" height="19" fill="black">
<rect fill="white" x="6" y="2" width="19" height="19"/>
<path fill-rule="evenodd" clip-rule="evenodd" d="M11.25 3.85C11.25 3.38056 10.8694 3 10.4 3C9.93056 3 9.55 3.38056 9.55 3.85V3.99491C8.8254 4.25104 8.25113 4.82537 7.99508 5.55H7.85C7.38056 5.55 7 5.93056 7 6.4C7 6.86944 7.38056 7.25 7.85 7.25H7.99523C8.25135 7.97444 8.82554 8.5486 9.55 8.80467V10.65H7.85C7.38056 10.65 7 11.0306 7 11.5C7 11.9694 7.38056 12.35 7.85 12.35H9.55V14.195C8.82544 14.4511 8.25118 15.0254 7.99512 15.75H7.85C7.38056 15.75 7 16.1306 7 16.6C7 17.0694 7.38056 17.45 7.85 17.45H7.99519C8.25129 18.1745 8.82551 18.7487 9.55 19.0048V19.15C9.55 19.6194 9.93056 20 10.4 20C10.8694 20 11.25 19.6194 11.25 19.15V19.0048C11.9745 18.7487 12.5488 18.1745 12.8049 17.45H14.65V19.15C14.65 19.6194 15.0306 20 15.5 20C15.9694 20 16.35 19.6194 16.35 19.15V17.45H18.1952C18.4513 18.1745 19.0255 18.7487 19.75 19.0048V19.15C19.75 19.6194 20.1306 20 20.6 20C21.0694 20 21.45 19.6194 21.45 19.15V19.0048C22.1745 18.7487 22.7488 18.1745 23.0049 17.45H23.15C23.6194 17.45 24 17.0694 24 16.6C24 16.1306 23.6194 15.75 23.15 15.75H23.005C22.7489 15.0254 22.1746 14.4511 21.45 14.195V12.35H23.15C23.6194 12.35 24 11.9694 24 11.5C24 11.0306 23.6194 10.65 23.15 10.65H21.45V7.25H23.15C23.6194 7.25 24 6.86944 24 6.4C24 5.93056 23.6194 5.55 23.15 5.55H21.45V3.85C21.45 3.38056 21.0694 3 20.6 3C20.1306 3 19.75 3.38056 19.75 3.85V5.55H16.35V3.85C16.35 3.38056 15.9694 3 15.5 3C15.0306 3 14.65 3.38056 14.65 3.85V5.55H12.805C12.549 4.82533 11.9746 4.25098 11.25 3.99487V3.85ZM10.3866 5.5499C10.3911 5.54997 10.3955 5.55 10.4 5.55C10.4045 5.55 10.409 5.54997 10.4134 5.5499C10.8745 5.55702 11.2465 5.93126 11.25 6.39321C11.25 6.39547 11.25 6.39773 11.25 6.4C11.25 6.4022 11.25 6.40439 11.25 6.40658C11.2464 6.8729 10.8672 7.24979 10.4001 7.24979C9.93061 7.24979 9.55005 6.86923 9.55005 6.39979C9.55005 5.93484 9.92336 5.55708 10.3866 5.5499ZM12.8049 7.25C12.5487 7.97447 11.9745 8.54865 11.25 8.80471V10.65H13.0951C13.3512 9.92549 13.9255 9.35127 14.65 9.09519V7.25H12.8049ZM16.35 9.09521C17.0745 9.3513 17.6487 9.92551 17.9048 10.65H19.75V7.25H16.35V9.09521ZM17.9049 12.35C17.6488 13.0746 17.0746 13.6489 16.35 13.905V15.75H18.1951C18.4512 15.0254 19.0254 14.4511 19.75 14.195V12.35H17.9049ZM20.5907 15.75C20.1255 15.755 19.75 16.1336 19.75 16.5999C19.75 17.0693 20.1306 17.4499 20.6 17.4499C21.0679 17.4499 21.4475 17.0719 21.45 16.6046C21.45 16.6031 21.45 16.6015 21.45 16.6C21.45 16.5984 21.45 16.5969 21.45 16.5953C21.4476 16.1311 21.073 15.7549 20.6093 15.7499C20.6062 15.75 20.6031 15.75 20.6 15.75C20.5969 15.75 20.5938 15.75 20.5907 15.75ZM15.5093 12.35C15.5062 12.35 15.5031 12.35 15.5 12.35C15.4969 12.35 15.4938 12.35 15.4907 12.35C15.0271 12.3451 14.6525 11.969 14.65 11.5048C14.65 11.5032 14.65 11.5016 14.65 11.5C14.65 11.4984 14.65 11.4969 14.65 11.4953C14.6526 11.0281 15.0321 10.6501 15.5 10.6501C15.9694 10.6501 16.35 11.0307 16.35 11.5001C16.35 11.9664 15.9744 12.3451 15.5093 12.35ZM13.095 12.35C13.3511 13.0746 13.9254 13.6489 14.65 13.905V15.75H12.805C12.5489 15.0254 11.9746 14.4511 11.25 14.195V12.35H13.095ZM10.3907 15.75C10.3938 15.75 10.3969 15.75 10.4 15.75C10.4031 15.75 10.4062 15.75 10.4094 15.7499C10.8723 15.7549 11.2465 16.13 11.25 16.5933C11.25 16.5955 11.25 16.5978 11.25 16.6C11.25 16.6022 11.25 16.6044 11.25 16.6066C11.2464 17.073 10.8672 17.4499 10.4001 17.4499C9.93061 17.4499 9.55005 17.0693 9.55005 16.5999C9.55005 16.1336 9.92556 15.755 10.3907 15.75Z"/>
</mask>
<path fill-rule="evenodd" clip-rule="evenodd" d="M11.25 3.85C11.25 3.38056 10.8694 3 10.4 3C9.93056 3 9.55 3.38056 9.55 3.85V3.99491C8.8254 4.25104 8.25113 4.82537 7.99508 5.55H7.85C7.38056 5.55 7 5.93056 7 6.4C7 6.86944 7.38056 7.25 7.85 7.25H7.99523C8.25135 7.97444 8.82554 8.5486 9.55 8.80467V10.65H7.85C7.38056 10.65 7 11.0306 7 11.5C7 11.9694 7.38056 12.35 7.85 12.35H9.55V14.195C8.82544 14.4511 8.25118 15.0254 7.99512 15.75H7.85C7.38056 15.75 7 16.1306 7 16.6C7 17.0694 7.38056 17.45 7.85 17.45H7.99519C8.25129 18.1745 8.82551 18.7487 9.55 19.0048V19.15C9.55 19.6194 9.93056 20 10.4 20C10.8694 20 11.25 19.6194 11.25 19.15V19.0048C11.9745 18.7487 12.5488 18.1745 12.8049 17.45H14.65V19.15C14.65 19.6194 15.0306 20 15.5 20C15.9694 20 16.35 19.6194 16.35 19.15V17.45H18.1952C18.4513 18.1745 19.0255 18.7487 19.75 19.0048V19.15C19.75 19.6194 20.1306 20 20.6 20C21.0694 20 21.45 19.6194 21.45 19.15V19.0048C22.1745 18.7487 22.7488 18.1745 23.0049 17.45H23.15C23.6194 17.45 24 17.0694 24 16.6C24 16.1306 23.6194 15.75 23.15 15.75H23.005C22.7489 15.0254 22.1746 14.4511 21.45 14.195V12.35H23.15C23.6194 12.35 24 11.9694 24 11.5C24 11.0306 23.6194 10.65 23.15 10.65H21.45V7.25H23.15C23.6194 7.25 24 6.86944 24 6.4C24 5.93056 23.6194 5.55 23.15 5.55H21.45V3.85C21.45 3.38056 21.0694 3 20.6 3C20.1306 3 19.75 3.38056 19.75 3.85V5.55H16.35V3.85C16.35 3.38056 15.9694 3 15.5 3C15.0306 3 14.65 3.38056 14.65 3.85V5.55H12.805C12.549 4.82533 11.9746 4.25098 11.25 3.99487V3.85ZM10.3866 5.5499C10.3911 5.54997 10.3955 5.55 10.4 5.55C10.4045 5.55 10.409 5.54997 10.4134 5.5499C10.8745 5.55702 11.2465 5.93126 11.25 6.39321C11.25 6.39547 11.25 6.39773 11.25 6.4C11.25 6.4022 11.25 6.40439 11.25 6.40658C11.2464 6.8729 10.8672 7.24979 10.4001 7.24979C9.93061 7.24979 9.55005 6.86923 9.55005 6.39979C9.55005 5.93484 9.92336 5.55708 10.3866 5.5499ZM12.8049 7.25C12.5487 7.97447 11.9745 8.54865 11.25 8.80471V10.65H13.0951C13.3512 9.92549 13.9255 9.35127 14.65 9.09519V7.25H12.8049ZM16.35 9.09521C17.0745 9.3513 17.6487 9.92551 17.9048 10.65H19.75V7.25H16.35V9.09521ZM17.9049 12.35C17.6488 13.0746 17.0746 13.6489 16.35 13.905V15.75H18.1951C18.4512 15.0254 19.0254 14.4511 19.75 14.195V12.35H17.9049ZM20.5907 15.75C20.1255 15.755 19.75 16.1336 19.75 16.5999C19.75 17.0693 20.1306 17.4499 20.6 17.4499C21.0679 17.4499 21.4475 17.0719 21.45 16.6046C21.45 16.6031 21.45 16.6015 21.45 16.6C21.45 16.5984 21.45 16.5969 21.45 16.5953C21.4476 16.1311 21.073 15.7549 20.6093 15.7499C20.6062 15.75 20.6031 15.75 20.6 15.75C20.5969 15.75 20.5938 15.75 20.5907 15.75ZM15.5093 12.35C15.5062 12.35 15.5031 12.35 15.5 12.35C15.4969 12.35 15.4938 12.35 15.4907 12.35C15.0271 12.3451 14.6525 11.969 14.65 11.5048C14.65 11.5032 14.65 11.5016 14.65 11.5C14.65 11.4984 14.65 11.4969 14.65 11.4953C14.6526 11.0281 15.0321 10.6501 15.5 10.6501C15.9694 10.6501 16.35 11.0307 16.35 11.5001C16.35 11.9664 15.9744 12.3451 15.5093 12.35ZM13.095 12.35C13.3511 13.0746 13.9254 13.6489 14.65 13.905V15.75H12.805C12.5489 15.0254 11.9746 14.4511 11.25 14.195V12.35H13.095ZM10.3907 15.75C10.3938 15.75 10.3969 15.75 10.4 15.75C10.4031 15.75 10.4062 15.75 10.4094 15.7499C10.8723 15.7549 11.2465 16.13 11.25 16.5933C11.25 16.5955 11.25 16.5978 11.25 16.6C11.25 16.6022 11.25 16.6044 11.25 16.6066C11.2464 17.073 10.8672 17.4499 10.4001 17.4499C9.93061 17.4499 9.55005 17.0693 9.55005 16.5999C9.55005 16.1336 9.92556 15.755 10.3907 15.75Z" fill="white"/>
<path d="M9.55 3.99491L9.88327 4.93774C10.2828 4.7965 10.55 4.41872 10.55 3.99491H9.55ZM7.99508 5.55V6.55C8.41893 6.55 8.79674 6.2828 8.93795 5.88316L7.99508 5.55ZM7.99523 7.25L8.93804 6.91667C8.79678 6.51712 8.41901 6.25 7.99523 6.25V7.25ZM9.55 8.80467H10.55C10.55 8.38086 10.2828 8.00308 9.88327 7.86184L9.55 8.80467ZM9.55 10.65V11.65C10.1023 11.65 10.55 11.2023 10.55 10.65H9.55ZM9.55 12.35H10.55C10.55 11.7977 10.1023 11.35 9.55 11.35V12.35ZM9.55 14.195L9.88327 15.1378C10.2828 14.9966 10.55 14.6188 10.55 14.195H9.55ZM7.99512 15.75V16.75C8.41895 16.75 8.79675 16.4828 8.93797 16.0832L7.99512 15.75ZM7.99519 17.45L8.93801 17.1167C8.79677 16.7171 8.41899 16.45 7.99519 16.45V17.45ZM9.55 19.0048H10.55C10.55 18.581 10.2828 18.2032 9.88327 18.0619L9.55 19.0048ZM11.25 19.0048L10.9168 18.062C10.5172 18.2032 10.25 18.581 10.25 19.0048H11.25ZM12.8049 17.45V16.45C12.3811 16.45 12.0033 16.7171 11.8621 17.1167L12.8049 17.45ZM14.65 17.45H15.65C15.65 16.8977 15.2023 16.45 14.65 16.45V17.45ZM16.35 17.45V16.45C15.7977 16.45 15.35 16.8977 15.35 17.45H16.35ZM18.1952 17.45L19.138 17.1167C18.9967 16.7171 18.619 16.45 18.1952 16.45V17.45ZM19.75 19.0048H20.75C20.75 18.581 20.4828 18.2032 20.0833 18.062L19.75 19.0048ZM21.45 19.0048L21.1168 18.062C20.7172 18.2032 20.45 18.581 20.45 19.0048H21.45ZM23.0049 17.45V16.45C22.5811 16.45 22.2033 16.7171 22.0621 17.1167L23.0049 17.45ZM23.005 15.75L22.0621 16.0832C22.2033 16.4828 22.5811 16.75 23.005 16.75V15.75ZM21.45 14.195H20.45C20.45 14.6188 20.7172 14.9966 21.1168 15.1378L21.45 14.195ZM21.45 12.35V11.35C20.8977 11.35 20.45 11.7977 20.45 12.35H21.45ZM21.45 10.65H20.45C20.45 11.2023 20.8977 11.65 21.45 11.65V10.65ZM21.45 7.25V6.25C20.8977 6.25 20.45 6.69772 20.45 7.25H21.45ZM21.45 5.55H20.45C20.45 6.10228 20.8977 6.55 21.45 6.55V5.55ZM19.75 5.55V6.55C20.3023 6.55 20.75 6.10228 20.75 5.55H19.75ZM16.35 5.55H15.35C15.35 6.10228 15.7977 6.55 16.35 6.55V5.55ZM14.65 5.55V6.55C15.2023 6.55 15.65 6.10228 15.65 5.55H14.65ZM12.805 5.55L11.8622 5.88316C12.0034 6.2828 12.3812 6.55 12.805 6.55V5.55ZM11.25 3.99487H10.25C10.25 4.4187 10.5172 4.79649 10.9168 4.93772L11.25 3.99487ZM10.3866 5.5499L10.4021 4.55002C10.3917 4.54986 10.3814 4.54986 10.3711 4.55002L10.3866 5.5499ZM10.4134 5.5499L10.4289 4.55002C10.4186 4.54986 10.4083 4.54986 10.3979 4.55002L10.4134 5.5499ZM11.25 6.39321L12.25 6.40101C12.25 6.39588 12.25 6.39075 12.25 6.38563L11.25 6.39321ZM11.25 6.40658L12.25 6.41441C12.25 6.40926 12.25 6.40411 12.25 6.39897L11.25 6.40658ZM11.25 8.80471L10.9168 7.86186C10.5172 8.00309 10.25 8.38089 10.25 8.80471H11.25ZM12.8049 7.25V6.25C12.3811 6.25 12.0033 6.51712 11.8621 6.91667L12.8049 7.25ZM11.25 10.65H10.25C10.25 11.2023 10.6977 11.65 11.25 11.65V10.65ZM13.0951 10.65V11.65C13.5189 11.65 13.8967 11.3829 14.0379 10.9833L13.0951 10.65ZM14.65 9.09519L14.9832 10.038C15.3828 9.89681 15.65 9.51902 15.65 9.09519H14.65ZM14.65 7.25H15.65C15.65 6.69772 15.2023 6.25 14.65 6.25V7.25ZM17.9048 10.65L16.962 10.9833C17.1033 11.3829 17.481 11.65 17.9048 11.65V10.65ZM16.35 9.09521H15.35C15.35 9.51903 15.6172 9.89681 16.0167 10.038L16.35 9.09521ZM19.75 10.65V11.65C20.3023 11.65 20.75 11.2023 20.75 10.65H19.75ZM19.75 7.25H20.75C20.75 6.69772 20.3023 6.25 19.75 6.25V7.25ZM16.35 7.25V6.25C15.7977 6.25 15.35 6.69772 15.35 7.25H16.35ZM16.35 13.905L16.0167 12.9622C15.6172 13.1034 15.35 13.4812 15.35 13.905H16.35ZM17.9049 12.35V11.35C17.4811 11.35 17.1033 11.6172 16.9621 12.0168L17.9049 12.35ZM16.35 15.75H15.35C15.35 16.3023 15.7977 16.75 16.35 16.75V15.75ZM18.1951 15.75V16.75C18.6189 16.75 18.9967 16.4828 19.1379 16.0832L18.1951 15.75ZM19.75 14.195L20.0833 15.1378C20.4828 14.9966 20.75 14.6188 20.75 14.195H19.75ZM19.75 12.35H20.75C20.75 11.7977 20.3023 11.35 19.75 11.35V12.35ZM20.5907 15.75L20.6014 14.75C20.5943 14.7499 20.5871 14.7499 20.5799 14.75L20.5907 15.75ZM21.45 16.6046L22.4501 16.61L22.45 16.5996L21.45 16.6046ZM21.45 16.5953L22.4501 16.6008L22.45 16.59L21.45 16.5953ZM20.6093 15.7499L20.6201 14.75C20.6129 14.7499 20.6058 14.7499 20.5986 14.75L20.6093 15.7499ZM15.5093 12.35L15.4985 13.35C15.5056 13.3501 15.5128 13.3501 15.52 13.35L15.5093 12.35ZM15.4907 12.35L15.48 13.35C15.4872 13.3501 15.4943 13.3501 15.5015 13.35L15.4907 12.35ZM14.65 11.5048L13.6499 11.4992L13.65 11.5103L14.65 11.5048ZM14.65 11.4953L13.6499 11.4897L13.65 11.5007L14.65 11.4953ZM13.095 12.35L14.0379 12.0168C13.8967 11.6172 13.5189 11.35 13.095 11.35V12.35ZM14.65 13.905H15.65C15.65 13.4812 15.3828 13.1034 14.9832 12.9622L14.65 13.905ZM14.65 15.75V16.75C15.2023 16.75 15.65 16.3023 15.65 15.75H14.65ZM12.805 15.75L11.8621 16.0832C12.0034 16.4828 12.3812 16.75 12.805 16.75V15.75ZM11.25 14.195H10.25C10.25 14.6188 10.5172 14.9966 10.9168 15.1378L11.25 14.195ZM11.25 12.35V11.35C10.6977 11.35 10.25 11.7977 10.25 12.35H11.25ZM10.3907 15.75L10.4015 14.75C10.3943 14.7499 10.3871 14.7499 10.3799 14.75L10.3907 15.75ZM10.4094 15.7499L10.4201 14.75C10.4129 14.7499 10.4058 14.7499 10.3986 14.75L10.4094 15.7499ZM11.25 16.5933L12.25 16.6011C12.25 16.596 12.25 16.5908 12.25 16.5856L11.25 16.5933ZM11.25 16.6066L12.25 16.6144C12.25 16.6093 12.25 16.6042 12.25 16.5991L11.25 16.6066ZM10.4 4C10.3172 4 10.25 3.93284 10.25 3.85H12.25C12.25 2.82827 11.4217 2 10.4 2V4ZM10.55 3.85C10.55 3.93284 10.4828 4 10.4 4V2C9.37827 2 8.55 2.82827 8.55 3.85H10.55ZM10.55 3.99491V3.85H8.55V3.99491H10.55ZM9.21673 3.05208C8.20727 3.4089 7.40892 4.20732 7.05221 5.21684L8.93795 5.88316C9.09333 5.44341 9.44354 5.09318 9.88327 4.93774L9.21673 3.05208ZM7.85 6.55H7.99508V4.55H7.85V6.55ZM8 6.4C8 6.48284 7.93284 6.55 7.85 6.55V4.55C6.82827 4.55 6 5.37827 6 6.4H8ZM7.85 6.25C7.93284 6.25 8 6.31716 8 6.4H6C6 7.42173 6.82827 8.25 7.85 8.25V6.25ZM7.99523 6.25H7.85V8.25H7.99523V6.25ZM7.05241 7.58333C7.40923 8.59257 8.20746 9.39076 9.21673 9.74751L9.88327 7.86184C9.44362 7.70644 9.09347 7.3563 8.93804 6.91667L7.05241 7.58333ZM10.55 10.65V8.80467H8.55V10.65H10.55ZM7.85 11.65H9.55V9.65H7.85V11.65ZM8 11.5C8 11.5828 7.93284 11.65 7.85 11.65V9.65C6.82827 9.65 6 10.4783 6 11.5H8ZM7.85 11.35C7.93284 11.35 8 11.4172 8 11.5H6C6 12.5217 6.82827 13.35 7.85 13.35V11.35ZM9.55 11.35H7.85V13.35H9.55V11.35ZM10.55 14.195V12.35H8.55V14.195H10.55ZM8.93797 16.0832C9.09337 15.6435 9.44356 15.2933 9.88327 15.1378L9.21673 13.2522C8.20732 13.609 7.409 14.4073 7.05226 15.4168L8.93797 16.0832ZM7.85 16.75H7.99512V14.75H7.85V16.75ZM8 16.6C8 16.6828 7.93284 16.75 7.85 16.75V14.75C6.82827 14.75 6 15.5783 6 16.6H8ZM7.85 16.45C7.93284 16.45 8 16.5172 8 16.6H6C6 17.6217 6.82827 18.45 7.85 18.45V16.45ZM7.99519 16.45H7.85V18.45H7.99519V16.45ZM9.88327 18.0619C9.4436 17.9065 9.09343 17.5564 8.93801 17.1167L7.05236 17.7833C7.40915 18.7926 8.20741 19.5908 9.21673 19.9476L9.88327 18.0619ZM10.55 19.15V19.0048H8.55V19.15H10.55ZM10.4 19C10.4828 19 10.55 19.0672 10.55 19.15H8.55C8.55 20.1717 9.37827 21 10.4 21V19ZM10.25 19.15C10.25 19.0672 10.3172 19 10.4 19V21C11.4217 21 12.25 20.1717 12.25 19.15H10.25ZM10.25 19.0048V19.15H12.25V19.0048H10.25ZM11.8621 17.1167C11.7067 17.5564 11.3565 17.9066 10.9168 18.062L11.5832 19.9477C12.5926 19.5909 13.3909 18.7926 13.7477 17.7833L11.8621 17.1167ZM14.65 16.45H12.8049V18.45H14.65V16.45ZM15.65 19.15V17.45H13.65V19.15H15.65ZM15.5 19C15.5828 19 15.65 19.0672 15.65 19.15H13.65C13.65 20.1717 14.4783 21 15.5 21V19ZM15.35 19.15C15.35 19.0672 15.4172 19 15.5 19V21C16.5217 21 17.35 20.1717 17.35 19.15H15.35ZM15.35 17.45V19.15H17.35V17.45H15.35ZM18.1952 16.45H16.35V18.45H18.1952V16.45ZM17.2523 17.7833C17.6091 18.7926 18.4074 19.5909 19.4167 19.9476L20.0833 18.062C19.6436 17.9065 19.2934 17.5564 19.138 17.1167L17.2523 17.7833ZM20.75 19.15V19.0048H18.75V19.15H20.75ZM20.6 19C20.6828 19 20.75 19.0672 20.75 19.15H18.75C18.75 20.1717 19.5783 21 20.6 21V19ZM20.45 19.15C20.45 19.0672 20.5172 19 20.6 19V21C21.6217 21 22.45 20.1717 22.45 19.15H20.45ZM20.45 19.0048V19.15H22.45V19.0048H20.45ZM21.7832 19.9476C22.7926 19.5909 23.5909 18.7926 23.9477 17.7833L22.0621 17.1167C21.9066 17.5564 21.5565 17.9066 21.1168 18.062L21.7832 19.9476ZM23.15 16.45H23.0049V18.45H23.15V16.45ZM23 16.6C23 16.5172 23.0672 16.45 23.15 16.45V18.45C24.1717 18.45 25 17.6217 25 16.6H23ZM23.15 16.75C23.0672 16.75 23 16.6828 23 16.6H25C25 15.5783 24.1717 14.75 23.15 14.75V16.75ZM23.005 16.75H23.15V14.75H23.005V16.75ZM23.9478 15.4168C23.5911 14.4073 22.7927 13.6089 21.7832 13.2521L21.1168 15.1378C21.5565 15.2932 21.9067 15.6435 22.0621 16.0832L23.9478 15.4168ZM20.45 12.35V14.195H22.45V12.35H20.45ZM23.15 11.35H21.45V13.35H23.15V11.35ZM23 11.5C23 11.4172 23.0672 11.35 23.15 11.35V13.35C24.1717 13.35 25 12.5217 25 11.5H23ZM23.15 11.65C23.0672 11.65 23 11.5828 23 11.5H25C25 10.4783 24.1717 9.65 23.15 9.65V11.65ZM21.45 11.65H23.15V9.65H21.45V11.65ZM20.45 7.25V10.65H22.45V7.25H20.45ZM23.15 6.25H21.45V8.25H23.15V6.25ZM23 6.4C23 6.31716 23.0672 6.25 23.15 6.25V8.25C24.1717 8.25 25 7.42173 25 6.4H23ZM23.15 6.55C23.0672 6.55 23 6.48284 23 6.4H25C25 5.37827 24.1717 4.55 23.15 4.55V6.55ZM21.45 6.55H23.15V4.55H21.45V6.55ZM20.45 3.85V5.55H22.45V3.85H20.45ZM20.6 4C20.5172 4 20.45 3.93284 20.45 3.85H22.45C22.45 2.82827 21.6217 2 20.6 2V4ZM20.75 3.85C20.75 3.93284 20.6828 4 20.6 4V2C19.5783 2 18.75 2.82827 18.75 3.85H20.75ZM20.75 5.55V3.85H18.75V5.55H20.75ZM16.35 6.55H19.75V4.55H16.35V6.55ZM15.35 3.85V5.55H17.35V3.85H15.35ZM15.5 4C15.4172 4 15.35 3.93284 15.35 3.85H17.35C17.35 2.82827 16.5217 2 15.5 2V4ZM15.65 3.85C15.65 3.93284 15.5828 4 15.5 4V2C14.4783 2 13.65 2.82827 13.65 3.85H15.65ZM15.65 5.55V3.85H13.65V5.55H15.65ZM12.805 6.55H14.65V4.55H12.805V6.55ZM13.7479 5.21684C13.3912 4.20727 12.5928 3.40882 11.5832 3.05203L10.9168 4.93772C11.3565 5.09314 11.7068 5.44339 11.8622 5.88316L13.7479 5.21684ZM10.25 3.85V3.99487H12.25V3.85H10.25ZM10.4 4.55C10.4007 4.55 10.4014 4.55001 10.4021 4.55002L10.3711 6.54978C10.3808 6.54993 10.3904 6.55 10.4 6.55V4.55ZM10.3979 4.55002C10.3986 4.55001 10.3993 4.55 10.4 4.55V6.55C10.4097 6.55 10.4193 6.54993 10.429 6.54978L10.3979 4.55002ZM10.398 6.54978C10.3163 6.54851 10.2507 6.48257 10.2501 6.40079L12.25 6.38563C12.2424 5.37995 11.4328 4.56553 10.4289 4.55002L10.398 6.54978ZM12.25 6.4C12.25 6.4004 12.25 6.40074 12.25 6.40101L10.2501 6.38541C10.25 6.3902 10.25 6.39507 10.25 6.4H12.25ZM12.25 6.39897C12.25 6.39939 12.25 6.39973 12.25 6.4H10.25C10.25 6.40466 10.25 6.40939 10.2501 6.4142L12.25 6.39897ZM10.2501 6.39876C10.2507 6.31629 10.3176 6.24979 10.4001 6.24979V8.24979C11.4169 8.24979 12.2421 7.4295 12.25 6.41441L10.2501 6.39876ZM10.4001 6.24979C10.4829 6.24979 10.5501 6.31695 10.5501 6.39979H8.55005C8.55005 7.42152 9.37832 8.24979 10.4001 8.24979V6.24979ZM10.5501 6.39979C10.5501 6.48193 10.4842 6.5485 10.4021 6.54978L10.3711 4.55002C9.36254 4.56566 8.55005 5.38775 8.55005 6.39979H10.5501ZM11.5832 9.74756C12.5926 9.39083 13.3909 8.59262 13.7477 7.58333L11.8621 6.91667C11.7066 7.35633 11.3564 7.70647 10.9168 7.86186L11.5832 9.74756ZM10.25 8.80471V10.65H12.25V8.80471H10.25ZM11.25 11.65H13.0951V9.65H11.25V11.65ZM14.3168 8.15235C13.3074 8.5091 12.5091 9.30737 12.1523 10.3167L14.0379 10.9833C14.1934 10.5436 14.5435 10.1934 14.9832 10.038L14.3168 8.15235ZM15.65 9.09519V7.25H13.65V9.09519H15.65ZM14.65 6.25H12.8049V8.25H14.65V6.25ZM18.8477 10.3167C18.4909 9.30739 17.6926 8.50914 16.6833 8.15238L16.0167 10.038C16.4564 10.1935 16.8066 10.5436 16.962 10.9833L18.8477 10.3167ZM17.9048 11.65H19.75V9.65H17.9048V11.65ZM20.75 10.65V7.25H18.75V10.65H20.75ZM19.75 6.25H16.35V8.25H19.75V6.25ZM15.35 7.25V9.09521H17.35V7.25H15.35ZM16.6833 14.8478C17.6927 14.491 18.491 13.6927 18.8478 12.6832L16.9621 12.0168C16.8067 12.4565 16.4565 12.8067 16.0167 12.9622L16.6833 14.8478ZM15.35 13.905V15.75H17.35V13.905H15.35ZM16.35 16.75H18.1951V14.75H16.35V16.75ZM19.4167 13.2522C18.4073 13.609 17.609 14.4073 17.2522 15.4168L19.1379 16.0832C19.2933 15.6435 19.6435 15.2933 20.0833 15.1378L19.4167 13.2522ZM20.75 14.195V12.35H18.75V14.195H20.75ZM19.75 11.35H17.9049V13.35H19.75V11.35ZM20.75 16.5999C20.75 16.6823 20.6838 16.749 20.6014 16.7499L20.5799 14.75C19.5673 14.7609 18.75 15.5849 18.75 16.5999H20.75ZM20.6 16.4499C20.6829 16.4499 20.75 16.5171 20.75 16.5999H18.75C18.75 17.6216 19.5783 18.4499 20.6 18.4499V16.4499ZM20.45 16.5992C20.4505 16.5166 20.5174 16.4499 20.6 16.4499V18.4499C21.6184 18.4499 22.4445 17.6272 22.45 16.61L20.45 16.5992ZM22.45 16.5996V16.6H20.45C20.45 16.6036 20.45 16.6068 20.45 16.6096L22.45 16.5996ZM22.45 16.6L22.45 16.6008L20.45 16.5898C20.45 16.5934 20.45 16.5968 20.45 16.6H22.45ZM20.5986 16.7499C20.5165 16.749 20.4505 16.6827 20.45 16.6006L22.45 16.59C22.4447 15.5795 21.6294 14.7608 20.6201 14.75L20.5986 16.7499ZM20.5986 14.75C20.599 14.75 20.5994 14.75 20.6 14.75V16.75C20.6068 16.75 20.6135 16.75 20.6201 16.7499L20.5986 14.75ZM20.6 14.75C20.6004 14.75 20.6008 14.75 20.6014 14.75L20.5799 16.7499C20.5867 16.75 20.5934 16.75 20.6 16.75V14.75ZM15.5 13.35C15.4996 13.35 15.4991 13.35 15.4985 13.35L15.5201 11.3501C15.5133 11.35 15.5066 11.35 15.5 11.35V13.35ZM15.5015 13.35C15.5009 13.35 15.5004 13.35 15.5 13.35V11.35C15.4934 11.35 15.4867 11.35 15.4799 11.3501L15.5015 13.35ZM15.5014 11.3501C15.5835 11.351 15.6495 11.4173 15.65 11.4994L13.65 11.5103C13.6555 12.5207 14.4708 13.3392 15.48 13.35L15.5014 11.3501ZM13.65 11.5L13.65 11.4992L15.65 11.5105C15.65 11.5069 15.65 11.5034 15.65 11.5H13.65ZM13.65 11.5007L13.65 11.5H15.65C15.65 11.4966 15.65 11.4932 15.65 11.4898L13.65 11.5007ZM15.65 11.5008C15.6495 11.5834 15.5826 11.6501 15.5 11.6501V9.6501C14.4817 9.6501 13.6557 10.4727 13.65 11.4897L15.65 11.5008ZM15.5 11.6501C15.4171 11.6501 15.35 11.5829 15.35 11.5001H17.35C17.35 10.4784 16.5217 9.6501 15.5 9.6501V11.6501ZM15.35 11.5001C15.35 11.4177 15.4162 11.351 15.4986 11.3501L15.52 13.35C16.5326 13.3391 17.35 12.5151 17.35 11.5001H15.35ZM12.1522 12.6832C12.5089 13.6927 13.3073 14.4911 14.3168 14.8479L14.9832 12.9622C14.5435 12.8068 14.1933 12.4565 14.0379 12.0168L12.1522 12.6832ZM15.65 15.75V13.905H13.65V15.75H15.65ZM12.805 16.75H14.65V14.75H12.805V16.75ZM10.9168 15.1378C11.3565 15.2932 11.7067 15.6435 11.8621 16.0832L13.7478 15.4168C13.3911 14.4073 12.5927 13.6089 11.5832 13.2521L10.9168 15.1378ZM10.25 12.35V14.195H12.25V12.35H10.25ZM13.095 11.35H11.25V13.35H13.095V11.35ZM10.4 14.75C10.4004 14.75 10.4009 14.75 10.4015 14.75L10.3799 16.7499C10.3867 16.75 10.3934 16.75 10.4 16.75V14.75ZM10.3986 14.75C10.399 14.75 10.3995 14.75 10.4 14.75V16.75C10.4068 16.75 10.4135 16.75 10.4201 16.7499L10.3986 14.75ZM12.25 16.5856C12.2423 15.577 11.4279 14.7608 10.4201 14.75L10.3986 16.7499C10.3167 16.749 10.2507 16.6829 10.2501 16.6009L12.25 16.5856ZM12.25 16.6C12.25 16.6003 12.25 16.6007 12.25 16.6011L10.2501 16.5854C10.25 16.5903 10.25 16.5952 10.25 16.6H12.25ZM12.25 16.5991L12.25 16.6H10.25C10.25 16.6048 10.25 16.6095 10.2501 16.6142L12.25 16.5991ZM10.4001 18.4499C11.4169 18.4499 12.2421 17.6295 12.25 16.6144L10.2501 16.5989C10.2507 16.5164 10.3176 16.4499 10.4001 16.4499V18.4499ZM8.55005 16.5999C8.55005 17.6216 9.37833 18.4499 10.4001 18.4499V16.4499C10.4829 16.4499 10.5501 16.5171 10.5501 16.5999H8.55005ZM10.3799 14.75C9.36733 14.7609 8.55005 15.5849 8.55005 16.5999H10.5501C10.5501 16.6823 10.4838 16.749 10.4015 16.7499L10.3799 14.75Z" fill="#0C8D95" mask="url(#path-3-outside-2_25_331)"/>
</svg>
