<svg width="32" height="24" viewBox="0 0 32 24" fill="none" xmlns="http://www.w3.org/2000/svg">
<path fill-rule="evenodd" clip-rule="evenodd" d="M7.44462 13.2608V9.95437H7.4338C7.04673 9.46781 6.68824 8.95509 6.34485 8.40811C6.80128 7.64329 7.36 6.95981 7.95756 6.32657C8.51192 6.60125 9.05006 6.91242 9.55848 7.24355C9.77117 7.03545 10.0066 6.859 10.2422 6.68237C10.2883 6.64783 10.3351 6.61276 10.3811 6.57795C10.572 6.42702 10.7793 6.30388 10.9869 6.18064C11.0801 6.12532 11.1733 6.06993 11.2651 6.01205C11.1768 5.36673 11.1333 4.73142 11.1159 4.06836C11.8243 3.71726 12.5765 3.47606 13.339 3.29927C13.3973 3.28575 13.4557 3.27261 13.5141 3.25982C13.8289 3.78007 14.1174 4.34162 14.3708 4.89337C14.3708 4.89321 14.3709 4.89353 14.3708 4.89337C14.3821 4.91793 14.3935 4.94295 14.4047 4.96746C14.715 4.91642 15.0264 4.8975 15.339 4.89384H15.3449L15.3476 4.89362L15.3496 4.89342L15.3509 4.89337C15.663 4.89702 15.9747 4.91642 16.2849 4.96746C16.296 4.94295 16.3072 4.9184 16.3185 4.89384C16.3184 4.894 16.3186 4.89368 16.3185 4.89384C16.5721 4.3421 16.8609 3.78007 17.1753 3.25982C17.2339 3.27264 17.2924 3.28582 17.3509 3.29939C18.1136 3.47617 18.8656 3.71733 19.5739 4.06836C19.5564 4.73142 19.5129 5.36673 19.4249 6.01205C19.5172 6.07044 19.6112 6.12625 19.7052 6.18206C19.9118 6.30481 20.1185 6.4276 20.3086 6.57795C20.3532 6.61162 20.3978 6.64505 20.4424 6.67847C20.6799 6.85641 20.9169 7.03392 21.1311 7.24355C21.6395 6.91242 22.1778 6.60125 22.732 6.32657C23.3295 6.95981 23.8886 7.64329 24.3449 8.40811C24.0013 8.95509 23.6431 9.46781 23.2559 9.95437H23.2451V14.2734L23.2439 14.2738V14.6481L23.2479 15.2692L23.2467 15.2694L23.249 15.2692C23.249 15.2713 23.249 15.2734 23.249 15.2755C23.2489 15.2781 23.2489 15.2806 23.2489 15.2831C23.2489 15.286 23.2489 15.289 23.2489 15.2919C23.2481 15.4527 23.2465 15.6194 23.2453 15.7412C23.2452 15.7477 23.2452 15.7546 23.2451 15.7608C23.2444 15.835 23.2439 15.89 23.2439 15.9126C23.2439 18.6454 19.7244 19.959 15.3502 19.9741H15.3395C11.7931 19.9619 8.80776 19.0961 7.80483 17.3125C7.57073 16.8961 7.44464 16.4298 7.44464 15.9126C7.44464 15.8888 7.44408 15.8274 7.44333 15.7448C7.44218 15.6193 7.44059 15.4447 7.43984 15.2785C7.43982 15.2755 7.43981 15.2724 7.4398 15.2693C7.4398 15.2693 7.4398 15.2692 7.4398 15.2693L7.44466 14.6485M7.44462 14.6433V13.2608V14.6433ZM5.44462 13.0722V10.6438C5.16669 10.2642 4.90362 9.87393 4.65098 9.47151L4 8.43456L4.62743 7.3832C5.18181 6.45424 5.84231 5.65403 6.50296 4.95393L7.519 3.87721L8.84552 4.53449C8.94352 4.58305 9.04094 4.63254 9.13771 4.68289C9.12841 4.49571 9.1215 4.30858 9.11657 4.12095L9.08298 2.84375L10.2277 2.27638C11.1794 1.80472 12.1592 1.50906 13.0864 1.30608L14.4843 1.00008L15.2252 2.22436C15.2655 2.29102 15.3054 2.35809 15.3448 2.42548C15.3839 2.35846 15.4235 2.29177 15.4635 2.22547L16.204 1L17.6028 1.30604C18.5306 1.50904 19.5103 1.80472 20.462 2.27634L21.607 2.84376L21.5732 4.12119C21.5683 4.30873 21.5613 4.49575 21.552 4.68281C21.6487 4.63253 21.746 4.5831 21.8438 4.5346L23.1704 3.87708L24.1866 4.95393C24.8469 5.65368 25.508 6.45404 26.0624 7.38346L26.6897 8.43499L26.0385 9.47186C25.786 9.8739 25.5231 10.2641 25.2451 10.6438V13.0703L25.2592 13.0689L25.249 15.2785C25.2488 15.3042 25.2487 15.3301 25.2486 15.356L25.2591 16.9731L25.1288 16.9939C24.7265 18.8191 23.3239 20.0493 21.7895 20.7719C19.9968 21.6162 17.6982 21.966 15.3572 21.9741L15.3502 21.9741L15.3395 21.9741H15.3326C12.9915 21.966 10.6927 21.6162 8.89977 20.772C7.26523 20.0023 5.77972 18.6567 5.49402 16.6291L5.44462 16.6286V15.907C5.44461 15.9052 5.4446 15.903 5.44458 15.9003L5.44433 15.8671L5.4434 15.7614C5.44339 15.7608 5.44338 15.7603 5.44338 15.7597C5.44222 15.6326 5.44057 15.4509 5.43981 15.2779L5.4302 13.0709L5.44462 13.0722ZM7.44466 14.6485L7.44462 14.646L7.44466 14.6485ZM7.44462 14.646V14.6433V14.646Z" fill="#333333"/>
<path d="M7.44462 9.95437H7.4338C7.04673 9.46781 6.68824 8.95509 6.34485 8.40811C6.80128 7.64329 7.36 6.95981 7.95756 6.32657C8.51192 6.60125 9.05006 6.91242 9.55848 7.24355C9.77117 7.03545 10.0066 6.859 10.2422 6.68237C10.2883 6.64783 10.3351 6.61276 10.3811 6.57795C10.572 6.42702 10.7793 6.30388 10.9869 6.18064C11.0801 6.12532 11.1733 6.06993 11.2651 6.01205C11.1768 5.36673 11.1333 4.73142 11.1159 4.06836C11.8785 3.69041 12.6918 3.43981 13.5141 3.25982C13.843 3.80338 14.1432 4.39202 14.4047 4.96746C14.715 4.91642 15.0264 4.8975 15.339 4.89384C15.34 4.89384 15.341 4.89349 15.3419 4.89361C15.3429 4.89373 15.3439 4.89384 15.3449 4.89384C15.3452 4.89384 15.3446 4.89387 15.3449 4.89384L15.3476 4.89362L15.3496 4.89342L15.3509 4.89337C15.663 4.89702 15.9747 4.91642 16.2849 4.96746C16.5465 4.39202 16.8468 3.80338 17.1753 3.25982C17.9979 3.43981 18.8112 3.69041 19.5739 4.06836C19.5564 4.73142 19.5129 5.36673 19.4249 6.01205C19.5172 6.07044 19.6112 6.12625 19.7052 6.18206C19.9118 6.30481 20.1185 6.4276 20.3086 6.57795C20.3532 6.61162 20.3978 6.64505 20.4424 6.67847C20.6799 6.85641 20.9169 7.03392 21.1311 7.24355C21.6395 6.91242 22.1778 6.60125 22.732 6.32657C23.3295 6.95981 23.8886 7.64329 24.3449 8.40811C24.0013 8.95509 23.6431 9.46781 23.2559 9.95437H23.2451V14.2734L23.2439 14.2738V14.6481L23.2479 15.2692L23.2467 15.2694L23.249 15.2692C23.2482 15.4369 23.2465 15.6137 23.2453 15.7412C23.2445 15.8251 23.2439 15.8881 23.2439 15.9126C23.2439 18.6454 19.7244 19.959 15.3502 19.9741H15.3395C10.9653 19.959 7.44464 18.6454 7.44464 15.9126C7.44464 15.8888 7.44408 15.8274 7.44333 15.7448C7.44216 15.6169 7.44053 15.4382 7.4398 15.2693L7.44466 14.6485C7.44485 14.6484 7.44447 14.6485 7.44466 14.6485L7.44462 9.95437Z" fill="white"/>
<path fill-rule="evenodd" clip-rule="evenodd" d="M7.44461 14.2652L7.44462 9.95437H7.4338C7.04673 9.46781 6.68824 8.95509 6.34485 8.40811C6.80128 7.64329 7.36 6.95981 7.95756 6.32657C8.51192 6.60125 9.05006 6.91242 9.55848 7.24355C9.77117 7.03545 10.0066 6.859 10.2422 6.68237C10.2883 6.64783 10.3351 6.61276 10.3811 6.57795C10.572 6.42702 10.7793 6.30388 10.9869 6.18064C11.0801 6.12532 11.1733 6.06993 11.2651 6.01205C11.1768 5.36673 11.1333 4.73142 11.1159 4.06836C11.8785 3.69041 12.6918 3.43981 13.5141 3.25982C13.8158 3.75841 14.0934 4.29494 14.339 4.82442C14.3497 4.84742 14.3603 4.8704 14.3708 4.89337C14.3708 4.89321 14.3709 4.89353 14.3708 4.89337C14.3821 4.91793 14.3935 4.94295 14.4047 4.96746C14.715 4.91642 15.0264 4.8975 15.339 4.89384H15.3449L15.3476 4.89362L15.3496 4.89342L15.3509 4.89337C15.663 4.89702 15.9747 4.91642 16.2849 4.96746C16.296 4.94295 16.3072 4.9184 16.3185 4.89384C16.3184 4.894 16.3186 4.89368 16.3185 4.89384C16.3292 4.87061 16.3401 4.84689 16.3509 4.82363C16.5966 4.29441 16.8741 3.75817 17.1753 3.25982C17.9979 3.43981 18.8112 3.69041 19.5739 4.06836C19.5564 4.73142 19.5129 5.36673 19.4249 6.01205C19.5172 6.07044 19.6112 6.12625 19.7052 6.18206C19.9118 6.30481 20.1185 6.4276 20.3086 6.57795C20.3532 6.61162 20.3978 6.64505 20.4424 6.67847C20.6799 6.85641 20.9169 7.03392 21.1311 7.24355C21.6395 6.91242 22.1778 6.60125 22.732 6.32657C23.3295 6.95981 23.8886 7.64329 24.3449 8.40811C24.0013 8.95509 23.6431 9.46781 23.2559 9.95437H23.2451V14.2734L23.2439 14.2738V14.6481L23.2479 15.2692L23.2467 15.2694L23.249 15.2692C23.249 15.2713 23.249 15.2734 23.249 15.2755C23.2489 15.2781 23.2489 15.2806 23.2489 15.2831C23.2489 15.286 23.2489 15.289 23.2489 15.2919C23.2485 15.3701 23.2479 15.4497 23.2473 15.5249C23.2466 15.6043 23.2459 15.6786 23.2453 15.7412C23.2445 15.8251 23.2439 15.8881 23.2439 15.9126C23.2439 18.6454 19.7244 19.959 15.3502 19.9741H15.3395C11.164 19.9597 7.76619 18.7621 7.46617 16.2762C7.4519 16.1579 7.44464 16.0367 7.44464 15.9126C7.44464 15.8888 7.44408 15.8274 7.44333 15.7448C7.44218 15.6193 7.44059 15.4447 7.43984 15.2785C7.43982 15.2755 7.43981 15.2724 7.4398 15.2693C7.4398 15.2693 7.4398 15.2692 7.4398 15.2693L7.44466 14.6485M7.44462 14.6433L7.44461 14.2652L7.44462 14.6433ZM6.44461 14.1703V10.3116C6.11037 9.8731 5.79752 9.41704 5.49792 8.93981L5.17242 8.42134L5.48614 7.89566C5.99154 7.04877 6.60115 6.30692 7.23026 5.64025L7.73828 5.10189L8.40154 5.43053C8.76661 5.61142 9.12396 5.80655 9.47045 6.01172C9.52373 5.97118 9.57514 5.93265 9.62391 5.89611C9.62958 5.89187 9.63521 5.88764 9.64081 5.88345M9.64293 5.88186C9.68678 5.84899 9.72852 5.8177 9.76973 5.78652C9.91336 5.67368 10.0611 5.57484 10.198 5.48907C10.1536 5.02518 10.1286 4.56397 10.1162 4.09466L10.0994 3.45606L10.6718 3.17238C11.5289 2.74757 12.4255 2.47444 13.3003 2.28295L13.9992 2.12995L14.3696 2.74209C14.5953 3.11491 14.8064 3.50411 15.0007 3.89337H15.339C15.341 3.89337 15.343 3.89338 15.345 3.89339C15.3469 3.89338 15.3489 3.89337 15.3509 3.89337H15.689C15.8833 3.50421 16.0943 3.11522 16.3194 2.74265L16.6896 2.12991L17.389 2.28293C18.2643 2.47443 19.1608 2.74757 20.0179 3.17236L20.5904 3.45607L20.5736 4.09478C20.5612 4.56412 20.5361 5.02531 20.4918 5.48914C20.6285 5.57478 20.7762 5.67355 20.9197 5.78632C20.9595 5.81638 20.9998 5.84655 21.0419 5.87814L21.0606 5.89211C21.111 5.92985 21.1642 5.96968 21.2193 6.01163C21.5658 5.80649 21.9231 5.61142 22.2879 5.43058L22.9512 5.10183L23.4593 5.64025C24.0882 6.30675 24.6983 7.04867 25.2036 7.89579L25.5173 8.42156L25.1917 8.93999C24.8921 9.41697 24.5794 9.873 24.2451 10.3116V14.1698L24.2541 14.1689L24.249 15.2738C24.2489 15.3011 24.2487 15.3286 24.2485 15.356L24.2535 16.1212L24.2387 16.1236C24.1492 17.9074 22.9259 19.1314 21.3635 19.8672C19.7538 20.6253 17.6178 20.9663 15.3537 20.9741L15.3502 20.9741L15.3361 20.9741C13.072 20.9663 10.9357 20.6253 9.32576 19.8672C7.70232 19.1028 6.44464 17.8115 6.44464 15.9126C6.44464 15.8948 6.44415 15.8402 6.44337 15.7539C6.44336 15.7534 6.44335 15.752 6.44334 15.7515C6.44218 15.624 6.44055 15.4442 6.4398 15.2736L6.43499 14.1694L6.44461 14.1703M7.44466 14.6485L7.44462 14.646L7.44466 14.6485ZM7.44462 14.646V14.6433V14.646ZM9.64293 5.88186C9.64242 5.88224 9.64131 5.88307 9.64081 5.88345L9.64293 5.88186Z" fill="#0758A4"/>
</svg>
