<svg width="12" height="12" viewBox="0 0 12 12" fill="none" xmlns="http://www.w3.org/2000/svg">
<path d="M10.1585 2.07779C9.39367 1.72685 8.57349 1.46829 7.71595 1.3202C7.70033 1.31734 7.68473 1.32449 7.67669 1.33877C7.57121 1.52638 7.45437 1.77113 7.37255 1.9635C6.4502 1.82541 5.53259 1.82541 4.62916 1.9635C4.54732 1.76685 4.42624 1.52638 4.32029 1.33877C4.31224 1.32496 4.29664 1.31782 4.28102 1.3202C3.42395 1.46781 2.60378 1.72637 1.83847 2.07779C1.83184 2.08064 1.82616 2.08541 1.82239 2.0916C0.266696 4.41578 -0.159475 6.68283 0.0495901 8.92178C0.050536 8.93273 0.0566849 8.94321 0.065199 8.94987C1.0916 9.70364 2.08585 10.1612 3.06164 10.4646C3.07726 10.4693 3.0938 10.4636 3.10374 10.4507C3.33456 10.1355 3.54032 9.80317 3.71674 9.45365C3.72715 9.43318 3.71721 9.40889 3.69593 9.4008C3.36957 9.27699 3.0588 9.12605 2.75986 8.95463C2.73622 8.94082 2.73433 8.907 2.75608 8.89081C2.81899 8.84367 2.88191 8.79463 2.94198 8.74511C2.95285 8.73606 2.96799 8.73415 2.98077 8.73987C4.94464 9.6365 7.07077 9.6365 9.01148 8.73987C9.02425 8.73368 9.0394 8.73559 9.05074 8.74463C9.11082 8.79415 9.17373 8.84367 9.23711 8.89081C9.25886 8.907 9.25744 8.94082 9.2338 8.95463C8.93486 9.12938 8.62409 9.27699 8.29726 9.40032C8.27598 9.40842 8.26651 9.43318 8.27692 9.45365C8.45713 9.80268 8.66288 10.135 8.88945 10.4503C8.89891 10.4636 8.91593 10.4693 8.93155 10.4646C9.91207 10.1612 10.9063 9.70364 11.9327 8.94987C11.9417 8.94321 11.9474 8.9332 11.9483 8.92225C12.1985 6.33378 11.5292 4.08532 10.1741 2.09207C10.1708 2.08541 10.1651 2.08064 10.1585 2.07779ZM4.01001 7.55849C3.41875 7.55849 2.93157 7.01567 2.93157 6.34903C2.93157 5.68238 3.4093 5.13956 4.01001 5.13956C4.61544 5.13956 5.0979 5.68715 5.08844 6.34903C5.08844 7.01567 4.6107 7.55849 4.01001 7.55849ZM7.99737 7.55849C7.40613 7.55849 6.91895 7.01567 6.91895 6.34903C6.91895 5.68238 7.39666 5.13956 7.99737 5.13956C8.60282 5.13956 9.08527 5.68715 9.07582 6.34903C9.07582 7.01567 8.60282 7.55849 7.99737 7.55849Z" fill="white"/>
</svg>
