<svg width="32" height="24" viewBox="0 0 32 24" fill="none" xmlns="http://www.w3.org/2000/svg">
<path fill-rule="evenodd" clip-rule="evenodd" d="M2 17.384V10.45H5.45162C5.58658 9.25391 5.96639 8.14341 6.62565 7.17126C7.56535 5.78559 8.90493 5.104 10.4364 5.104C10.845 5.104 11.2572 5.15218 11.659 5.266H17.5321V5.53147C17.8786 5.36837 18.245 5.25372 18.6256 5.18449V1H25.707V11.638H26.67V17.384H20.694C20.2635 17.5113 19.8199 17.564 19.3817 17.564C18.2888 17.564 17.2749 17.2207 16.4422 16.4864C16.2487 17.5903 15.828 18.6042 15.1385 19.4681C14.0337 20.8659 12.4556 21.38 10.7895 21.38C9.78894 21.38 8.82424 21.1463 7.91176 20.6842C6.70725 20.0883 5.9173 18.9818 5.47478 17.647L5.3876 17.384H2ZM6.23885 15.384V12.45H3.78328V15.384H6.23885ZM7.14627 16.95C7.19687 17.1026 7.25246 17.2473 7.31302 17.384C7.42993 17.6479 7.56539 17.882 7.71942 18.0864C7.86295 18.2769 8.0226 18.4415 8.19836 18.5803C8.3354 18.6886 8.48224 18.7811 8.63887 18.858C8.71986 18.8992 8.8013 18.9379 8.88318 18.9742C9.49367 19.2447 10.1291 19.38 10.7895 19.38C10.7949 19.38 10.8002 19.38 10.8056 19.38C11.4288 19.3785 11.9774 19.2895 12.4515 19.1132C13.0049 18.9073 13.4566 18.5822 13.8068 18.138C14.4595 17.322 14.7858 16.266 14.7858 14.97V9.03H15.7488V7.266H12.7154V8.526C12.5121 8.106 12.2233 7.764 11.8488 7.5C11.7138 7.40485 11.5663 7.32685 11.4064 7.266C11.3072 7.22828 11.2032 7.19714 11.0944 7.1726C11.0415 7.16065 10.9874 7.15026 10.9322 7.14143C10.776 7.11648 10.6108 7.104 10.4364 7.104C10.2979 7.104 10.1635 7.11191 10.0332 7.12772C9.20682 7.22798 8.54411 7.64607 8.04504 8.382C7.63812 8.98205 7.37449 9.67138 7.25416 10.45C7.20363 10.7769 7.17837 11.1196 7.17837 11.478C7.17837 11.8248 7.20139 12.1488 7.24743 12.45C7.35265 13.1385 7.57812 13.7081 7.92384 14.1589C7.95559 14.2003 7.98835 14.2407 8.02212 14.2801C8.05552 14.319 8.08991 14.357 8.12529 14.394C8.60545 14.896 9.14751 15.2071 9.75148 15.3273C9.79556 15.336 9.83997 15.3438 9.88471 15.3505C10.0329 15.3728 10.1847 15.384 10.3401 15.384C10.4071 15.384 10.4726 15.3824 10.5366 15.3793C10.6652 15.373 10.7879 15.3604 10.9048 15.3415C10.9254 15.3382 10.9458 15.3346 10.966 15.3309C11.3105 15.2675 11.6021 15.1472 11.841 14.97C11.849 14.9641 11.8569 14.9581 11.8648 14.952C12.2393 14.664 12.5229 14.316 12.7154 13.908V14.97C12.7154 14.9958 12.7153 15.0214 12.7149 15.0469C12.7092 15.4425 12.6596 15.7931 12.5659 16.0986C12.4751 16.3947 12.3431 16.6484 12.1698 16.86C12.0945 16.9572 12.0145 17.0441 11.93 17.1206C11.8731 17.1721 11.8142 17.2189 11.7531 17.2609C11.4793 17.4497 11.1635 17.544 10.8056 17.544C10.8002 17.544 10.7948 17.544 10.7895 17.5439C10.5122 17.5418 10.253 17.4847 10.012 17.3727C9.89484 17.3182 9.78196 17.2508 9.67339 17.1703C9.3526 16.9327 9.06931 16.5816 8.8235 16.1171C8.7935 16.0604 8.76406 16.0021 8.73517 15.942L7.14627 16.95ZM11.983 9.24244C11.9154 9.18814 11.8444 9.14115 11.7702 9.10147C11.569 8.99382 11.3437 8.94 11.0944 8.94C11.0766 8.94 11.0589 8.94029 11.0412 8.94087C10.8222 8.94805 10.6206 8.99986 10.4364 9.0963C10.4315 9.09885 10.4267 9.10144 10.4218 9.10405C10.2446 9.19961 10.0836 9.33693 9.93888 9.516C9.63929 9.9 9.4895 10.506 9.4895 11.334C9.4895 12.114 9.62324 12.678 9.89073 13.026C10.0128 13.1787 10.1503 13.2979 10.3033 13.3836C10.3155 13.3904 10.3277 13.397 10.3401 13.4034C10.5265 13.4998 10.7352 13.548 10.966 13.548C10.9795 13.548 10.9929 13.5479 11.0062 13.5476C11.2969 13.542 11.5517 13.4751 11.7705 13.3469C11.841 13.3056 11.9078 13.2579 11.9709 13.2038C12.0806 13.1098 12.179 12.9965 12.2661 12.864C12.5656 12.408 12.7154 11.88 12.7154 11.28V11.082C12.7154 10.41 12.5603 9.888 12.25 9.516C12.1675 9.41025 12.0785 9.31907 11.983 9.24244ZM16.5691 9.6073C16.4383 10.0474 16.3582 10.5216 16.3289 11.03C16.3205 11.1765 16.3163 11.3258 16.3163 11.478C16.3163 12.1782 16.4006 12.797 16.5691 13.3341C16.7038 13.7635 16.8924 14.1408 17.1348 14.466C17.6231 15.121 18.2741 15.4829 19.0879 15.5518C19.1836 15.5599 19.2815 15.564 19.3817 15.564C19.6297 15.564 19.8592 15.5406 20.0701 15.4938C20.0761 15.4925 20.082 15.4912 20.0879 15.4898C20.2083 15.4622 20.3225 15.427 20.4307 15.384C20.625 15.3068 20.7996 15.2048 20.9546 15.078C21.3505 14.742 21.6501 14.34 21.8534 13.872V15.384H24.8867V13.638H23.9238V3H20.4089V4.764H21.8534V8.508C21.6501 8.1 21.3612 7.764 20.9867 7.5C20.7628 7.34216 20.5007 7.23151 20.2003 7.16804C20.1576 7.15903 20.1143 7.15097 20.0701 7.14387C19.9049 7.11729 19.729 7.104 19.5422 7.104C19.4018 7.104 19.2659 7.1112 19.1347 7.1256C18.4889 7.19642 17.9547 7.44151 17.5321 7.86087C17.3798 8.01196 17.2421 8.18567 17.1188 8.382C16.9897 8.58753 16.8762 8.80353 16.7783 9.03C16.6981 9.21542 16.6284 9.40785 16.5691 9.6073ZM21.3719 9.516C21.2296 9.33996 21.0705 9.20427 20.8945 9.10893C20.6867 8.99631 20.4552 8.94 20.2003 8.94C20.1934 8.94 20.1865 8.94004 20.1796 8.94013C19.9542 8.94297 19.7418 8.9922 19.5422 9.08782C19.5311 9.09314 19.5201 9.0986 19.5091 9.1042C19.3213 9.19976 19.1451 9.33703 18.9805 9.516C18.6381 9.9 18.4669 10.506 18.4669 11.334C18.4669 12.114 18.6274 12.708 18.9484 13.116C19.1027 13.3121 19.2706 13.4611 19.4521 13.5629C19.6353 13.6657 19.8323 13.7205 20.0432 13.7273C20.0542 13.7276 20.0652 13.7279 20.0762 13.728C20.0801 13.728 20.084 13.728 20.0879 13.728C20.4405 13.728 20.744 13.6203 20.9983 13.4048C21.0584 13.3539 21.1158 13.297 21.1704 13.2341C21.2423 13.1511 21.3095 13.0578 21.3719 12.954C21.5066 12.7375 21.613 12.5136 21.6912 12.2823C21.7993 11.9624 21.8534 11.6283 21.8534 11.28V11.082C21.8534 10.41 21.6929 9.888 21.3719 9.516Z" fill="#333333"/>
<path d="M3.78328 15.384V12.45H6.23885V15.384H3.78328Z" fill="white"/>
<path d="M15.7488 9.03H14.7858V14.97C14.7858 16.266 14.4595 17.322 13.8068 18.138C13.1541 18.966 12.1484 19.38 10.7895 19.38C10.0405 19.38 9.32365 19.206 8.63887 18.858C7.9541 18.522 7.45656 17.886 7.14627 16.95L8.73517 15.942C9.24875 17.01 9.93888 17.544 10.8056 17.544C11.3619 17.544 11.8167 17.316 12.1698 16.86C12.5335 16.416 12.7154 15.786 12.7154 14.97V13.908C12.5229 14.316 12.2393 14.664 11.8648 14.952C11.4903 15.24 10.9821 15.384 10.3401 15.384C9.49485 15.384 8.75657 15.054 8.12529 14.394C7.49401 13.734 7.17837 12.762 7.17837 11.478C7.17837 10.266 7.46726 9.234 8.04504 8.382C8.62282 7.53 9.41995 7.104 10.4364 7.104C11.0035 7.104 11.4743 7.236 11.8488 7.5C12.2233 7.764 12.5121 8.106 12.7154 8.526V7.266H15.7488V9.03ZM12.7154 11.28V11.082C12.7154 10.41 12.5603 9.888 12.25 9.516C11.9504 9.132 11.5652 8.94 11.0944 8.94C10.6344 8.94 10.2492 9.132 9.93888 9.516C9.63929 9.9 9.4895 10.506 9.4895 11.334C9.4895 12.114 9.62324 12.678 9.89073 13.026C10.1689 13.374 10.5274 13.548 10.966 13.548C11.5331 13.548 11.9665 13.32 12.2661 12.864C12.5656 12.408 12.7154 11.88 12.7154 11.28Z" fill="white"/>
<path d="M24.8867 15.384H21.8534V13.872C21.6501 14.34 21.3505 14.742 20.9546 15.078C20.5587 15.402 20.0344 15.564 19.3817 15.564C18.4295 15.564 17.6805 15.198 17.1348 14.466C16.5891 13.734 16.3163 12.738 16.3163 11.478C16.3163 10.266 16.5838 9.234 17.1188 8.382C17.6538 7.53 18.4616 7.104 19.5422 7.104C20.1307 7.104 20.6122 7.236 20.9867 7.5C21.3612 7.764 21.6501 8.1 21.8534 8.508V4.764H20.4089V3H23.9238V13.638H24.8867V15.384ZM21.8534 11.28V11.082C21.8534 10.41 21.6929 9.888 21.3719 9.516C21.0616 9.132 20.6711 8.94 20.2003 8.94C19.7402 8.94 19.3336 9.132 18.9805 9.516C18.6381 9.9 18.4669 10.506 18.4669 11.334C18.4669 12.114 18.6274 12.708 18.9484 13.116C19.2694 13.524 19.6492 13.728 20.0879 13.728C20.6336 13.728 21.0616 13.47 21.3719 12.954C21.6929 12.438 21.8534 11.88 21.8534 11.28Z" fill="white"/>
<path fill-rule="evenodd" clip-rule="evenodd" d="M2.89164 16.384V11.45H6.28678C6.29125 10.061 6.62889 8.81837 7.33535 7.77663C8.09408 6.65779 9.16244 6.104 10.4364 6.104C10.9263 6.104 11.3952 6.18531 11.8238 6.3724V6.266H16.6404V7.44963C17.3628 6.53173 18.3685 6.104 19.5422 6.104C20.0444 6.104 20.5251 6.18435 20.9617 6.37355V5.764H19.5173V2H24.8154V12.638H25.7784V16.384H20.9617V16.2221C20.4835 16.4623 19.9465 16.564 19.3817 16.564C18.2009 16.564 17.1874 16.0955 16.4508 15.1074C16.0983 14.6345 15.8445 14.0928 15.6775 13.4957V14.97C15.6775 16.4637 15.2966 17.7715 14.4726 18.8031C13.5938 19.916 12.3018 20.38 10.7895 20.38C9.91498 20.38 9.0744 20.1763 8.27599 19.7715C7.33087 19.3056 6.68695 18.434 6.31053 17.2985L6.04561 16.4994L6.22745 16.384H2.89164ZM7.13049 15.8111L7.79233 15.3912C7.69862 15.3078 7.60693 15.2192 7.5173 15.1255C7.37504 14.9767 7.2463 14.818 7.13049 14.6501V15.8111ZM8.64832 14.8482C8.88878 15.0179 9.14231 15.1473 9.40892 15.2364C9.70337 15.3348 10.0138 15.384 10.3401 15.384C10.9589 15.384 11.4535 15.2502 11.8238 14.9826C11.8296 14.9784 11.8353 14.9742 11.841 14.97C11.849 14.9641 11.8569 14.9581 11.8648 14.952C12.2393 14.664 12.5229 14.316 12.7154 13.908V14.97C12.7154 15.1585 12.7057 15.337 12.6863 15.5056C12.6217 16.0671 12.4495 16.5185 12.1698 16.86C11.8167 17.316 11.3619 17.544 10.8056 17.544C9.98762 17.544 9.32694 17.0684 8.8235 16.1171C8.81183 16.0951 8.80025 16.0728 8.78875 16.0502C8.77068 16.0148 8.75282 15.9787 8.73517 15.942L7.14627 16.95C7.45656 17.886 7.9541 18.522 8.63887 18.858C9.32365 19.206 10.0405 19.38 10.7895 19.38C12.1484 19.38 13.1541 18.966 13.8068 18.138C14.4595 17.322 14.7858 16.266 14.7858 14.97V9.03H15.7488V7.266H12.7154V8.526C12.5121 8.106 12.2233 7.764 11.8488 7.5C11.8405 7.49417 11.8322 7.4884 11.8238 7.48269C11.4534 7.23023 10.991 7.104 10.4364 7.104C9.41995 7.104 8.62282 7.53 8.04504 8.382C7.46726 9.234 7.17837 10.266 7.17837 11.478C7.17837 12.762 7.49401 13.734 8.12529 14.394C8.29216 14.5685 8.4665 14.7199 8.64832 14.8482ZM12.25 9.516C11.9504 9.132 11.5652 8.94 11.0944 8.94C10.6344 8.94 10.2492 9.132 9.93888 9.516C9.63929 9.9 9.4895 10.506 9.4895 11.334C9.4895 12.114 9.62324 12.678 9.89073 13.026C10.1689 13.374 10.5274 13.548 10.966 13.548C11.5331 13.548 11.9665 13.32 12.2661 12.864C12.5656 12.408 12.7154 11.88 12.7154 11.28V11.082C12.7154 10.41 12.5603 9.888 12.25 9.516ZM10.5617 12.3672C10.6592 12.4856 10.7704 12.548 10.966 12.548C11.2899 12.548 11.4391 12.4369 11.5482 12.2708C11.728 11.9972 11.8238 11.68 11.8238 11.28V11.082C11.8238 10.5806 11.7105 10.333 11.5989 10.1992L11.5887 10.187L11.579 10.1745C11.4553 10.016 11.3183 9.94 11.0944 9.94C10.8902 9.94 10.7458 10.0096 10.6056 10.1801C10.5138 10.3021 10.3811 10.6179 10.3811 11.334C10.3811 12.0112 10.5011 12.2831 10.5617 12.3672ZM16.4613 10.03C16.3646 10.4801 16.3163 10.9628 16.3163 11.478C16.3163 12.738 16.5891 13.734 17.1348 14.466C17.6805 15.198 18.4295 15.564 19.3817 15.564C20.0344 15.564 20.5587 15.402 20.9546 15.078C20.957 15.076 20.9594 15.074 20.9617 15.0719C21.3497 14.7409 21.6447 14.346 21.8466 13.8874C21.8489 13.8823 21.8511 13.8772 21.8534 13.872V15.384H24.8867V13.638H23.9238V3H20.4089V4.764H21.8534V8.508C21.6501 8.1 21.3612 7.764 20.9867 7.5C20.9784 7.49417 20.9701 7.4884 20.9617 7.4827C20.5909 7.23023 20.1177 7.104 19.5422 7.104C18.4616 7.104 17.6538 7.53 17.1188 8.382C16.9238 8.69251 16.7644 9.02693 16.6404 9.38526C16.5689 9.5922 16.5092 9.80711 16.4613 10.03ZM21.797 10.4447C21.7247 10.0703 21.583 9.76068 21.3719 9.516C21.3431 9.48035 21.3136 9.44636 21.2834 9.41402C20.9884 9.09801 20.6274 8.94 20.2003 8.94C19.7402 8.94 19.3336 9.132 18.9805 9.516C18.6381 9.9 18.4669 10.506 18.4669 11.334C18.4669 12.114 18.6274 12.708 18.9484 13.116C19.2694 13.524 19.6492 13.728 20.0879 13.728C20.6336 13.728 21.0616 13.47 21.3719 12.954C21.6929 12.438 21.8534 11.88 21.8534 11.28V11.082C21.8534 10.852 21.8346 10.6396 21.797 10.4447ZM19.607 10.2277C19.5021 10.3486 19.3586 10.6435 19.3586 11.334C19.3586 11.9747 19.4912 12.2945 19.617 12.4544C19.7888 12.6728 19.9339 12.728 20.0879 12.728C20.3312 12.728 20.4847 12.6408 20.6327 12.3949L20.6366 12.3883L20.6406 12.3818C20.8626 12.025 20.9617 11.6651 20.9617 11.28V11.082C20.9617 10.5893 20.8475 10.3462 20.7312 10.2114L20.721 10.1997L20.7112 10.1875C20.5735 10.0171 20.4248 9.94 20.2003 9.94C19.991 9.94 19.8042 10.0156 19.607 10.2277ZM10.2335 16.3826C10.4197 16.4999 10.6104 16.544 10.8056 16.544C11.1021 16.544 11.3038 16.4415 11.4767 16.2293C11.1189 16.3376 10.7357 16.384 10.3401 16.384C10.3044 16.384 10.2689 16.3835 10.2335 16.3826ZM3.78328 12.45H6.23885V15.384H3.78328V12.45Z" fill="#FF5C00"/>
</svg>
