<svg width="12" height="12" viewBox="0 0 12 12" fill="none" xmlns="http://www.w3.org/2000/svg">
<g clip-path="url(#clip0_105_105)">
<path fill-rule="evenodd" clip-rule="evenodd" d="M6.00013 0.25C4.57575 0.250739 3.19807 0.755229 2.11343 1.67326C1.0288 2.59129 0.307952 3.86301 0.0797723 5.261C-0.148407 6.65899 0.130963 8.09211 0.867935 9.30409C1.60491 10.5161 2.75142 11.4279 4.10246 11.8765C4.40053 11.9318 4.5128 11.7471 4.5128 11.59C4.5128 11.4329 4.50684 10.9775 4.50485 10.4796C2.8357 10.8402 2.48299 9.77524 2.48299 9.77524C2.21076 9.08372 1.81732 8.90195 1.81732 8.90195C1.27286 8.53248 1.85806 8.53939 1.85806 8.53939C2.46114 8.58187 2.77808 9.15485 2.77808 9.15485C3.3126 10.0667 4.18195 9.8029 4.52373 9.64879C4.57738 9.26253 4.73337 8.99975 4.90525 8.85058C3.57192 8.70042 2.17102 8.18869 2.17102 5.90271C2.16276 5.30985 2.38401 4.73653 2.78901 4.30134C2.72741 4.15118 2.52174 3.54462 2.84762 2.72072C2.84762 2.72072 3.35135 2.56068 4.4979 3.33222C5.48133 3.06481 6.51893 3.06481 7.50237 3.33222C8.64792 2.56068 9.15065 2.72072 9.15065 2.72072C9.47753 3.54264 9.27187 4.14921 9.21027 4.30134C9.61654 4.7366 9.83826 5.31092 9.82924 5.90469C9.82924 8.19561 8.42537 8.70042 7.09005 8.84761C7.30465 9.03334 7.49641 9.39589 7.49641 9.95306C7.49641 10.7513 7.48945 11.3934 7.48945 11.59C7.48945 11.749 7.59774 11.9348 7.90177 11.8765C9.25297 11.4278 10.3996 10.5159 11.1366 9.30367C11.8735 8.09148 12.1527 6.65815 11.9243 5.26003C11.6959 3.8619 10.9747 2.59018 9.88966 1.6723C8.80468 0.754428 7.42667 0.250271 6.00212 0.25H6.00013Z" fill="white"/>
<path d="M2.27222 8.81606C2.2593 8.8457 2.21161 8.85459 2.17286 8.83385C2.13412 8.8131 2.10531 8.77457 2.11921 8.74395C2.13312 8.71332 2.17982 8.70542 2.21857 8.72616C2.25732 8.74691 2.28712 8.78643 2.27222 8.81606Z" fill="white"/>
<path d="M2.51565 9.08569C2.49507 9.096 2.47153 9.09888 2.44906 9.09383C2.42658 9.08879 2.40657 9.07613 2.39245 9.05803C2.3537 9.01654 2.34575 8.95924 2.37555 8.93356C2.40536 8.90787 2.45901 8.91973 2.49776 8.96122C2.53651 9.00271 2.54545 9.06001 2.51565 9.08569Z" fill="white"/>
<path d="M2.75212 9.42851C2.71536 9.4542 2.65276 9.42852 2.61799 9.37715C2.60838 9.36793 2.60073 9.35688 2.59551 9.34466C2.59028 9.33244 2.58759 9.3193 2.58759 9.30602C2.58759 9.29274 2.59028 9.2796 2.59551 9.26737C2.60073 9.25515 2.60838 9.24411 2.61799 9.23489C2.65475 9.21019 2.71735 9.23489 2.75212 9.28527C2.7869 9.33565 2.78789 9.40283 2.75212 9.42851Z" fill="white"/>
<path d="M3.07303 9.76037C3.04024 9.79693 2.97367 9.78705 2.91903 9.73765C2.86438 9.68826 2.85147 9.62108 2.88425 9.58552C2.91704 9.54995 2.98361 9.55983 3.04024 9.60824C3.09687 9.65665 3.1078 9.72481 3.07303 9.76037Z" fill="white"/>
<path d="M3.52309 9.95407C3.50818 10.0005 3.44062 10.0212 3.37306 10.0015C3.3055 9.98173 3.26079 9.92641 3.27371 9.87899C3.28662 9.83157 3.35518 9.80984 3.42373 9.83157C3.49229 9.85331 3.536 9.90566 3.52309 9.95407Z" fill="white"/>
<path d="M4.01392 9.98759C4.01392 10.036 3.95828 10.0775 3.88675 10.0785C3.81521 10.0795 3.75659 10.0399 3.75659 9.99154C3.75659 9.94313 3.81223 9.90164 3.88376 9.90065C3.9553 9.89967 4.01392 9.93819 4.01392 9.98759Z" fill="white"/>
<path d="M4.47095 9.91158C4.47989 9.95999 4.43021 10.0104 4.35868 10.0222C4.28714 10.0341 4.22455 10.0054 4.21561 9.95801C4.20667 9.91059 4.25833 9.85923 4.32788 9.84638C4.39743 9.83354 4.46201 9.86318 4.47095 9.91158Z" fill="white"/>
</g>
<defs>
<clipPath id="clip0_105_105">
<rect width="12" height="12" fill="white"/>
</clipPath>
</defs>
</svg>
