<svg width="32" height="24" viewBox="0 0 32 24" fill="none" xmlns="http://www.w3.org/2000/svg">
<path fill-rule="evenodd" clip-rule="evenodd" d="M22.8443 13.27L22.717 13.792L22.6173 14.1936L21.6609 12.3766L23.6595 12.7995L23.3099 13.0022L23.3071 13.0039L22.8443 13.27ZM19.9502 11.0806L26.1736 12.3976L23.7626 13.7958L23.6351 13.8692L23.6002 14.0126L23.501 14.412L23.5007 14.4129L22.9249 16.7319L19.9502 11.0806ZM19.0055 10.7535C18.9956 10.7347 18.9872 10.7145 18.981 10.6944C18.9681 10.6529 18.9632 10.6091 18.9667 10.5654L18.9668 10.5634C18.9706 10.5195 18.9827 10.4769 19.0023 10.4379C19.0104 10.4218 19.0198 10.4063 19.0304 10.3916C19.0316 10.3899 19.0329 10.3882 19.0341 10.3865C19.0373 10.3824 19.0405 10.3783 19.0438 10.3742C19.0669 10.3462 19.0943 10.3221 19.1248 10.3028C19.1442 10.2905 19.1649 10.2802 19.1866 10.272L19.1884 10.2713C19.2472 10.2496 19.3109 10.2445 19.3723 10.2567L19.3735 10.2569L19.3746 10.2572L19.3765 10.2576L27.1893 11.9293L27.1995 11.9279C27.267 11.9433 27.3283 11.979 27.3752 12.0303C27.4221 12.0815 27.4524 12.1458 27.4621 12.2147C27.4718 12.2836 27.4604 12.3538 27.4294 12.416C27.3984 12.4782 27.3494 12.5294 27.2887 12.5628L24.2293 14.3223L23.3903 17.764C23.3741 17.8307 23.3384 17.8909 23.2877 17.937C23.2371 17.983 23.1738 18.0126 23.1062 18.022C23.0368 18.0318 22.966 18.0198 22.9036 17.9877C22.8411 17.9555 22.79 17.9049 22.7572 17.8426L19.0055 10.7535ZM19.2026 9.34024C19.2333 9.3377 19.2641 9.33631 19.295 9.33606C19.3844 9.33535 19.474 9.34426 19.5624 9.36294L19.5647 9.36342L19.6014 9.37127L19.2646 6.97492L18.589 7.06987L18.4682 6.20975L20.8101 5.88061L20.931 6.74073L20.2644 6.83441L20.6526 9.5962L24.4473 10.4082L23.4984 3.65623C23.3578 2.65617 22.4373 1.95881 21.4424 2.09864L4.77858 4.44058C3.78364 4.58041 3.09102 5.50448 3.23157 6.50454L4.50401 15.5584C4.64456 16.5585 5.56506 17.2558 6.55999 17.116L20.3195 15.1822L18.2011 11.1792L18.1997 11.1766C18.1555 11.0922 18.1213 11.0035 18.0973 10.9122C18.0916 10.8902 18.0864 10.868 18.0818 10.8457C18.0683 10.7803 18.0601 10.7137 18.0571 10.6467C18.056 10.6215 18.0557 10.5962 18.0561 10.5709C18.0565 10.5452 18.0577 10.5195 18.0597 10.4937L18.0598 10.4917C18.0624 10.4594 18.0662 10.4273 18.0712 10.3955C18.0912 10.2681 18.1305 10.1448 18.1877 10.0299C18.2155 9.97388 18.2476 9.91988 18.2837 9.86836L18.2396 9.78458L18.3318 9.8041C18.3468 9.78535 18.3624 9.76706 18.3784 9.74926C18.4029 9.72205 18.4285 9.69598 18.4552 9.6711C18.5078 9.622 18.5646 9.57757 18.6248 9.53831C18.6455 9.52479 18.6666 9.51189 18.6881 9.49961C18.7202 9.48133 18.7531 9.46444 18.7868 9.44903C18.7928 9.44627 18.7989 9.44355 18.8049 9.44089C18.8245 9.43231 18.8443 9.42423 18.8643 9.41665L18.8662 9.41595C18.9083 9.40007 18.9511 9.38654 18.9945 9.37538C19.0082 9.37184 19.022 9.36854 19.0358 9.36548C19.0909 9.35328 19.1466 9.34486 19.2026 9.34024ZM17.4113 7.23538L17.9518 7.15943L17.8309 6.29931L15.606 6.61199L15.7269 7.47211L16.4745 7.36704L16.8397 9.9655C16.8611 10.1179 16.8706 10.2619 16.868 10.3975C16.8673 10.4354 16.8657 10.4726 16.8631 10.5091C16.8604 10.5474 16.8567 10.585 16.8519 10.6219C16.8419 10.6997 16.8274 10.7742 16.8083 10.8456C16.8076 10.848 16.807 10.8505 16.8063 10.8529C16.7698 10.9866 16.7173 11.109 16.6487 11.2203C16.5959 11.3039 16.5331 11.3788 16.4601 11.4452C16.4583 11.4468 16.4566 11.4484 16.4548 11.45C16.3855 11.5121 16.3073 11.5666 16.2201 11.6135C16.0506 11.7046 15.8471 11.7669 15.6096 11.8003C15.5914 11.8028 15.5733 11.8052 15.5554 11.8073C15.0784 11.8643 14.7136 11.7716 14.461 11.529L14.4598 11.5279C14.2021 11.2745 14.0393 10.9219 13.9715 10.4702C13.9701 10.4612 13.9688 10.4521 13.9675 10.443L13.5921 7.77213L14.3217 7.66959L14.2009 6.80948L11.913 7.13102L12.0339 7.99114L12.5923 7.91265L12.9715 10.6107C12.9723 10.6167 12.9732 10.6228 12.9741 10.6288C13.0483 11.1375 13.2288 11.5834 13.5155 11.9665C13.5815 12.0547 13.6533 12.1397 13.7306 12.2213C13.7384 12.2295 13.7462 12.2376 13.7542 12.2456C13.7566 12.248 13.759 12.2505 13.7614 12.2529C13.7666 12.258 13.7717 12.2631 13.777 12.2681C14.1951 12.6724 14.8295 12.8147 15.6802 12.6952C15.6983 12.6926 15.7163 12.69 15.7342 12.6872C16.069 12.636 16.3588 12.5524 16.6035 12.4363C16.7871 12.3492 16.9453 12.2438 17.0782 12.1201C17.1699 12.0362 17.2526 11.9481 17.3261 11.8559C17.3631 11.8095 17.3979 11.762 17.4303 11.7136C17.4321 11.7109 17.4338 11.7082 17.4356 11.7056C17.4736 11.6482 17.5083 11.5894 17.5399 11.5291L17.5415 11.5261C17.5844 11.4438 17.6213 11.3588 17.6523 11.2711C17.6754 11.2059 17.6951 11.1392 17.7115 11.0709C17.7383 10.9636 17.7595 10.856 17.7752 10.7481C17.782 10.7014 17.7878 10.6547 17.7925 10.6079C17.7971 10.5625 17.8007 10.517 17.8033 10.4715C17.81 10.3549 17.8103 10.238 17.8042 10.1207C17.8024 10.0863 17.8 10.0519 17.7971 10.0175C17.792 9.95635 17.7851 9.89514 17.7765 9.83385L17.4113 7.23538ZM10.9124 7.89023C10.8197 7.82433 10.7142 7.76517 10.5959 7.71276C10.4271 7.63802 10.2324 7.577 10.0115 7.52968C10.0007 7.52737 9.98988 7.52509 9.97897 7.52285C9.96849 7.52053 9.95797 7.51827 9.94743 7.51607C9.56394 7.43587 9.14135 7.42822 8.67965 7.4931C8.67364 7.49395 8.66764 7.4948 8.66164 7.49567C7.79756 7.62077 7.14988 7.97912 6.71861 8.57073C6.68693 8.61417 6.65643 8.65888 6.62709 8.70484C6.1986 9.37615 6.04092 10.1277 6.15406 10.9595C6.15488 10.9655 6.15571 10.9715 6.15656 10.9776C6.27532 11.8226 6.61862 12.5007 7.18646 13.0118C7.21908 13.0405 7.25209 13.0682 7.2855 13.0949C7.80459 13.5097 8.419 13.6824 9.12874 13.6129C9.17573 13.6083 9.22314 13.6026 9.27097 13.5959C9.32912 13.5877 9.38595 13.5782 9.44146 13.5672C9.63018 13.5299 9.80367 13.4763 9.96193 13.4065C10.0744 13.3569 10.1792 13.2991 10.2763 13.233C10.3896 13.156 10.4921 13.0731 10.5838 12.9844C10.6655 12.9054 10.7386 12.8218 10.8031 12.7336C10.8306 12.696 10.8565 12.6576 10.8809 12.6184C10.8825 12.6159 10.884 12.6134 10.8855 12.6109C10.8935 12.598 10.9013 12.5849 10.909 12.5717L11.1048 13.2459L11.8794 13.137L11.5549 10.8283L11.9062 10.7789L11.7854 9.91877L9.19121 10.2834L9.31209 11.1435L10.5551 10.9688L10.5857 11.1861C10.5897 11.2147 10.5929 11.2431 10.5953 11.2713C10.6231 11.596 10.543 11.8854 10.3551 12.1394C10.3467 12.1507 10.3382 12.1619 10.3294 12.1731C10.318 12.1872 10.3063 12.2011 10.2942 12.2147C10.167 12.3586 10.0069 12.4714 9.81385 12.5529C9.80256 12.5576 9.79115 12.5623 9.77964 12.5669C9.69963 12.5985 9.61418 12.625 9.5233 12.6463C9.45752 12.6618 9.38889 12.6745 9.31741 12.6846C9.25915 12.6928 9.2018 12.6986 9.14535 12.7021C8.68397 12.7304 8.2831 12.6013 7.94272 12.3146C7.91835 12.2941 7.89457 12.2728 7.87136 12.2508C7.86858 12.2482 7.86581 12.2455 7.86305 12.2429C7.64489 12.0332 7.47882 11.758 7.36483 11.4171C7.3405 11.3444 7.31855 11.2687 7.29897 11.19C7.27044 11.0753 7.24695 10.9543 7.22849 10.8269C7.22762 10.8209 7.22676 10.8149 7.22591 10.8088C7.13599 10.169 7.21312 9.64435 7.45729 9.23476C7.47802 9.19997 7.49997 9.16601 7.52312 9.13288C7.6833 8.90363 7.88029 8.72521 8.11407 8.59761C8.31183 8.48968 8.53592 8.41811 8.78634 8.38292C8.79235 8.38207 8.79836 8.38124 8.80436 8.38043C8.84394 8.37507 8.88309 8.37043 8.92181 8.36652C9.03972 8.35461 9.15367 8.34942 9.26365 8.35094C9.44751 8.35348 9.62031 8.3748 9.78204 8.41488C9.78627 8.41593 9.7905 8.417 9.79472 8.41807C9.90383 8.44588 10.0079 8.48228 10.1068 8.52729C10.1282 8.53703 10.1494 8.54717 10.1703 8.55772L10.4368 9.27735L11.245 9.08066L10.9124 7.89023ZM20.1667 17.2234L6.83834 19.0966C4.74 19.3915 2.8164 17.921 2.52348 15.8368L1.25103 6.78289C0.958109 4.69862 2.40189 2.75495 4.50023 2.46005L21.164 0.118102C23.2624 -0.176801 25.186 1.29361 25.4789 3.37788L26.3686 9.70845L27.5014 9.95083C27.5495 9.95818 27.5974 9.96729 27.645 9.97816C28.1098 10.0844 28.5298 10.3297 28.8503 10.6797C29.1706 11.0296 29.3768 11.4679 29.4426 11.9364C29.5085 12.4048 29.4311 12.883 29.2196 13.3077C29.0119 13.7247 28.6841 14.0712 28.2771 14.3016L25.9694 15.6287L25.3334 18.2377L25.1484 18.7449C24.9736 18.9516 25.0594 18.8474 24.816 18.969C24.6257 19.0641 24.2277 19.3792 24.2277 19.3792L23.3653 19.8661L21.9758 19.3682" fill="#333333"/>
<path d="M22.3168 20.1527C21.4689 19.8679 20.3184 17.9089 19.8491 16.9651L26.1467 15.0702C25.9299 17.1203 25.218 19.24 24.7924 19.8047C24.4915 20.204 23.3766 20.5086 22.3168 20.1527Z" fill="#333333"/>
<mask id="path-2-outside-1_25_326" maskUnits="userSpaceOnUse" x="1.87007" y="0.222665" width="28.2521" height="21.4433" fill="black">
<rect fill="white" x="1.87007" y="0.222665" width="28.2521" height="21.4433"/>
<path fill-rule="evenodd" clip-rule="evenodd" d="M3.254 6.50304C3.11345 5.50297 3.80607 4.57891 4.801 4.43908L21.4648 2.09713C22.4598 1.9573 23.3802 2.65466 23.5208 3.65473L24.4697 10.4067L20.675 9.59469L20.2868 6.8329L20.9534 6.73922L20.8325 5.8791L18.4906 6.20824L18.6115 7.06836L19.287 6.97342L19.6238 9.36976L19.5871 9.36191L19.5848 9.36143C19.3524 9.31231 19.1109 9.3307 18.8886 9.41444C18.6788 9.49347 18.4944 9.62763 18.3543 9.8026L18.262 9.78307L18.3061 9.86685C18.1774 10.0505 18.1 10.2657 18.0823 10.4902C18.0634 10.7281 18.1124 10.9666 18.2235 11.1777L20.342 15.1807L6.58242 17.1145C5.58748 17.2543 4.66699 16.557 4.52644 15.5569L3.254 6.50304ZM11.5774 10.8267L11.9287 10.7774L11.8078 9.91726L9.21363 10.2818L9.33452 11.142L10.5775 10.9673L10.6081 11.1846C10.6607 11.5588 10.5753 11.8878 10.3518 12.1715C10.1275 12.4493 9.79022 12.6198 9.33984 12.6831C8.8054 12.7582 8.34717 12.6349 7.96515 12.3131C7.58313 11.9913 7.34419 11.4894 7.24833 10.8073C7.15078 10.1132 7.24985 9.55455 7.54554 9.13137C7.84124 8.7082 8.26231 8.45821 8.80877 8.38141C9.34921 8.30545 9.81055 8.36372 10.1928 8.55621L10.4592 9.27584L11.2675 9.07916L10.9348 7.88872C10.7035 7.72427 10.3924 7.60181 10.0014 7.52134C9.60958 7.43484 9.17647 7.42493 8.70208 7.4916C7.7653 7.62325 7.08112 8.02717 6.64952 8.70334C6.21792 9.37951 6.06108 10.1371 6.17899 10.9761C6.29775 11.8211 6.64105 12.4992 7.20889 13.0103C7.78189 13.5145 8.47672 13.7092 9.2934 13.5944C9.68973 13.5387 10.0248 13.4178 10.2987 13.2315C10.5726 13.0453 10.7835 12.8249 10.9314 12.5702L11.1272 13.2444L11.9018 13.1355L11.5774 10.8267ZM17.4337 7.23388L17.9742 7.15792L17.8533 6.2978L15.6285 6.61049L15.7493 7.47061L16.497 7.36553L16.8621 9.964C16.9343 10.4771 16.8706 10.8953 16.6711 11.2188C16.4708 11.5362 16.1244 11.7296 15.632 11.7988C15.1276 11.8697 14.7443 11.7789 14.4823 11.5264C14.2194 11.2679 14.0553 10.9063 13.9899 10.4415L13.6146 7.77063L14.3442 7.66809L14.2233 6.80797L11.9354 7.12951L12.0563 7.98963L12.6147 7.91114L12.9939 10.6092C13.083 11.243 13.336 11.7798 13.753 12.2198C14.17 12.6598 14.8199 12.8177 15.7026 12.6937C16.3151 12.6076 16.7812 12.4159 17.1007 12.1186C17.4262 11.8205 17.6373 11.4708 17.734 11.0694C17.8358 10.6612 17.8575 10.2488 17.7989 9.83234L17.4337 7.23388Z"/>
<path d="M24.6051 11.3701L20.8104 10.5581L20.8722 10.9977L21.5387 10.904L21.6121 11.426L24.705 12.0805L24.6051 11.3701Z"/>
<path d="M24.7953 13.2084L23.785 13.7943L23.6575 13.8677L23.6226 14.0111L23.4431 14.7338C24.169 14.549 24.6982 13.9358 24.7953 13.2084Z"/>
<path d="M22.0084 14.9465L21.3004 15.046L19.7087 12.0383L20.4246 11.9377L22.0084 14.9465Z"/>
<path d="M19.2766 11.2219L19.8723 11.1382L19.7592 10.3332L19.3989 10.2561C19.3355 10.2427 19.2696 10.2477 19.209 10.2705C19.1484 10.2934 19.0955 10.3331 19.0566 10.385C19.0176 10.437 18.9942 10.499 18.9891 10.5639C18.984 10.6288 18.9973 10.6938 19.0276 10.7514L19.2766 11.2219Z"/>
<path d="M23.3323 13.0007L23.6819 12.798L21.6833 12.3751L22.6397 14.192L22.7395 13.7905L22.8667 13.2685L23.3295 13.0024L23.3323 13.0007Z"/>
<path d="M27.2118 11.9278L19.3989 10.2561C19.3355 10.2427 19.2696 10.2477 19.209 10.2705C19.1484 10.2934 19.0955 10.3331 19.0566 10.385C19.0176 10.437 18.9942 10.499 18.9891 10.5639C18.984 10.6288 18.9973 10.6938 19.0276 10.7514L22.7796 17.8411C22.8124 17.9034 22.8635 17.954 22.926 17.9861C22.9884 18.0183 23.0592 18.0303 23.1286 18.0205C23.1963 18.0111 23.2595 17.9815 23.3102 17.9354C23.3608 17.8894 23.3965 17.8292 23.4127 17.7625L24.2517 14.3208L27.3111 12.5613C27.3718 12.5279 27.4209 12.4767 27.4518 12.4145C27.4828 12.3523 27.4942 12.2821 27.4845 12.2132C27.4748 12.1443 27.4445 12.08 27.3976 12.0288C27.3507 11.9775 27.2894 11.9418 27.2219 11.9264L27.2118 11.9278ZM23.785 13.7943L23.6575 13.8677L23.6226 14.0111L22.9473 16.7304L19.9727 11.0791L26.196 12.396L23.785 13.7943Z"/>
</mask>
<path fill-rule="evenodd" clip-rule="evenodd" d="M3.254 6.50304C3.11345 5.50297 3.80607 4.57891 4.801 4.43908L21.4648 2.09713C22.4598 1.9573 23.3802 2.65466 23.5208 3.65473L24.4697 10.4067L20.675 9.59469L20.2868 6.8329L20.9534 6.73922L20.8325 5.8791L18.4906 6.20824L18.6115 7.06836L19.287 6.97342L19.6238 9.36976L19.5871 9.36191L19.5848 9.36143C19.3524 9.31231 19.1109 9.3307 18.8886 9.41444C18.6788 9.49347 18.4944 9.62763 18.3543 9.8026L18.262 9.78307L18.3061 9.86685C18.1774 10.0505 18.1 10.2657 18.0823 10.4902C18.0634 10.7281 18.1124 10.9666 18.2235 11.1777L20.342 15.1807L6.58242 17.1145C5.58748 17.2543 4.66699 16.557 4.52644 15.5569L3.254 6.50304ZM11.5774 10.8267L11.9287 10.7774L11.8078 9.91726L9.21363 10.2818L9.33452 11.142L10.5775 10.9673L10.6081 11.1846C10.6607 11.5588 10.5753 11.8878 10.3518 12.1715C10.1275 12.4493 9.79022 12.6198 9.33984 12.6831C8.8054 12.7582 8.34717 12.6349 7.96515 12.3131C7.58313 11.9913 7.34419 11.4894 7.24833 10.8073C7.15078 10.1132 7.24985 9.55455 7.54554 9.13137C7.84124 8.7082 8.26231 8.45821 8.80877 8.38141C9.34921 8.30545 9.81055 8.36372 10.1928 8.55621L10.4592 9.27584L11.2675 9.07916L10.9348 7.88872C10.7035 7.72427 10.3924 7.60181 10.0014 7.52134C9.60958 7.43484 9.17647 7.42493 8.70208 7.4916C7.7653 7.62325 7.08112 8.02717 6.64952 8.70334C6.21792 9.37951 6.06108 10.1371 6.17899 10.9761C6.29775 11.8211 6.64105 12.4992 7.20889 13.0103C7.78189 13.5145 8.47672 13.7092 9.2934 13.5944C9.68973 13.5387 10.0248 13.4178 10.2987 13.2315C10.5726 13.0453 10.7835 12.8249 10.9314 12.5702L11.1272 13.2444L11.9018 13.1355L11.5774 10.8267ZM17.4337 7.23388L17.9742 7.15792L17.8533 6.2978L15.6285 6.61049L15.7493 7.47061L16.497 7.36553L16.8621 9.964C16.9343 10.4771 16.8706 10.8953 16.6711 11.2188C16.4708 11.5362 16.1244 11.7296 15.632 11.7988C15.1276 11.8697 14.7443 11.7789 14.4823 11.5264C14.2194 11.2679 14.0553 10.9063 13.9899 10.4415L13.6146 7.77063L14.3442 7.66809L14.2233 6.80797L11.9354 7.12951L12.0563 7.98963L12.6147 7.91114L12.9939 10.6092C13.083 11.243 13.336 11.7798 13.753 12.2198C14.17 12.6598 14.8199 12.8177 15.7026 12.6937C16.3151 12.6076 16.7812 12.4159 17.1007 12.1186C17.4262 11.8205 17.6373 11.4708 17.734 11.0694C17.8358 10.6612 17.8575 10.2488 17.7989 9.83234L17.4337 7.23388Z" fill="white"/>
<path d="M24.6051 11.3701L20.8104 10.5581L20.8722 10.9977L21.5387 10.904L21.6121 11.426L24.705 12.0805L24.6051 11.3701Z" fill="white"/>
<path d="M24.7953 13.2084L23.785 13.7943L23.6575 13.8677L23.6226 14.0111L23.4431 14.7338C24.169 14.549 24.6982 13.9358 24.7953 13.2084Z" fill="white"/>
<path d="M22.0084 14.9465L21.3004 15.046L19.7087 12.0383L20.4246 11.9377L22.0084 14.9465Z" fill="white"/>
<path d="M19.2766 11.2219L19.8723 11.1382L19.7592 10.3332L19.3989 10.2561C19.3355 10.2427 19.2696 10.2477 19.209 10.2705C19.1484 10.2934 19.0955 10.3331 19.0566 10.385C19.0176 10.437 18.9942 10.499 18.9891 10.5639C18.984 10.6288 18.9973 10.6938 19.0276 10.7514L19.2766 11.2219Z" fill="white"/>
<path d="M23.3323 13.0007L23.6819 12.798L21.6833 12.3751L22.6397 14.192L22.7395 13.7905L22.8667 13.2685L23.3295 13.0024L23.3323 13.0007Z" fill="white"/>
<path d="M27.2118 11.9278L19.3989 10.2561C19.3355 10.2427 19.2696 10.2477 19.209 10.2705C19.1484 10.2934 19.0955 10.3331 19.0566 10.385C19.0176 10.437 18.9942 10.499 18.9891 10.5639C18.984 10.6288 18.9973 10.6938 19.0276 10.7514L22.7796 17.8411C22.8124 17.9034 22.8635 17.954 22.926 17.9861C22.9884 18.0183 23.0592 18.0303 23.1286 18.0205C23.1963 18.0111 23.2595 17.9815 23.3102 17.9354C23.3608 17.8894 23.3965 17.8292 23.4127 17.7625L24.2517 14.3208L27.3111 12.5613C27.3718 12.5279 27.4209 12.4767 27.4518 12.4145C27.4828 12.3523 27.4942 12.2821 27.4845 12.2132C27.4748 12.1443 27.4445 12.08 27.3976 12.0288C27.3507 11.9775 27.2894 11.9418 27.2219 11.9264L27.2118 11.9278ZM23.785 13.7943L23.6575 13.8677L23.6226 14.0111L22.9473 16.7304L19.9727 11.0791L26.196 12.396L23.785 13.7943Z" fill="white"/>
<path d="M23.6575 13.8677L23.4083 13.4342C23.2896 13.5024 23.2042 13.6163 23.1718 13.7492L23.6575 13.8677ZM19.209 10.2705L19.0327 9.80262L19.0327 9.80262L19.209 10.2705ZM19.0566 10.385L18.6565 10.0851L18.6565 10.0852L19.0566 10.385ZM18.9891 10.5639L19.4875 10.6033L19.4875 10.6033L18.9891 10.5639ZM23.9068 14.3011L24.0343 14.2278L23.5357 13.3609L23.4083 13.4342L23.9068 14.3011ZM24.1084 14.1295L24.1433 13.9861L23.1718 13.7492L23.1368 13.8926L24.1084 14.1295ZM19.5022 9.76685C19.3455 9.73374 19.1826 9.74613 19.0327 9.80262L19.3853 10.7384C19.3566 10.7492 19.3254 10.7516 19.2955 10.7453L19.5022 9.76685ZM19.0327 9.80262C18.8828 9.8591 18.7524 9.95721 18.6565 10.0851L19.4567 10.6849C19.4386 10.7089 19.414 10.7276 19.3853 10.7384L19.0327 9.80262ZM18.6565 10.0852C18.5606 10.2131 18.5032 10.3655 18.4906 10.5245L19.4875 10.6033C19.4852 10.6326 19.4746 10.6609 19.4567 10.6849L18.6565 10.0852ZM18.4906 10.5245C18.4781 10.6835 18.5108 10.8429 18.5851 10.9842L19.4701 10.5186C19.4838 10.5447 19.4898 10.5741 19.4875 10.6033L18.4906 10.5245ZM24.4697 10.4067L24.2605 11.3845C24.5798 11.4529 24.9123 11.361 25.1512 11.1385C25.3902 10.916 25.5054 10.5908 25.46 10.2675L24.4697 10.4067ZM20.675 9.59469L19.6847 9.73387C19.7432 10.1497 20.0551 10.4847 20.4658 10.5726L20.675 9.59469ZM20.2868 6.8329L20.1477 5.84263C19.6008 5.91949 19.2197 6.42516 19.2966 6.97207L20.2868 6.8329ZM20.9534 6.73922L21.0926 7.72949C21.6395 7.65263 22.0205 7.14696 21.9437 6.60005L20.9534 6.73922ZM20.8325 5.8791L21.8228 5.73993C21.7459 5.19302 21.2403 4.81197 20.6933 4.88883L20.8325 5.8791ZM18.4906 6.20824L18.3514 5.21797C17.8045 5.29484 17.4234 5.8005 17.5003 6.34741L18.4906 6.20824ZM18.6115 7.06836L17.6212 7.20753C17.6981 7.75444 18.2037 8.13549 18.7506 8.05863L18.6115 7.06836ZM19.287 6.97342L20.2773 6.83424C20.2004 6.28733 19.6948 5.90628 19.1478 5.98315L19.287 6.97342ZM19.6238 9.36976L19.4146 10.3476C19.7338 10.4159 20.0664 10.3241 20.3053 10.1016C20.5442 9.87907 20.6595 9.55392 20.6141 9.23059L19.6238 9.36976ZM19.5871 9.36191L19.7964 8.38405L19.7951 8.38377L19.5871 9.36191ZM19.5848 9.36143L19.7928 8.38329L19.7916 8.38303L19.5848 9.36143ZM18.8886 9.41444L18.536 8.47866L18.536 8.47866L18.8886 9.41444ZM18.3543 9.8026L18.1472 10.7809C18.5167 10.8591 18.8987 10.7225 19.1348 10.4277L18.3543 9.8026ZM18.262 9.78307L18.469 8.80474C18.0897 8.72447 17.6982 8.87068 17.4644 9.17994C17.2305 9.4892 17.1965 9.90575 17.3771 10.2488L18.262 9.78307ZM18.3061 9.86685L19.1251 10.4407C19.34 10.1339 19.3655 9.73261 19.191 9.40109L18.3061 9.86685ZM18.0823 10.4902L19.0791 10.569L19.0791 10.569L18.0823 10.4902ZM18.2235 11.1777L17.3384 11.6432L17.3396 11.6455L18.2235 11.1777ZM20.342 15.1807L20.4811 16.171C20.8039 16.1256 21.0843 15.9258 21.2325 15.6356C21.3808 15.3453 21.3783 15.001 21.2258 14.713L20.342 15.1807ZM24.6051 11.3701L25.5954 11.2309C25.5369 10.8151 25.225 10.4801 24.8144 10.3922L24.6051 11.3701ZM20.8104 10.5581L21.0196 9.58022C20.7004 9.5119 20.3678 9.60375 20.1289 9.82627C19.8899 10.0488 19.7747 10.3739 19.8201 10.6973L20.8104 10.5581ZM20.8722 10.9977L19.8819 11.1369C19.9588 11.6838 20.4644 12.0648 21.0113 11.988L20.8722 10.9977ZM21.5387 10.904L22.529 10.7648C22.4521 10.2179 21.9465 9.83688 21.3995 9.91374L21.5387 10.904ZM21.6121 11.426L20.6218 11.5652C20.6804 11.9818 20.9934 12.3172 21.405 12.4043L21.6121 11.426ZM24.705 12.0805L24.4979 13.0588C24.817 13.1264 25.1489 13.0341 25.3873 12.8116C25.6257 12.5891 25.7406 12.2643 25.6952 11.9413L24.705 12.0805ZM23.2833 12.9293C22.8056 13.2064 22.6429 13.8183 22.92 14.296C23.1971 14.7738 23.809 14.9365 24.2867 14.6594L23.2833 12.9293ZM24.7953 13.2084L25.7865 13.3407C25.837 12.9626 25.668 12.5888 25.3508 12.3769C25.0336 12.165 24.6236 12.152 24.2936 12.3434L24.7953 13.2084ZM24.5931 14.2521C24.7262 13.7161 24.3996 13.1736 23.8636 13.0405C23.3276 12.9074 22.7852 13.234 22.6521 13.77L24.5931 14.2521ZM23.4431 14.7338L22.4726 14.4928C22.3878 14.8342 22.4886 15.195 22.7381 15.443C22.9875 15.691 23.3489 15.7897 23.6898 15.7029L23.4431 14.7338ZM21.3004 15.046L20.4166 15.5138C20.6135 15.886 21.0226 16.0949 21.4396 16.0363L21.3004 15.046ZM22.0084 14.9465L22.1475 15.9368C22.4699 15.8915 22.75 15.6921 22.8984 15.4024C23.0468 15.1127 23.0449 14.7688 22.8933 14.4808L22.0084 14.9465ZM19.7087 12.0383L19.5695 11.048C19.2467 11.0934 18.9663 11.2932 18.8181 11.5835C18.6698 11.8737 18.6724 12.218 18.8248 12.5061L19.7087 12.0383ZM20.4246 11.9377L21.3095 11.4719C21.113 11.0985 20.7033 10.8887 20.2854 10.9474L20.4246 11.9377ZM19.8723 11.1382L20.0115 12.1285C20.5584 12.0516 20.9395 11.5459 20.8626 10.999L19.8723 11.1382ZM19.2766 11.2219L18.3928 11.6897C18.5897 12.0619 18.9988 12.2708 19.4158 12.2122L19.2766 11.2219ZM19.7592 10.3332L20.7495 10.194C20.691 9.77817 20.379 9.44315 19.9684 9.35529L19.7592 10.3332ZM19.6081 9.27819C19.0681 9.16263 18.5366 9.50675 18.421 10.0468C18.3055 10.5869 18.6496 11.1184 19.1896 11.2339L19.6081 9.27819ZM19.9115 10.2836C19.6531 9.79551 19.048 9.60921 18.5598 9.86755C18.0717 10.1259 17.8854 10.731 18.1437 11.2192L19.9115 10.2836ZM11.9287 10.7774L12.0678 11.7676C12.6148 11.6908 12.9958 11.1851 12.9189 10.6382L11.9287 10.7774ZM11.5774 10.8267L11.4382 9.83648C10.8913 9.91334 10.5102 10.419 10.5871 10.9659L11.5774 10.8267ZM11.8078 9.91726L12.7981 9.77809C12.7212 9.23118 12.2155 8.85013 11.6686 8.92699L11.8078 9.91726ZM9.21363 10.2818L9.07446 9.29158C8.52755 9.36844 8.1465 9.87411 8.22337 10.421L9.21363 10.2818ZM9.33452 11.142L8.34425 11.2811C8.42111 11.828 8.92678 12.2091 9.47369 12.1322L9.33452 11.142ZM10.5775 10.9673L11.5678 10.8281C11.491 10.2812 10.9853 9.90014 10.4384 9.977L10.5775 10.9673ZM10.3518 12.1715L11.1299 12.7999L11.1375 12.7902L10.3518 12.1715ZM7.54554 9.13137L8.36526 9.70415L8.36526 9.70415L7.54554 9.13137ZM10.1928 8.55621L11.1305 8.20896C11.0427 7.97185 10.8684 7.7768 10.6426 7.66307L10.1928 8.55621ZM10.4592 9.27584L9.52147 9.62309C9.69771 10.099 10.2025 10.3675 10.6957 10.2475L10.4592 9.27584ZM11.2675 9.07916L11.5039 10.0508C11.7673 9.98671 11.9934 9.81843 12.1304 9.58452C12.2674 9.35061 12.3035 9.07111 12.2306 8.81004L11.2675 9.07916ZM10.9348 7.88872L11.8979 7.6196C11.8363 7.39908 11.7009 7.20639 11.5143 7.07371L10.9348 7.88872ZM10.0014 7.52134L9.78582 8.49783C9.79048 8.49886 9.79514 8.49985 9.79981 8.50081L10.0014 7.52134ZM6.64952 8.70334L7.49244 9.24137L7.49244 9.24137L6.64952 8.70334ZM7.20889 13.0103L6.53986 13.7536L6.54828 13.761L7.20889 13.0103ZM10.9314 12.5702L11.8917 12.2913C11.7801 11.907 11.4501 11.6262 11.0529 11.5776C10.6556 11.529 10.2677 11.7219 10.0667 12.068L10.9314 12.5702ZM11.1272 13.2444L10.1669 13.5232C10.3056 14.0007 10.774 14.3038 11.2664 14.2346L11.1272 13.2444ZM11.9018 13.1355L12.041 14.1258C12.5879 14.0489 12.969 13.5432 12.8921 12.9963L11.9018 13.1355ZM17.9742 7.15792L18.1134 8.14819C18.6603 8.07133 19.0413 7.56566 18.9644 7.01875L17.9742 7.15792ZM17.4337 7.23388L17.2946 6.24361C16.7477 6.32047 16.3666 6.82614 16.4435 7.37305L17.4337 7.23388ZM17.8533 6.2978L18.8436 6.15863C18.7667 5.61172 18.261 5.23067 17.7141 5.30754L17.8533 6.2978ZM15.6285 6.61049L15.4893 5.62022C14.9424 5.69708 14.5613 6.20275 14.6382 6.74966L15.6285 6.61049ZM15.7493 7.47061L14.7591 7.60978C14.8359 8.15669 15.3416 8.53774 15.8885 8.46087L15.7493 7.47061ZM16.497 7.36553L17.4872 7.22636C17.4104 6.67945 16.9047 6.2984 16.3578 6.37527L16.497 7.36553ZM16.6711 11.2188L17.5168 11.7525L17.5223 11.7437L16.6711 11.2188ZM14.4823 11.5264L13.7811 12.2395L13.7885 12.2466L14.4823 11.5264ZM13.6146 7.77063L13.4754 6.78036C12.9285 6.85722 12.5474 7.36289 12.6243 7.9098L13.6146 7.77063ZM14.3442 7.66809L14.4833 8.65836C15.0303 8.58149 15.4113 8.07582 15.3344 7.52891L14.3442 7.66809ZM14.2233 6.80797L15.2136 6.6688C15.1367 6.12189 14.631 5.74084 14.0841 5.8177L14.2233 6.80797ZM11.9354 7.12951L11.7962 6.13924C11.2493 6.21611 10.8683 6.72177 10.9451 7.26868L11.9354 7.12951ZM12.0563 7.98963L11.066 8.1288C11.1429 8.67571 11.6485 9.05676 12.1955 8.9799L12.0563 7.98963ZM12.6147 7.91114L13.605 7.77197C13.5281 7.22506 13.0225 6.84401 12.4756 6.92088L12.6147 7.91114ZM17.1007 12.1186L16.4253 11.3811L16.4195 11.3865L17.1007 12.1186ZM17.734 11.0694L16.7637 10.8274L16.7618 10.8352L17.734 11.0694ZM23.6819 12.798L24.1836 13.663C24.5416 13.4554 24.7347 13.0488 24.6694 12.6401C24.604 12.2315 24.2938 11.9053 23.8889 11.8197L23.6819 12.798ZM23.3323 13.0007L23.8326 13.8666L23.8341 13.8658L23.3323 13.0007ZM21.6833 12.3751L21.8904 11.3967C21.5111 11.3165 21.1195 11.4627 20.8857 11.7719C20.6519 12.0812 20.6179 12.4977 20.7984 12.8408L21.6833 12.3751ZM22.6397 14.192L21.7548 14.6578C21.9481 15.025 22.3481 15.2347 22.76 15.1848C23.1719 15.1349 23.5103 14.8358 23.6103 14.4331L22.6397 14.192ZM22.7395 13.7905L23.71 14.0315L23.711 14.0273L22.7395 13.7905ZM22.8667 13.2685L22.3682 12.4016C22.1309 12.5381 21.96 12.7658 21.8951 13.0317L22.8667 13.2685ZM23.3295 13.0024L23.828 13.8693L23.8297 13.8683L23.3295 13.0024ZM27.2118 11.9278L27.0025 12.9057C27.117 12.9302 27.235 12.9344 27.3509 12.9181L27.2118 11.9278ZM22.7796 17.8411L23.6643 17.375L23.6635 17.3733L22.7796 17.8411ZM23.1286 18.0205L22.9904 17.0301L22.9899 17.0302L23.1286 18.0205ZM23.4127 17.7625L22.4411 17.5257L22.4408 17.5271L23.4127 17.7625ZM24.2517 14.3208L23.7531 13.4539C23.5159 13.5904 23.345 13.8181 23.2801 14.084L24.2517 14.3208ZM27.3111 12.5613L26.8283 11.6856C26.8231 11.6885 26.8178 11.6915 26.8126 11.6944L27.3111 12.5613ZM27.2219 11.9264L27.4446 10.9515C27.3259 10.9244 27.2033 10.9192 27.0827 10.9361L27.2219 11.9264ZM22.9473 16.7304L22.0624 17.1961C22.2557 17.5633 22.6556 17.773 23.0675 17.7231C23.4795 17.6732 23.8178 17.3741 23.9178 16.9714L22.9473 16.7304ZM19.9727 11.0791L20.1797 10.1007C19.8004 10.0205 19.4089 10.1667 19.175 10.4759C18.9412 10.7852 18.9072 11.2018 19.0878 11.5448L19.9727 11.0791ZM26.196 12.396L26.6977 13.2611C27.0557 13.0535 27.2488 12.6468 27.1835 12.2382C27.1181 11.8296 26.8079 11.5034 26.403 11.4177L26.196 12.396ZM4.66183 3.44881C3.11519 3.66618 2.04699 5.10004 2.26373 6.64221L4.24427 6.36386C4.17991 5.9059 4.49694 5.49164 4.94018 5.42935L4.66183 3.44881ZM21.3256 1.10686L4.66183 3.44881L4.94018 5.42935L21.604 3.0874L21.3256 1.10686ZM24.5111 3.51555C24.2943 1.97338 22.8723 0.889498 21.3256 1.10686L21.604 3.0874C22.0472 3.02511 22.4662 3.33594 22.5305 3.7939L24.5111 3.51555ZM25.46 10.2675L24.5111 3.51555L22.5305 3.7939L23.4795 10.5459L25.46 10.2675ZM24.679 9.42882L20.8842 8.61683L20.4658 10.5726L24.2605 11.3845L24.679 9.42882ZM21.6653 9.45552L21.2771 6.69373L19.2966 6.97207L19.6847 9.73387L21.6653 9.45552ZM20.426 7.82317L21.0926 7.72949L20.8142 5.74895L20.1477 5.84263L20.426 7.82317ZM21.9437 6.60005L21.8228 5.73993L19.8423 6.01828L19.9631 6.87839L21.9437 6.60005ZM20.6933 4.88883L18.3514 5.21797L18.6298 7.19851L20.9717 6.86937L20.6933 4.88883ZM17.5003 6.34741L17.6212 7.20753L19.6017 6.92919L19.4808 6.06907L17.5003 6.34741ZM18.7506 8.05863L19.4262 7.96368L19.1478 5.98315L18.4723 6.07809L18.7506 8.05863ZM18.2968 7.11259L18.6335 9.50894L20.6141 9.23059L20.2773 6.83424L18.2968 7.11259ZM19.833 8.3919L19.7964 8.38405L19.3779 10.3398L19.4146 10.3476L19.833 8.3919ZM19.7951 8.38377L19.7928 8.38329L19.3769 10.3396L19.3792 10.3401L19.7951 8.38377ZM19.7916 8.38303C19.3725 8.29448 18.9369 8.32762 18.536 8.47866L19.2412 10.3502C19.2848 10.3338 19.3323 10.3301 19.3781 10.3398L19.7916 8.38303ZM18.536 8.47866C18.1577 8.62118 17.8256 8.86292 17.5737 9.17753L19.1348 10.4277C19.1631 10.3923 19.1999 10.3658 19.2412 10.3502L18.536 8.47866ZM18.5613 8.82427L18.469 8.80474L18.055 10.7614L18.1472 10.7809L18.5613 8.82427ZM17.3771 10.2488L17.4212 10.3326L19.191 9.40109L19.1469 9.31731L17.3771 10.2488ZM17.4871 9.29301C17.2559 9.623 17.1172 10.0092 17.0854 10.4114L19.0791 10.569C19.0828 10.5223 19.0989 10.478 19.1251 10.4407L17.4871 9.29301ZM17.0854 10.4114C17.0517 10.8376 17.1394 11.2648 17.3384 11.6432L19.1085 10.7122C19.0855 10.6684 19.0752 10.6186 19.0791 10.569L17.0854 10.4114ZM17.3396 11.6455L19.4581 15.6485L21.2258 14.713L19.1073 10.71L17.3396 11.6455ZM6.72159 18.1048L20.4811 16.171L20.2028 14.1905L6.44325 16.1242L6.72159 18.1048ZM3.53617 15.6961C3.75291 17.2383 5.17495 18.3221 6.72159 18.1048L6.44325 16.1242C6.00001 16.1865 5.58107 15.8757 5.51671 15.4177L3.53617 15.6961ZM2.26373 6.64221L3.53617 15.6961L5.51671 15.4177L4.24427 6.36386L2.26373 6.64221ZM24.8144 10.3922L21.0196 9.58022L20.6011 11.5359L24.3959 12.3479L24.8144 10.3922ZM21.8624 10.8585L21.8007 10.4189L19.8201 10.6973L19.8819 11.1369L21.8624 10.8585ZM21.3995 9.91374L20.733 10.0074L21.0113 11.988L21.6779 11.8943L21.3995 9.91374ZM22.6024 11.2868L22.529 10.7648L20.5485 11.0432L20.6218 11.5652L22.6024 11.2868ZM24.912 11.1022L21.8191 10.4477L21.405 12.4043L24.4979 13.0588L24.912 11.1022ZM25.6952 11.9413L25.5954 11.2309L23.6148 11.5092L23.7147 12.2197L25.6952 11.9413ZM24.2867 14.6594L25.297 14.0734L24.2936 12.3434L23.2833 12.9293L24.2867 14.6594ZM24.4136 14.9748L24.5931 14.2521L22.6521 13.77L22.4726 14.4928L24.4136 14.9748ZM23.6898 15.7029C24.8201 15.4152 25.6366 14.464 25.7865 13.3407L23.8041 13.0761C23.7598 13.4077 23.5179 13.6829 23.1964 13.7647L23.6898 15.7029ZM21.4396 16.0363L22.1475 15.9368L21.8692 13.9563L21.1612 14.0558L21.4396 16.0363ZM18.8248 12.5061L20.4166 15.5138L22.1843 14.5783L20.5925 11.5706L18.8248 12.5061ZM19.8478 13.0286L20.5638 12.928L20.2854 10.9474L19.5695 11.048L19.8478 13.0286ZM19.5397 12.4035L21.1235 15.4123L22.8933 14.4808L21.3095 11.4719L19.5397 12.4035ZM19.7332 10.1479L19.1374 10.2317L19.4158 12.2122L20.0115 12.1285L19.7332 10.1479ZM18.7689 10.4723L18.8821 11.2774L20.8626 10.999L20.7495 10.194L18.7689 10.4723ZM19.9684 9.35529L19.6081 9.27819L19.1896 11.2339L19.55 11.311L19.9684 9.35529ZM18.1437 11.2192L18.3928 11.6897L20.1605 10.7542L19.9115 10.2836L18.1437 11.2192ZM11.7895 9.78711L11.4382 9.83648L11.7165 11.817L12.0678 11.7676L11.7895 9.78711ZM10.8175 10.0564L10.9384 10.9166L12.9189 10.6382L12.7981 9.77809L10.8175 10.0564ZM9.35281 11.2721L11.947 10.9075L11.6686 8.92699L9.07446 9.29158L9.35281 11.2721ZM10.3248 11.0028L10.2039 10.1427L8.22337 10.421L8.34425 11.2811L10.3248 11.0028ZM10.4384 9.977L9.19534 10.1517L9.47369 12.1322L10.7167 11.9575L10.4384 9.977ZM11.5984 11.0454L11.5678 10.8281L9.58728 11.1064L9.61782 11.3237L11.5984 11.0454ZM11.1375 12.7902C11.5381 12.2814 11.6869 11.6755 11.5984 11.0454L9.61782 11.3237C9.63445 11.4421 9.61239 11.4942 9.56615 11.5529L11.1375 12.7902ZM9.47902 13.6733C10.109 13.5848 10.706 13.3246 11.1298 12.7998L9.57384 11.5433C9.5491 11.5739 9.4714 11.6548 9.20067 11.6928L9.47902 13.6733ZM7.32093 13.0779C7.93912 13.5986 8.68873 13.7844 9.47902 13.6733L9.20067 11.6928C8.92207 11.732 8.75521 11.6711 8.60937 11.5482L7.32093 13.0779ZM6.25807 10.9465C6.37517 11.7797 6.68922 12.5458 7.32093 13.0779L8.60937 11.5482C8.47703 11.4368 8.31321 11.199 8.2386 10.6682L6.25807 10.9465ZM6.72583 8.5586C6.24015 9.25367 6.13811 10.093 6.25807 10.9465L8.2386 10.6682C8.16345 10.1334 8.25955 9.85542 8.36526 9.70415L6.72583 8.5586ZM8.66959 7.39114C7.8694 7.5036 7.19245 7.89081 6.72583 8.5586L8.36526 9.70415C8.49003 9.52558 8.65523 9.41282 8.94794 9.37168L8.66959 7.39114ZM10.6426 7.66307C10.0342 7.35668 9.35621 7.29464 8.66959 7.39114L8.94794 9.37168C9.34222 9.31627 9.58693 9.37076 9.74298 9.44935L10.6426 7.66307ZM11.397 8.92859L11.1305 8.20896L9.255 8.90346L9.52147 9.62309L11.397 8.92859ZM11.031 8.10751L10.2228 8.3042L10.6957 10.2475L11.5039 10.0508L11.031 8.10751ZM9.97172 8.15785L10.3044 9.34828L12.2306 8.81004L11.8979 7.6196L9.97172 8.15785ZM9.79981 8.50081C10.1062 8.56387 10.2734 8.64543 10.3554 8.70374L11.5143 7.07371C11.1337 6.80311 10.6785 6.63974 10.203 6.54187L9.79981 8.50081ZM8.84125 8.48187C9.21985 8.42866 9.53064 8.44149 9.78582 8.49783L10.217 6.54486C9.68852 6.42819 9.1331 6.42119 8.56291 6.50133L8.84125 8.48187ZM7.49244 9.24137C7.73814 8.85645 8.13659 8.5809 8.84125 8.48187L8.56291 6.50133C7.39402 6.66561 6.4241 7.19789 5.8066 8.1653L7.49244 9.24137ZM7.16926 10.8369C7.0825 10.2196 7.19672 9.70466 7.49244 9.24137L5.8066 8.1653C5.23912 9.05436 5.03965 10.0546 5.18872 11.1153L7.16926 10.8369ZM7.87788 12.267C7.50546 11.9318 7.25937 11.4781 7.16926 10.8369L5.18872 11.1153C5.33613 12.1641 5.77664 13.0666 6.5399 13.7535L7.87788 12.267ZM9.15423 12.6041C8.59999 12.682 8.20438 12.5542 7.8695 12.2595L6.54828 13.761C7.3594 14.4747 8.35346 14.7363 9.43257 14.5847L9.15423 12.6041ZM9.73646 12.4046C9.61293 12.4886 9.43007 12.5654 9.15423 12.6041L9.43257 14.5847C9.94939 14.512 10.4367 14.3469 10.861 14.0585L9.73646 12.4046ZM10.0667 12.068C10.0029 12.1778 9.90199 12.292 9.73646 12.4046L10.861 14.0585C11.2432 13.7986 11.5641 13.4719 11.7962 13.0724L10.0667 12.068ZM12.0875 12.9655L11.8917 12.2913L9.9711 12.8491L10.1669 13.5232L12.0875 12.9655ZM11.7627 12.1452L10.988 12.2541L11.2664 14.2346L12.041 14.1258L11.7627 12.1452ZM10.5871 10.9659L10.9116 13.2747L12.8921 12.9963L12.5676 10.6876L10.5871 10.9659ZM17.835 6.16766L17.2946 6.24361L17.5729 8.22415L18.1134 8.14819L17.835 6.16766ZM16.863 6.43698L16.9839 7.2971L18.9644 7.01875L18.8436 6.15863L16.863 6.43698ZM15.7676 7.60075L17.9925 7.28807L17.7141 5.30754L15.4893 5.62022L15.7676 7.60075ZM16.7396 7.33143L16.6187 6.47131L14.6382 6.74966L14.7591 7.60978L16.7396 7.33143ZM16.3578 6.37527L15.6102 6.48034L15.8885 8.46087L16.6361 8.3558L16.3578 6.37527ZM17.8524 9.82483L17.4872 7.22636L15.5067 7.50471L15.8719 10.1032L17.8524 9.82483ZM17.5223 11.7437C17.8821 11.1602 17.9452 10.485 17.8524 9.82483L15.8719 10.1032C15.9233 10.4691 15.859 10.6305 15.8199 10.6939L17.5223 11.7437ZM15.7712 12.789C16.4541 12.6931 17.1124 12.3933 17.5168 11.7525L15.8254 10.6851C15.8195 10.6944 15.8095 10.7087 15.7737 10.7287C15.7318 10.752 15.6465 10.7869 15.4928 10.8085L15.7712 12.789ZM13.7885 12.2466C14.3511 12.7886 15.091 12.8846 15.7712 12.789L15.4928 10.8085C15.3294 10.8315 15.2375 10.8204 15.1967 10.8108C15.1646 10.8032 15.1676 10.798 15.1761 10.8063L13.7885 12.2466ZM12.9997 10.5807C13.0872 11.2032 13.3229 11.7889 13.7812 12.2395L15.1834 10.8134C15.1158 10.7469 15.0234 10.6094 14.9802 10.3023L12.9997 10.5807ZM12.6243 7.9098L12.9997 10.5807L14.9802 10.3023L14.6048 7.63145L12.6243 7.9098ZM14.205 6.67782L13.4754 6.78036L13.7537 8.7609L14.4833 8.65836L14.205 6.67782ZM13.233 6.94714L13.3539 7.80726L15.3344 7.52891L15.2136 6.6688L13.233 6.94714ZM12.0746 8.11978L14.3625 7.79824L14.0841 5.8177L11.7962 6.13924L12.0746 8.11978ZM13.0465 7.85046L12.9257 6.99034L10.9451 7.26868L11.066 8.1288L13.0465 7.85046ZM12.4756 6.92088L11.9171 6.99936L12.1955 8.9799L12.7539 8.90141L12.4756 6.92088ZM13.9842 10.47L13.605 7.77197L11.6245 8.05032L12.0037 10.7484L13.9842 10.47ZM14.4788 11.5319C14.2131 11.2516 14.046 10.91 13.9842 10.47L12.0037 10.7484C12.12 11.5759 12.4589 12.3081 13.0272 12.9077L14.4788 11.5319ZM15.5635 11.7034C14.8421 11.8048 14.5821 11.6409 14.4788 11.5319L13.0272 12.9077C13.7579 13.6787 14.7977 13.8307 15.8418 13.6839L15.5635 11.7034ZM16.4195 11.3865C16.3007 11.4971 16.0547 11.6343 15.5635 11.7034L15.8418 13.6839C16.5756 13.5808 17.2616 13.3347 17.7818 12.8508L16.4195 11.3865ZM16.7618 10.8352C16.715 11.0294 16.6146 11.2077 16.4253 11.3812L17.776 12.8561C18.2377 12.4333 18.5596 11.9122 18.7062 11.3036L16.7618 10.8352ZM16.8087 9.97152C16.8493 10.2608 16.8345 10.5437 16.7637 10.8274L18.7042 11.3115C18.8371 10.7787 18.8656 10.2369 18.7892 9.69317L16.8087 9.97152ZM16.4435 7.37305L16.8087 9.97152L18.7892 9.69317L18.424 7.09471L16.4435 7.37305ZM23.1802 11.933L22.8306 12.1357L23.8341 13.8658L24.1836 13.663L23.1802 11.933ZM21.4763 13.3534L23.4749 13.7763L23.8889 11.8197L21.8904 11.3967L21.4763 13.3534ZM23.5246 13.7263L22.5682 11.9093L20.7984 12.8408L21.7548 14.6578L23.5246 13.7263ZM21.7689 13.5495L21.6692 13.951L23.6103 14.4331L23.71 14.0315L21.7689 13.5495ZM21.8951 13.0317L21.7679 13.5536L23.711 14.0273L23.8382 13.5054L21.8951 13.0317ZM22.8309 12.1355L22.3682 12.4016L23.3652 14.1354L23.828 13.8693L22.8309 12.1355ZM22.8321 12.1348L22.8292 12.1365L23.8297 13.8683L23.8326 13.8666L22.8321 12.1348ZM27.421 10.95L19.6081 9.27819L19.1896 11.2339L27.0025 12.9057L27.421 10.95ZM18.1437 11.2192L21.8957 18.3088L23.6635 17.3733L19.9115 10.2836L18.1437 11.2192ZM21.8949 18.3072C22.0231 18.5505 22.2232 18.7492 22.4687 18.8755L23.3833 17.0968C23.5039 17.1589 23.6018 17.2562 23.6643 17.375L21.8949 18.3072ZM22.4687 18.8755C22.7143 19.0018 22.9932 19.0493 23.2674 19.0109L22.9899 17.0302C23.1251 17.0113 23.2626 17.0348 23.3833 17.0968L22.4687 18.8755ZM23.2668 19.0109C23.534 18.9737 23.7833 18.8566 23.9826 18.6756L22.6378 17.1952C22.7357 17.1063 22.8585 17.0485 22.9904 17.0301L23.2668 19.0109ZM23.9826 18.6756C24.1817 18.4947 24.3215 18.2584 24.3846 17.9979L22.4408 17.5271C22.4716 17.3999 22.5399 17.2842 22.6378 17.1952L23.9826 18.6756ZM24.3842 17.9993L25.2232 14.5576L23.2801 14.084L22.4411 17.5257L24.3842 17.9993ZM24.7502 15.1877L27.8097 13.4282L26.8126 11.6944L23.7531 13.4539L24.7502 15.1877ZM27.794 13.437C28.033 13.3052 28.2257 13.1038 28.3469 12.8603L26.5567 11.9687C26.6161 11.8495 26.7105 11.7505 26.8283 11.6856L27.794 13.437ZM28.3469 12.8603C28.4682 12.6169 28.5125 12.3427 28.4748 12.0741L26.4942 12.3524C26.4758 12.2215 26.4974 12.0877 26.5567 11.9687L28.3469 12.8603ZM28.4748 12.0741C28.437 11.8054 28.3188 11.554 28.1352 11.3535L26.6601 12.7041C26.5702 12.606 26.5126 12.4833 26.4942 12.3524L28.4748 12.0741ZM28.1352 11.3535C27.9515 11.1529 27.7108 11.0123 27.4446 10.9515L26.9992 12.9013C26.868 12.8713 26.7499 12.8022 26.6601 12.7041L28.1352 11.3535ZM27.0827 10.9361L27.0726 10.9376L27.3509 12.9181L27.3611 12.9167L27.0827 10.9361ZM22.6521 13.77L21.9768 16.4894L23.9178 16.9714L24.5931 14.2521L22.6521 13.77ZM23.8322 16.2646L20.8576 10.6133L19.0878 11.5448L22.0624 17.1961L23.8322 16.2646ZM19.7656 12.0574L25.989 13.3744L26.403 11.4177L20.1797 10.1007L19.7656 12.0574ZM25.6943 11.531L23.2833 12.9293L24.2867 14.6594L26.6977 13.2611L25.6943 11.531Z" fill="#16B012" mask="url(#path-2-outside-1_25_326)"/>
</svg>
