<svg width="32" height="24" viewBox="0 0 32 24" fill="none" xmlns="http://www.w3.org/2000/svg">
<path fill-rule="evenodd" clip-rule="evenodd" d="M25.9459 10.4977C26.0092 11.4937 26.2122 12.6812 26.4202 13.8973C27.0265 17.4428 26.7686 19.8732 24.1141 19.8732C21.8199 19.8732 19.681 18.4014 17.6614 15.3439H13.0309C12.773 15.7344 12.5131 16.0991 12.2512 16.4381C10.4624 18.7533 8.57941 19.8732 6.57816 19.8732C3.92369 19.8732 3.66581 17.4428 4.27212 13.8973C4.52285 12.4311 4.76645 11.0065 4.76645 9.90883L4.76618 9.54422C4.76218 5.96208 4.76002 4.02078 8.38986 4.02078C8.64341 4.02078 8.89371 4.01637 9.14005 4.01203C10.6267 3.98581 11.969 3.96213 13.0089 4.92664H17.6834C18.5908 4.08505 19.7284 3.99582 20.9913 4.00417C21.1757 4.00539 21.3628 4.00868 21.5522 4.01203C21.6928 4.0145 21.8347 4.01701 21.9777 4.0187C22.0853 4.01997 22.1936 4.02078 22.3024 4.02078C22.5908 4.02078 22.8563 4.03304 23.1006 4.05739C24.8701 4.23377 25.5329 5.04481 25.7802 6.43332C25.887 7.03278 25.9164 7.73989 25.9239 8.55002C25.9269 8.86585 25.9265 9.19734 25.9261 9.54422L25.9261 9.54722L25.9258 9.90883C25.9258 10.0961 25.9329 10.2928 25.9459 10.4977ZM27.9258 9.91031C27.9261 10.7997 28.1303 12.0321 28.3916 13.5601C28.6976 15.35 28.8727 17.258 28.403 18.7983C28.1496 19.629 27.6787 20.4548 26.8588 21.0534C26.0432 21.6489 25.0822 21.8732 24.1141 21.8732C21.1435 21.8732 18.6752 20.1221 16.6196 17.3439H14.0727C12.0171 20.1221 9.54882 21.8732 6.57816 21.8732C5.61008 21.8732 4.64913 21.6489 3.83345 21.0534C3.01356 20.4548 2.54272 19.629 2.28935 18.7983C1.81957 17.258 1.99466 15.35 2.30074 13.5601C2.56213 12.0316 2.76636 10.7989 2.76645 9.90947C2.76645 9.90926 2.76645 9.90968 2.76645 9.90947L2.76612 9.49195C2.76514 8.63905 2.76415 7.77608 2.82687 7.00733C2.89044 6.22829 3.03016 5.36134 3.41592 4.56622C3.8345 3.70342 4.50261 3.00774 5.44633 2.56756C6.3251 2.15767 7.33201 2.02078 8.38986 2.02078C8.62292 2.02078 8.85575 2.01673 9.10479 2.01234C9.16956 2.01119 9.23658 2.00978 9.30569 2.00833C10.4536 1.98418 12.1766 1.94793 13.6845 2.92664H17.0078C18.5157 1.94793 20.2387 1.98418 21.3866 2.00833C21.4557 2.00978 21.5227 2.01119 21.5875 2.01234C21.8366 2.01673 22.0694 2.02078 22.3024 2.02078C23.3603 2.02078 24.3672 2.15767 25.246 2.56756C26.1897 3.00774 26.8578 3.70342 27.2764 4.56621C27.6621 5.36133 27.8019 6.22829 27.8654 7.00732C27.9282 7.77608 27.9272 8.63904 27.9262 9.49194L27.9258 9.90883C27.9258 9.90926 27.9258 9.90988 27.9258 9.91031C27.9258 9.91025 27.9258 9.91038 27.9258 9.91031ZM24.5596 8.07296C24.4181 7.84512 24.1784 7.68465 23.8997 7.65082C23.8635 7.64643 23.8267 7.64417 23.7894 7.64417C23.6143 7.64417 23.4509 7.69383 23.3123 7.77983C23.1992 7.85006 23.1026 7.94452 23.03 8.05597C22.9374 8.19806 22.8835 8.36775 22.8835 8.55002C22.8835 8.73229 22.9374 8.90198 23.03 9.04407C23.1026 9.15552 23.1992 9.24999 23.3123 9.32022C23.4509 9.40622 23.6143 9.45587 23.7894 9.45587C23.8359 9.45587 23.8816 9.45236 23.9262 9.4456C24.1936 9.40508 24.4226 9.24765 24.5596 9.02708C24.6456 8.88854 24.6952 8.72508 24.6952 8.55002C24.6952 8.37496 24.6456 8.21151 24.5596 8.07296ZM22.4547 5.96812C22.4068 5.93835 22.3558 5.91293 22.3024 5.89242C22.2016 5.85369 22.0921 5.83246 21.9777 5.83246C21.8099 5.83246 21.6527 5.87809 21.5179 5.95763C21.5121 5.96106 21.5063 5.96456 21.5006 5.96812C21.4793 5.98135 21.4586 5.99545 21.4385 6.01035C21.216 6.17541 21.0718 6.44003 21.0718 6.73832C21.0718 6.91338 21.1215 7.07683 21.2075 7.21538C21.2777 7.32852 21.3722 7.42505 21.4836 7.4977C21.6257 7.59033 21.7954 7.64417 21.9777 7.64417C22.1599 7.64417 22.3296 7.59033 22.4717 7.4977C22.5832 7.42505 22.6776 7.32852 22.7479 7.21538C22.8339 7.07683 22.8835 6.91338 22.8835 6.73832C22.8835 6.44832 22.7472 6.19015 22.5352 6.02435C22.5095 6.0042 22.4826 5.98543 22.4547 5.96812ZM22.3573 6.02097C22.3393 6.02085 22.321 6.02078 22.3024 6.02078C22.1928 6.02078 22.0842 6.02002 21.9777 6.01883C21.8421 6.01731 21.71 6.0151 21.5837 6.01289C21.7224 6.09059 21.8542 6.17933 21.9777 6.27794C22.0969 6.18274 22.2238 6.09672 22.3573 6.02097ZM11.5604 14.4381V13.3057H12.6927V11.947H11.5604V10.8147H10.2016V11.947H9.06926V13.3057H10.2016V14.4381H11.5604ZM8.20158 9.74829C8.39258 9.85071 8.6109 9.9088 8.8428 9.9088C9.50268 9.9088 10.0527 9.43841 10.1758 8.81465C10.1927 8.72906 10.2016 8.64057 10.2016 8.55002C10.2016 7.79959 9.59323 7.19124 8.8428 7.19124C8.09237 7.19124 7.48402 7.79959 7.48402 8.55002C7.48402 9.06856 7.77448 9.51926 8.20158 9.74829ZM9.42704 8.81465C9.46364 8.73398 9.48402 8.64438 9.48402 8.55002C9.48402 8.19588 9.19693 7.9088 8.8428 7.9088C8.48866 7.9088 8.20158 8.19588 8.20158 8.55002C8.20158 8.64438 8.22196 8.73398 8.25856 8.81465H9.42704ZM18.559 13.3439C18.6792 13.537 18.8466 13.6976 19.0449 13.8098C19.2422 13.9214 19.4702 13.9851 19.713 13.9851C20.2988 13.9851 20.7979 13.6145 20.9888 13.095C21.0425 12.9489 21.0718 12.7911 21.0718 12.6264C21.0718 12.122 20.7971 11.6819 20.3891 11.4474C20.3185 11.4068 20.2438 11.3724 20.166 11.3449C20.0243 11.2948 19.8718 11.2676 19.713 11.2676C19.5731 11.2676 19.438 11.2887 19.311 11.3281C19.2885 11.335 19.2663 11.3425 19.2444 11.3506C18.7249 11.5415 18.3543 12.0406 18.3543 12.6264C18.3543 12.8898 18.4292 13.1357 18.559 13.3439ZM19.577 11.9996C19.2882 12.062 19.0718 12.3189 19.0718 12.6264C19.0718 12.9805 19.3589 13.2676 19.713 13.2676C20.0205 13.2676 20.2774 13.0512 20.3398 12.7624C20.2769 12.7194 20.2159 12.674 20.1567 12.6264C19.9933 12.4949 19.8445 12.346 19.713 12.1827C19.6654 12.1235 19.62 12.0624 19.577 11.9996ZM21.2075 9.88467C21.1215 10.0232 21.0718 10.1867 21.0718 10.3617C21.0718 10.687 21.2432 10.9722 21.5006 11.1319C21.6392 11.2179 21.8026 11.2676 21.9777 11.2676C22.1527 11.2676 22.3162 11.2179 22.4547 11.1319C22.5234 11.0893 22.5859 11.0378 22.6407 10.9789C22.7914 10.8172 22.8835 10.6002 22.8835 10.3617C22.8835 10.1867 22.8339 10.0232 22.7479 9.88467C22.6776 9.77152 22.5832 9.67499 22.4717 9.60234C22.3296 9.50971 22.1599 9.45587 21.9777 9.45587C21.7954 9.45587 21.6257 9.50971 21.4836 9.60234C21.4398 9.63091 21.3986 9.66316 21.3605 9.69867C21.3016 9.75347 21.2501 9.81601 21.2075 9.88467ZM19.3958 8.07296C19.3098 8.21151 19.2601 8.37496 19.2601 8.55002C19.2601 8.72508 19.3098 8.88854 19.3958 9.02708C19.4835 8.85764 19.5875 8.69794 19.7056 8.55002C19.8414 8.7201 19.9959 8.8746 20.166 9.01039C20.3139 9.12849 20.4736 9.23245 20.643 9.32022C20.7562 9.24999 20.8527 9.15552 20.9253 9.04407C21.018 8.90198 21.0718 8.73229 21.0718 8.55002C21.0718 8.36775 21.018 8.19806 20.9253 8.05597C20.8527 7.94452 20.7562 7.85006 20.643 7.77983C20.4736 7.86759 20.3139 7.97155 20.166 8.08965C19.9959 8.22544 19.8414 8.37994 19.7056 8.55002C19.5875 8.40211 19.4835 8.24241 19.3958 8.07296ZM19.6148 9.26899C19.646 9.29293 19.6788 9.3149 19.713 9.33469C19.8463 9.41176 20.001 9.45587 20.166 9.45587C20.3022 9.45587 20.4313 9.42582 20.5472 9.37198" fill="#333333"/>
<path fill-rule="evenodd" clip-rule="evenodd" d="M6.57816 19.8732C8.87244 19.8732 11.0113 18.4014 13.0309 15.3439H17.6614C19.681 18.4014 21.8199 19.8732 24.1141 19.8732C26.7686 19.8732 27.0265 17.4428 26.4202 13.8973C26.1695 12.4311 25.9258 11.0065 25.9258 9.90883L25.9261 9.54722L25.9261 9.54422C25.9301 5.96208 25.9323 4.02078 22.3024 4.02078C22.0489 4.02078 21.7986 4.01637 21.5522 4.01203C20.0656 3.98581 18.7233 3.96213 17.6834 4.92664H13.0089C11.969 3.96213 10.6267 3.98581 9.14005 4.01203C8.89371 4.01637 8.64341 4.02078 8.38986 4.02078C4.76002 4.02078 4.76218 5.96208 4.76618 9.54422L4.76645 9.90883C4.76645 11.0065 4.52285 12.4311 4.27212 13.8973C3.66581 17.4428 3.92369 19.8732 6.57816 19.8732ZM10.2016 10.8147H11.5604V11.947H12.6927V13.3057H11.5604V14.4381H10.2016V13.3057H9.06926V11.947H10.2016V10.8147ZM10.2016 8.55002C10.2016 9.30045 9.59323 9.9088 8.8428 9.9088C8.09237 9.9088 7.48402 9.30045 7.48402 8.55002C7.48402 7.79959 8.09237 7.19124 8.8428 7.19124C9.59323 7.19124 10.2016 7.79959 10.2016 8.55002ZM21.0718 12.6264C21.0718 13.3768 20.4635 13.9851 19.713 13.9851C18.9626 13.9851 18.3543 13.3768 18.3543 12.6264C18.3543 11.8759 18.9626 11.2676 19.713 11.2676C20.4635 11.2676 21.0718 11.8759 21.0718 12.6264ZM21.9777 7.64417C22.478 7.64417 22.8835 7.2386 22.8835 6.73832C22.8835 6.23803 22.478 5.83246 21.9777 5.83246C21.4774 5.83246 21.0718 6.23803 21.0718 6.73832C21.0718 7.2386 21.4774 7.64417 21.9777 7.64417ZM21.9777 11.2676C22.478 11.2676 22.8835 10.862 22.8835 10.3617C22.8835 9.86144 22.478 9.45587 21.9777 9.45587C21.4774 9.45587 21.0718 9.86144 21.0718 10.3617C21.0718 10.862 21.4774 11.2676 21.9777 11.2676ZM21.0718 8.55002C21.0718 9.05031 20.6662 9.45587 20.166 9.45587C19.6657 9.45587 19.2601 9.05031 19.2601 8.55002C19.2601 8.04973 19.6657 7.64417 20.166 7.64417C20.6662 7.64417 21.0718 8.04973 21.0718 8.55002ZM23.7894 9.45587C24.2897 9.45587 24.6952 9.05031 24.6952 8.55002C24.6952 8.04973 24.2897 7.64417 23.7894 7.64417C23.2891 7.64417 22.8835 8.04973 22.8835 8.55002C22.8835 9.05031 23.2891 9.45587 23.7894 9.45587Z" fill="white"/>
<path fill-rule="evenodd" clip-rule="evenodd" d="M25.9261 9.54422L25.9261 9.54722L25.9258 9.90883C25.9258 11.0065 26.1695 12.4311 26.4202 13.8973C27.0265 17.4428 26.7686 19.8732 24.1141 19.8732C21.8199 19.8732 19.681 18.4014 17.6614 15.3439H13.0309C11.0113 18.4014 8.87244 19.8732 6.57816 19.8732C3.92369 19.8732 3.66581 17.4428 4.27212 13.8973C4.52285 12.4311 4.76645 11.0065 4.76645 9.90883L4.76618 9.54422C4.76218 5.96208 4.76002 4.02078 8.38986 4.02078C8.64341 4.02078 8.89371 4.01637 9.14005 4.01203C10.6267 3.98581 11.969 3.96213 13.0089 4.92664H17.6834C18.7233 3.96213 20.0656 3.98581 21.5522 4.01203C21.7986 4.01637 22.0489 4.02078 22.3024 4.02078C25.9323 4.02078 25.9301 5.96208 25.9261 9.54422ZM17.3217 3.92665C18.6062 2.95676 20.1624 2.98589 21.4307 3.00964C21.4775 3.01051 21.5239 3.01138 21.5699 3.01219C21.8176 3.01656 22.0591 3.02079 22.3024 3.02079C23.2851 3.02079 24.1288 3.1499 24.8233 3.47383C25.5502 3.81291 26.0542 4.33805 26.3767 5.00272C26.6827 5.63355 26.809 6.35627 26.8687 7.08866C26.9281 7.81572 26.9271 8.64322 26.9262 9.51521L26.9258 9.90884C26.926 10.9023 27.1498 12.2315 27.4059 13.7287C27.7105 15.51 27.8416 17.211 27.4465 18.5066C27.2396 19.1846 26.8732 19.8048 26.2692 20.2457C25.6674 20.6851 24.93 20.8732 24.1141 20.8732C21.4616 20.8732 19.1567 19.2398 17.1319 16.344H13.5604C11.5356 19.2398 9.23074 20.8732 6.57816 20.8732C5.76231 20.8732 5.02492 20.6851 4.42309 20.2457C3.81915 19.8048 3.45266 19.1846 3.24585 18.5066C2.85072 17.211 2.98181 15.51 3.28643 13.7287C3.54249 12.2313 3.7664 10.9027 3.76646 9.90919C3.76646 9.90907 3.76646 9.90931 3.76646 9.90919L3.76615 9.51525C3.76517 8.64325 3.76424 7.81573 3.82356 7.08866C3.88332 6.35627 4.00958 5.63355 4.31562 5.00272C4.63809 4.33805 5.1421 3.81291 5.86905 3.47383C6.56352 3.1499 7.40721 3.02079 8.38987 3.02079C8.63317 3.02079 8.87473 3.01656 9.12242 3.01219C9.16841 3.01138 9.21481 3.01051 9.2616 3.00964C10.5299 2.98589 12.0861 2.95676 13.3706 3.92665H17.3217ZM9.34077 9.81466C9.84485 9.61601 10.2016 9.12467 10.2016 8.55002C10.2016 7.79959 9.59323 7.19124 8.8428 7.19124C8.09237 7.19124 7.48402 7.79959 7.48402 8.55002C7.48402 9.30045 8.09237 9.9088 8.8428 9.9088C8.96699 9.9088 9.08729 9.89215 9.20158 9.86094C9.24906 9.84798 9.29551 9.8325 9.34077 9.81466ZM20.4271 11.4701C20.2196 11.3417 19.975 11.2676 19.713 11.2676C18.9626 11.2676 18.3543 11.8759 18.3543 12.6264C18.3543 13.3768 18.9626 13.9851 19.713 13.9851C20.4635 13.9851 21.0718 13.3768 21.0718 12.6264C21.0718 12.3644 20.9977 12.1198 20.8693 11.9123C20.7582 11.7329 20.6065 11.5812 20.4271 11.4701ZM23.649 9.44507C23.6947 9.45219 23.7416 9.45587 23.7894 9.45587C24.2897 9.45587 24.6952 9.05031 24.6952 8.55002C24.6952 8.04973 24.2897 7.64417 23.7894 7.64417C23.7416 7.64417 23.6947 7.64788 23.649 7.65499C23.2611 7.71534 22.9547 8.02178 22.8943 8.40966C22.8872 8.45541 22.8835 8.50228 22.8835 8.55002C22.8835 8.59777 22.8872 8.64466 22.8943 8.6904C22.9547 9.07829 23.2611 9.38473 23.649 9.44507ZM22.118 7.63336C22.5059 7.57302 22.8124 7.26658 22.8727 6.8787C22.8798 6.83295 22.8835 6.78606 22.8835 6.73832C22.8835 6.23803 22.478 5.83246 21.9777 5.83246C21.4774 5.83246 21.0718 6.23803 21.0718 6.73832C21.0718 6.78606 21.0755 6.83295 21.0826 6.8787C21.143 7.26658 21.4494 7.57302 21.8373 7.63336C21.883 7.64048 21.9299 7.64417 21.9777 7.64417C22.0254 7.64417 22.0723 7.64048 22.118 7.63336ZM21.061 8.40966C21.0007 8.02178 20.6942 7.71534 20.3063 7.65499C20.2606 7.64788 20.2137 7.64417 20.166 7.64417C19.6657 7.64417 19.2601 8.04973 19.2601 8.55002C19.2601 9.05031 19.6657 9.45587 20.166 9.45587C20.2137 9.45587 20.2606 9.45219 20.3063 9.44507C20.6942 9.38473 21.0007 9.07829 21.061 8.69041C21.0681 8.64466 21.0718 8.59777 21.0718 8.55002C21.0718 8.50228 21.0681 8.45541 21.061 8.40966ZM21.1691 10.7705C21.2562 10.9426 21.3968 11.0832 21.5689 11.1703C21.6917 11.2325 21.8306 11.2676 21.9777 11.2676C22.478 11.2676 22.8835 10.862 22.8835 10.3617C22.8835 10.314 22.8798 10.2671 22.8727 10.2214C22.8124 9.83348 22.5059 9.52704 22.118 9.4667C22.0723 9.45958 22.0254 9.45587 21.9777 9.45587C21.9299 9.45587 21.883 9.45958 21.8373 9.4667C21.4494 9.52704 21.143 9.83348 21.0826 10.2214C21.0755 10.2671 21.0718 10.314 21.0718 10.3617C21.0718 10.5088 21.1069 10.6477 21.1691 10.7705ZM8.8428 8.90881C9.04095 8.90881 9.20158 8.74818 9.20158 8.55003C9.20158 8.35188 9.04095 8.19125 8.8428 8.19125C8.64465 8.19125 8.48402 8.35188 8.48402 8.55003C8.48402 8.74818 8.64465 8.90881 8.8428 8.90881ZM19.713 12.9851C19.9112 12.9851 20.0718 12.8245 20.0718 12.6264C20.0718 12.4282 19.9112 12.2676 19.713 12.2676C19.5149 12.2676 19.3543 12.4282 19.3543 12.6264C19.3543 12.8245 19.5149 12.9851 19.713 12.9851ZM21.9777 6.64418C21.9257 6.64418 21.8835 6.68633 21.8835 6.73833C21.8835 6.79032 21.9257 6.83247 21.9777 6.83247C22.0297 6.83247 22.0718 6.79032 22.0718 6.73833C22.0718 6.68633 22.0297 6.64418 21.9777 6.64418ZM21.9777 10.2676C21.9257 10.2676 21.8835 10.3097 21.8835 10.3617C21.8835 10.4137 21.9257 10.4559 21.9777 10.4559C22.0297 10.4559 22.0718 10.4137 22.0718 10.3617C22.0718 10.3097 22.0297 10.2676 21.9777 10.2676ZM20.166 8.45588C20.114 8.45588 20.0718 8.49804 20.0718 8.55003C20.0718 8.60203 20.114 8.64418 20.166 8.64418C20.218 8.64418 20.2601 8.60203 20.2601 8.55003C20.2601 8.49803 20.218 8.45588 20.166 8.45588ZM23.7894 8.45588C23.7374 8.45588 23.6952 8.49804 23.6952 8.55003C23.6952 8.60203 23.7374 8.64418 23.7894 8.64418C23.8414 8.64418 23.8835 8.60203 23.8835 8.55003C23.8835 8.49804 23.8414 8.45588 23.7894 8.45588ZM10.2016 10.8147V11.947H9.06926V13.3057H10.2016V14.4381H11.5604V13.3057H12.6927V11.947H11.5604V10.8147H10.2016Z" fill="#6E0C9C"/>
</svg>
