<svg width="198" height="50" viewBox="0 0 198 50" fill="none" xmlns="http://www.w3.org/2000/svg">
<g clip-path="url(#clip0_6_33)">
<path d="M59.8848 32.8688C59.8848 32.8688 59.8188 32.4635 59.7801 32.4672L52.4261 33.1767C51.8409 33.2333 51.3864 33.6999 51.3454 34.2863L51.1433 37.182L45.4539 37.5879L45.0669 34.9635C44.9807 34.3798 44.471 33.9398 43.8809 33.9398H36.1191C35.5293 33.9398 35.0195 34.3798 34.9333 34.9635L34.5461 37.5879L28.8567 37.182L28.6547 34.2863C28.6136 33.6997 28.1591 33.2331 27.574 33.1765L20.2162 32.4672C20.1782 32.4635 20.1504 32.8692 20.1124 32.8692L20.1024 34.4607L26.3337 35.4656L26.5378 38.3871C26.5791 38.9786 27.0563 39.4568 27.6482 39.4993L35.4837 40.0583C35.5134 40.0603 35.5427 40.0615 35.572 40.0615C36.1608 40.0615 36.6697 39.6213 36.7559 39.0375L37.1541 36.3371H42.8462L43.2443 39.0375C43.3303 39.6211 43.8399 40.0613 44.4295 40.0613C44.4584 40.0613 44.4872 40.0603 44.5155 40.0583L52.3521 39.4993C52.9437 39.4568 53.4212 38.9786 53.4624 38.3871L53.6663 35.4656L59.895 34.4562L59.8848 32.8688Z" fill="white"/>
<path d="M20.1123 20.8686V30.5259V31.7526V32.8688C20.1342 32.869 20.1562 32.8698 20.1779 32.8719L27.5348 33.5812C27.9202 33.6184 28.2222 33.9286 28.2491 34.3148L28.4759 37.5623L34.8934 38.0203L35.3355 35.0229C35.3928 34.6343 35.7261 34.3463 36.1192 34.3463H43.881C44.2739 34.3463 44.6072 34.6343 44.6645 35.0229L45.1066 38.0203L51.5243 37.5623L51.7509 34.3148C51.778 33.9286 52.0798 33.6186 52.4652 33.5812L59.8193 32.8719C59.841 32.8698 59.8627 32.869 59.8847 32.8688V31.9113L59.8878 31.9103V20.8686H59.915C60.8896 19.6247 61.7914 18.3139 62.6562 16.9155C61.5077 14.9602 60.1003 13.2129 58.5961 11.594C57.201 12.2962 55.8459 13.0917 54.566 13.9383C53.9255 13.3017 53.2042 12.781 52.4957 12.2367C51.7995 11.6775 51.015 11.2676 50.2709 10.7899C50.4924 9.14011 50.602 7.51592 50.6461 5.82079C48.7261 4.85453 46.6788 4.21388 44.6078 3.75372C43.781 5.14335 43.0249 6.64824 42.3664 8.11938C41.5855 7.98889 40.8009 7.94052 40.0153 7.93117V7.92994C40.0099 7.92994 40.0048 7.93117 40.0001 7.93117C39.9952 7.93117 39.9901 7.92994 39.9853 7.92994V7.93117C39.1983 7.94052 38.4143 7.98889 37.6332 8.11938C36.9751 6.64824 36.2194 5.14335 35.3914 3.75372C33.3214 4.21388 31.2739 4.85453 29.3541 5.82079C29.398 7.51592 29.5076 9.14011 29.7298 10.7899C28.9842 11.2676 28.2007 11.6775 27.5043 12.2367C26.7968 12.781 26.0743 13.3017 25.4336 13.9383C24.1537 13.0917 22.799 12.2962 21.4035 11.594C19.8992 13.2129 18.4927 14.9602 17.3438 16.9155C18.2082 18.3139 19.1106 19.6247 20.085 20.8686H20.1123Z" fill="#FF3F3F"/>
<path d="M53.2847 35.0939L53.0569 38.3587C53.0294 38.7522 52.7164 39.0655 52.3229 39.0937L44.4865 39.6529C44.4674 39.6543 44.4483 39.6549 44.4294 39.6549C44.04 39.6549 43.704 39.3691 43.6465 38.9781L43.1971 35.9305H36.803L36.3536 38.9781C36.2932 39.3882 35.9266 39.6831 35.5136 39.6529L27.6771 39.0937C27.2837 39.0655 26.9706 38.7522 26.9432 38.3587L26.7154 35.0939L20.1001 34.4561C20.1031 35.1671 20.1123 35.9459 20.1123 36.101C20.1123 43.0876 28.9751 46.4458 39.9865 46.4844H39.9999H40.0136C51.025 46.4458 59.8847 43.0876 59.8847 36.101C59.8847 35.9431 59.8943 35.1675 59.8976 34.4561L53.2847 35.0939Z" fill="#FF3F3F"/>
<path d="M34.0046 25.7399C34.0046 28.1895 32.0198 30.1738 29.5711 30.1738C27.1235 30.1738 25.1381 28.1895 25.1381 25.7399C25.1381 23.2919 27.1235 21.3086 29.5711 21.3086C32.0198 21.3086 34.0046 23.2919 34.0046 25.7399Z" fill="white"/>
<path d="M32.9378 26.0028C32.9378 27.6276 31.621 28.9445 29.995 28.9445C28.3697 28.9445 27.0521 27.6276 27.0521 26.0028C27.0521 24.378 28.3697 23.0599 29.995 23.0599C31.621 23.0599 32.9378 24.378 32.9378 26.0028Z" fill="#414042"/>
<path d="M39.9997 30.5771C39.2115 30.5771 38.5726 29.9963 38.5726 29.2802V25.1987C38.5726 24.4832 39.2115 23.9017 39.9997 23.9017C40.7879 23.9017 41.4281 24.4832 41.4281 25.1987V29.2802C41.4281 29.9963 40.7879 30.5771 39.9997 30.5771Z" fill="white"/>
<path d="M45.9955 25.7399C45.9955 28.1895 47.9802 30.1738 50.4294 30.1738C52.8768 30.1738 54.862 28.1895 54.862 25.7399C54.862 23.2919 52.8768 21.3086 50.4294 21.3086C47.9802 21.3086 45.9955 23.2919 45.9955 25.7399Z" fill="white"/>
<path d="M47.0625 26.0028C47.0625 27.6276 48.379 28.9445 50.0038 28.9445C51.6302 28.9445 52.9467 27.6276 52.9467 26.0028C52.9467 24.378 51.6302 23.0599 50.0038 23.0599C48.379 23.0599 47.0625 24.378 47.0625 26.0028Z" fill="#414042"/>
</g>
<path d="M76.1145 27.18C74.6025 27.18 73.3005 26.916 72.2085 26.388C71.1285 25.848 70.2945 25.074 69.7065 24.066C69.1305 23.058 68.8425 21.846 68.8425 20.43C68.8425 19.014 69.1245 17.808 69.6885 16.812C70.2645 15.804 71.0805 15.03 72.1365 14.49C73.2045 13.95 74.4765 13.68 75.9525 13.68C76.7685 13.68 77.5305 13.764 78.2385 13.932C78.9585 14.1 79.6065 14.358 80.1825 14.706L79.5165 17.19C79.0485 16.902 78.4905 16.674 77.8425 16.506C77.2065 16.338 76.5765 16.254 75.9525 16.254C75.1245 16.254 74.4225 16.416 73.8465 16.74C73.2705 17.064 72.8325 17.538 72.5325 18.162C72.2325 18.774 72.0825 19.53 72.0825 20.43C72.0825 21.342 72.2325 22.11 72.5325 22.734C72.8445 23.346 73.3005 23.814 73.9005 24.138C74.5005 24.45 75.2385 24.606 76.1145 24.606C76.5345 24.606 76.9185 24.57 77.2665 24.498C77.6265 24.414 77.9685 24.288 78.2925 24.12L77.9145 24.894V21.672H74.5125V19.116H80.9745V26.118C80.3145 26.454 79.5585 26.718 78.7065 26.91C77.8665 27.09 77.0025 27.18 76.1145 27.18ZM87.4837 27.18C85.8997 27.18 84.6817 26.766 83.8297 25.938C82.9897 25.098 82.5697 23.892 82.5697 22.32C82.5697 20.748 82.9897 19.548 83.8297 18.72C84.6817 17.88 85.8997 17.46 87.4837 17.46C89.0797 17.46 90.2977 17.88 91.1377 18.72C91.9897 19.548 92.4157 20.748 92.4157 22.32C92.4157 23.892 91.9897 25.098 91.1377 25.938C90.2977 26.766 89.0797 27.18 87.4837 27.18ZM87.4837 24.966C88.1317 24.966 88.6117 24.75 88.9237 24.318C89.2477 23.874 89.4097 23.208 89.4097 22.32C89.4097 21.42 89.2477 20.754 88.9237 20.322C88.6117 19.89 88.1317 19.674 87.4837 19.674C86.8477 19.674 86.3677 19.89 86.0437 20.322C85.7317 20.754 85.5757 21.42 85.5757 22.32C85.5757 23.208 85.7317 23.874 86.0437 24.318C86.3677 24.75 86.8477 24.966 87.4837 24.966ZM97.4604 27.18C96.2364 27.18 95.2884 26.76 94.6164 25.92C93.9564 25.08 93.6264 23.88 93.6264 22.32C93.6264 20.76 93.9564 19.56 94.6164 18.72C95.2884 17.88 96.2364 17.46 97.4604 17.46C98.0484 17.46 98.5704 17.562 99.0264 17.766C99.4824 17.97 99.9084 18.294 100.304 18.738H100.34V13.86H103.346V27H100.502L100.466 25.902H100.43C100.022 26.334 99.5724 26.658 99.0804 26.874C98.6004 27.078 98.0604 27.18 97.4604 27.18ZM98.4684 24.84C98.8404 24.84 99.1644 24.768 99.4404 24.624C99.7284 24.468 99.9504 24.258 100.106 23.994C100.262 23.73 100.34 23.43 100.34 23.094V21.546C100.34 21.198 100.262 20.898 100.106 20.646C99.9504 20.382 99.7284 20.178 99.4404 20.034C99.1644 19.878 98.8404 19.8 98.4684 19.8C97.8564 19.8 97.3824 20.016 97.0464 20.448C96.7224 20.88 96.5604 21.504 96.5604 22.32C96.5604 23.124 96.7224 23.748 97.0464 24.192C97.3824 24.624 97.8564 24.84 98.4684 24.84ZM109.931 27.18C108.347 27.18 107.129 26.766 106.277 25.938C105.437 25.098 105.017 23.892 105.017 22.32C105.017 20.748 105.437 19.548 106.277 18.72C107.129 17.88 108.347 17.46 109.931 17.46C111.527 17.46 112.745 17.88 113.585 18.72C114.437 19.548 114.863 20.748 114.863 22.32C114.863 23.892 114.437 25.098 113.585 25.938C112.745 26.766 111.527 27.18 109.931 27.18ZM109.931 24.966C110.579 24.966 111.059 24.75 111.371 24.318C111.695 23.874 111.857 23.208 111.857 22.32C111.857 21.42 111.695 20.754 111.371 20.322C111.059 19.89 110.579 19.674 109.931 19.674C109.295 19.674 108.815 19.89 108.491 20.322C108.179 20.754 108.023 21.42 108.023 22.32C108.023 23.208 108.179 23.874 108.491 24.318C108.815 24.75 109.295 24.966 109.931 24.966ZM120.813 27.18C119.625 27.18 118.767 26.946 118.239 26.478C117.711 26.01 117.447 25.242 117.447 24.174V19.854H115.575V17.64H117.447V14.58H120.489V17.64H123.315V19.854H120.489V23.526C120.489 24.018 120.555 24.354 120.687 24.534C120.831 24.714 121.095 24.804 121.479 24.804C121.707 24.804 121.965 24.78 122.253 24.732C122.541 24.684 122.799 24.618 123.027 24.534L123.279 26.838C122.823 26.958 122.397 27.042 122.001 27.09C121.617 27.15 121.221 27.18 120.813 27.18ZM73.0278 41.1C72.0544 41.1 71.3144 40.8767 70.8078 40.43C70.3078 39.9833 70.0578 39.33 70.0578 38.47V33.7H71.4578V38.2C71.4578 38.7933 71.5778 39.22 71.8178 39.48C72.0644 39.74 72.4678 39.87 73.0278 39.87C73.5878 39.87 73.9878 39.74 74.2278 39.48C74.4744 39.22 74.5978 38.7933 74.5978 38.2V33.7H75.9978V38.47C75.9978 39.33 75.7478 39.9833 75.2478 40.43C74.7478 40.8767 74.0078 41.1 73.0278 41.1ZM81.5043 41.1C81.271 41.1 81.021 41.0833 80.7543 41.05C80.4943 41.0233 80.2443 40.9833 80.0043 40.93C79.7643 40.87 79.5543 40.8033 79.3743 40.73L79.5443 39.68C79.8643 39.7933 80.171 39.88 80.4643 39.94C80.7643 40 81.061 40.03 81.3543 40.03C81.6877 40.03 81.931 39.9867 82.0843 39.9C82.2377 39.8133 82.3143 39.68 82.3143 39.5C82.3143 39.3933 82.2877 39.3067 82.2343 39.24C82.181 39.1733 82.0843 39.1133 81.9443 39.06C81.811 39 81.621 38.9433 81.3743 38.89C80.9477 38.7833 80.581 38.66 80.2743 38.52C79.9743 38.3733 79.7443 38.1933 79.5843 37.98C79.4243 37.7667 79.3443 37.5067 79.3443 37.2C79.3443 36.7067 79.531 36.3333 79.9043 36.08C80.2777 35.8267 80.821 35.7 81.5343 35.7C81.861 35.7 82.1977 35.7267 82.5443 35.78C82.8977 35.8333 83.2277 35.91 83.5343 36.01L83.3643 37.06C83.071 36.96 82.7877 36.8867 82.5143 36.84C82.241 36.7933 81.9743 36.77 81.7143 36.77C81.381 36.77 81.1343 36.81 80.9743 36.89C80.8143 36.9633 80.7343 37.08 80.7343 37.24C80.7343 37.3333 80.761 37.4133 80.8143 37.48C80.8677 37.5467 80.961 37.6067 81.0943 37.66C81.2277 37.7133 81.4143 37.7667 81.6543 37.82C81.9677 37.8933 82.251 37.98 82.5043 38.08C82.7577 38.18 82.9743 38.3 83.1543 38.44C83.3343 38.5733 83.471 38.73 83.5643 38.91C83.6643 39.09 83.7143 39.2967 83.7143 39.53C83.7143 39.85 83.6243 40.13 83.4443 40.37C83.2643 40.6033 83.0077 40.7833 82.6743 40.91C82.3477 41.0367 81.9577 41.1 81.5043 41.1ZM89.7227 41.1C88.7894 41.1 88.0694 40.8667 87.5627 40.4C87.0627 39.9333 86.8127 39.2667 86.8127 38.4C86.8127 37.56 87.0427 36.9 87.5027 36.42C87.9627 35.94 88.596 35.7 89.4027 35.7C90.1827 35.7 90.7827 35.9267 91.2027 36.38C91.6294 36.8333 91.8427 37.4767 91.8427 38.31C91.8427 38.4033 91.8394 38.51 91.8327 38.63C91.8327 38.75 91.8294 38.84 91.8227 38.9H87.5827V37.95H90.7527L90.5627 38.24C90.5627 37.72 90.466 37.3333 90.2727 37.08C90.086 36.8267 89.796 36.7 89.4027 36.7C88.9894 36.7 88.6794 36.8333 88.4727 37.1C88.266 37.36 88.1627 37.75 88.1627 38.27V38.67C88.1627 39.1367 88.286 39.48 88.5327 39.7C88.7794 39.92 89.156 40.03 89.6627 40.03C89.9494 40.03 90.2527 40.0033 90.5727 39.95C90.8927 39.8967 91.176 39.8233 91.4227 39.73L91.5827 40.78C91.336 40.88 91.046 40.9567 90.7127 41.01C90.386 41.07 90.056 41.1 89.7227 41.1ZM95.2754 41V35.8H96.5954L96.6054 36.77H96.6354C96.8087 36.5367 97.012 36.3433 97.2454 36.19C97.4854 36.03 97.7454 35.91 98.0254 35.83C98.312 35.7433 98.6054 35.7 98.9054 35.7V36.87C98.492 36.87 98.1154 36.9467 97.7754 37.1C97.4354 37.2533 97.1654 37.4633 96.9654 37.73C96.7654 37.99 96.6654 38.28 96.6654 38.6V41H95.2754ZM110.851 41.1C110.051 41.1 109.365 40.9533 108.791 40.66C108.218 40.36 107.778 39.93 107.471 39.37C107.171 38.81 107.021 38.1367 107.021 37.35C107.021 36.5633 107.171 35.89 107.471 35.33C107.778 34.77 108.218 34.3433 108.791 34.05C109.365 33.75 110.051 33.6 110.851 33.6C111.765 33.6 112.575 33.7967 113.281 34.19L112.961 35.41C112.275 35.0233 111.591 34.83 110.911 34.83C110.405 34.83 109.968 34.93 109.601 35.13C109.235 35.33 108.955 35.62 108.761 36C108.568 36.3733 108.471 36.8233 108.471 37.35C108.471 37.87 108.568 38.32 108.761 38.7C108.955 39.08 109.235 39.37 109.601 39.57C109.968 39.77 110.405 39.87 110.911 39.87C111.578 39.87 112.261 39.6767 112.961 39.29L113.281 40.51C112.575 40.9033 111.765 41.1 110.851 41.1ZM118.897 41.1C118.044 41.1 117.384 40.8667 116.917 40.4C116.457 39.9333 116.227 39.2667 116.227 38.4C116.227 37.5333 116.457 36.8667 116.917 36.4C117.384 35.9333 118.044 35.7 118.897 35.7C119.75 35.7 120.407 35.9333 120.867 36.4C121.327 36.8667 121.557 37.5333 121.557 38.4C121.557 39.2667 121.327 39.9333 120.867 40.4C120.407 40.8667 119.75 41.1 118.897 41.1ZM118.897 40.03C119.324 40.03 119.644 39.8933 119.857 39.62C120.077 39.3467 120.187 38.94 120.187 38.4C120.187 37.86 120.077 37.4533 119.857 37.18C119.644 36.9067 119.324 36.77 118.897 36.77C118.477 36.77 118.154 36.9067 117.927 37.18C117.707 37.4533 117.597 37.86 117.597 38.4C117.597 38.94 117.707 39.3467 117.927 39.62C118.154 39.8933 118.477 40.03 118.897 40.03ZM124.993 41V35.8H126.273L126.293 36.41H126.313C126.506 36.1767 126.726 36 126.973 35.88C127.226 35.76 127.523 35.7 127.863 35.7C128.196 35.7 128.479 35.76 128.713 35.88C128.946 36 129.113 36.1767 129.213 36.41H129.233C129.439 36.1633 129.673 35.9833 129.933 35.87C130.193 35.7567 130.496 35.7 130.843 35.7C131.396 35.7 131.796 35.8467 132.043 36.14C132.296 36.4333 132.423 36.8967 132.423 37.53V41H131.083V37.87C131.083 37.51 131.026 37.2467 130.913 37.08C130.799 36.9133 130.616 36.83 130.363 36.83C130.063 36.83 129.826 36.9333 129.653 37.14C129.479 37.34 129.393 37.6067 129.393 37.94V41H128.043V37.8C128.043 37.48 127.979 37.24 127.853 37.08C127.733 36.9133 127.553 36.83 127.313 36.83C127.133 36.83 126.969 36.88 126.823 36.98C126.676 37.0733 126.559 37.2033 126.473 37.37C126.386 37.5367 126.343 37.7267 126.343 37.94V41H124.993ZM136.074 41V35.8H137.354L137.374 36.41H137.394C137.588 36.1767 137.808 36 138.054 35.88C138.308 35.76 138.604 35.7 138.944 35.7C139.278 35.7 139.561 35.76 139.794 35.88C140.028 36 140.194 36.1767 140.294 36.41H140.314C140.521 36.1633 140.754 35.9833 141.014 35.87C141.274 35.7567 141.578 35.7 141.924 35.7C142.478 35.7 142.878 35.8467 143.124 36.14C143.378 36.4333 143.504 36.8967 143.504 37.53V41H142.164V37.87C142.164 37.51 142.108 37.2467 141.994 37.08C141.881 36.9133 141.698 36.83 141.444 36.83C141.144 36.83 140.908 36.9333 140.734 37.14C140.561 37.34 140.474 37.6067 140.474 37.94V41H139.124V37.8C139.124 37.48 139.061 37.24 138.934 37.08C138.814 36.9133 138.634 36.83 138.394 36.83C138.214 36.83 138.051 36.88 137.904 36.98C137.758 37.0733 137.641 37.2033 137.554 37.37C137.468 37.5367 137.424 37.7267 137.424 37.94V41H136.074ZM148.806 41.1C148.192 41.1 147.742 40.93 147.456 40.59C147.169 40.25 147.026 39.72 147.026 39V35.8H148.396V38.73C148.396 39.1633 148.462 39.48 148.596 39.68C148.736 39.8733 148.959 39.97 149.266 39.97C149.499 39.97 149.702 39.9233 149.876 39.83C150.056 39.73 150.196 39.5967 150.296 39.43C150.396 39.2633 150.446 39.0733 150.446 38.86V35.8H151.826V41H150.516L150.496 40.39H150.476C150.269 40.63 150.029 40.81 149.756 40.93C149.482 41.0433 149.166 41.1 148.806 41.1ZM155.611 41V35.8H156.921L156.931 36.41H156.951C157.164 36.17 157.411 35.9933 157.691 35.88C157.977 35.76 158.307 35.7 158.681 35.7C159.307 35.7 159.767 35.87 160.061 36.21C160.361 36.5433 160.511 37.0733 160.511 37.8V41H159.141V38.07C159.141 37.6367 159.067 37.3233 158.921 37.13C158.774 36.93 158.541 36.83 158.221 36.83C157.981 36.83 157.767 36.88 157.581 36.98C157.394 37.0733 157.247 37.2033 157.141 37.37C157.041 37.53 156.991 37.72 156.991 37.94V41H155.611ZM164.233 34.97V33.7H165.633V34.97H164.233ZM164.233 41V35.87H165.633V41H164.233ZM171.863 41.1C171.236 41.1 170.783 40.9733 170.503 40.72C170.229 40.4667 170.093 40.05 170.093 39.47V36.87H168.963V35.8H170.093V34.1H171.473V35.8H173.163V36.87H171.473V39.13C171.473 39.4433 171.523 39.6633 171.623 39.79C171.723 39.91 171.903 39.97 172.163 39.97C172.303 39.97 172.449 39.9567 172.603 39.93C172.763 39.9033 172.909 39.8667 173.043 39.82L173.153 40.91C172.926 40.9767 172.709 41.0233 172.503 41.05C172.296 41.0833 172.083 41.1 171.863 41.1ZM177.296 43.1L178.156 40.97L176.106 35.81L177.576 35.8L178.836 39.65H178.856L180.126 35.8H181.606L178.746 43.1H177.296Z" fill="white"/>
<path d="M133.32 27.18C132.576 27.18 131.844 27.114 131.124 26.982C130.416 26.85 129.744 26.658 129.108 26.406L129.594 23.706C130.398 23.982 131.064 24.18 131.592 24.3C132.12 24.408 132.636 24.462 133.14 24.462C133.728 24.462 134.196 24.378 134.544 24.21C134.892 24.042 135.138 23.766 135.282 23.382C135.438 22.986 135.516 22.452 135.516 21.78V13.86H138.648V22.374C138.648 24.042 138.222 25.26 137.37 26.028C136.518 26.796 135.168 27.18 133.32 27.18ZM143.034 27.18C142.134 27.18 141.42 26.922 140.892 26.406C140.364 25.89 140.1 25.194 140.1 24.318C140.1 23.262 140.514 22.446 141.342 21.87C142.182 21.294 143.364 21.006 144.888 21.006H145.986C145.986 20.646 145.944 20.37 145.86 20.178C145.788 19.986 145.65 19.854 145.446 19.782C145.242 19.71 144.954 19.674 144.582 19.674C143.994 19.674 143.358 19.734 142.674 19.854C142.002 19.974 141.378 20.142 140.802 20.358L140.478 18.144C141.102 17.928 141.81 17.76 142.602 17.64C143.406 17.52 144.204 17.46 144.996 17.46C145.98 17.46 146.76 17.58 147.336 17.82C147.912 18.048 148.326 18.426 148.578 18.954C148.842 19.482 148.974 20.19 148.974 21.078V27H146.13L146.094 25.92H146.058C145.722 26.304 145.278 26.61 144.726 26.838C144.186 27.066 143.622 27.18 143.034 27.18ZM144.168 25.038C144.516 25.038 144.828 24.978 145.104 24.858C145.38 24.738 145.596 24.576 145.752 24.372C145.908 24.156 145.986 23.916 145.986 23.652V22.77H145.338C144.498 22.77 143.874 22.872 143.466 23.076C143.058 23.268 142.854 23.58 142.854 24.012C142.854 24.336 142.968 24.588 143.196 24.768C143.424 24.948 143.748 25.038 144.168 25.038ZM156.865 17.46C158.101 17.46 159.049 17.88 159.709 18.72C160.381 19.56 160.717 20.76 160.717 22.32C160.717 23.88 160.381 25.08 159.709 25.92C159.049 26.76 158.101 27.18 156.865 27.18C156.301 27.18 155.785 27.078 155.317 26.874C154.861 26.658 154.429 26.334 154.021 25.902H153.985V30.78H150.997V17.64H153.841L153.877 18.738H153.913C154.321 18.294 154.765 17.97 155.245 17.766C155.737 17.562 156.277 17.46 156.865 17.46ZM155.875 19.8C155.503 19.8 155.173 19.878 154.885 20.034C154.609 20.178 154.387 20.382 154.219 20.646C154.063 20.898 153.985 21.198 153.985 21.546V23.094C153.985 23.43 154.063 23.73 154.219 23.994C154.387 24.258 154.609 24.468 154.885 24.624C155.173 24.768 155.503 24.84 155.875 24.84C156.487 24.84 156.955 24.624 157.279 24.192C157.603 23.748 157.765 23.124 157.765 22.32C157.765 21.504 157.603 20.88 157.279 20.448C156.955 20.016 156.487 19.8 155.875 19.8ZM164.743 27.18C163.843 27.18 163.129 26.922 162.601 26.406C162.073 25.89 161.809 25.194 161.809 24.318C161.809 23.262 162.223 22.446 163.051 21.87C163.891 21.294 165.073 21.006 166.597 21.006H167.695C167.695 20.646 167.653 20.37 167.569 20.178C167.497 19.986 167.359 19.854 167.155 19.782C166.951 19.71 166.663 19.674 166.291 19.674C165.703 19.674 165.067 19.734 164.383 19.854C163.711 19.974 163.087 20.142 162.511 20.358L162.187 18.144C162.811 17.928 163.519 17.76 164.311 17.64C165.115 17.52 165.913 17.46 166.705 17.46C167.689 17.46 168.469 17.58 169.045 17.82C169.621 18.048 170.035 18.426 170.287 18.954C170.551 19.482 170.683 20.19 170.683 21.078V27H167.839L167.803 25.92H167.767C167.431 26.304 166.987 26.61 166.435 26.838C165.895 27.066 165.331 27.18 164.743 27.18ZM165.877 25.038C166.225 25.038 166.537 24.978 166.813 24.858C167.089 24.738 167.305 24.576 167.461 24.372C167.617 24.156 167.695 23.916 167.695 23.652V22.77H167.047C166.207 22.77 165.583 22.872 165.175 23.076C164.767 23.268 164.563 23.58 164.563 24.012C164.563 24.336 164.677 24.588 164.905 24.768C165.133 24.948 165.457 25.038 165.877 25.038ZM172.706 27V17.64H175.55L175.586 18.738H175.622C176.018 18.294 176.462 17.97 176.954 17.766C177.446 17.562 178.016 17.46 178.664 17.46C179.768 17.46 180.578 17.766 181.094 18.378C181.622 18.978 181.886 19.932 181.886 21.24V27H178.88V21.834C178.88 21.162 178.772 20.676 178.556 20.376C178.34 20.076 177.992 19.926 177.512 19.926C177.164 19.926 176.852 19.998 176.576 20.142C176.3 20.274 176.084 20.46 175.928 20.7C175.772 20.94 175.694 21.222 175.694 21.546V27H172.706Z" fill="#EF3355"/>
<defs>
<clipPath id="clip0_6_33">
<rect width="50" height="50" fill="white" transform="translate(15)"/>
</clipPath>
</defs>
</svg>
