<svg width="32" height="24" viewBox="0 0 32 24" fill="none" xmlns="http://www.w3.org/2000/svg">
<mask id="path-1-outside-1_55_207" maskUnits="userSpaceOnUse" x="4.64001" y="0.349976" width="23" height="24" fill="black">
<rect fill="white" x="4.64001" y="0.349976" width="23" height="24"/>
<path fill-rule="evenodd" clip-rule="evenodd" d="M24.4335 15.3429C24.2169 15.2051 23.9753 15.1116 23.7224 15.0679C23.4695 15.0242 23.2104 15.0311 22.9602 15.0882C22.6436 15.1727 22.3523 15.3329 22.1115 15.5551L19.7652 14.197C20.1348 13.2841 20.1688 12.2698 19.8614 11.3341C19.5539 10.3985 18.9249 9.60205 18.0859 9.08623L18.0192 9.0438C17.566 8.78803 17.068 8.62135 16.5521 8.55272V6.24893C17.0349 6.10382 17.4431 5.77808 17.6918 5.33953C17.9597 4.88615 18.0379 4.34545 17.9097 3.83472C17.7814 3.324 17.457 2.88443 17.0068 2.61135C16.7874 2.48303 16.5447 2.39977 16.2927 2.36646C16.0408 2.33314 15.7848 2.35045 15.5396 2.41735C15.2868 2.48179 15.0494 2.59593 14.8412 2.7531C14.6331 2.91028 14.4583 3.10735 14.3271 3.33281C14.0668 3.784 13.9928 4.31892 14.1207 4.82385C14.2486 5.32877 14.5684 5.7639 15.0122 6.03674C15.1513 6.12763 15.3022 6.19903 15.4608 6.24893V8.55272C14.8501 8.63608 14.2667 8.85877 13.7558 9.20358C13.2449 9.54839 12.8201 10.0061 12.5144 10.5413C12.198 11.0883 12.0106 11.7002 11.9664 12.3306C11.9223 12.961 12.0226 13.5931 12.2597 14.1788L9.83467 15.5672C9.74962 15.4855 9.65841 15.4105 9.56185 15.3429C9.33985 15.2166 9.0951 15.1353 8.84163 15.1039C8.58816 15.0724 8.33097 15.0913 8.08482 15.1594C7.83866 15.2276 7.60839 15.3437 7.40721 15.501C7.20604 15.6584 7.03791 15.8539 6.91249 16.0764C6.6506 16.5255 6.57375 17.0588 6.69823 17.5635C6.8227 18.0682 7.13873 18.5046 7.57938 18.7804C7.88141 18.9622 8.22716 19.0586 8.57971 19.0592C8.73935 19.0604 8.89841 19.04 9.05259 18.9986C9.55663 18.8686 9.98874 18.5444 10.2545 18.0969C10.5204 17.6493 10.5983 17.1148 10.4712 16.6099V16.5069L12.8235 15.1489C13.1388 15.5616 13.5272 15.913 13.9694 16.1856C14.817 16.72 15.8365 16.9109 16.82 16.7194C17.8035 16.5279 18.6769 15.9683 19.262 15.1549L21.584 16.4948C21.4746 16.9082 21.501 17.3459 21.6592 17.7433C21.8175 18.1406 22.0993 18.4766 22.4631 18.7016C22.9038 18.9601 23.429 19.0332 23.9235 18.9047C24.418 18.7763 24.8413 18.4568 25.1004 18.0165C25.353 17.5703 25.4247 17.0441 25.3006 16.5466C25.1765 16.049 24.8661 15.6181 24.4335 15.3429ZM9.97411 7.46145C10.8427 6.43544 11.9592 5.64863 13.2176 5.17584C13.0958 4.76935 13.0607 4.3418 13.1145 3.92088C11.5381 4.44795 10.1342 5.39294 9.05259 6.65512C8.94567 6.77732 8.89167 6.937 8.90247 7.09901C8.91327 7.26103 8.98799 7.41212 9.11019 7.51905C9.23239 7.62597 9.39206 7.67998 9.55408 7.66917C9.7161 7.65837 9.86719 7.58365 9.97411 7.46145ZM23.803 14.0939C24.2018 14.143 24.586 14.2751 24.9306 14.4819H24.9609C25.3189 12.7894 25.1907 11.0302 24.5911 9.40748C24.5687 9.32673 24.5297 9.25152 24.4767 9.18658C24.4237 9.12165 24.3578 9.06841 24.2832 9.03022C24.2086 8.99204 24.1269 8.96974 24.0432 8.96473C23.9596 8.95973 23.8758 8.97212 23.7971 9.00113C23.7185 9.03015 23.6467 9.07515 23.5864 9.1333C23.526 9.19145 23.4784 9.26148 23.4465 9.33898C23.4145 9.41647 23.399 9.49974 23.4009 9.58354C23.4028 9.66733 23.422 9.74982 23.4574 9.8258C23.9584 11.1906 24.0779 12.6662 23.803 14.0939ZM21.0566 18.7257C20.0002 19.607 18.7315 20.1965 17.3766 20.4354C17.297 20.4422 17.2195 20.4645 17.1485 20.5013C17.0775 20.538 17.0145 20.5883 16.963 20.6494C16.9115 20.7105 16.8725 20.7811 16.8483 20.8573C16.8241 20.9334 16.8151 21.0136 16.8219 21.0932C16.8286 21.1728 16.851 21.2503 16.8877 21.3213C16.9244 21.3922 16.9748 21.4553 17.0359 21.5068C17.0969 21.5583 17.1676 21.5973 17.2437 21.6215C17.3199 21.6457 17.4 21.6547 17.4797 21.6479H17.5888C19.2036 21.3631 20.7128 20.6514 21.9599 19.5866V19.5442C21.6033 19.3397 21.2951 19.0605 21.0566 18.7257ZM14.5635 20.399C13.6465 20.2269 12.7665 19.8966 11.9627 19.4229C11.6189 19.2204 11.2888 18.9956 10.9745 18.75C10.7433 19.0895 10.4413 19.375 10.0893 19.5866C10.483 19.9188 10.9027 20.2188 11.3443 20.4839C12.2703 21.0293 13.2834 21.4108 14.3392 21.6115H14.4544C14.6152 21.626 14.7751 21.576 14.8991 21.4726C15.023 21.3691 15.1008 21.2206 15.1152 21.0598C15.1297 20.899 15.0797 20.7391 14.9762 20.6152C14.8728 20.4912 14.7243 20.4135 14.5635 20.399ZM7.85827 14.2212C7.97952 14.2212 8.10078 14.203 8.22203 14.1666C7.93302 12.7371 8.04636 11.2554 8.54941 9.88643C8.60488 9.73529 8.59804 9.5683 8.53039 9.4222C8.46274 9.2761 8.33983 9.16285 8.18868 9.10738C8.03754 9.05191 7.87055 9.05875 7.72445 9.1264C7.57835 9.19405 7.46511 9.31696 7.40964 9.46811C6.80913 11.104 6.69129 12.878 7.07013 14.5789C7.31341 14.4208 7.5791 14.3002 7.85827 14.2212ZM22.0267 7.4614C21.4642 6.79718 20.7965 6.22985 20.0502 5.78205C19.6491 5.54614 19.2294 5.34338 18.7953 5.17579C18.9161 4.77106 18.9471 4.34485 18.8862 3.92689C19.5062 4.13441 20.1034 4.40458 20.6686 4.73322C21.5304 5.24955 22.3007 5.90511 22.9482 6.67326C22.9999 6.73377 23.0392 6.80388 23.0639 6.87958C23.0886 6.95529 23.0981 7.03511 23.0919 7.11449C23.0857 7.19386 23.0639 7.27125 23.0278 7.34221C22.9917 7.41318 22.942 7.47634 22.8815 7.52809C22.821 7.57984 22.7509 7.61916 22.6752 7.64382C22.5995 7.66848 22.5196 7.67798 22.4403 7.67179C22.3609 7.66559 22.2835 7.64383 22.2125 7.60773C22.1416 7.57163 22.0784 7.52191 22.0267 7.4614Z"/>
</mask>
<path fill-rule="evenodd" clip-rule="evenodd" d="M24.4335 15.3429C24.2169 15.2051 23.9753 15.1116 23.7224 15.0679C23.4695 15.0242 23.2104 15.0311 22.9602 15.0882C22.6436 15.1727 22.3523 15.3329 22.1115 15.5551L19.7652 14.197C20.1348 13.2841 20.1688 12.2698 19.8614 11.3341C19.5539 10.3985 18.9249 9.60205 18.0859 9.08623L18.0192 9.0438C17.566 8.78803 17.068 8.62135 16.5521 8.55272V6.24893C17.0349 6.10382 17.4431 5.77808 17.6918 5.33953C17.9597 4.88615 18.0379 4.34545 17.9097 3.83472C17.7814 3.324 17.457 2.88443 17.0068 2.61135C16.7874 2.48303 16.5447 2.39977 16.2927 2.36646C16.0408 2.33314 15.7848 2.35045 15.5396 2.41735C15.2868 2.48179 15.0494 2.59593 14.8412 2.7531C14.6331 2.91028 14.4583 3.10735 14.3271 3.33281C14.0668 3.784 13.9928 4.31892 14.1207 4.82385C14.2486 5.32877 14.5684 5.7639 15.0122 6.03674C15.1513 6.12763 15.3022 6.19903 15.4608 6.24893V8.55272C14.8501 8.63608 14.2667 8.85877 13.7558 9.20358C13.2449 9.54839 12.8201 10.0061 12.5144 10.5413C12.198 11.0883 12.0106 11.7002 11.9664 12.3306C11.9223 12.961 12.0226 13.5931 12.2597 14.1788L9.83467 15.5672C9.74962 15.4855 9.65841 15.4105 9.56185 15.3429C9.33985 15.2166 9.0951 15.1353 8.84163 15.1039C8.58816 15.0724 8.33097 15.0913 8.08482 15.1594C7.83866 15.2276 7.60839 15.3437 7.40721 15.501C7.20604 15.6584 7.03791 15.8539 6.91249 16.0764C6.6506 16.5255 6.57375 17.0588 6.69823 17.5635C6.8227 18.0682 7.13873 18.5046 7.57938 18.7804C7.88141 18.9622 8.22716 19.0586 8.57971 19.0592C8.73935 19.0604 8.89841 19.04 9.05259 18.9986C9.55663 18.8686 9.98874 18.5444 10.2545 18.0969C10.5204 17.6493 10.5983 17.1148 10.4712 16.6099V16.5069L12.8235 15.1489C13.1388 15.5616 13.5272 15.913 13.9694 16.1856C14.817 16.72 15.8365 16.9109 16.82 16.7194C17.8035 16.5279 18.6769 15.9683 19.262 15.1549L21.584 16.4948C21.4746 16.9082 21.501 17.3459 21.6592 17.7433C21.8175 18.1406 22.0993 18.4766 22.4631 18.7016C22.9038 18.9601 23.429 19.0332 23.9235 18.9047C24.418 18.7763 24.8413 18.4568 25.1004 18.0165C25.353 17.5703 25.4247 17.0441 25.3006 16.5466C25.1765 16.049 24.8661 15.6181 24.4335 15.3429ZM9.97411 7.46145C10.8427 6.43544 11.9592 5.64863 13.2176 5.17584C13.0958 4.76935 13.0607 4.3418 13.1145 3.92088C11.5381 4.44795 10.1342 5.39294 9.05259 6.65512C8.94567 6.77732 8.89167 6.937 8.90247 7.09901C8.91327 7.26103 8.98799 7.41212 9.11019 7.51905C9.23239 7.62597 9.39206 7.67998 9.55408 7.66917C9.7161 7.65837 9.86719 7.58365 9.97411 7.46145ZM23.803 14.0939C24.2018 14.143 24.586 14.2751 24.9306 14.4819H24.9609C25.3189 12.7894 25.1907 11.0302 24.5911 9.40748C24.5687 9.32673 24.5297 9.25152 24.4767 9.18658C24.4237 9.12165 24.3578 9.06841 24.2832 9.03022C24.2086 8.99204 24.1269 8.96974 24.0432 8.96473C23.9596 8.95973 23.8758 8.97212 23.7971 9.00113C23.7185 9.03015 23.6467 9.07515 23.5864 9.1333C23.526 9.19145 23.4784 9.26148 23.4465 9.33898C23.4145 9.41647 23.399 9.49974 23.4009 9.58354C23.4028 9.66733 23.422 9.74982 23.4574 9.8258C23.9584 11.1906 24.0779 12.6662 23.803 14.0939ZM21.0566 18.7257C20.0002 19.607 18.7315 20.1965 17.3766 20.4354C17.297 20.4422 17.2195 20.4645 17.1485 20.5013C17.0775 20.538 17.0145 20.5883 16.963 20.6494C16.9115 20.7105 16.8725 20.7811 16.8483 20.8573C16.8241 20.9334 16.8151 21.0136 16.8219 21.0932C16.8286 21.1728 16.851 21.2503 16.8877 21.3213C16.9244 21.3922 16.9748 21.4553 17.0359 21.5068C17.0969 21.5583 17.1676 21.5973 17.2437 21.6215C17.3199 21.6457 17.4 21.6547 17.4797 21.6479H17.5888C19.2036 21.3631 20.7128 20.6514 21.9599 19.5866V19.5442C21.6033 19.3397 21.2951 19.0605 21.0566 18.7257ZM14.5635 20.399C13.6465 20.2269 12.7665 19.8966 11.9627 19.4229C11.6189 19.2204 11.2888 18.9956 10.9745 18.75C10.7433 19.0895 10.4413 19.375 10.0893 19.5866C10.483 19.9188 10.9027 20.2188 11.3443 20.4839C12.2703 21.0293 13.2834 21.4108 14.3392 21.6115H14.4544C14.6152 21.626 14.7751 21.576 14.8991 21.4726C15.023 21.3691 15.1008 21.2206 15.1152 21.0598C15.1297 20.899 15.0797 20.7391 14.9762 20.6152C14.8728 20.4912 14.7243 20.4135 14.5635 20.399ZM7.85827 14.2212C7.97952 14.2212 8.10078 14.203 8.22203 14.1666C7.93302 12.7371 8.04636 11.2554 8.54941 9.88643C8.60488 9.73529 8.59804 9.5683 8.53039 9.4222C8.46274 9.2761 8.33983 9.16285 8.18868 9.10738C8.03754 9.05191 7.87055 9.05875 7.72445 9.1264C7.57835 9.19405 7.46511 9.31696 7.40964 9.46811C6.80913 11.104 6.69129 12.878 7.07013 14.5789C7.31341 14.4208 7.5791 14.3002 7.85827 14.2212ZM22.0267 7.4614C21.4642 6.79718 20.7965 6.22985 20.0502 5.78205C19.6491 5.54614 19.2294 5.34338 18.7953 5.17579C18.9161 4.77106 18.9471 4.34485 18.8862 3.92689C19.5062 4.13441 20.1034 4.40458 20.6686 4.73322C21.5304 5.24955 22.3007 5.90511 22.9482 6.67326C22.9999 6.73377 23.0392 6.80388 23.0639 6.87958C23.0886 6.95529 23.0981 7.03511 23.0919 7.11449C23.0857 7.19386 23.0639 7.27125 23.0278 7.34221C22.9917 7.41318 22.942 7.47634 22.8815 7.52809C22.821 7.57984 22.7509 7.61916 22.6752 7.64382C22.5995 7.66848 22.5196 7.67798 22.4403 7.67179C22.3609 7.66559 22.2835 7.64383 22.2125 7.60773C22.1416 7.57163 22.0784 7.52191 22.0267 7.4614Z" fill="white"/>
<path d="M23.7224 15.0679L24.063 13.0972L24.063 13.0972L23.7224 15.0679ZM24.4335 15.3429L25.5072 13.6555L25.5072 13.6555L24.4335 15.3429ZM22.9602 15.0882L22.5152 13.1384L22.4799 13.1464L22.445 13.1557L22.9602 15.0882ZM22.1115 15.5551L21.1096 17.286L22.3847 18.0241L23.4676 17.0251L22.1115 15.5551ZM19.7652 14.197L17.9114 13.4466L17.2594 15.0574L18.7633 15.928L19.7652 14.197ZM18.0859 9.08623L17.0122 10.7736L17.0252 10.7819L17.0384 10.79L18.0859 9.08623ZM18.0192 9.0438L19.093 7.35647L19.0482 7.32802L19.0021 7.30197L18.0192 9.0438ZM16.5521 8.55272H14.5521V10.3043L16.2883 10.5353L16.5521 8.55272ZM16.5521 6.24893L15.9764 4.33356L14.5521 4.76164V6.24893H16.5521ZM17.6918 5.33953L15.9698 4.32232L15.9608 4.33756L15.9521 4.35296L17.6918 5.33953ZM17.0068 2.61135L18.0439 0.901292L18.0304 0.893082L18.0167 0.885088L17.0068 2.61135ZM15.5396 2.41735L16.0337 4.35537L16.0499 4.35122L16.0662 4.34679L15.5396 2.41735ZM14.8412 2.7531L16.0463 4.34926L16.0463 4.34926L14.8412 2.7531ZM14.3271 3.33281L12.5984 2.32688L12.5946 2.33347L14.3271 3.33281ZM15.0122 6.03674L16.1059 4.36234L16.083 4.34737L16.0597 4.33304L15.0122 6.03674ZM15.4608 6.24893H17.4608V4.7817L16.0612 4.34119L15.4608 6.24893ZM15.4608 8.55272L15.7313 10.5344L17.4608 10.2983V8.55272H15.4608ZM13.7558 9.20358L14.8746 10.8614L13.7558 9.20358ZM12.5144 10.5413L14.2456 11.5427L14.2509 11.5334L12.5144 10.5413ZM11.9664 12.3306L13.9616 12.4703L11.9664 12.3306ZM12.2597 14.1788L13.2534 15.9145L14.7688 15.047L14.1136 13.4284L12.2597 14.1788ZM9.83467 15.5672L8.44948 17.0098L9.52926 18.0466L10.8284 17.3029L9.83467 15.5672ZM9.56185 15.3429L10.7096 13.7049L10.6326 13.651L10.5508 13.6045L9.56185 15.3429ZM8.84163 15.1039L9.08813 13.1191L9.08813 13.1191L8.84163 15.1039ZM8.08482 15.1594L8.61851 17.0869H8.61851L8.08482 15.1594ZM7.40721 15.501L6.17497 13.9257H6.17497L7.40721 15.501ZM6.91249 16.0764L8.64011 17.0841L8.64752 17.0714L8.65475 17.0585L6.91249 16.0764ZM6.69823 17.5635L8.64004 17.0846L8.64004 17.0846L6.69823 17.5635ZM7.57938 18.7804L6.51843 20.4758L6.533 20.4849L6.54773 20.4938L7.57938 18.7804ZM8.57971 19.0592L8.59388 17.0593L8.58331 17.0593L8.57971 19.0592ZM9.05259 18.9986L8.55305 17.062L8.5437 17.0644L8.53437 17.0669L9.05259 18.9986ZM10.2545 18.0969L8.53496 17.0756L8.53496 17.0756L10.2545 18.0969ZM10.4712 16.6099H8.47125V16.8577L8.5317 17.098L10.4712 16.6099ZM10.4712 16.5069L9.47129 14.7748L8.47125 15.3522V16.5069H10.4712ZM12.8235 15.1489L14.4129 13.9349L13.3459 12.5379L11.8236 13.4168L12.8235 15.1489ZM13.9694 16.1856L15.0361 14.4938L15.0275 14.4883L15.0188 14.483L13.9694 16.1856ZM16.82 16.7194L17.2023 18.6825H17.2023L16.82 16.7194ZM19.262 15.1549L20.2616 13.4226L18.6948 12.5185L17.6385 13.987L19.262 15.1549ZM21.584 16.4948L23.5174 17.0065L23.909 15.5272L22.5836 14.7625L21.584 16.4948ZM21.6592 17.7433L19.8012 18.4834L19.8012 18.4834L21.6592 17.7433ZM22.4631 18.7016L21.4112 20.4026L21.4309 20.4148L21.451 20.4265L22.4631 18.7016ZM25.1004 18.0165L26.8241 19.0308L26.8325 19.0164L26.8408 19.0019L25.1004 18.0165ZM25.3006 16.5466L27.2411 16.0625L27.2411 16.0625L25.3006 16.5466ZM13.2176 5.17584L13.921 7.04806L15.6697 6.39108L15.1334 4.60171L13.2176 5.17584ZM9.97411 7.46145L11.4793 8.77846L11.49 8.76615L11.5006 8.75367L9.97411 7.46145ZM13.1145 3.92088L15.0984 4.17475L15.5029 1.01354L12.4804 2.02409L13.1145 3.92088ZM9.05259 6.65512L10.5577 7.97213L10.5645 7.96437L10.5713 7.95654L9.05259 6.65512ZM8.90247 7.09901L10.898 6.96598V6.96598L8.90247 7.09901ZM9.55408 7.66917L9.42105 5.6736L9.42104 5.6736L9.55408 7.66917ZM24.9306 14.4819L23.9016 16.1969L24.3767 16.4819H24.9306V14.4819ZM23.803 14.0939L21.8391 13.7157L21.4342 15.8176L23.5588 16.0789L23.803 14.0939ZM24.9609 14.4819V16.4819H26.5821L26.9176 14.8958L24.9609 14.4819ZM24.5911 9.40748L22.6642 9.94332L22.6864 10.0231L22.7151 10.1007L24.5911 9.40748ZM24.0432 8.96473L23.9237 10.9612L23.9238 10.9612L24.0432 8.96473ZM23.7971 9.00113L24.4895 10.8775L24.4895 10.8775L23.7971 9.00113ZM23.5864 9.1333L22.1988 7.69296L22.1988 7.69296L23.5864 9.1333ZM23.4465 9.33898L25.2957 10.1008L25.2957 10.1008L23.4465 9.33898ZM23.4574 9.8258L25.3349 9.13655L25.306 9.05775L25.2705 8.98165L23.4574 9.8258ZM17.3766 20.4354L17.546 22.4282L17.6355 22.4206L17.7239 22.405L17.3766 20.4354ZM21.0566 18.7257L22.6854 17.5651L21.4329 15.8073L19.7754 17.19L21.0566 18.7257ZM17.1485 20.5013L18.0676 22.2776L18.0676 22.2775L17.1485 20.5013ZM16.963 20.6494L15.4341 19.36L15.4341 19.36L16.963 20.6494ZM16.8483 20.8573L18.7542 21.4634L18.7542 21.4634L16.8483 20.8573ZM16.8219 21.0932L18.8147 20.9238V20.9238L16.8219 21.0932ZM16.8877 21.3213L15.1114 22.2404L16.8877 21.3213ZM17.2437 21.6215L17.8499 19.7155L17.8499 19.7155L17.2437 21.6215ZM17.4797 21.6479V19.6479H17.3948L17.3103 19.6551L17.4797 21.6479ZM17.5888 21.6479V23.6479H17.7638L17.9362 23.6175L17.5888 21.6479ZM21.9599 19.5866L23.2586 21.1077L23.9599 20.5088V19.5866H21.9599ZM21.9599 19.5442H23.9599V18.3855L22.9547 17.8091L21.9599 19.5442ZM11.9627 19.4229L12.9781 17.6999L12.978 17.6998L11.9627 19.4229ZM14.5635 20.399L14.1946 22.3647L14.2888 22.3824L14.3843 22.391L14.5635 20.399ZM10.9745 18.75L12.2058 17.174L10.523 15.8592L9.32121 17.6245L10.9745 18.75ZM10.0893 19.5866L9.05866 17.8726L6.66339 19.313L8.79964 21.1153L10.0893 19.5866ZM11.3443 20.4839L10.315 22.1987L10.3221 22.2029L10.3292 22.2071L11.3443 20.4839ZM14.3392 21.6115L13.9657 23.5763L14.1508 23.6115H14.3392V21.6115ZM14.4544 21.6115L14.6337 19.6196L14.5442 19.6115H14.4544V21.6115ZM14.8991 21.4726L16.1808 23.0078L16.1808 23.0078L14.8991 21.4726ZM14.9762 20.6152L16.5115 19.3334L16.5115 19.3334L14.9762 20.6152ZM8.22203 14.1666L8.79673 16.0823L10.5438 15.5582L10.1824 13.7703L8.22203 14.1666ZM7.85827 14.2212V12.2212H7.58067L7.31357 12.2968L7.85827 14.2212ZM8.54941 9.88643L10.4267 10.5763L10.4269 10.5755L8.54941 9.88643ZM7.72445 9.1264L6.8841 7.31151L6.8841 7.31151L7.72445 9.1264ZM7.40964 9.46811L9.28714 10.1573L9.28717 10.1572L7.40964 9.46811ZM7.07013 14.5789L5.11797 15.0137L5.74427 17.8257L8.15991 16.2559L7.07013 14.5789ZM20.0502 5.78205L21.0792 4.06708L21.0717 4.06256L21.0641 4.0581L20.0502 5.78205ZM22.0267 7.4614L20.5003 8.75381L20.5067 8.76134L22.0267 7.4614ZM18.7953 5.17579L16.8788 4.6039L16.3501 6.37569L18.075 7.04159L18.7953 5.17579ZM18.8862 3.92689L19.521 2.03031L16.4387 0.998601L16.9071 4.21512L18.8862 3.92689ZM20.6686 4.73322L21.6965 3.01758L21.6853 3.01084L21.6739 3.00425L20.6686 4.73322ZM22.9482 6.67326L21.4189 7.96224L21.4236 7.96773L21.4283 7.9732L22.9482 6.67326ZM23.0639 6.87958L24.9656 6.26027L24.9656 6.26023L23.0639 6.87958ZM23.0919 7.11449L21.0979 6.95892L21.0979 6.95896L23.0919 7.11449ZM22.8815 7.52809L24.1814 9.04803L24.1814 9.048L22.8815 7.52809ZM22.6752 7.64382L23.2945 9.54551L23.2945 9.54551L22.6752 7.64382ZM22.2125 7.60773L21.3058 9.39036L21.3058 9.39036L22.2125 7.60773ZM23.3817 17.0387C23.3739 17.0374 23.3665 17.0345 23.3598 17.0302L25.5072 13.6555C25.0674 13.3757 24.5766 13.1859 24.063 13.0972L23.3817 17.0387ZM23.4053 17.0381C23.3976 17.0398 23.3896 17.0401 23.3817 17.0387L24.063 13.0972C23.5494 13.0084 23.0233 13.0224 22.5152 13.1384L23.4053 17.0381ZM23.4676 17.0251C23.4698 17.023 23.4726 17.0215 23.4755 17.0207L22.445 13.1557C21.8147 13.3238 21.2348 13.6427 20.7554 14.085L23.4676 17.0251ZM18.7633 15.928L21.1096 17.286L23.1134 13.8241L20.7671 12.4661L18.7633 15.928ZM17.9613 11.9585C18.1211 12.4448 18.1034 12.9721 17.9114 13.4466L21.6191 14.9474C22.1661 13.5961 22.2165 12.0947 21.7614 10.7098L17.9613 11.9585ZM17.0384 10.79C17.4745 11.0581 17.8015 11.4721 17.9613 11.9585L21.7614 10.7098C21.3064 9.32486 20.3752 8.14599 19.1334 7.38248L17.0384 10.79ZM16.9455 10.7311L17.0122 10.7736L19.1596 7.39891L19.093 7.35647L16.9455 10.7311ZM16.2883 10.5353C16.5514 10.5702 16.8053 10.6552 17.0363 10.7856L19.0021 7.30197C18.3267 6.92084 17.5845 6.67244 16.8158 6.57019L16.2883 10.5353ZM14.5521 6.24893V8.55272H18.5521V6.24893H14.5521ZM15.9521 4.35296C15.9574 4.3436 15.9661 4.33666 15.9764 4.33356L17.1277 8.16429C18.1036 7.87098 18.9289 7.21256 19.4316 6.32611L15.9521 4.35296ZM15.9699 4.32182L15.9698 4.32232L19.4138 6.35674C19.9494 5.45012 20.1059 4.36891 19.8495 3.34762L15.9699 4.32182ZM15.9696 4.32142L15.9699 4.32182L19.8495 3.34762C19.593 2.32634 18.9442 1.44735 18.0439 0.901292L15.9696 4.32142ZM16.0306 4.3492C16.0186 4.34762 16.0072 4.34369 15.9968 4.33762L18.0167 0.885088C17.5677 0.62237 17.0707 0.451916 16.5549 0.383715L16.0306 4.3492ZM16.0662 4.34679C16.0546 4.34995 16.0425 4.35077 16.0306 4.3492L16.5549 0.383715C16.0391 0.315514 15.5149 0.350938 15.013 0.48791L16.0662 4.34679ZM16.0463 4.34926C16.0426 4.35212 16.0382 4.3542 16.0337 4.35537L15.0455 0.479333C14.5354 0.609379 14.0563 0.839731 13.6361 1.15694L16.0463 4.34926ZM16.0557 4.33872C16.0533 4.34283 16.0501 4.34641 16.0463 4.34926L13.6361 1.15694C13.216 1.47415 12.8632 1.87187 12.5985 2.32689L16.0557 4.33872ZM16.0594 4.33264L16.0595 4.33214L12.5946 2.33347C12.0742 3.23571 11.9261 4.30536 12.182 5.31505L16.0594 4.33264ZM16.0597 4.33304L16.0594 4.33264L12.182 5.31505C12.4378 6.32474 13.0773 7.19485 13.9646 7.74043L16.0597 4.33304ZM16.0612 4.34119C16.077 4.34616 16.0921 4.35328 16.1059 4.36234L13.9184 7.71114C14.2105 7.90199 14.5275 8.05189 14.8603 8.15666L16.0612 4.34119ZM17.4608 8.55272V6.24893H13.4608V8.55272H17.4608ZM14.8746 10.8614C15.1313 10.6881 15.4244 10.5762 15.7313 10.5344L15.1903 6.5711C14.2757 6.69593 13.4021 7.02943 12.637 7.54581L14.8746 10.8614ZM14.2509 11.5334C14.4045 11.2646 14.6179 11.0346 14.8746 10.8614L12.637 7.54581C11.8719 8.06218 11.2357 8.74761 10.7778 9.54908L14.2509 11.5334ZM13.9616 12.4703C13.9844 12.1435 14.0816 11.8262 14.2456 11.5427L10.7831 9.53987C10.3143 10.3503 10.0367 11.257 9.97132 12.191L13.9616 12.4703ZM14.1136 13.4284C13.9907 13.1248 13.9387 12.7971 13.9616 12.4703L9.97132 12.191C9.90594 13.1249 10.0546 14.0614 10.4058 14.9293L14.1136 13.4284ZM10.8284 17.3029L13.2534 15.9145L11.266 12.4432L8.84099 13.8315L10.8284 17.3029ZM8.41414 16.9808C8.42664 16.9895 8.43846 16.9992 8.44948 17.0098L11.2199 14.1245C11.0608 13.9718 10.8902 13.8315 10.7096 13.7049L8.41414 16.9808ZM8.59512 17.0886C8.58728 17.0876 8.57972 17.0851 8.57286 17.0812L10.5508 13.6045C10.1 13.348 9.60291 13.183 9.08813 13.1191L8.59512 17.0886ZM8.61851 17.0869C8.6109 17.089 8.60295 17.0896 8.59513 17.0886L9.08813 13.1191C8.57337 13.0552 8.05104 13.0935 7.55112 13.2319L8.61851 17.0869ZM8.63946 17.0763C8.63324 17.0812 8.62612 17.0848 8.61851 17.0869L7.55112 13.2319C7.05121 13.3704 6.58354 13.6061 6.17497 13.9257L8.63946 17.0763ZM8.65475 17.0585C8.65087 17.0654 8.64567 17.0715 8.63946 17.0763L6.17497 13.9257C5.7664 14.2453 5.42495 14.6424 5.17023 15.0943L8.65475 17.0585ZM8.64004 17.0846L8.64011 17.0841L5.18487 15.0688C4.66117 15.9667 4.5075 17.0332 4.75642 18.0424L8.64004 17.0846ZM8.64033 17.085L8.64004 17.0846L4.75642 18.0424C5.00533 19.0516 5.63727 19.9244 6.51843 20.4758L8.64033 17.085ZM8.58331 17.0593C8.59308 17.0593 8.60266 17.0619 8.61103 17.067L6.54773 20.4938C7.16015 20.8625 7.86124 21.058 8.57611 21.0592L8.58331 17.0593ZM8.53437 17.0669C8.55378 17.0617 8.5738 17.0592 8.59388 17.0593L8.56554 21.0592C8.90489 21.0616 9.24303 21.0183 9.57082 20.9303L8.53437 17.0669ZM8.53496 17.0756C8.53896 17.0689 8.54546 17.064 8.55305 17.062L9.55214 20.9352C10.5678 20.6732 11.4385 20.02 11.9741 19.1181L8.53496 17.0756ZM8.5317 17.098C8.52979 17.0904 8.53096 17.0823 8.53496 17.0756L11.9741 19.1181C12.5098 18.2163 12.6667 17.1391 12.4108 16.1219L8.5317 17.098ZM8.47125 16.5069V16.6099H12.4712V16.5069H8.47125ZM11.8236 13.4168L9.47129 14.7748L11.4712 18.239L13.8235 16.8809L11.8236 13.4168ZM15.0188 14.483C14.785 14.3389 14.5796 14.1531 14.4129 13.9349L11.2341 16.3629C11.698 16.9702 12.2694 17.4872 12.92 17.8881L15.0188 14.483ZM16.4377 14.7563C15.9541 14.8504 15.4528 14.7566 15.0361 14.4938L12.9027 17.8773C14.1811 18.6834 15.7188 18.9714 17.2023 18.6825L16.4377 14.7563ZM17.6385 13.987C17.3508 14.387 16.9213 14.6621 16.4377 14.7563L17.2023 18.6825C18.6857 18.3936 20.0031 17.5497 20.8856 16.3228L17.6385 13.987ZM22.5836 14.7625L20.2616 13.4226L18.2625 16.8872L20.5845 18.2271L22.5836 14.7625ZM23.5172 17.0032C23.5177 17.0042 23.5177 17.0054 23.5174 17.0065L19.6506 15.983C19.4314 16.8111 19.4842 17.6877 19.8012 18.4834L23.5172 17.0032ZM23.5151 17.0006C23.5161 17.0012 23.5168 17.0021 23.5172 17.0031L19.8012 18.4834C20.1182 19.2792 20.6826 19.952 21.4112 20.4026L23.5151 17.0006ZM23.4206 16.969C23.4391 16.9642 23.4588 16.9669 23.4752 16.9766L21.451 20.4265C22.3487 20.9533 23.4189 21.1022 24.4263 20.8405L23.4206 16.969ZM23.3766 17.0022C23.3863 16.9857 23.4022 16.9738 23.4206 16.969L24.4263 20.8405C25.4338 20.5788 26.2962 19.9279 26.8241 19.0308L23.3766 17.0022ZM23.36 17.0306L23.36 17.0311L26.8408 19.0019C27.346 18.1096 27.4893 17.0574 27.2411 16.0625L23.36 17.0306ZM23.3597 17.0302L23.36 17.0306L27.2411 16.0625C26.9929 15.0676 26.3723 14.206 25.5072 13.6555L23.3597 17.0302ZM12.5142 3.30362C10.9365 3.89639 9.53659 4.88285 8.44763 6.16923L11.5006 8.75367C12.1487 7.98802 12.982 7.40088 13.921 7.04806L12.5142 3.30362ZM11.1307 3.66701C11.0413 4.36565 11.0996 5.07528 11.3018 5.74997L15.1334 4.60171C15.092 4.46342 15.08 4.31796 15.0984 4.17475L11.1307 3.66701ZM10.5713 7.95654C11.4174 6.9692 12.5155 6.22997 13.7487 5.81768L12.4804 2.02409C10.5607 2.66592 8.85109 3.81669 7.53394 5.35371L10.5713 7.95654ZM10.898 6.96598C10.9225 7.33322 10.8001 7.69514 10.5577 7.97213L7.54744 5.33811C7.09122 5.85951 6.86081 6.54077 6.9069 7.23205L10.898 6.96598ZM10.4272 6.01389C10.7042 6.25626 10.8736 6.59873 10.898 6.96598L6.9069 7.23205C6.95298 7.92333 7.27179 8.56798 7.79318 9.0242L10.4272 6.01389ZM9.42104 5.6736C9.78828 5.64912 10.1502 5.77153 10.4272 6.01389L7.79318 9.0242C8.31457 9.48042 8.99584 9.71083 9.68712 9.66474L9.42104 5.6736ZM8.46896 6.14444C8.71132 5.86746 9.0538 5.69809 9.42105 5.6736L9.68711 9.66474C10.3784 9.61866 11.0231 9.29985 11.4793 8.77846L8.46896 6.14444ZM25.9596 12.7669C25.3751 12.4162 24.7236 12.1921 24.0471 12.1088L23.5588 16.0789C23.6801 16.0938 23.7969 16.134 23.9016 16.1969L25.9596 12.7669ZM24.9609 12.4819H24.9306V16.4819H24.9609V12.4819ZM22.7151 10.1007C23.1839 11.3694 23.2841 12.7448 23.0042 14.068L26.9176 14.8958C27.3538 12.8341 27.1976 10.691 26.4671 8.71425L22.7151 10.1007ZM22.9272 10.4511C22.8054 10.3019 22.7158 10.1289 22.6642 9.94332L26.518 8.87164C26.4215 8.52452 26.254 8.20117 26.0262 7.92202L22.9272 10.4511ZM23.372 10.8106C23.2005 10.7228 23.0491 10.6004 22.9272 10.4511L26.0262 7.92202C25.7984 7.64286 25.5151 7.41399 25.1944 7.24985L23.372 10.8106ZM23.9238 10.9612C23.7314 10.9496 23.5435 10.8984 23.372 10.8106L25.1944 7.24985C24.8737 7.0857 24.5224 6.98983 24.1627 6.9683L23.9238 10.9612ZM24.4895 10.8775C24.3087 10.9442 24.1161 10.9727 23.9237 10.9612L24.1627 6.96831C23.803 6.94678 23.4428 7.00006 23.1048 7.12479L24.4895 10.8775ZM24.974 10.5736C24.8352 10.7073 24.6702 10.8108 24.4895 10.8775L23.1048 7.12479C22.7668 7.24951 22.4583 7.44297 22.1988 7.69296L24.974 10.5736ZM25.2957 10.1008C25.2223 10.279 25.1127 10.44 24.974 10.5736L22.1988 7.69296C21.9393 7.94294 21.7345 8.244 21.5972 8.57716L25.2957 10.1008ZM25.4004 9.53857C25.4047 9.73124 25.3691 9.92268 25.2957 10.1008L21.5972 8.57716C21.46 8.91027 21.3933 9.26825 21.4014 9.6285L25.4004 9.53857ZM25.2705 8.98165C25.3518 9.15631 25.3961 9.34595 25.4004 9.53857L21.4014 9.6285C21.4095 9.98871 21.4922 10.3433 21.6443 10.67L25.2705 8.98165ZM25.7669 14.4721C26.1106 12.6874 25.9612 10.8427 25.3349 9.13655L21.5799 10.515C21.9556 11.5385 22.0452 12.6451 21.8391 13.7157L25.7669 14.4721ZM17.7239 22.405C19.4226 22.1054 21.0133 21.3664 22.3378 20.2615L19.7754 17.19C18.9871 17.8476 18.0403 18.2875 17.0292 18.4658L17.7239 22.405ZM18.0676 22.2775C17.9053 22.3615 17.7281 22.4127 17.546 22.4282L17.2072 18.4426C16.8659 18.4716 16.5336 18.5675 16.2294 18.725L18.0676 22.2775ZM18.4919 21.9388C18.3741 22.0784 18.2299 22.1936 18.0676 22.2776L16.2294 18.7249C15.9252 18.8824 15.6549 19.0982 15.4341 19.36L18.4919 21.9388ZM18.7542 21.4634C18.6989 21.6375 18.6097 21.7991 18.4919 21.9387L15.4341 19.36C15.2132 19.6219 15.0462 19.9247 14.9423 20.2512L18.7542 21.4634ZM18.8147 20.9238C18.8301 21.1059 18.8096 21.2892 18.7542 21.4634L14.9424 20.2511C14.8385 20.5776 14.8 20.9213 14.829 21.2626L18.8147 20.9238ZM18.664 20.4022C18.748 20.5645 18.7992 20.7417 18.8147 20.9238L14.829 21.2626C14.8581 21.6039 14.954 21.9361 15.1114 22.2404L18.664 20.4022ZM18.3252 19.9779C18.4649 20.0957 18.58 20.2398 18.664 20.4022L15.1114 22.2404C15.2689 22.5446 15.4847 22.8149 15.7465 23.0357L18.3252 19.9779ZM17.8499 19.7155C18.024 19.7709 18.1855 19.8601 18.3252 19.9779L15.7465 23.0357C16.0084 23.2565 16.3112 23.4236 16.6376 23.5274L17.8499 19.7155ZM17.3103 19.6551C17.4924 19.6396 17.6757 19.6602 17.8499 19.7155L16.6376 23.5274C16.964 23.6312 17.3077 23.6697 17.649 23.6407L17.3103 19.6551ZM17.5888 19.6479H17.4797V23.6479H17.5888V19.6479ZM20.6613 18.0656C19.6856 18.8986 18.5048 19.4555 17.2413 19.6783L17.9362 23.6175C19.9025 23.2707 21.7401 22.4041 23.2586 21.1077L20.6613 18.0656ZM19.9599 19.5442V19.5866H23.9599V19.5442H19.9599ZM19.4278 19.8863C19.8338 20.4561 20.3582 20.9313 20.9652 21.2792L22.9547 17.8091C22.8484 17.7482 22.7565 17.6649 22.6854 17.5651L19.4278 19.8863ZM10.9472 21.146C11.9508 21.7374 13.0497 22.1498 14.1946 22.3647L14.9324 18.4333C14.2434 18.304 13.5821 18.0558 12.9781 17.6999L10.9472 21.146ZM9.74312 20.326C10.1262 20.6253 10.5285 20.8993 10.9474 21.1461L12.978 17.6998C12.7094 17.5415 12.4514 17.3659 12.2058 17.174L9.74312 20.326ZM11.12 21.3006C11.7196 20.94 12.234 20.4539 12.6277 19.8755L9.32121 17.6245C9.25265 17.7252 9.16308 17.8098 9.05866 17.8726L11.12 21.3006ZM12.3736 18.7691C12.0236 18.559 11.691 18.3212 11.379 18.058L8.79964 21.1153C9.275 21.5163 9.78173 21.8786 10.315 22.1987L12.3736 18.7691ZM14.7127 19.6467C13.8831 19.489 13.087 19.1892 12.3594 18.7606L10.3292 22.2071C11.4535 22.8694 12.6838 23.3326 13.9657 23.5763L14.7127 19.6467ZM14.4544 19.6115H14.3392V23.6115H14.4544V19.6115ZM13.6173 19.9373C13.9006 19.7008 14.2662 19.5865 14.6337 19.6196L14.2751 23.6035C14.9642 23.6655 15.6497 23.4512 16.1808 23.0078L13.6173 19.9373ZM13.1233 20.8806C13.1564 20.5131 13.3341 20.1737 13.6173 19.9373L16.1808 23.0078C16.7119 22.5644 17.0452 21.9282 17.1072 21.2391L13.1233 20.8806ZM13.441 21.8969C13.2045 21.6137 13.0902 21.2481 13.1233 20.8806L17.1072 21.2391C17.1692 20.55 16.9549 19.8645 16.5115 19.3334L13.441 21.8969ZM14.3843 22.391C14.0167 22.3579 13.6774 22.1802 13.441 21.8969L16.5115 19.3334C16.0681 18.8023 15.4319 18.4691 14.7428 18.4071L14.3843 22.391ZM7.64733 12.251C7.70426 12.2339 7.77644 12.2212 7.85827 12.2212V16.2212C8.18261 16.2212 8.49729 16.1721 8.79673 16.0823L7.64733 12.251ZM6.67215 9.19659C6.04144 10.9129 5.89935 12.7706 6.26169 14.563L10.1824 13.7703C9.9667 12.7035 10.0513 11.5978 10.4267 10.5763L6.67215 9.19659ZM6.71551 10.2626C6.56028 9.92731 6.54459 9.54414 6.67187 9.19733L10.4269 10.5755C10.6652 9.92643 10.6358 9.20928 10.3453 8.58184L6.71551 10.2626ZM7.49959 10.9849C7.15278 10.8576 6.87074 10.5978 6.71551 10.2626L10.3453 8.58184C10.0548 7.9544 9.52688 7.46808 8.87778 7.22984L7.49959 10.9849ZM8.5648 10.9413C8.22957 11.0965 7.8464 11.1122 7.49959 10.9849L8.87778 7.22984C8.22868 6.99161 7.51154 7.02099 6.8841 7.31151L8.5648 10.9413ZM9.28717 10.1572C9.15989 10.504 8.90005 10.7861 8.56481 10.9413L6.8841 7.31151C6.25666 7.60204 5.77033 8.12992 5.5321 8.77901L9.28717 10.1572ZM9.0223 14.1441C8.72677 12.8172 8.8187 11.4334 9.28714 10.1573L5.53214 8.77891C4.79956 10.7746 4.6558 12.9387 5.11797 15.0137L9.0223 14.1441ZM7.31357 12.2968C6.84132 12.4305 6.39189 12.6345 5.98035 12.9019L8.15991 16.2559C8.23494 16.2072 8.31688 16.17 8.40298 16.1456L7.31357 12.2968ZM19.0212 7.49703C19.5797 7.83215 20.0794 8.25672 20.5003 8.7538L23.553 6.169C22.8491 5.33764 22.0134 4.62755 21.0792 4.06708L19.0212 7.49703ZM18.075 7.04159C18.4076 7.16997 18.7291 7.32529 19.0363 7.50601L21.0641 4.0581C20.5692 3.767 20.0513 3.5168 19.5156 3.31L18.075 7.04159ZM16.9071 4.21512C16.926 4.34523 16.9164 4.47791 16.8788 4.6039L20.7118 5.74769C20.9157 5.06421 20.9681 4.34447 20.8653 3.63866L16.9071 4.21512ZM21.6739 3.00425C20.9913 2.6073 20.2699 2.28097 19.521 2.03031L18.2514 5.82347C18.7425 5.98785 19.2156 6.20187 19.6633 6.46219L21.6739 3.00425ZM24.4774 5.38428C23.6875 4.44719 22.7478 3.64746 21.6965 3.01758L19.6407 6.44886C20.313 6.85164 20.9139 7.36302 21.4189 7.96224L24.4774 5.38428ZM24.9656 6.26023C24.8596 5.93483 24.6906 5.63345 24.4681 5.37332L21.4283 7.9732C21.3093 7.83409 21.2189 7.67293 21.1622 7.49893L24.9656 6.26023ZM25.0858 7.27005C25.1124 6.92879 25.0716 6.58567 24.9656 6.26027L21.1622 7.49889C21.1055 7.3249 21.0837 7.14142 21.0979 6.95892L25.0858 7.27005ZM24.8104 8.24898C24.9656 7.94392 25.0592 7.61126 25.0858 7.27001L21.0979 6.95896C21.1122 6.77647 21.1622 6.59857 21.2452 6.43544L24.8104 8.24898ZM24.1814 9.048C24.4415 8.82555 24.6553 8.55404 24.8104 8.24898L21.2452 6.43544C21.3282 6.27231 21.4425 6.12713 21.5815 6.00818L24.1814 9.048ZM23.2945 9.54551C23.6199 9.43952 23.9213 9.27047 24.1814 9.04803L21.5816 6.00815C21.7206 5.8892 21.8818 5.79881 22.0558 5.74213L23.2945 9.54551ZM22.2847 9.66573C22.6259 9.69235 22.9691 9.6515 23.2945 9.54551L22.0558 5.74213C22.2299 5.68545 22.4133 5.66361 22.5958 5.67784L22.2847 9.66573ZM21.3058 9.39036C21.6108 9.54554 21.9435 9.63911 22.2847 9.66573L22.5958 5.67784C22.7783 5.69208 22.9562 5.74211 23.1193 5.82509L21.3058 9.39036ZM20.5067 8.76134C20.7292 9.02144 21.0007 9.23518 21.3058 9.39036L23.1193 5.8251C23.2824 5.90808 23.4276 6.02238 23.5466 6.16146L20.5067 8.76134Z" fill="#333333" mask="url(#path-1-outside-1_55_207)"/>
<mask id="path-3-outside-2_55_207" maskUnits="userSpaceOnUse" x="5.64001" y="1.34998" width="21" height="22" fill="black">
<rect fill="white" x="5.64001" y="1.34998" width="21" height="22"/>
<path fill-rule="evenodd" clip-rule="evenodd" d="M24.4335 15.3429C24.2169 15.2051 23.9753 15.1116 23.7224 15.0679C23.4695 15.0242 23.2104 15.0311 22.9602 15.0882C22.6436 15.1727 22.3523 15.3329 22.1115 15.5551L19.7652 14.197C20.1348 13.2841 20.1688 12.2698 19.8614 11.3341C19.5539 10.3985 18.9249 9.60205 18.0859 9.08623L18.0192 9.0438C17.566 8.78803 17.068 8.62135 16.5521 8.55272V6.24893C17.0349 6.10382 17.4431 5.77808 17.6918 5.33953C17.9597 4.88615 18.0379 4.34545 17.9097 3.83472C17.7814 3.324 17.457 2.88443 17.0068 2.61135C16.7874 2.48303 16.5447 2.39977 16.2927 2.36646C16.0408 2.33314 15.7848 2.35045 15.5396 2.41735C15.2868 2.48179 15.0494 2.59593 14.8412 2.7531C14.6331 2.91028 14.4583 3.10735 14.3271 3.33281C14.0668 3.784 13.9928 4.31892 14.1207 4.82385C14.2486 5.32877 14.5684 5.7639 15.0122 6.03674C15.1513 6.12763 15.3022 6.19903 15.4608 6.24893V8.55272C14.8501 8.63608 14.2667 8.85877 13.7558 9.20358C13.2449 9.54839 12.8201 10.0061 12.5144 10.5413C12.198 11.0883 12.0106 11.7002 11.9664 12.3306C11.9223 12.961 12.0226 13.5931 12.2597 14.1788L9.83467 15.5672C9.74962 15.4855 9.65841 15.4105 9.56185 15.3429C9.33985 15.2166 9.0951 15.1353 8.84163 15.1039C8.58816 15.0724 8.33097 15.0913 8.08482 15.1594C7.83866 15.2276 7.60839 15.3437 7.40721 15.501C7.20604 15.6584 7.03791 15.8539 6.91249 16.0764C6.6506 16.5255 6.57375 17.0588 6.69823 17.5635C6.8227 18.0682 7.13873 18.5046 7.57938 18.7804C7.88141 18.9622 8.22716 19.0586 8.57971 19.0592C8.73935 19.0604 8.89841 19.04 9.05259 18.9986C9.55663 18.8686 9.98874 18.5444 10.2545 18.0969C10.5204 17.6493 10.5983 17.1148 10.4712 16.6099V16.5069L12.8235 15.1489C13.1388 15.5616 13.5272 15.913 13.9694 16.1856C14.817 16.72 15.8365 16.9109 16.82 16.7194C17.8035 16.5279 18.6769 15.9683 19.262 15.1549L21.584 16.4948C21.4746 16.9082 21.501 17.3459 21.6592 17.7433C21.8175 18.1406 22.0993 18.4766 22.4631 18.7016C22.9038 18.9601 23.429 19.0332 23.9235 18.9047C24.418 18.7763 24.8413 18.4568 25.1004 18.0165C25.353 17.5703 25.4247 17.0441 25.3006 16.5466C25.1765 16.049 24.8661 15.6181 24.4335 15.3429ZM9.97411 7.46145C10.8427 6.43544 11.9592 5.64863 13.2176 5.17584C13.0958 4.76935 13.0607 4.3418 13.1145 3.92088C11.5381 4.44795 10.1342 5.39294 9.05259 6.65512C8.94567 6.77732 8.89167 6.937 8.90247 7.09901C8.91327 7.26103 8.98799 7.41212 9.11019 7.51905C9.23239 7.62597 9.39206 7.67998 9.55408 7.66917C9.7161 7.65837 9.86719 7.58365 9.97411 7.46145ZM23.803 14.0939C24.2018 14.143 24.586 14.2751 24.9306 14.4819H24.9609C25.3189 12.7894 25.1907 11.0302 24.5911 9.40748C24.5687 9.32673 24.5297 9.25152 24.4767 9.18658C24.4237 9.12165 24.3578 9.06841 24.2832 9.03022C24.2086 8.99204 24.1269 8.96974 24.0432 8.96473C23.9596 8.95973 23.8758 8.97212 23.7971 9.00113C23.7185 9.03015 23.6467 9.07515 23.5864 9.1333C23.526 9.19145 23.4784 9.26148 23.4465 9.33898C23.4145 9.41647 23.399 9.49974 23.4009 9.58354C23.4028 9.66733 23.422 9.74982 23.4574 9.8258C23.9584 11.1906 24.0779 12.6662 23.803 14.0939ZM21.0566 18.7257C20.0002 19.607 18.7315 20.1965 17.3766 20.4354C17.297 20.4422 17.2195 20.4645 17.1485 20.5013C17.0775 20.538 17.0145 20.5883 16.963 20.6494C16.9115 20.7105 16.8725 20.7811 16.8483 20.8573C16.8241 20.9334 16.8151 21.0136 16.8219 21.0932C16.8286 21.1728 16.851 21.2503 16.8877 21.3213C16.9244 21.3922 16.9748 21.4553 17.0359 21.5068C17.0969 21.5583 17.1676 21.5973 17.2437 21.6215C17.3199 21.6457 17.4 21.6547 17.4797 21.6479H17.5888C19.2036 21.3631 20.7128 20.6514 21.9599 19.5866V19.5442C21.6033 19.3397 21.2951 19.0605 21.0566 18.7257ZM14.5635 20.399C13.6465 20.2269 12.7665 19.8966 11.9627 19.4229C11.6189 19.2204 11.2888 18.9956 10.9745 18.75C10.7433 19.0895 10.4413 19.375 10.0893 19.5866C10.483 19.9188 10.9027 20.2188 11.3443 20.4839C12.2703 21.0293 13.2834 21.4108 14.3392 21.6115H14.4544C14.6152 21.626 14.7751 21.576 14.8991 21.4726C15.023 21.3691 15.1008 21.2206 15.1152 21.0598C15.1297 20.899 15.0797 20.7391 14.9762 20.6152C14.8728 20.4912 14.7243 20.4135 14.5635 20.399ZM7.85827 14.2212C7.97952 14.2212 8.10078 14.203 8.22203 14.1666C7.93302 12.7371 8.04636 11.2554 8.54941 9.88643C8.60488 9.73529 8.59804 9.5683 8.53039 9.4222C8.46274 9.2761 8.33983 9.16285 8.18868 9.10738C8.03754 9.05191 7.87055 9.05875 7.72445 9.1264C7.57835 9.19405 7.46511 9.31696 7.40964 9.46811C6.80913 11.104 6.69129 12.878 7.07013 14.5789C7.31341 14.4208 7.5791 14.3002 7.85827 14.2212ZM22.0267 7.4614C21.4642 6.79718 20.7965 6.22985 20.0502 5.78205C19.6491 5.54614 19.2294 5.34338 18.7953 5.17579C18.9161 4.77106 18.9471 4.34485 18.8862 3.92689C19.5062 4.13441 20.1034 4.40458 20.6686 4.73322C21.5304 5.24955 22.3007 5.90511 22.9482 6.67326C22.9999 6.73377 23.0392 6.80387 23.0639 6.87958C23.0886 6.95529 23.0981 7.03511 23.0919 7.11449C23.0857 7.19386 23.0639 7.27125 23.0278 7.34221C22.9917 7.41318 22.942 7.47634 22.8815 7.52809C22.821 7.57984 22.7509 7.61916 22.6752 7.64382C22.5995 7.66848 22.5196 7.67798 22.4403 7.67179C22.3609 7.66559 22.2835 7.64383 22.2125 7.60773C22.1416 7.57163 22.0784 7.52191 22.0267 7.4614Z"/>
</mask>
<path fill-rule="evenodd" clip-rule="evenodd" d="M24.4335 15.3429C24.2169 15.2051 23.9753 15.1116 23.7224 15.0679C23.4695 15.0242 23.2104 15.0311 22.9602 15.0882C22.6436 15.1727 22.3523 15.3329 22.1115 15.5551L19.7652 14.197C20.1348 13.2841 20.1688 12.2698 19.8614 11.3341C19.5539 10.3985 18.9249 9.60205 18.0859 9.08623L18.0192 9.0438C17.566 8.78803 17.068 8.62135 16.5521 8.55272V6.24893C17.0349 6.10382 17.4431 5.77808 17.6918 5.33953C17.9597 4.88615 18.0379 4.34545 17.9097 3.83472C17.7814 3.324 17.457 2.88443 17.0068 2.61135C16.7874 2.48303 16.5447 2.39977 16.2927 2.36646C16.0408 2.33314 15.7848 2.35045 15.5396 2.41735C15.2868 2.48179 15.0494 2.59593 14.8412 2.7531C14.6331 2.91028 14.4583 3.10735 14.3271 3.33281C14.0668 3.784 13.9928 4.31892 14.1207 4.82385C14.2486 5.32877 14.5684 5.7639 15.0122 6.03674C15.1513 6.12763 15.3022 6.19903 15.4608 6.24893V8.55272C14.8501 8.63608 14.2667 8.85877 13.7558 9.20358C13.2449 9.54839 12.8201 10.0061 12.5144 10.5413C12.198 11.0883 12.0106 11.7002 11.9664 12.3306C11.9223 12.961 12.0226 13.5931 12.2597 14.1788L9.83467 15.5672C9.74962 15.4855 9.65841 15.4105 9.56185 15.3429C9.33985 15.2166 9.0951 15.1353 8.84163 15.1039C8.58816 15.0724 8.33097 15.0913 8.08482 15.1594C7.83866 15.2276 7.60839 15.3437 7.40721 15.501C7.20604 15.6584 7.03791 15.8539 6.91249 16.0764C6.6506 16.5255 6.57375 17.0588 6.69823 17.5635C6.8227 18.0682 7.13873 18.5046 7.57938 18.7804C7.88141 18.9622 8.22716 19.0586 8.57971 19.0592C8.73935 19.0604 8.89841 19.04 9.05259 18.9986C9.55663 18.8686 9.98874 18.5444 10.2545 18.0969C10.5204 17.6493 10.5983 17.1148 10.4712 16.6099V16.5069L12.8235 15.1489C13.1388 15.5616 13.5272 15.913 13.9694 16.1856C14.817 16.72 15.8365 16.9109 16.82 16.7194C17.8035 16.5279 18.6769 15.9683 19.262 15.1549L21.584 16.4948C21.4746 16.9082 21.501 17.3459 21.6592 17.7433C21.8175 18.1406 22.0993 18.4766 22.4631 18.7016C22.9038 18.9601 23.429 19.0332 23.9235 18.9047C24.418 18.7763 24.8413 18.4568 25.1004 18.0165C25.353 17.5703 25.4247 17.0441 25.3006 16.5466C25.1765 16.049 24.8661 15.6181 24.4335 15.3429ZM9.97411 7.46145C10.8427 6.43544 11.9592 5.64863 13.2176 5.17584C13.0958 4.76935 13.0607 4.3418 13.1145 3.92088C11.5381 4.44795 10.1342 5.39294 9.05259 6.65512C8.94567 6.77732 8.89167 6.937 8.90247 7.09901C8.91327 7.26103 8.98799 7.41212 9.11019 7.51905C9.23239 7.62597 9.39206 7.67998 9.55408 7.66917C9.7161 7.65837 9.86719 7.58365 9.97411 7.46145ZM23.803 14.0939C24.2018 14.143 24.586 14.2751 24.9306 14.4819H24.9609C25.3189 12.7894 25.1907 11.0302 24.5911 9.40748C24.5687 9.32673 24.5297 9.25152 24.4767 9.18658C24.4237 9.12165 24.3578 9.06841 24.2832 9.03022C24.2086 8.99204 24.1269 8.96974 24.0432 8.96473C23.9596 8.95973 23.8758 8.97212 23.7971 9.00113C23.7185 9.03015 23.6467 9.07515 23.5864 9.1333C23.526 9.19145 23.4784 9.26148 23.4465 9.33898C23.4145 9.41647 23.399 9.49974 23.4009 9.58354C23.4028 9.66733 23.422 9.74982 23.4574 9.8258C23.9584 11.1906 24.0779 12.6662 23.803 14.0939ZM21.0566 18.7257C20.0002 19.607 18.7315 20.1965 17.3766 20.4354C17.297 20.4422 17.2195 20.4645 17.1485 20.5013C17.0775 20.538 17.0145 20.5883 16.963 20.6494C16.9115 20.7105 16.8725 20.7811 16.8483 20.8573C16.8241 20.9334 16.8151 21.0136 16.8219 21.0932C16.8286 21.1728 16.851 21.2503 16.8877 21.3213C16.9244 21.3922 16.9748 21.4553 17.0359 21.5068C17.0969 21.5583 17.1676 21.5973 17.2437 21.6215C17.3199 21.6457 17.4 21.6547 17.4797 21.6479H17.5888C19.2036 21.3631 20.7128 20.6514 21.9599 19.5866V19.5442C21.6033 19.3397 21.2951 19.0605 21.0566 18.7257ZM14.5635 20.399C13.6465 20.2269 12.7665 19.8966 11.9627 19.4229C11.6189 19.2204 11.2888 18.9956 10.9745 18.75C10.7433 19.0895 10.4413 19.375 10.0893 19.5866C10.483 19.9188 10.9027 20.2188 11.3443 20.4839C12.2703 21.0293 13.2834 21.4108 14.3392 21.6115H14.4544C14.6152 21.626 14.7751 21.576 14.8991 21.4726C15.023 21.3691 15.1008 21.2206 15.1152 21.0598C15.1297 20.899 15.0797 20.7391 14.9762 20.6152C14.8728 20.4912 14.7243 20.4135 14.5635 20.399ZM7.85827 14.2212C7.97952 14.2212 8.10078 14.203 8.22203 14.1666C7.93302 12.7371 8.04636 11.2554 8.54941 9.88643C8.60488 9.73529 8.59804 9.5683 8.53039 9.4222C8.46274 9.2761 8.33983 9.16285 8.18868 9.10738C8.03754 9.05191 7.87055 9.05875 7.72445 9.1264C7.57835 9.19405 7.46511 9.31696 7.40964 9.46811C6.80913 11.104 6.69129 12.878 7.07013 14.5789C7.31341 14.4208 7.5791 14.3002 7.85827 14.2212ZM22.0267 7.4614C21.4642 6.79718 20.7965 6.22985 20.0502 5.78205C19.6491 5.54614 19.2294 5.34338 18.7953 5.17579C18.9161 4.77106 18.9471 4.34485 18.8862 3.92689C19.5062 4.13441 20.1034 4.40458 20.6686 4.73322C21.5304 5.24955 22.3007 5.90511 22.9482 6.67326C22.9999 6.73377 23.0392 6.80387 23.0639 6.87958C23.0886 6.95529 23.0981 7.03511 23.0919 7.11449C23.0857 7.19386 23.0639 7.27125 23.0278 7.34221C22.9917 7.41318 22.942 7.47634 22.8815 7.52809C22.821 7.57984 22.7509 7.61916 22.6752 7.64382C22.5995 7.66848 22.5196 7.67798 22.4403 7.67179C22.3609 7.66559 22.2835 7.64383 22.2125 7.60773C22.1416 7.57163 22.0784 7.52191 22.0267 7.4614Z" fill="white"/>
<path d="M23.7224 15.0679L23.8927 14.0825H23.8927L23.7224 15.0679ZM24.4335 15.3429L24.9703 14.4992L24.9703 14.4992L24.4335 15.3429ZM22.9602 15.0882L22.7377 14.1133L22.7201 14.1173L22.7026 14.122L22.9602 15.0882ZM22.1115 15.5551L21.6105 16.4205L22.2481 16.7896L22.7895 16.2901L22.1115 15.5551ZM19.7652 14.197L18.8383 13.8218L18.5123 14.6272L19.2643 15.0625L19.7652 14.197ZM18.0859 9.08623L17.549 9.9299L17.5556 9.93406L17.5622 9.93811L18.0859 9.08623ZM18.0192 9.0438L18.5561 8.20013L18.5337 8.18591L18.5106 8.17288L18.0192 9.0438ZM16.5521 8.55272H15.5521V9.42852L16.4202 9.54399L16.5521 8.55272ZM16.5521 6.24893L16.2642 5.29124L15.5521 5.50528V6.24893H16.5521ZM17.6918 5.33953L16.8308 4.83093L16.8263 4.83855L16.822 4.84625L17.6918 5.33953ZM17.0068 2.61135L17.5253 1.75632L17.5186 1.75222L17.5117 1.74822L17.0068 2.61135ZM15.5396 2.41735L15.7866 3.38636L15.7948 3.38428L15.8029 3.38207L15.5396 2.41735ZM14.8412 2.7531L15.4438 3.55118L15.4438 3.55118L14.8412 2.7531ZM14.3271 3.33281L13.4628 2.82984L13.4609 2.83314L14.3271 3.33281ZM15.0122 6.03674L15.559 5.19954L15.5476 5.19205L15.5359 5.18489L15.0122 6.03674ZM15.4608 6.24893H16.4608V5.51531L15.761 5.29506L15.4608 6.24893ZM15.4608 8.55272L15.596 9.54354L16.4608 9.4255V8.55272H15.4608ZM13.7558 9.20358L14.3152 10.0325L13.7558 9.20358ZM12.5144 10.5413L13.38 11.042L13.3826 11.0374L12.5144 10.5413ZM11.9664 12.3306L12.964 12.4004L11.9664 12.3306ZM12.2597 14.1788L12.7566 15.0467L13.5142 14.6129L13.1867 13.8036L12.2597 14.1788ZM9.83467 15.5672L9.14208 16.2885L9.68197 16.8069L10.3315 16.435L9.83467 15.5672ZM9.56185 15.3429L10.1357 14.5239L10.0972 14.4969L10.0564 14.4737L9.56185 15.3429ZM8.84163 15.1039L8.96488 14.1115L8.96488 14.1115L8.84163 15.1039ZM8.08482 15.1594L8.35167 16.1232H8.35167L8.08482 15.1594ZM7.40721 15.501L6.79109 14.7134H6.79109L7.40721 15.501ZM6.91249 16.0764L7.7763 16.5803L7.78001 16.5739L7.78362 16.5675L6.91249 16.0764ZM6.69823 17.5635L7.66913 17.324L7.66913 17.324L6.69823 17.5635ZM7.57938 18.7804L7.0489 19.6281L7.05619 19.6326L7.06355 19.6371L7.57938 18.7804ZM8.57971 19.0592L8.58679 18.0593L8.58151 18.0592L8.57971 19.0592ZM9.05259 18.9986L8.80281 18.0303L8.79348 18.0328L9.05259 18.9986ZM10.2545 18.0969L9.39475 17.5862L9.39475 17.5862L10.2545 18.0969ZM10.4712 16.6099H9.47125V16.7338L9.50147 16.854L10.4712 16.6099ZM10.4712 16.5069L9.97127 15.6408L9.47125 15.9295V16.5069H10.4712ZM12.8235 15.1489L13.6182 14.5419L13.0847 13.8434L12.3236 14.2828L12.8235 15.1489ZM13.9694 16.1856L14.5028 15.3396L14.4941 15.3343L13.9694 16.1856ZM16.82 16.7194L17.0112 17.7009H17.0112L16.82 16.7194ZM19.262 15.1549L19.7618 14.2888L18.9784 13.8367L18.4503 14.571L19.262 15.1549ZM21.584 16.4948L22.5507 16.7506L22.7465 16.011L22.0838 15.6286L21.584 16.4948ZM21.6592 17.7433L20.7302 18.1134V18.1134L21.6592 17.7433ZM22.4631 18.7016L21.9371 19.5521L21.947 19.5582L21.957 19.564L22.4631 18.7016ZM25.1004 18.0165L25.9622 18.5236L25.9664 18.5164L25.9706 18.5092L25.1004 18.0165ZM25.3006 16.5466L26.2708 16.3045V16.3045L25.3006 16.5466ZM13.2176 5.17584L13.5693 6.11195L14.4436 5.78346L14.1755 4.88878L13.2176 5.17584ZM9.97411 7.46145L10.7267 8.11996L10.7321 8.1138L10.7374 8.10756L9.97411 7.46145ZM13.1145 3.92088L14.1065 4.04782L14.3087 2.46721L12.7975 2.97248L13.1145 3.92088ZM9.05259 6.65512L9.80521 7.31366L9.81192 7.30583L9.05259 6.65512ZM8.90247 7.09901L9.90025 7.03249V7.03249L8.90247 7.09901ZM9.55408 7.66917L9.48756 6.67139H9.48756L9.55408 7.66917ZM24.9306 14.4819L24.4161 15.3394L24.6536 15.4819H24.9306V14.4819ZM23.803 14.0939L22.821 13.9048L22.6186 14.9557L23.6809 15.0864L23.803 14.0939ZM24.9609 14.4819V15.4819H25.7715L25.9393 14.6889L24.9609 14.4819ZM24.5911 9.40748L23.6277 9.6754L23.6388 9.71528L23.6531 9.7541L24.5911 9.40748ZM24.0432 8.96473L23.9835 9.96295L23.9835 9.96295L24.0432 8.96473ZM23.7971 9.00113L24.1433 9.93931L24.1433 9.9393L23.7971 9.00113ZM23.5864 9.1333L22.8926 8.41313L22.8926 8.41313L23.5864 9.1333ZM23.4465 9.33898L24.3711 9.71989L24.3711 9.71988L23.4465 9.33898ZM23.4574 9.8258L24.3961 9.48118L24.3817 9.44178L24.364 9.40373L23.4574 9.8258ZM17.3766 20.4354L17.4613 21.4318L17.506 21.428L17.5503 21.4202L17.3766 20.4354ZM21.0566 18.7257L21.871 18.1454L21.2447 17.2665L20.416 17.9578L21.0566 18.7257ZM17.1485 20.5013L17.608 21.3894L17.6081 21.3894L17.1485 20.5013ZM16.963 20.6494L16.1985 20.0047L16.1985 20.0047L16.963 20.6494ZM16.8483 20.8573L17.8013 21.1603L17.8013 21.1603L16.8483 20.8573ZM16.8219 21.0932L17.8183 21.0085V21.0085L16.8219 21.0932ZM16.8877 21.3213L15.9996 21.7808L16.8877 21.3213ZM17.2437 21.6215L17.5468 20.6685L17.5468 20.6685L17.2437 21.6215ZM17.4797 21.6479V20.6479H17.4372L17.395 20.6515L17.4797 21.6479ZM17.5888 21.6479V22.6479H17.6763L17.7625 22.6327L17.5888 21.6479ZM21.9599 19.5866L22.6092 20.3471L22.9599 20.0477V19.5866H21.9599ZM21.9599 19.5442H22.9599V18.9648L22.4573 18.6767L21.9599 19.5442ZM11.9627 19.4229L12.4704 18.5614L12.4703 18.5614L11.9627 19.4229ZM14.5635 20.399L14.3791 21.3819L14.4262 21.3907L14.4739 21.395L14.5635 20.399ZM10.9745 18.75L11.5901 17.962L10.7487 17.3046L10.1478 18.1872L10.9745 18.75ZM10.0893 19.5866L9.57399 18.7296L8.37635 19.4498L9.44448 20.3509L10.0893 19.5866ZM11.3443 20.4839L10.8296 21.3413L10.8367 21.3455L11.3443 20.4839ZM14.3392 21.6115L14.1524 22.5939L14.245 22.6115H14.3392V21.6115ZM14.4544 21.6115L14.544 20.6156L14.4993 20.6115H14.4544V21.6115ZM14.8991 21.4726L15.54 22.2402L15.54 22.2402L14.8991 21.4726ZM14.9762 20.6152L15.7439 19.9743L15.7439 19.9743L14.9762 20.6152ZM8.22203 14.1666L8.50938 15.1245L9.38292 14.8624L9.2022 13.9685L8.22203 14.1666ZM7.85827 14.2212V13.2212H7.71947L7.58592 13.259L7.85827 14.2212ZM8.54941 9.88643L9.48804 10.2313L9.48818 10.231L8.54941 9.88643ZM7.72445 9.1264L7.30428 8.21896L7.30427 8.21896L7.72445 9.1264ZM7.40964 9.46811L8.34839 9.81271L8.34841 9.81266L7.40964 9.46811ZM7.07013 14.5789L6.09405 14.7963L6.4072 16.2023L7.61502 15.4174L7.07013 14.5789ZM20.0502 5.78205L20.5648 4.92453L20.5572 4.92008L20.0502 5.78205ZM22.0267 7.4614L21.2635 8.10761L21.2667 8.11137L22.0267 7.4614ZM18.7953 5.17579L17.837 4.88984L17.5727 5.77574L18.4351 6.10869L18.7953 5.17579ZM18.8862 3.92689L19.2036 2.9786L17.6624 2.46275L17.8967 4.07101L18.8862 3.92689ZM20.6686 4.73322L21.1826 3.87532L21.1713 3.86874L20.6686 4.73322ZM22.9482 6.67326L22.1835 7.31776L22.1882 7.32323L22.9482 6.67326ZM23.0639 6.87958L24.0148 6.56993L24.0147 6.56991L23.0639 6.87958ZM23.0919 7.11449L22.0949 7.0367L22.0949 7.03673L23.0919 7.11449ZM22.8815 7.52809L23.5314 8.28806L23.5315 8.28805L22.8815 7.52809ZM22.6752 7.64382L22.9848 8.59467L22.9848 8.59467L22.6752 7.64382ZM22.2125 7.60773L21.7591 8.49904L21.7592 8.49905L22.2125 7.60773ZM23.5521 16.0533C23.6746 16.0745 23.7917 16.1198 23.8966 16.1865L24.9703 14.4992C24.6422 14.2904 24.2759 14.1488 23.8927 14.0825L23.5521 16.0533ZM23.1828 16.0632C23.304 16.0355 23.4295 16.0321 23.5521 16.0533L23.8927 14.0825C23.5095 14.0163 23.1169 14.0268 22.7377 14.1133L23.1828 16.0632ZM22.7895 16.2901C22.9111 16.1779 23.0581 16.0971 23.2179 16.0545L22.7026 14.122C22.2292 14.2482 21.7936 14.4878 21.4334 14.82L22.7895 16.2901ZM19.2643 15.0625L21.6105 16.4205L22.6124 14.6896L20.2662 13.3315L19.2643 15.0625ZM18.9114 11.6463C19.145 12.3573 19.1191 13.1281 18.8383 13.8218L20.6922 14.5722C21.1504 13.4401 21.1927 12.1823 20.8114 11.022L18.9114 11.6463ZM17.5622 9.93811C18.1997 10.3301 18.6777 10.9353 18.9114 11.6463L20.8114 11.022C20.4302 9.86167 19.6501 8.87402 18.6096 8.23436L17.5622 9.93811ZM17.4823 9.88746L17.549 9.9299L18.6228 8.24257L18.5561 8.20013L17.4823 9.88746ZM16.4202 9.54399C16.8097 9.5958 17.1856 9.72163 17.5278 9.91471L18.5106 8.17288C17.9463 7.85443 17.3262 7.6469 16.6839 7.56145L16.4202 9.54399ZM15.5521 6.24893V8.55272H17.5521V6.24893H15.5521ZM16.822 4.84625C16.7003 5.06084 16.5005 5.22024 16.2642 5.29124L16.8399 7.20661C17.5693 6.9874 18.186 6.49532 18.5617 5.83282L16.822 4.84625ZM16.9398 4.07827C17.0039 4.33372 16.9648 4.60416 16.8308 4.83093L18.5528 5.84814C18.9545 5.16813 19.0719 4.35718 18.8796 3.59117L16.9398 4.07827ZM16.4882 3.46639C16.7134 3.60297 16.8756 3.82283 16.9398 4.07827L18.8796 3.59117C18.6872 2.82517 18.2006 2.16589 17.5253 1.75632L16.4882 3.46639ZM16.1616 3.35783C16.2817 3.3737 16.3973 3.41336 16.5018 3.47449L17.5117 1.74822C17.1775 1.5527 16.8077 1.42584 16.4238 1.37509L16.1616 3.35783ZM15.8029 3.38207C15.9197 3.3502 16.0416 3.34196 16.1616 3.35783L16.4238 1.37509C16.04 1.32433 15.6499 1.35069 15.2763 1.45263L15.8029 3.38207ZM15.4438 3.55118C15.546 3.47402 15.6625 3.41799 15.7866 3.38636L15.2926 1.44834C14.9111 1.54558 14.5529 1.71783 14.2387 1.95502L15.4438 3.55118ZM15.1914 3.83577C15.2558 3.72509 15.3416 3.62834 15.4438 3.55118L14.2387 1.95502C13.9245 2.19222 13.6608 2.48961 13.4628 2.82985L15.1914 3.83577ZM15.0901 4.57824C15.0261 4.32569 15.0631 4.05815 15.1933 3.83248L13.4609 2.83314C13.0705 3.50986 12.9595 4.31214 13.1513 5.06945L15.0901 4.57824ZM15.5359 5.18489C15.314 5.04843 15.1541 4.83079 15.0901 4.57824L13.1513 5.06945C13.3432 5.82676 13.8229 6.47938 14.4884 6.88858L15.5359 5.18489ZM15.761 5.29506C15.6896 5.2726 15.6217 5.24046 15.559 5.19954L14.4653 6.87394C14.6809 7.01481 14.9149 7.12546 15.1606 7.20279L15.761 5.29506ZM16.4608 8.55272V6.24893H14.4608V8.55272H16.4608ZM14.3152 10.0325C14.699 9.77345 15.1372 9.60616 15.596 9.54354L15.3255 7.56191C14.5629 7.66601 13.8344 7.9441 13.1964 8.3747L14.3152 10.0325ZM13.3826 11.0374C13.6123 10.6353 13.9314 10.2915 14.3152 10.0325L13.1964 8.3747C12.5584 8.80529 12.0279 9.37684 11.6461 10.0452L13.3826 11.0374ZM12.964 12.4004C12.9975 11.9219 13.1398 11.4572 13.38 11.042L11.6487 10.0406C11.2561 10.7193 11.0236 11.4786 10.9689 12.2608L12.964 12.4004ZM13.1867 13.8036C13.0066 13.3589 12.9305 12.879 12.964 12.4004L10.9689 12.2608C10.9141 13.0429 11.0386 13.8273 11.3328 14.5541L13.1867 13.8036ZM10.3315 16.435L12.7566 15.0467L11.7629 13.311L9.33783 14.6993L10.3315 16.435ZM8.988 16.1618C9.04253 16.2 9.09404 16.2424 9.14208 16.2885L10.5273 14.8459C10.4052 14.7287 10.2743 14.621 10.1357 14.5239L8.988 16.1618ZM8.71837 16.0962C8.84119 16.1115 8.95979 16.1508 9.06736 16.212L10.0564 14.4737C9.71992 14.2823 9.349 14.1592 8.96488 14.1115L8.71837 16.0962ZM8.35167 16.1232C8.47094 16.0901 8.59556 16.081 8.71838 16.0962L8.96488 14.1115C8.58076 14.0638 8.19101 14.0924 7.81797 14.1957L8.35167 16.1232ZM8.02333 16.2887C8.12082 16.2124 8.23239 16.1562 8.35167 16.1232L7.81797 14.1957C7.44494 14.299 7.09597 14.4749 6.79109 14.7134L8.02333 16.2887ZM7.78362 16.5675C7.84439 16.4597 7.92585 16.3649 8.02333 16.2887L6.79109 14.7134C6.48622 14.9519 6.23143 15.2482 6.04136 15.5854L7.78362 16.5675ZM7.66913 17.324C7.60687 17.0716 7.64531 16.8048 7.7763 16.5803L6.04868 15.5726C5.65588 16.2461 5.54063 17.046 5.72732 17.8029L7.66913 17.324ZM8.10985 17.9327C7.88946 17.7947 7.73139 17.5765 7.66913 17.324L5.72732 17.8029C5.91402 18.5599 6.388 19.2145 7.0489 19.6281L8.10985 17.9327ZM8.58151 18.0592C8.41012 18.0589 8.24203 18.0121 8.0952 17.9237L7.06355 19.6371C7.52078 19.9124 8.0442 20.0583 8.57791 20.0592L8.58151 18.0592ZM8.79348 18.0328C8.72609 18.0509 8.65657 18.0598 8.58679 18.0593L8.57262 20.0592C8.82212 20.061 9.07072 20.0291 9.31171 19.9645L8.79348 18.0328ZM9.39475 17.5862C9.26385 17.8066 9.05105 17.9663 8.80282 18.0303L9.30237 19.9669C10.0622 19.7709 10.7136 19.2822 11.1143 18.6075L9.39475 17.5862ZM9.50147 16.854C9.56402 17.1026 9.52566 17.3658 9.39475 17.5862L11.1143 18.6075C11.5151 17.9328 11.6325 17.1269 11.441 16.3659L9.50147 16.854ZM9.47125 16.5069V16.6099H11.4712V16.5069H9.47125ZM12.3236 14.2828L9.97127 15.6408L10.9712 17.3729L13.3235 16.0149L12.3236 14.2828ZM14.4941 15.3343C14.1561 15.126 13.8592 14.8574 13.6182 14.5419L12.0288 15.7559C12.4184 16.2659 12.8983 16.7001 13.4447 17.0369L14.4941 15.3343ZM16.6289 15.7378C15.8953 15.8807 15.1349 15.7383 14.5027 15.3397L13.436 17.0315C14.499 17.7017 15.7777 17.9411 17.0112 17.7009L16.6289 15.7378ZM18.4503 14.571C18.0139 15.1776 17.3624 15.595 16.6289 15.7378L17.0112 17.7009C18.2446 17.4608 19.34 16.759 20.0738 15.7389L18.4503 14.571ZM22.0838 15.6286L19.7618 14.2888L18.7623 16.0211L21.0842 17.3609L22.0838 15.6286ZM22.5882 17.3732C22.5093 17.1751 22.4962 16.9568 22.5507 16.7506L20.6173 16.2389C20.453 16.8596 20.4926 17.5168 20.7302 18.1134L22.5882 17.3732ZM22.9891 17.8511C22.8077 17.7389 22.6672 17.5714 22.5882 17.3732L20.7302 18.1134C20.9679 18.7099 21.391 19.2143 21.9371 19.5521L22.9891 17.8511ZM23.6721 17.9368C23.4341 17.9987 23.1813 17.9635 22.9692 17.8391L21.957 19.564C22.6263 19.9567 23.4239 20.0677 24.1749 19.8726L23.6721 17.9368ZM24.2385 17.5093C24.1138 17.7213 23.9101 17.875 23.6721 17.9368L24.1749 19.8726C24.9259 19.6775 25.5687 19.1923 25.9622 18.5236L24.2385 17.5093ZM24.3303 16.7886C24.3924 17.0374 24.3565 17.3006 24.2302 17.5238L25.9706 18.5092C26.3495 17.8399 26.457 17.0507 26.2708 16.3045L24.3303 16.7886ZM23.8966 16.1865C24.113 16.3242 24.2682 16.5397 24.3303 16.7886L26.2708 16.3045C26.0847 15.5583 25.6192 14.9121 24.9703 14.4992L23.8966 16.1865ZM12.8659 4.23973C11.4478 4.77251 10.1896 5.65915 9.21087 6.81534L10.7374 8.10756C11.4957 7.21173 12.4706 6.52476 13.5693 6.11195L12.8659 4.23973ZM12.1226 3.79395C12.051 4.35373 12.0977 4.92231 12.2597 5.46291L14.1755 4.88878C14.0939 4.61638 14.0704 4.32988 14.1065 4.04782L12.1226 3.79395ZM9.81192 7.30583C10.7758 6.18107 12.0268 5.33896 13.4316 4.86928L12.7975 2.97248C11.0494 3.55693 9.49265 4.60482 8.29327 6.00442L9.81192 7.30583ZM9.90025 7.03249C9.90709 7.13511 9.87289 7.23623 9.80517 7.31363L8.30002 5.99662C8.01845 6.31841 7.87624 6.73889 7.90468 7.16553L9.90025 7.03249ZM9.76869 6.76647C9.84609 6.83419 9.89341 6.92988 9.90025 7.03249L7.90468 7.16553C7.93312 7.59218 8.12989 7.99005 8.45168 8.27162L9.76869 6.76647ZM9.48756 6.67139C9.59017 6.66455 9.6913 6.69875 9.76869 6.76647L8.45168 8.27162C8.77348 8.5532 9.19395 8.6954 9.6206 8.66696L9.48756 6.67139ZM9.22154 6.80295C9.28925 6.72555 9.38495 6.67823 9.48756 6.67139L9.6206 8.66696C10.0472 8.63852 10.4451 8.44175 10.7267 8.11996L9.22154 6.80295ZM25.4451 13.6244C24.9806 13.3457 24.4627 13.1675 23.925 13.1014L23.6809 15.0864C23.941 15.1184 24.1914 15.2046 24.4161 15.3394L25.4451 13.6244ZM24.9609 13.4819H24.9306V15.4819H24.9609V13.4819ZM23.6531 9.7541C24.1873 11.1998 24.3015 12.7671 23.9826 14.2749L25.9393 14.6889C26.3364 12.8117 26.1942 10.8606 25.5291 9.06086L23.6531 9.7541ZM23.702 9.81887C23.6675 9.77669 23.6423 9.72784 23.6277 9.6754L25.5546 9.13956C25.4951 8.92562 25.3919 8.72634 25.2514 8.5543L23.702 9.81887ZM23.8276 9.92041C23.7792 9.89562 23.7364 9.86104 23.702 9.81887L25.2514 8.5543C25.111 8.38226 24.9365 8.2412 24.7388 8.14004L23.8276 9.92041ZM23.9835 9.96295C23.9291 9.95969 23.8761 9.94521 23.8276 9.92041L24.7388 8.14004C24.5411 8.03887 24.3246 7.97978 24.103 7.96652L23.9835 9.96295ZM24.1433 9.9393C24.0922 9.95815 24.0378 9.9662 23.9835 9.96295L24.103 7.96652C23.8813 7.95325 23.6593 7.98609 23.451 8.06296L24.1433 9.9393ZM24.2802 9.85347C24.241 9.89124 24.1944 9.92046 24.1433 9.93931L23.451 8.06296C23.2426 8.13983 23.0525 8.25906 22.8926 8.41313L24.2802 9.85347ZM24.3711 9.71988C24.3503 9.77022 24.3194 9.81571 24.2802 9.85347L22.8926 8.41313C22.7327 8.56719 22.6064 8.75274 22.5218 8.95807L24.3711 9.71988ZM24.4007 9.56105C24.4019 9.61549 24.3918 9.66957 24.3711 9.71989L22.5218 8.95807C22.4373 9.16337 22.3962 9.384 22.4012 9.60602L24.4007 9.56105ZM24.364 9.40373C24.3869 9.45307 24.3994 9.50664 24.4007 9.56105L22.4012 9.60602C22.4061 9.82802 22.4571 10.0466 22.5508 10.2479L24.364 9.40373ZM24.7849 14.283C25.0943 12.6768 24.9598 11.0167 24.3961 9.48118L22.5187 10.1704C22.957 11.3646 23.0616 12.6557 22.821 13.9048L24.7849 14.283ZM17.5503 21.4202C19.077 21.1509 20.5067 20.4867 21.6972 19.4936L20.416 17.9578C19.4936 18.7273 18.3859 19.242 17.2029 19.4506L17.5503 21.4202ZM17.6081 21.3894C17.5624 21.413 17.5125 21.4274 17.4613 21.4318L17.2919 19.439C17.0814 19.4569 16.8765 19.516 16.6889 19.6131L17.6081 21.3894ZM17.7274 21.2941C17.6943 21.3334 17.6537 21.3658 17.608 21.3894L16.689 19.6131C16.5013 19.7102 16.3347 19.8433 16.1985 20.0047L17.7274 21.2941ZM17.8013 21.1603C17.7857 21.2093 17.7606 21.2548 17.7274 21.2941L16.1985 20.0047C16.0624 20.1662 15.9593 20.3529 15.8953 20.5542L17.8013 21.1603ZM17.8183 21.0085C17.8226 21.0597 17.8168 21.1113 17.8013 21.1603L15.8953 20.5542C15.8313 20.7555 15.8076 20.9674 15.8255 21.1779L17.8183 21.0085ZM17.7759 20.8617C17.7995 20.9074 17.8139 20.9573 17.8183 21.0085L15.8255 21.1779C15.8433 21.3883 15.9025 21.5932 15.9996 21.7808L17.7759 20.8617ZM17.6805 20.7423C17.7198 20.7755 17.7522 20.816 17.7759 20.8617L15.9996 21.7808C16.0967 21.9684 16.2297 22.1351 16.3912 22.2712L17.6805 20.7423ZM17.5468 20.6685C17.5958 20.6841 17.6412 20.7092 17.6805 20.7423L16.3912 22.2712C16.5527 22.4074 16.7394 22.5104 16.9407 22.5745L17.5468 20.6685ZM17.395 20.6515C17.4462 20.6472 17.4978 20.6529 17.5468 20.6685L16.9407 22.5745C17.1419 22.6385 17.3539 22.6622 17.5643 22.6443L17.395 20.6515ZM17.5888 20.6479H17.4797V22.6479H17.5888V20.6479ZM21.3106 18.8261C20.1992 19.775 18.8542 20.4093 17.4151 20.6631L17.7625 22.6327C19.553 22.3169 21.2265 21.5277 22.6092 20.3471L21.3106 18.8261ZM20.9599 19.5442V19.5866H22.9599V19.5442H20.9599ZM20.2422 19.306C20.5645 19.7583 20.9808 20.1355 21.4625 20.4117L22.4573 18.6767C22.2258 18.5439 22.0258 18.3627 21.871 18.1454L20.2422 19.306ZM11.4549 20.2844C12.3586 20.817 13.3481 21.1884 14.3791 21.3819L14.748 19.4162C13.945 19.2655 13.1743 18.9762 12.4704 18.5614L11.4549 20.2844ZM10.3588 19.538C10.7075 19.8105 11.0737 20.0598 11.455 20.2845L12.4703 18.5614C12.1642 18.381 11.8701 18.1808 11.5901 17.962L10.3588 19.538ZM10.6046 20.4436C11.0805 20.1575 11.4886 19.7717 11.8011 19.3127L10.1478 18.1872C9.99798 18.4074 9.8022 18.5924 9.57399 18.7296L10.6046 20.4436ZM11.8589 19.6265C11.4631 19.3889 11.087 19.12 10.7342 18.8223L9.44448 20.3509C9.87899 20.7175 10.3422 21.0487 10.8296 21.3413L11.8589 19.6265ZM14.526 20.6291C13.5833 20.4499 12.6786 20.1093 11.8518 19.6223L10.8367 21.3455C11.8619 21.9494 12.9836 22.3717 14.1524 22.5939L14.526 20.6291ZM14.4544 20.6115H14.3392V22.6115H14.4544V20.6115ZM14.2582 20.7049C14.3379 20.6384 14.4407 20.6063 14.544 20.6156L14.3648 22.6075C14.7897 22.6458 15.2124 22.5136 15.54 22.2402L14.2582 20.7049ZM14.1193 20.9702C14.1286 20.8668 14.1785 20.7714 14.2582 20.7049L15.54 22.2402C15.8675 21.9668 16.073 21.5744 16.1112 21.1495L14.1193 20.9702ZM14.2086 21.256C14.1421 21.1764 14.11 21.0736 14.1193 20.9702L16.1112 21.1495C16.1494 20.7245 16.0173 20.3018 15.7439 19.9743L14.2086 21.256ZM14.4739 21.395C14.3705 21.3857 14.2751 21.3357 14.2086 21.256L15.7439 19.9743C15.4705 19.6468 15.0781 19.4413 14.6532 19.403L14.4739 21.395ZM7.93468 13.2088C7.90252 13.2185 7.87798 13.2212 7.85827 13.2212V15.2212C8.08107 15.2212 8.29903 15.1876 8.50938 15.1245L7.93468 13.2088ZM7.61078 9.54151C7.0439 11.0842 6.91618 12.7539 7.24186 14.3648L9.2022 13.9685C8.94986 12.7203 9.04882 11.4266 9.48804 10.2313L7.61078 9.54151ZM7.62295 9.84237C7.57916 9.7478 7.57473 9.63971 7.61064 9.54188L9.48818 10.231C9.63503 9.83086 9.61692 9.38879 9.43784 9.00202L7.62295 9.84237ZM7.84414 10.0462C7.7463 10.0102 7.66674 9.93694 7.62295 9.84237L9.43784 9.00202C9.25875 8.61525 8.93335 8.31547 8.53323 8.16861L7.84414 10.0462ZM8.14463 10.0338C8.05006 10.0776 7.94197 10.0821 7.84414 10.0462L8.53323 8.16861C8.13311 8.02176 7.69104 8.03987 7.30428 8.21896L8.14463 10.0338ZM8.34841 9.81266C8.3125 9.91049 8.2392 9.99005 8.14463 10.0338L7.30427 8.21896C6.9175 8.39804 6.61772 8.72344 6.47087 9.12356L8.34841 9.81266ZM8.04621 14.3615C7.70903 12.8476 7.81391 11.2687 8.34839 9.81271L6.47089 9.12351C5.80435 10.9393 5.67355 12.9083 6.09405 14.7963L8.04621 14.3615ZM7.58592 13.259C7.21021 13.3653 6.85265 13.5276 6.52524 13.7404L7.61502 15.4174C7.77418 15.314 7.94799 15.2351 8.13062 15.1834L7.58592 13.259ZM19.5357 6.63954C20.1881 7.031 20.7718 7.52695 21.2635 8.1076L22.7898 6.8152C22.1566 6.06741 21.4049 5.4287 20.5647 4.92457L19.5357 6.63954ZM18.4351 6.10869C18.8185 6.25668 19.1891 6.43572 19.5433 6.64403L20.5572 4.92008C20.1091 4.65657 19.6403 4.43009 19.1554 4.24289L18.4351 6.10869ZM17.8967 4.07101C17.9366 4.34504 17.9162 4.62448 17.837 4.88984L19.7535 5.46174C19.9159 4.91763 19.9576 4.34466 19.8758 3.78278L17.8967 4.07101ZM21.1713 3.86874C20.5473 3.50594 19.888 3.20769 19.2036 2.9786L18.5688 4.87518C19.1244 5.06113 19.6595 5.30322 20.166 5.5977L21.1713 3.86874ZM23.7128 6.02877C22.9941 5.17615 22.1391 4.4485 21.1826 3.8754L20.1547 5.59104C20.9217 6.05059 21.6073 6.63406 22.1836 7.31775L23.7128 6.02877ZM24.0147 6.56991C23.9494 6.36935 23.8452 6.18361 23.7081 6.02329L22.1882 7.32323C22.1546 7.28393 22.1291 7.2384 22.1131 7.18926L24.0147 6.56991ZM24.0888 7.19227C24.1052 6.98195 24.0801 6.77048 24.0148 6.56993L22.1131 7.18923C22.0971 7.14009 22.0909 7.08827 22.0949 7.0367L24.0888 7.19227ZM23.9191 7.7956C24.0148 7.60758 24.0724 7.40256 24.0888 7.19225L22.0949 7.03673C22.0989 6.98517 22.1131 6.93491 22.1365 6.88883L23.9191 7.7956ZM23.5315 8.28805C23.6918 8.15094 23.8235 7.98361 23.9191 7.7956L22.1365 6.88883C22.1599 6.84274 22.1922 6.80173 22.2315 6.76813L23.5315 8.28805ZM22.9848 8.59467C23.1854 8.52934 23.3711 8.42516 23.5314 8.28806L22.2315 6.76812C22.2708 6.73452 22.3163 6.70899 22.3655 6.69298L22.9848 8.59467ZM22.3625 8.66876C22.5728 8.68516 22.7843 8.65999 22.9848 8.59467L22.3655 6.69298C22.4147 6.67696 22.4665 6.67079 22.518 6.67481L22.3625 8.66876ZM21.7592 8.49905C21.9472 8.59468 22.1522 8.65235 22.3625 8.66876L22.518 6.67481C22.5696 6.67884 22.6198 6.69297 22.6659 6.71641L21.7592 8.49905ZM21.2667 8.11137C21.4038 8.27167 21.5711 8.40341 21.7591 8.49904L22.6659 6.71641C22.712 6.73985 22.753 6.77214 22.7866 6.81143L21.2667 8.11137Z" fill="#539412" mask="url(#path-3-outside-2_55_207)"/>
</svg>
