<svg width="32" height="24" viewBox="0 0 32 24" fill="none" xmlns="http://www.w3.org/2000/svg">
<path fill-rule="evenodd" clip-rule="evenodd" d="M10.7666 1.6938C11.582 1.86754 12.2041 2.52884 12.3277 3.35332L12.5521 4.84975L13.8271 5.66465C14.2186 5.91485 14.5006 6.28573 14.6436 6.70621C15.2184 6.55653 15.8431 6.66781 16.3382 7.0344C16.7008 7.30294 16.9527 7.678 17.0711 8.09269C17.0787 7.3656 17.483 6.69028 18.1391 6.34472L18.6742 6.06287L18.8137 5.47436C19.006 4.66316 19.6813 4.05633 20.5084 3.95156C21.3355 3.84679 22.1408 4.26606 22.5293 5.00369L22.8112 5.53882L23.3997 5.67833C24.2109 5.87064 24.8177 6.54597 24.9225 7.37305C24.9971 7.96213 24.8059 8.54016 24.4232 8.96442C24.7569 9.42304 24.9538 9.98765 24.9538 10.5983C24.9538 11.9504 23.9883 13.0771 22.7091 13.3265L23.1149 13.9026L24.6199 14.0596C25.4491 14.1461 26.1376 14.7378 26.3478 15.5446C26.558 16.3514 26.2456 17.2039 25.564 17.6839L24.3269 18.5552L24.1699 20.0602C24.0834 20.8894 23.4916 21.578 22.6849 21.7881C21.8781 21.9983 21.0256 21.686 20.5455 21.0044L19.6742 19.7673L18.1692 19.6103C17.3401 19.5238 16.6515 18.932 16.4413 18.1252C16.3562 17.7985 16.3568 17.4643 16.4329 17.1504C16.3611 17.1712 16.2883 17.1896 16.2145 17.2054C16.1844 17.9078 15.7849 18.5536 15.1483 18.889L13.9736 19.5077L13.6674 20.7995C13.4751 21.6107 12.7997 22.2175 11.9727 22.3223C11.1456 22.427 10.3403 22.0078 9.95176 21.2701L9.33308 20.0955L8.04127 19.7893C7.23007 19.5969 6.62324 18.9216 6.51847 18.0945C6.4137 17.2675 6.83297 16.4621 7.5706 16.0736L8.74524 15.455L9.05148 14.1631C9.06568 14.1033 9.08251 14.0445 9.10184 13.9869C8.80234 14.0973 8.47859 14.1576 8.14077 14.1576C6.60562 14.1576 5.36113 12.9131 5.36113 11.3779C5.36113 10.2892 5.98712 9.34659 6.89882 8.8905L6.84779 8.55016L5.5728 7.73526C4.87034 7.28628 4.52006 6.44865 4.6938 5.63327C4.86754 4.81788 5.52884 4.1958 6.35332 4.07217L7.84975 3.84779L8.66465 2.5728C9.11363 1.87034 9.95126 1.52006 10.7666 1.6938ZM7.22588 10.5703C7.03577 10.7855 6.9204 11.0682 6.9204 11.3779C6.9204 12.0519 7.46678 12.5983 8.14077 12.5983C8.69113 12.5983 9.1564 12.234 9.30857 11.7333C9.15233 11.7537 8.99256 11.7558 8.83236 11.7382C8.8886 11.6304 8.9204 11.5079 8.9204 11.3779C8.9204 10.9474 8.57135 10.5983 8.14077 10.5983C7.8564 10.5983 7.60758 10.7506 7.4714 10.978C7.37419 10.8531 7.29155 10.7163 7.22588 10.5703ZM10.8313 10.6769L10.9616 10.473L11.0716 10.6429L10.9143 11.1926C10.9027 11.0157 10.8745 10.8433 10.8313 10.6769ZM10.8441 12.0274C10.7906 12.2511 10.71 12.4642 10.6061 12.6631C10.6523 12.6539 10.699 12.6463 10.7462 12.6403C10.8372 12.6288 10.9278 12.6236 11.0177 12.6245C10.9293 12.4361 10.8706 12.2346 10.8441 12.0274ZM10.9975 14.6245L10.4816 16.8009L8.50262 17.8432L10.679 18.3591L11.7213 20.3381L12.2373 18.1617L14.2163 17.1194L12.0399 16.6035L10.9975 14.6245ZM14.7775 13.226C14.5325 13.4403 14.3778 13.7553 14.3778 14.1063C14.3778 14.7522 14.9014 15.2758 15.5473 15.2758C16.1931 15.2758 16.7167 14.7522 16.7167 14.1063C16.7167 13.7519 16.559 13.4342 16.31 13.2198C16.1052 13.0435 15.8387 12.9369 15.5473 12.9369C15.3802 12.9369 15.2213 12.9719 15.0775 13.0351C14.9676 13.0833 14.8666 13.148 14.7775 13.226ZM17.5361 11.6384C18.0896 12.085 18.4899 12.7142 18.6453 13.4344C18.7689 12.7997 19.1918 12.2668 19.7732 11.9997C19.5325 11.5883 19.3945 11.1094 19.3945 10.5983C19.3945 10.5897 19.3946 10.5812 19.3946 10.5728L19.1982 10.1999L18.6097 10.0603C17.8984 9.89172 17.3443 9.35174 17.1479 8.66371C17.146 8.83958 17.1208 9.01706 17.0708 9.19177L16.9045 9.77326L17.2332 10.2809C17.4993 10.6919 17.5993 11.1744 17.5361 11.6384ZM6.64989 6.05006L8.69087 7.35455L9.05006 9.75002L10.3545 7.70903L12.75 7.34985L10.709 6.04536L10.3498 3.64989L9.04536 5.69087L6.64989 6.05006ZM15.1479 8.64169L13.8772 9.46453L12.4216 9.04814L13.2445 10.3189L12.8281 11.7744L14.0989 10.9516L15.5544 11.368L14.7316 10.0972L15.1479 8.64169ZM21.7445 11.7408C21.8782 11.7911 22.0229 11.8186 22.1742 11.8186C22.8481 11.8186 23.3945 11.2722 23.3945 10.5983C23.3945 10.3914 23.3431 10.1966 23.2522 10.0259L23.1957 10.2643C23.1683 10.3801 23.131 10.4917 23.0848 10.5983C22.9014 11.0219 22.5776 11.3661 22.1742 11.5766C22.0391 11.647 21.8952 11.7024 21.7445 11.7408ZM22.6914 10.0149C22.6084 9.94123 22.5095 9.88501 22.4005 9.852C22.3289 9.83029 22.2529 9.81862 22.1742 9.81862C22.0287 9.81862 21.8926 9.85844 21.7761 9.92777C21.5476 10.0637 21.3945 10.3131 21.3945 10.5983C21.3945 11.0288 21.7436 11.3779 22.1742 11.3779C22.6047 11.3779 22.9538 11.0288 22.9538 10.5983C22.9538 10.4434 22.9086 10.2991 22.8308 10.1778C22.792 10.1173 22.745 10.0624 22.6914 10.0149ZM21.2492 9.80213L21.5989 8.32989L22.9383 7.62439L21.4653 7.27518L20.7598 5.93571L20.4105 7.40879L19.0711 8.11428L20.5442 8.46349L21.2492 9.80213ZM18.3767 17.6211L20.7859 17.8724L22.1807 19.8527L22.432 17.4436L24.4124 16.0488L22.0032 15.7975L20.6084 13.8171L20.3571 16.2263L18.3767 17.6211Z" fill="#333333"/>
<path d="M10.3498 3.64989L9.04536 5.69087L6.64989 6.05006L8.69087 7.35455L9.05006 9.75002L10.3545 7.70903L12.75 7.34985L10.709 6.04536L10.3498 3.64989Z" fill="white"/>
<path d="M20.6084 13.8171L20.3571 16.2263L18.3767 17.6211L20.7859 17.8724L22.1807 19.8527L22.432 17.4436L24.4124 16.0488L22.0032 15.7975L20.6084 13.8171Z" fill="white"/>
<path d="M20.7598 5.93571L20.4105 7.40879L19.0711 8.11428L20.5442 8.46349L21.2492 9.80213L21.5989 8.32989L22.9383 7.62439L21.4653 7.27518L20.7598 5.93571Z" fill="white"/>
<path d="M10.9975 14.6245L10.4816 16.8009L8.50262 17.8432L10.679 18.3591L11.7213 20.3381L12.2373 18.1617L14.2163 17.1194L12.0399 16.6035L10.9975 14.6245Z" fill="white"/>
<path d="M15.1479 8.64169L13.8772 9.46453L12.4216 9.04814L13.2445 10.3189L12.8281 11.7744L14.0989 10.9516L15.5544 11.368L14.7316 10.0972L15.1479 8.64169Z" fill="white"/>
<path d="M16.7167 14.1063C16.7167 14.7522 16.1931 15.2758 15.5473 15.2758C14.9014 15.2758 14.3778 14.7522 14.3778 14.1063C14.3778 13.4605 14.9014 12.9369 15.5473 12.9369C16.1931 12.9369 16.7167 13.4605 16.7167 14.1063Z" fill="white"/>
<path d="M22.9538 10.5983C22.9538 11.0288 22.6047 11.3779 22.1742 11.3779C21.7436 11.3779 21.3945 11.0288 21.3945 10.5983C21.3945 10.1677 21.7436 9.81862 22.1742 9.81862C22.6047 9.81862 22.9538 10.1677 22.9538 10.5983Z" fill="white"/>
<path d="M8.9204 11.3779C8.9204 11.8085 8.57136 12.1576 8.14078 12.1576C7.7102 12.1576 7.36115 11.8085 7.36115 11.3779C7.36115 10.9474 7.71019 10.5983 8.14077 10.5983C8.57135 10.5983 8.9204 10.9474 8.9204 11.3779Z" fill="white"/>
<path fill-rule="evenodd" clip-rule="evenodd" d="M10.5583 2.67185C10.966 2.75872 11.277 3.08937 11.3389 3.50161L11.6306 5.44756L13.2886 6.50726C13.6399 6.73174 13.815 7.15056 13.7281 7.55825C13.6651 7.8543 13.4734 8.09938 13.2154 8.23508L13.7153 8.37809L14.6045 7.8023C14.9544 7.57574 15.4081 7.58998 15.7431 7.83805C16.0781 8.08612 16.2241 8.51597 16.1094 8.91673L15.8181 9.93524L16.3939 10.8245C16.6204 11.1744 16.6062 11.6281 16.3581 11.9631C16.3322 11.9981 16.3043 12.031 16.2747 12.0618C17.1151 12.3608 17.7168 13.1633 17.7168 14.1063C17.7168 15.3045 16.7455 16.2758 15.5473 16.2758C14.3492 16.2758 13.3779 15.3045 13.3779 14.1063C13.3779 13.238 13.888 12.4889 14.6249 12.1422L14.2609 12.0381L13.3717 12.6138C13.0218 12.8404 12.5681 12.8262 12.2331 12.5781C11.8981 12.33 11.7521 11.9002 11.8667 11.4994L12.1581 10.4809L11.5823 9.59167C11.3747 9.27101 11.3693 8.86313 11.5608 8.53936L10.9524 8.63058L9.89273 10.2886C9.83792 10.3743 9.77153 10.4496 9.69655 10.5131C9.8392 10.7691 9.92047 11.064 9.92047 11.3779C9.92047 12.3608 9.1237 13.1576 8.14084 13.1576C7.15797 13.1576 6.3612 12.3608 6.3612 11.3779C6.3612 10.4368 7.09182 9.66622 8.01684 9.60256L7.7694 7.95236L6.11141 6.89267C5.76018 6.66818 5.58504 6.24936 5.67191 5.84167C5.75878 5.43398 6.08943 5.12294 6.50167 5.06112L8.44762 4.76934L9.50732 3.11135C9.73181 2.76012 10.1506 2.58498 10.5583 2.67185ZM9.04536 5.69087L6.64989 6.05006L8.69087 7.35455L9.05006 9.75002L10.3545 7.70903L12.75 7.34985L10.709 6.04536L10.3498 3.64989L9.04536 5.69087ZM12.8281 11.7744L14.0989 10.9516L15.5544 11.368L14.7316 10.0972L15.1479 8.64169L13.8772 9.46453L12.4216 9.04814L13.2445 10.3189L12.8281 11.7744ZM20.3564 12.8494C20.7598 12.7443 21.186 12.9005 21.4261 13.2413L22.5591 14.85L24.5162 15.0542C24.9308 15.0974 25.2751 15.3933 25.3802 15.7967C25.4852 16.2001 25.3291 16.6263 24.9883 16.8664L23.3795 17.9994L23.1754 19.9565C23.1321 20.3711 22.8362 20.7154 22.4329 20.8205C22.0295 20.9255 21.6032 20.7694 21.3632 20.4286L20.2301 18.8198L18.2731 18.6157C17.8585 18.5724 17.5142 18.2765 17.4091 17.8731C17.304 17.4698 17.4602 17.0435 17.801 16.8035L19.4097 15.6704L19.6139 13.7134C19.6571 13.2988 19.953 12.9545 20.3564 12.8494ZM20.3571 16.2263L18.3767 17.6211L20.7859 17.8724L22.1807 19.8527L22.432 17.4436L24.4124 16.0488L22.0032 15.7975L20.6084 13.8171L20.3571 16.2263ZM20.6342 4.94364C21.0477 4.89126 21.4504 5.10089 21.6446 5.4697L22.1383 6.40701L23.1691 6.65137C23.5747 6.74752 23.8781 7.08519 23.9305 7.49873C23.9829 7.91227 23.7732 8.31493 23.4044 8.50918L22.679 8.89124C23.416 9.10884 23.9539 9.79074 23.9539 10.5983C23.9539 11.5811 23.1571 12.3779 22.1742 12.3779C21.1914 12.3779 20.3946 11.5811 20.3946 10.5983C20.3946 10.5137 20.4005 10.4304 20.4119 10.349C20.3951 10.3232 20.3795 10.2966 20.3649 10.269L19.8713 9.33168L18.8405 9.08732C18.4349 8.99117 18.1314 8.6535 18.0791 8.23996C18.0267 7.82642 18.2363 7.42376 18.6051 7.22951L19.5424 6.73584L19.7868 5.70504C19.8829 5.29944 20.2206 4.99603 20.6342 4.94364ZM20.5442 8.46349L19.0711 8.11428L20.4105 7.40879L20.7598 5.93571L21.4653 7.27518L22.9383 7.62439L21.5989 8.32989L21.2492 9.80213L20.5442 8.46349ZM22.2723 9.82473C22.2402 9.8207 22.2074 9.81862 22.1742 9.81862C22.0287 9.81862 21.8926 9.85844 21.7761 9.92777C21.5476 10.0637 21.3945 10.3131 21.3945 10.5983C21.3945 10.664 21.4027 10.7278 21.418 10.7887C21.503 11.1272 21.8093 11.3779 22.1742 11.3779C22.6047 11.3779 22.9538 11.0288 22.9538 10.5983C22.9538 10.2009 22.6566 9.87295 22.2723 9.82473ZM10.8719 13.6324C11.2855 13.58 11.6881 13.7897 11.8824 14.1585L12.7129 15.7353L14.447 16.1464C14.8526 16.2425 15.156 16.5802 15.2084 16.9938C15.2608 17.4073 15.0511 17.8099 14.6823 18.0042L13.1055 18.8347L12.6944 20.5688C12.5983 20.9744 12.2606 21.2778 11.8471 21.3302C11.4335 21.3826 11.0309 21.173 10.8366 20.8041L10.0061 19.2273L8.27201 18.8162C7.86641 18.7201 7.563 18.3824 7.51061 17.9689C7.45823 17.5553 7.66786 17.1527 8.03668 16.9584L9.61349 16.1279L10.0246 14.3938C10.1207 13.9882 10.4584 13.6848 10.8719 13.6324ZM10.4816 16.8009L8.50262 17.8432L10.679 18.3591L11.7213 20.3381L12.2373 18.1617L14.2163 17.1194L12.0399 16.6035L10.9975 14.6245L10.4816 16.8009ZM15.5473 15.2758C16.1931 15.2758 16.7167 14.7522 16.7167 14.1063C16.7167 13.4605 16.1931 12.9369 15.5473 12.9369C14.9014 12.9369 14.3778 13.4605 14.3778 14.1063C14.3778 14.7522 14.9014 15.2758 15.5473 15.2758ZM8.14078 12.1576C8.57136 12.1576 8.9204 11.8085 8.9204 11.3779C8.9204 10.9474 8.57135 10.5983 8.14077 10.5983C7.71019 10.5983 7.36115 10.9474 7.36115 11.3779C7.36115 11.8085 7.7102 12.1576 8.14078 12.1576Z" fill="#BFAC00"/>
</svg>
