<svg width="32" height="24" viewBox="0 0 32 24" fill="none" xmlns="http://www.w3.org/2000/svg">
<path d="M13.2609 18.2337C13.3793 19.5021 14.4515 20.5 15.75 20.5C17.0485 20.5 18.1207 19.5021 18.2391 18.2337C19.0913 18.1167 19.75 17.3837 19.75 16.5C19.75 16.164 19.6548 15.8498 19.4899 15.5829C20.59 14.8122 22.375 13.0699 22.375 10.125C22.375 8.7774 21.9721 7.52343 21.2802 6.47705L21.7902 6.70978L22.3402 7.91513C22.4871 8.23699 22.7915 8.45464 23.1376 8.49369C23.0492 8.64425 23 8.81825 23 9C23 9.39056 23.2274 9.74537 23.5822 9.90854L24.2735 10.2265L24.5915 10.9178C24.7546 11.2726 25.1094 11.5 25.5 11.5C25.8906 11.5 26.2454 11.2726 26.4085 10.9178L26.7265 10.2265L27.4178 9.90854C27.7726 9.74537 28 9.39056 28 9C28 8.60945 27.7726 8.25463 27.4178 8.09146L26.7265 7.77355L26.4085 7.08221C26.2454 6.72737 25.8906 6.5 25.5 6.5C25.1094 6.5 24.7546 6.72737 24.5915 7.08221L24.2735 7.77355L24.2113 7.80216L24.7098 6.70978L25.9151 6.15976C26.2714 5.99719 26.5 5.64161 26.5 5.25C26.5 4.85839 26.2714 4.50281 25.9151 4.34024L24.7098 3.79022L24.1598 2.58487C23.9972 2.22859 23.6416 2 23.25 2C22.8584 2 22.5028 2.22859 22.3402 2.58487L21.7902 3.79022L20.5849 4.34024C20.2876 4.47589 20.0792 4.74593 20.0183 5.05915C18.8652 4.08642 17.3757 3.5 15.75 3.5C12.0927 3.5 9.125 6.46772 9.125 10.125C9.125 13.0699 10.91 14.8122 12.0101 15.5829C11.8452 15.8498 11.75 16.164 11.75 16.5C11.75 17.3837 12.4087 18.1167 13.2609 18.2337Z" fill="#FAF7EF" stroke="#333333" stroke-width="2" stroke-linejoin="round"/>
<path d="M13.8169 17.75C13.7743 17.8235 13.75 17.9089 13.75 18C13.75 19.1011 14.6489 20 15.75 20C16.8511 20 17.75 19.1011 17.75 18C17.75 17.9089 17.7257 17.8235 17.6831 17.75H18C18.6886 17.75 19.25 17.1886 19.25 16.5C19.25 16.0751 19.0363 15.6986 18.7108 15.4726C18.7407 15.4623 18.7696 15.4491 18.7972 15.4332C19.6953 14.9154 21.875 13.2522 21.875 10.125C21.875 6.74386 19.1311 4 15.75 4C12.3689 4 9.625 6.74386 9.625 10.125C9.625 13.2522 11.8047 14.9154 12.7028 15.4332C12.7304 15.4491 12.7593 15.4623 12.7892 15.4726C12.4637 15.6986 12.25 16.0751 12.25 16.5C12.25 17.1886 12.8114 17.75 13.5 17.75H13.8169ZM23.7911 9.45427L24.6505 9.84948L25.0457 10.7089C25.1273 10.8863 25.3047 11 25.5 11C25.6953 11 25.8727 10.8863 25.9543 10.7089L26.3495 9.84948L27.2089 9.45427C27.3863 9.37269 27.5 9.19528 27.5 9C27.5 8.80472 27.3863 8.62732 27.2089 8.54573L26.3495 8.15052L25.9543 7.2911C25.8727 7.11369 25.6953 7 25.5 7C25.3047 7 25.1273 7.11369 25.0457 7.2911L24.6505 8.15052L23.7911 8.54573C23.6137 8.62732 23.5 8.80472 23.5 9C23.5 9.19528 23.6137 9.37269 23.7911 9.45427ZM22.7951 7.70757C22.8764 7.88571 23.0542 8 23.25 8C23.4458 8 23.6236 7.88571 23.7049 7.70757L24.3324 6.33239L25.7076 5.70488C25.8857 5.62359 26 5.44581 26 5.25C26 5.05419 25.8857 4.87641 25.7076 4.79512L24.3324 4.16761L23.7049 2.79243C23.6236 2.6143 23.4458 2.5 23.25 2.5C23.0542 2.5 22.8764 2.6143 22.7951 2.79243L22.1676 4.16761L20.7924 4.79512C20.6143 4.87641 20.5 5.05419 20.5 5.25C20.5 5.44581 20.6143 5.62359 20.7924 5.70488L22.1676 6.33239L22.7951 7.70757Z" fill="#FAF7EF" stroke="#FF9900" stroke-linejoin="round"/>
</svg>
