<svg width="20" height="20" viewBox="0 0 20 20" fill="none" xmlns="http://www.w3.org/2000/svg">
<g clip-path="url(#clip0_188_4020)">
<path fill-rule="evenodd" clip-rule="evenodd" d="M10.0002 0.416626C7.62624 0.417858 5.33011 1.25867 3.52239 2.78873C1.71467 4.31878 0.51325 6.4383 0.132951 8.76829C-0.247348 11.0983 0.21827 13.4868 1.44656 15.5068C2.67484 17.5267 4.5857 19.0464 6.83744 19.7941C7.33421 19.8863 7.52133 19.5784 7.52133 19.3166C7.52133 19.0548 7.51139 18.2958 7.50808 17.466C4.72616 18.0669 4.13832 16.292 4.13832 16.292C3.6846 15.1395 3.02886 14.8365 3.02886 14.8365C2.12143 14.2208 3.09676 14.2323 3.09676 14.2323C4.10189 14.3031 4.63013 15.258 4.63013 15.258C5.521 16.7777 6.96991 16.3381 7.53954 16.0813C7.62896 15.4375 7.88894 14.9995 8.17541 14.7509C5.95319 14.5007 3.61836 13.6478 3.61836 9.83781C3.60459 8.84972 3.97335 7.89417 4.64834 7.16886C4.54567 6.9186 4.2029 5.90765 4.74603 4.53449C4.74603 4.53449 5.58558 4.26776 7.4965 5.55366C9.13555 5.10798 10.8649 5.10798 12.5039 5.55366C14.4132 4.26776 15.2511 4.53449 15.2511 4.53449C15.7959 5.90436 15.4531 6.9153 15.3504 7.16886C16.0276 7.89429 16.3971 8.8515 16.3821 9.8411C16.3821 13.6593 14.0423 14.5007 11.8167 14.746C12.1744 15.0555 12.494 15.6598 12.494 16.5884C12.494 17.9188 12.4824 18.989 12.4824 19.3166C12.4824 19.5817 12.6629 19.8912 13.1696 19.7941C15.4216 19.0463 17.3327 17.5264 18.5609 15.5061C19.7892 13.4858 20.2546 11.0969 19.8738 8.76667C19.4931 6.43646 18.2911 4.31692 16.4828 2.78713C14.6745 1.25734 12.3778 0.417077 10.0035 0.416626H10.0002Z" fill="white"/>
<path d="M3.78703 14.6933C3.7655 14.7427 3.68602 14.7575 3.62144 14.7229C3.55686 14.6883 3.50884 14.6241 3.53202 14.5731C3.5552 14.522 3.63303 14.5089 3.69761 14.5434C3.76219 14.578 3.81187 14.6439 3.78703 14.6933Z" fill="white"/>
<path d="M4.19274 15.1428C4.15845 15.16 4.11921 15.1648 4.08176 15.1563C4.0443 15.1479 4.01095 15.1268 3.98741 15.0967C3.92283 15.0275 3.90957 14.932 3.95925 14.8892C4.00893 14.8464 4.09835 14.8662 4.16293 14.9353C4.22751 15.0045 4.24242 15.1 4.19274 15.1428Z" fill="white"/>
<path d="M4.58687 15.7142C4.5256 15.757 4.42128 15.7142 4.36332 15.6286C4.34729 15.6132 4.33455 15.5948 4.32584 15.5744C4.31714 15.5541 4.31264 15.5322 4.31264 15.51C4.31264 15.4879 4.31714 15.466 4.32584 15.4456C4.33455 15.4253 4.34729 15.4068 4.36332 15.3915C4.42459 15.3503 4.52892 15.3915 4.58687 15.4755C4.64483 15.5594 4.64649 15.6714 4.58687 15.7142Z" fill="white"/>
<path d="M5.12171 16.2674C5.06707 16.3283 4.95612 16.3118 4.86505 16.2295C4.77397 16.1472 4.75244 16.0352 4.80709 15.9759C4.86173 15.9167 4.97268 15.9331 5.06706 16.0138C5.16145 16.0945 5.17967 16.2081 5.12171 16.2674Z" fill="white"/>
<path d="M5.87181 16.5901C5.84698 16.6675 5.73437 16.702 5.62177 16.6691C5.50917 16.6362 5.43465 16.544 5.45618 16.4649C5.47771 16.3859 5.59197 16.3497 5.70622 16.3859C5.82048 16.4221 5.89334 16.5094 5.87181 16.5901Z" fill="white"/>
<path d="M6.68986 16.646C6.68986 16.7267 6.59713 16.7959 6.47791 16.7975C6.35868 16.7991 6.26099 16.7333 6.26099 16.6526C6.26099 16.5719 6.35371 16.5028 6.47294 16.5011C6.59216 16.4995 6.68986 16.5637 6.68986 16.646Z" fill="white"/>
<path d="M7.45158 16.5193C7.46648 16.6 7.38368 16.684 7.26446 16.7037C7.14523 16.7235 7.04091 16.6757 7.02601 16.5967C7.01111 16.5177 7.09721 16.432 7.21313 16.4106C7.32904 16.3892 7.43667 16.4386 7.45158 16.5193Z" fill="white"/>
</g>
<defs>
<clipPath id="clip0_188_4020">
<rect width="20" height="20" fill="white"/>
</clipPath>
</defs>
</svg>
