<svg width="202" height="48" viewBox="0 0 202 48" fill="none" xmlns="http://www.w3.org/2000/svg">
<path d="M63.1272 27.4C61.4472 27.4 60.0005 27.1067 58.7872 26.52C57.5872 25.92 56.6605 25.06 56.0072 23.94C55.3672 22.82 55.0472 21.4733 55.0472 19.9C55.0472 18.3267 55.3605 16.9867 55.9872 15.88C56.6272 14.76 57.5339 13.9 58.7072 13.3C59.8939 12.7 61.3072 12.4 62.9472 12.4C63.8539 12.4 64.7005 12.4933 65.4872 12.68C66.2872 12.8667 67.0072 13.1533 67.6472 13.54L66.9072 16.3C66.3872 15.98 65.7672 15.7267 65.0472 15.54C64.3405 15.3533 63.6405 15.26 62.9472 15.26C62.0272 15.26 61.2472 15.44 60.6072 15.8C59.9672 16.16 59.4805 16.6867 59.1472 17.38C58.8139 18.06 58.6472 18.9 58.6472 19.9C58.6472 20.9133 58.8139 21.7667 59.1472 22.46C59.4939 23.14 60.0005 23.66 60.6672 24.02C61.3339 24.3667 62.1539 24.54 63.1272 24.54C63.5939 24.54 64.0205 24.5 64.4072 24.42C64.8072 24.3267 65.1872 24.1867 65.5472 24L65.1272 24.86V21.28H61.3472V18.44H68.5272V26.22C67.7939 26.5933 66.9539 26.8867 66.0072 27.1C65.0739 27.3 64.1139 27.4 63.1272 27.4ZM75.1597 27.4C74.0397 27.4 73.0664 27.18 72.2397 26.74C71.4264 26.3 70.7997 25.68 70.3597 24.88C69.9197 24.0667 69.6997 23.1067 69.6997 22C69.6997 20.8933 69.9197 19.94 70.3597 19.14C70.7997 18.3267 71.4264 17.7 72.2397 17.26C73.0664 16.82 74.0397 16.6 75.1597 16.6C76.2797 16.6 77.2464 16.82 78.0597 17.26C78.8864 17.7 79.5197 18.3267 79.9597 19.14C80.413 19.94 80.6397 20.8933 80.6397 22C80.6397 23.1067 80.413 24.0667 79.9597 24.88C79.5197 25.68 78.8864 26.3 78.0597 26.74C77.2464 27.18 76.2797 27.4 75.1597 27.4ZM75.1597 24.94C75.853 24.94 76.3797 24.6933 76.7397 24.2C77.113 23.6933 77.2997 22.96 77.2997 22C77.2997 21.04 77.113 20.3133 76.7397 19.82C76.3797 19.3133 75.853 19.06 75.1597 19.06C74.4664 19.06 73.9397 19.3133 73.5797 19.82C73.2197 20.3133 73.0397 21.04 73.0397 22C73.0397 22.96 73.2197 23.6933 73.5797 24.2C73.9397 24.6933 74.4664 24.94 75.1597 24.94ZM85.6448 27.4C84.2848 27.4 83.2315 26.9333 82.4848 26C81.7515 25.0667 81.3848 23.7333 81.3848 22C81.3848 20.2667 81.7515 18.9333 82.4848 18C83.2315 17.0667 84.2848 16.6 85.6448 16.6C86.2982 16.6 86.8782 16.7133 87.3848 16.94C87.8915 17.1667 88.3648 17.5267 88.8048 18.02H88.8448V12.6H92.1848V27.2H89.0248L88.9848 25.98H88.9448C88.4915 26.46 87.9915 26.82 87.4448 27.06C86.9115 27.2867 86.3115 27.4 85.6448 27.4ZM86.7648 24.8C87.1782 24.8 87.5382 24.72 87.8448 24.56C88.1648 24.3867 88.4115 24.1533 88.5848 23.86C88.7582 23.5667 88.8448 23.2333 88.8448 22.86V21.14C88.8448 20.7533 88.7582 20.42 88.5848 20.14C88.4115 19.8467 88.1648 19.62 87.8448 19.46C87.5382 19.2867 87.1782 19.2 86.7648 19.2C86.0848 19.2 85.5582 19.44 85.1848 19.92C84.8248 20.4 84.6448 21.0933 84.6448 22C84.6448 22.8933 84.8248 23.5867 85.1848 24.08C85.5582 24.56 86.0848 24.8 86.7648 24.8ZM98.9011 27.4C97.7811 27.4 96.8078 27.18 95.9811 26.74C95.1678 26.3 94.5411 25.68 94.1011 24.88C93.6611 24.0667 93.4411 23.1067 93.4411 22C93.4411 20.8933 93.6611 19.94 94.1011 19.14C94.5411 18.3267 95.1678 17.7 95.9811 17.26C96.8078 16.82 97.7811 16.6 98.9011 16.6C100.021 16.6 100.988 16.82 101.801 17.26C102.628 17.7 103.261 18.3267 103.701 19.14C104.154 19.94 104.381 20.8933 104.381 22C104.381 23.1067 104.154 24.0667 103.701 24.88C103.261 25.68 102.628 26.3 101.801 26.74C100.988 27.18 100.021 27.4 98.9011 27.4ZM98.9011 24.94C99.5944 24.94 100.121 24.6933 100.481 24.2C100.854 23.6933 101.041 22.96 101.041 22C101.041 21.04 100.854 20.3133 100.481 19.82C100.121 19.3133 99.5944 19.06 98.9011 19.06C98.2078 19.06 97.6811 19.3133 97.3211 19.82C96.9611 20.3133 96.7811 21.04 96.7811 22C96.7811 22.96 96.9611 23.6933 97.3211 24.2C97.6811 24.6933 98.2078 24.94 98.9011 24.94ZM110.572 27.4C109.199 27.4 108.199 27.12 107.572 26.56C106.959 26 106.652 25.1 106.652 23.86V19.26H104.572V16.8H106.652V13.4H110.012V16.8H113.172V19.26H110.012V23.36C110.012 23.88 110.112 24.2467 110.312 24.46C110.512 24.66 110.852 24.76 111.332 24.76C111.572 24.76 111.819 24.74 112.072 24.7C112.339 24.6467 112.592 24.5733 112.832 24.48L113.132 27C112.665 27.1333 112.232 27.2333 111.832 27.3C111.445 27.3667 111.025 27.4 110.572 27.4Z" fill="white"/>
<path d="M123.089 27.4C121.435 27.4 119.875 27.0467 118.409 26.34L118.949 23.36C119.842 23.7333 120.582 24 121.169 24.16C121.755 24.3067 122.322 24.38 122.869 24.38C123.535 24.38 124.055 24.2667 124.429 24.04C124.815 23.8 125.089 23.4067 125.249 22.86C125.422 22.3 125.509 21.5467 125.509 20.6V12.6H129.009V21.26C129.009 23.3533 128.522 24.9 127.549 25.9C126.589 26.9 125.102 27.4 123.089 27.4ZM133.283 27.4C132.283 27.4 131.489 27.1133 130.903 26.54C130.316 25.9667 130.023 25.1933 130.023 24.22C130.023 23.0467 130.483 22.14 131.403 21.5C132.336 20.86 133.649 20.54 135.343 20.54H136.563C136.563 19.9933 136.416 19.6133 136.123 19.4C135.843 19.1733 135.349 19.06 134.643 19.06C134.003 19.06 133.363 19.14 132.723 19.3C132.096 19.46 131.469 19.7 130.843 20.02L130.463 17.54C131.169 17.22 131.889 16.9867 132.623 16.84C133.369 16.68 134.196 16.6 135.103 16.6C136.276 16.6 137.209 16.7333 137.903 17C138.609 17.2533 139.116 17.68 139.423 18.28C139.729 18.8667 139.883 19.6467 139.883 20.62V27.2H136.723L136.683 26H136.643C136.269 26.4267 135.776 26.7667 135.163 27.02C134.563 27.2733 133.936 27.4 133.283 27.4ZM134.543 25.02C134.929 25.02 135.276 24.9533 135.583 24.82C135.889 24.6867 136.129 24.5067 136.303 24.28C136.476 24.04 136.563 23.7733 136.563 23.48V22.5H135.843C134.909 22.5 134.216 22.6133 133.763 22.84C133.309 23.0533 133.083 23.4 133.083 23.88C133.083 24.24 133.209 24.52 133.463 24.72C133.716 24.92 134.076 25.02 134.543 25.02ZM148.05 16.6C149.423 16.6 150.477 17.0667 151.21 18C151.957 18.9333 152.33 20.2667 152.33 22C152.33 23.7333 151.957 25.0667 151.21 26C150.477 26.9333 149.423 27.4 148.05 27.4C147.423 27.4 146.85 27.2867 146.33 27.06C145.823 26.82 145.343 26.46 144.89 25.98H144.85V31.4H141.53V16.8H144.69L144.73 18.02H144.77C145.223 17.5267 145.717 17.1667 146.25 16.94C146.797 16.7133 147.397 16.6 148.05 16.6ZM146.95 19.2C146.537 19.2 146.17 19.2867 145.85 19.46C145.543 19.62 145.297 19.8467 145.11 20.14C144.937 20.42 144.85 20.7533 144.85 21.14V22.86C144.85 23.2333 144.937 23.5667 145.11 23.86C145.297 24.1533 145.543 24.3867 145.85 24.56C146.17 24.72 146.537 24.8 146.95 24.8C147.63 24.8 148.15 24.56 148.51 24.08C148.87 23.5867 149.05 22.8933 149.05 22C149.05 21.0933 148.87 20.4 148.51 19.92C148.15 19.44 147.63 19.2 146.95 19.2ZM156.204 27.4C155.204 27.4 154.41 27.1133 153.824 26.54C153.237 25.9667 152.944 25.1933 152.944 24.22C152.944 23.0467 153.404 22.14 154.324 21.5C155.257 20.86 156.57 20.54 158.264 20.54H159.484C159.484 19.9933 159.337 19.6133 159.044 19.4C158.764 19.1733 158.27 19.06 157.564 19.06C156.924 19.06 156.284 19.14 155.644 19.3C155.017 19.46 154.39 19.7 153.764 20.02L153.384 17.54C154.09 17.22 154.81 16.9867 155.544 16.84C156.29 16.68 157.117 16.6 158.024 16.6C159.197 16.6 160.13 16.7333 160.824 17C161.53 17.2533 162.037 17.68 162.344 18.28C162.65 18.8667 162.804 19.6467 162.804 20.62V27.2H159.644L159.604 26H159.564C159.19 26.4267 158.697 26.7667 158.084 27.02C157.484 27.2733 156.857 27.4 156.204 27.4ZM157.464 25.02C157.85 25.02 158.197 24.9533 158.504 24.82C158.81 24.6867 159.05 24.5067 159.224 24.28C159.397 24.04 159.484 23.7733 159.484 23.48V22.5H158.764C157.83 22.5 157.137 22.6133 156.684 22.84C156.23 23.0533 156.004 23.4 156.004 23.88C156.004 24.24 156.13 24.52 156.384 24.72C156.637 24.92 156.997 25.02 157.464 25.02ZM164.451 27.2V16.8H167.611L167.651 18.2H167.691C168.158 17.6267 168.658 17.22 169.191 16.98C169.724 16.7267 170.358 16.6 171.091 16.6C172.344 16.6 173.251 16.96 173.811 17.68C174.371 18.4 174.651 19.5733 174.651 21.2V27.2H171.311V21.86C171.311 20.98 171.191 20.34 170.951 19.94C170.724 19.54 170.351 19.34 169.831 19.34C169.444 19.34 169.098 19.4333 168.791 19.62C168.484 19.8067 168.238 20.06 168.051 20.38C167.864 20.6867 167.771 21.0267 167.771 21.4V27.2H164.451Z" fill="#FF3F3F"/>
<path d="M60.5968 39.49C59.6908 39.49 59.0188 39.268 58.5808 38.824C58.1428 38.374 57.9238 37.687 57.9238 36.763V32.83H59.1838V36.52C59.1838 36.988 59.2288 37.357 59.3188 37.627C59.4088 37.897 59.5558 38.092 59.7598 38.212C59.9698 38.326 60.2488 38.383 60.5968 38.383C60.9508 38.383 61.2298 38.326 61.4338 38.212C61.6378 38.092 61.7848 37.897 61.8748 37.627C61.9648 37.357 62.0098 36.988 62.0098 36.52V32.83H63.2698V36.763C63.2698 37.687 63.0508 38.374 62.6128 38.824C62.1748 39.268 61.5028 39.49 60.5968 39.49ZM69.2337 39.49C68.8977 39.49 68.5677 39.457 68.2437 39.391C67.9257 39.325 67.6407 39.235 67.3887 39.121L67.5507 38.167C67.8387 38.281 68.1237 38.371 68.4057 38.437C68.6877 38.497 68.9607 38.527 69.2247 38.527C69.5007 38.527 69.7047 38.491 69.8367 38.419C69.9687 38.341 70.0347 38.221 70.0347 38.059C70.0347 37.963 70.0107 37.885 69.9627 37.825C69.9147 37.759 69.8277 37.702 69.7017 37.654C69.5817 37.6 69.4107 37.549 69.1887 37.501C68.7627 37.393 68.4147 37.273 68.1447 37.141C67.8747 37.003 67.6767 36.838 67.5507 36.646C67.4247 36.454 67.3617 36.232 67.3617 35.98C67.3617 35.542 67.5327 35.209 67.8747 34.981C68.2167 34.747 68.7117 34.63 69.3597 34.63C69.6717 34.63 69.9747 34.66 70.2687 34.72C70.5627 34.774 70.8507 34.861 71.1327 34.981L70.9707 35.926C70.7067 35.812 70.4427 35.728 70.1787 35.674C69.9147 35.62 69.6567 35.593 69.4047 35.593C69.1347 35.593 68.9367 35.626 68.8107 35.692C68.6847 35.758 68.6217 35.863 68.6217 36.007C68.6217 36.091 68.6457 36.166 68.6937 36.232C68.7477 36.292 68.8347 36.349 68.9547 36.403C69.0747 36.451 69.2367 36.496 69.4407 36.538C69.7647 36.616 70.0407 36.703 70.2687 36.799C70.5027 36.895 70.6947 37.006 70.8447 37.132C70.9947 37.258 71.1057 37.399 71.1777 37.555C71.2557 37.711 71.2947 37.888 71.2947 38.086C71.2947 38.53 71.1147 38.875 70.7547 39.121C70.3947 39.367 69.8877 39.49 69.2337 39.49ZM77.6922 39.49C76.8822 39.49 76.2582 39.28 75.8202 38.86C75.3822 38.44 75.1632 37.84 75.1632 37.06C75.1632 36.304 75.3702 35.71 75.7842 35.278C76.1982 34.846 76.7682 34.63 77.4942 34.63C78.1962 34.63 78.7362 34.834 79.1142 35.242C79.4982 35.65 79.6902 36.229 79.6902 36.979C79.6902 37.063 79.6872 37.159 79.6812 37.267C79.6812 37.375 79.6782 37.456 79.6722 37.51H75.8562V36.655H78.7092L78.5382 36.916C78.5382 36.448 78.4512 36.1 78.2772 35.872C78.1092 35.644 77.8482 35.53 77.4942 35.53C77.1222 35.53 76.8432 35.65 76.6572 35.89C76.4712 36.124 76.3782 36.475 76.3782 36.943V37.303C76.3782 37.711 76.4862 38.017 76.7022 38.221C76.9242 38.425 77.2572 38.527 77.7012 38.527C77.9772 38.527 78.2532 38.494 78.5292 38.428C78.8112 38.356 79.0602 38.26 79.2762 38.14L79.4562 39.085C79.2282 39.211 78.9612 39.31 78.6552 39.382C78.3492 39.454 78.0282 39.49 77.6922 39.49ZM83.8596 39.4V34.72H85.0476L85.0566 35.593H85.0836C85.2396 35.383 85.4226 35.209 85.6326 35.071C85.8486 34.927 86.0826 34.819 86.3346 34.747C86.5926 34.669 86.8566 34.63 87.1266 34.63V35.683C86.7546 35.683 86.4156 35.752 86.1096 35.89C85.8036 36.028 85.5606 36.217 85.3806 36.457C85.2006 36.691 85.1106 36.952 85.1106 37.24V39.4H83.8596ZM100.038 39.49C99.3181 39.49 98.7001 39.358 98.1841 39.094C97.6681 38.824 97.2721 38.437 96.9961 37.933C96.7261 37.429 96.5911 36.823 96.5911 36.115C96.5911 35.407 96.7261 34.801 96.9961 34.297C97.2721 33.793 97.6681 33.409 98.1841 33.145C98.7001 32.875 99.3181 32.74 100.038 32.74C100.86 32.74 101.589 32.917 102.225 33.271L101.937 34.369C101.319 34.021 100.704 33.847 100.092 33.847C99.6361 33.847 99.2431 33.937 98.9131 34.117C98.5831 34.297 98.3311 34.558 98.1571 34.9C97.9831 35.236 97.8961 35.641 97.8961 36.115C97.8961 36.583 97.9831 36.988 98.1571 37.33C98.3311 37.672 98.5831 37.933 98.9131 38.113C99.2431 38.293 99.6361 38.383 100.092 38.383C100.692 38.383 101.307 38.209 101.937 37.861L102.225 38.959C101.589 39.313 100.86 39.49 100.038 39.49ZM108.35 39.49C107.864 39.49 107.441 39.391 107.081 39.193C106.721 38.995 106.442 38.713 106.244 38.347C106.052 37.981 105.956 37.552 105.956 37.06C105.956 36.562 106.052 36.133 106.244 35.773C106.442 35.407 106.721 35.125 107.081 34.927C107.441 34.729 107.864 34.63 108.35 34.63C108.848 34.63 109.274 34.729 109.628 34.927C109.988 35.125 110.264 35.407 110.456 35.773C110.654 36.133 110.753 36.562 110.753 37.06C110.753 37.552 110.654 37.981 110.456 38.347C110.264 38.713 109.988 38.995 109.628 39.193C109.274 39.391 108.848 39.49 108.35 39.49ZM108.359 38.527C108.731 38.527 109.016 38.401 109.214 38.149C109.418 37.891 109.52 37.528 109.52 37.06C109.52 36.586 109.418 36.223 109.214 35.971C109.016 35.719 108.731 35.593 108.359 35.593C107.987 35.593 107.699 35.719 107.495 35.971C107.291 36.223 107.189 36.586 107.189 37.06C107.189 37.528 107.291 37.891 107.495 38.149C107.699 38.401 107.987 38.527 108.359 38.527ZM114.925 39.4V34.72H116.086L116.095 35.35H116.113C116.275 35.11 116.47 34.93 116.698 34.81C116.932 34.69 117.193 34.63 117.481 34.63C117.775 34.63 118.03 34.693 118.246 34.819C118.462 34.939 118.621 35.116 118.723 35.35H118.741C118.909 35.098 119.113 34.915 119.353 34.801C119.593 34.687 119.878 34.63 120.208 34.63C120.712 34.63 121.072 34.774 121.288 35.062C121.51 35.344 121.621 35.821 121.621 36.493V39.4H120.406V36.673C120.406 36.313 120.355 36.052 120.253 35.89C120.151 35.728 119.989 35.647 119.767 35.647C119.485 35.647 119.266 35.755 119.11 35.971C118.954 36.181 118.876 36.475 118.876 36.853V39.4H117.67V36.52C117.67 36.238 117.613 36.022 117.499 35.872C117.385 35.722 117.226 35.647 117.022 35.647C116.764 35.647 116.551 35.761 116.383 35.989C116.221 36.211 116.14 36.499 116.14 36.853V39.4H114.925ZM125.979 39.4V34.72H127.14L127.149 35.35H127.167C127.329 35.11 127.524 34.93 127.752 34.81C127.986 34.69 128.247 34.63 128.535 34.63C128.829 34.63 129.084 34.693 129.3 34.819C129.516 34.939 129.675 35.116 129.777 35.35H129.795C129.963 35.098 130.167 34.915 130.407 34.801C130.647 34.687 130.932 34.63 131.262 34.63C131.766 34.63 132.126 34.774 132.342 35.062C132.564 35.344 132.675 35.821 132.675 36.493V39.4H131.46V36.673C131.46 36.313 131.409 36.052 131.307 35.89C131.205 35.728 131.043 35.647 130.821 35.647C130.539 35.647 130.32 35.755 130.164 35.971C130.008 36.181 129.93 36.475 129.93 36.853V39.4H128.724V36.52C128.724 36.238 128.667 36.022 128.553 35.872C128.439 35.722 128.28 35.647 128.076 35.647C127.818 35.647 127.605 35.761 127.437 35.989C127.275 36.211 127.194 36.499 127.194 36.853V39.4H125.979ZM138.49 39.49C137.938 39.49 137.536 39.325 137.284 38.995C137.038 38.659 136.915 38.134 136.915 37.42V34.72H138.148V37.177C138.148 37.621 138.208 37.948 138.328 38.158C138.454 38.368 138.649 38.473 138.913 38.473C139.111 38.473 139.291 38.422 139.453 38.32C139.621 38.212 139.753 38.074 139.849 37.906C139.945 37.732 139.993 37.54 139.993 37.33V34.72H141.235V39.4H140.056L140.047 38.77H140.029C139.825 39.016 139.6 39.199 139.354 39.319C139.108 39.433 138.82 39.49 138.49 39.49ZM145.721 39.4V34.72H146.9L146.909 35.35H146.927C147.137 35.098 147.368 34.915 147.62 34.801C147.878 34.687 148.175 34.63 148.511 34.63C149.081 34.63 149.492 34.795 149.744 35.125C150.002 35.455 150.131 35.98 150.131 36.7V39.4H148.898V36.943C148.898 36.499 148.832 36.172 148.7 35.962C148.574 35.752 148.37 35.647 148.088 35.647C147.878 35.647 147.686 35.701 147.512 35.809C147.344 35.911 147.209 36.049 147.107 36.223C147.011 36.391 146.963 36.58 146.963 36.79V39.4H145.721ZM154.696 39.4V34.81H155.956V39.4H154.696ZM155.326 34.171C155.092 34.171 154.906 34.108 154.768 33.982C154.63 33.85 154.561 33.67 154.561 33.442C154.561 33.214 154.63 33.037 154.768 32.911C154.906 32.779 155.092 32.713 155.326 32.713C155.56 32.713 155.746 32.779 155.884 32.911C156.022 33.037 156.091 33.214 156.091 33.442C156.091 33.67 156.022 33.85 155.884 33.982C155.746 34.108 155.56 34.171 155.326 34.171ZM162.862 39.49C162.268 39.49 161.836 39.367 161.566 39.121C161.302 38.875 161.17 38.479 161.17 37.933V35.683H160.162V34.72H161.17V33.19H162.421V34.72H163.942V35.683H162.421V37.753C162.421 38.017 162.475 38.203 162.583 38.311C162.691 38.419 162.871 38.473 163.123 38.473C163.243 38.473 163.36 38.464 163.474 38.446C163.588 38.422 163.702 38.386 163.816 38.338L163.933 39.319C163.747 39.379 163.57 39.421 163.402 39.445C163.234 39.475 163.054 39.49 162.862 39.49ZM168.085 40.48C168.457 40.42 168.754 40.333 168.976 40.219C169.204 40.105 169.378 39.943 169.498 39.733C169.624 39.523 169.717 39.25 169.777 38.914L169.831 39.787L167.68 34.72H169.003L170.218 38.176H170.236L171.298 34.72H172.63L170.848 39.391C170.686 39.823 170.494 40.18 170.272 40.462C170.056 40.744 169.792 40.963 169.48 41.119C169.174 41.281 168.793 41.398 168.337 41.47L168.085 40.48Z" fill="#CCCCCC"/>
<path d="M43.0894 31.554C43.0894 31.554 43.026 31.1649 42.9889 31.1684L35.929 31.8496C35.3672 31.9038 34.9309 32.3518 34.8915 32.9148L34.6976 35.6947L29.2357 36.0843L28.8642 33.5649C28.7815 33.0045 28.2921 32.5821 27.7256 32.5821H20.2743C19.7081 32.5821 19.2187 33.0045 19.136 33.5649L18.7643 36.0843L13.3024 35.6947L13.1084 32.9148C13.069 32.3517 12.6327 31.9037 12.071 31.8494L5.00755 31.1684C4.97107 31.1649 4.94434 31.5544 4.90785 31.5544L4.89828 33.0822L10.8803 34.0469L11.0762 36.8516C11.1159 37.4194 11.574 37.8785 12.1422 37.9193L19.6644 38.4559C19.6929 38.4578 19.7209 38.459 19.749 38.459C20.3143 38.459 20.8029 38.0363 20.8856 37.476L21.2679 34.8836H26.7323L27.1145 37.476C27.1971 38.0362 27.6862 38.4588 28.2523 38.4588C28.28 38.4588 28.3077 38.4578 28.3348 38.4559L35.858 37.9193C36.426 37.8785 36.8843 37.4194 36.9239 36.8516L37.1196 34.0469L43.0991 33.0779L43.0894 31.554Z" fill="white"/>
<path d="M4.90776 20.0338V29.3048V30.4824V31.554C4.92884 31.5542 4.94991 31.555 4.97079 31.5569L12.0334 32.2379C12.4034 32.2736 12.6933 32.5714 12.7191 32.9421L12.9369 36.0598L19.0976 36.4994L19.522 33.6219C19.5771 33.2488 19.8971 32.9724 20.2744 32.9724H27.7258C28.1029 32.9724 28.4229 33.2488 28.478 33.6219L28.9024 36.4994L35.0633 36.0598L35.2809 32.9421C35.3069 32.5714 35.5966 32.2738 35.9666 32.2379L43.0265 31.5569C43.0474 31.555 43.0682 31.5542 43.0893 31.554V30.6348L43.0922 30.6338V20.0338H43.1184C44.054 18.8396 44.9198 17.5813 45.75 16.2389C44.6474 14.3618 43.2963 12.6843 41.8522 11.1302C40.5129 11.8043 39.212 12.568 37.9833 13.3807C37.3685 12.7696 36.676 12.2697 35.9958 11.7471C35.3275 11.2104 34.5744 10.8168 33.86 10.3583C34.0727 8.77445 34.1779 7.21522 34.2202 5.5879C32.3771 4.66029 30.4116 4.04527 28.4235 3.60351C27.6298 4.93756 26.9039 6.38225 26.2717 7.79454C25.5221 7.66927 24.7689 7.62284 24.0147 7.61386V7.61269C24.0095 7.61269 24.0046 7.61386 24.0001 7.61386C23.9954 7.61386 23.9905 7.61269 23.9859 7.61269V7.61386C23.2303 7.62284 22.4778 7.66927 21.7279 7.79454C21.0961 6.38225 20.3706 4.93756 19.5757 3.60351C17.5886 4.04527 15.6229 4.66029 13.78 5.5879C13.8221 7.21522 13.9273 8.77445 14.1406 10.3583C13.4249 10.8168 12.6727 11.2104 12.0042 11.7471C11.3249 12.2697 10.6313 12.7696 10.0163 13.3807C8.78758 12.568 7.48709 11.8043 6.14737 11.1302C4.70327 12.6843 3.35303 14.3618 2.25 16.2389C3.07986 17.5813 3.9462 18.8396 4.88162 20.0338H4.90776Z" fill="#FF3F3F"/>
<path d="M36.7534 33.6901L36.5346 36.8244C36.5083 37.2022 36.2078 37.5028 35.83 37.53L28.3071 38.0667C28.2887 38.0681 28.2704 38.0687 28.2523 38.0687C27.8784 38.0687 27.5559 37.7943 27.5006 37.4189L27.0692 34.4933H20.9309L20.4995 37.4189C20.4415 37.8127 20.0895 38.0958 19.693 38.0667L12.1701 37.53C11.7923 37.5028 11.4918 37.2022 11.4655 36.8244L11.2468 33.6901L4.8961 33.0778C4.89903 33.7604 4.90781 34.5081 4.90781 34.657C4.90781 41.3641 13.4161 44.5879 23.9871 44.625H24H24.013C34.584 44.5879 43.0894 41.3641 43.0894 34.657C43.0894 34.5054 43.0985 33.7608 43.1017 33.0778L36.7534 33.6901Z" fill="#FF3F3F"/>
<path d="M18.2444 24.7103C18.2444 27.0619 16.3391 28.9669 13.9882 28.9669C11.6386 28.9669 9.73262 27.0619 9.73262 24.7103C9.73262 22.3602 11.6386 20.4562 13.9882 20.4562C16.3391 20.4562 18.2444 22.3602 18.2444 24.7103Z" fill="white"/>
<path d="M17.2203 24.9627C17.2203 26.5225 15.9561 27.7867 14.3951 27.7867C12.8349 27.7867 11.57 26.5225 11.57 24.9627C11.57 23.4029 12.8349 22.1375 14.3951 22.1375C15.9561 22.1375 17.2203 23.4029 17.2203 24.9627Z" fill="#414042"/>
<path d="M23.9997 29.3541C23.243 29.3541 22.6297 28.7964 22.6297 28.109V24.1907C22.6297 23.5039 23.243 22.9457 23.9997 22.9457C24.7564 22.9457 25.371 23.5039 25.371 24.1907V28.109C25.371 28.7964 24.7564 29.3541 23.9997 29.3541Z" fill="white"/>
<path d="M29.7556 24.7103C29.7556 27.0619 31.661 28.9669 34.0122 28.9669C36.3617 28.9669 38.2675 27.0619 38.2675 24.7103C38.2675 22.3602 36.3617 20.4562 34.0122 20.4562C31.661 20.4562 29.7556 22.3602 29.7556 24.7103Z" fill="white"/>
<path d="M30.78 24.9627C30.78 26.5225 32.0438 27.7867 33.6036 27.7867C35.165 27.7867 36.4288 26.5225 36.4288 24.9627C36.4288 23.4029 35.165 22.1375 33.6036 22.1375C32.0438 22.1375 30.78 23.4029 30.78 24.9627Z" fill="#414042"/>
</svg>
