<svg width="12" height="12" viewBox="0 0 12 12" fill="none" xmlns="http://www.w3.org/2000/svg">
<g clip-path="url(#clip0_105_100)">
<path d="M3.77508 10.875C8.30227 10.875 10.7791 7.12335 10.7791 3.87093C10.7791 3.76546 10.7768 3.65765 10.7721 3.55218C11.2539 3.20373 11.6697 2.77213 12 2.27765C11.5513 2.4773 11.0748 2.60769 10.587 2.66437C11.1006 2.35645 11.4853 1.87274 11.6695 1.30288C11.1863 1.58928 10.6578 1.79131 10.1067 1.90031C9.73542 1.50578 9.24449 1.24456 8.70984 1.15703C8.17519 1.06949 7.6266 1.16053 7.14887 1.41605C6.67115 1.67157 6.2909 2.07735 6.06692 2.57066C5.84295 3.06396 5.78771 3.61731 5.90977 4.14515C4.93125 4.09605 3.97397 3.84185 3.09999 3.39905C2.22601 2.95625 1.45485 2.33472 0.836484 1.57476C0.5222 2.11662 0.426028 2.75782 0.567515 3.36805C0.709002 3.97827 1.07753 4.51172 1.5982 4.85999C1.20731 4.84758 0.824988 4.74234 0.482813 4.55296V4.58343C0.482462 5.15207 0.679049 5.70329 1.03915 6.14338C1.39926 6.58348 1.90066 6.88528 2.45812 6.99749C2.09603 7.09656 1.71599 7.111 1.34742 7.03968C1.50473 7.52872 1.81079 7.95645 2.22289 8.26317C2.63498 8.56989 3.13256 8.7403 3.64617 8.75062C2.77421 9.43555 1.69709 9.80706 0.588281 9.80531C0.391644 9.80501 0.1952 9.79295 0 9.76921C1.12643 10.4919 2.43677 10.8757 3.77508 10.875Z" fill="white"/>
</g>
<defs>
<clipPath id="clip0_105_100">
<rect width="12" height="12" fill="white"/>
</clipPath>
</defs>
</svg>
