<svg width="32" height="24" viewBox="0 0 32 24" fill="none" xmlns="http://www.w3.org/2000/svg">
<path fill-rule="evenodd" clip-rule="evenodd" d="M8.64821 12.717L7.7097 18.4528L6.77118 12.717H4V11.283H6.74185L7.7097 3.39623L8.76553 11.283L10.1923 1.96226L11.7047 11.283L12.4467 4.83019L13.5025 11.283L14.4385 7.69811L15.3231 11.283H15.588L16.5558 3.39623L17.6117 11.283L19.0385 1.96226L20.5509 11.283L21.2928 4.83019L22.3486 11.283L23.2846 7.69811L24.1692 11.283H27V12.717H24.1692L23.2846 16.3019L22.3486 12.717L21.2928 18.4528L20.5509 12.717L19.0385 22.0377L17.7136 12.717H17.4943L16.5558 18.4528L15.6173 12.717H15.3231L14.4385 16.3019L13.5025 12.717L12.4467 18.4528L11.7047 12.717L10.1923 22.0377L8.86744 12.717H8.64821ZM7.94048 20.4021L8.2115 22.3088C8.34831 23.2713 9.18257 23.9905 10.173 23.9999C11.1635 24.0093 12.0117 23.306 12.1675 22.3462L12.4809 20.4148C13.431 20.3993 14.2445 19.7268 14.4148 18.8016L14.5061 18.3056L14.5811 18.7639C14.7368 19.7153 15.5736 20.4151 16.5558 20.4151C16.6338 20.4151 16.7108 20.4107 16.7866 20.4021L17.0576 22.3088C17.1944 23.2713 18.0287 23.9905 19.0191 23.9999C20.0096 24.0093 20.8579 23.306 21.0136 22.3462L21.327 20.4148C22.2771 20.3993 23.0906 19.7268 23.261 18.8016L23.3601 18.2628C24.252 18.2299 25.0173 17.6195 25.2285 16.7636L25.7428 14.6792H27C28.1046 14.6792 29 13.8007 29 12.717V11.283C29 10.1993 28.1046 9.32075 27 9.32075H25.7428L25.2285 7.23638C25.0258 6.41521 24.3131 5.81995 23.4679 5.74406L23.2675 4.51916C23.109 3.55046 22.2457 2.84549 21.246 2.86846C21.2342 2.86873 21.2225 2.8691 21.2109 2.86957L21.0136 1.65376C20.8585 0.697891 20.0162 -0.00423971 19.0297 1.92712e-05C18.1007 0.00402971 17.3053 0.633227 17.0932 1.5058C16.9185 1.45801 16.7345 1.43299 16.5451 1.43399C15.5371 1.43932 14.6907 2.17978 14.5702 3.16167L14.4108 4.46023C14.2276 3.52201 13.3791 2.84595 12.3998 2.86846C12.3881 2.86873 12.3764 2.8691 12.3647 2.86957L12.1675 1.65376C12.0124 0.697891 11.17 -0.00423971 10.1835 1.92712e-05C9.25462 0.00402971 8.45916 0.633227 8.24712 1.5058C8.07233 1.45801 7.88833 1.43299 7.69892 1.43399C6.69094 1.43932 5.84453 2.17978 5.72404 3.16166L4.96821 9.32075H4C2.89543 9.32075 2 10.1993 2 11.283V12.717C2 13.8007 2.89543 14.6792 4 14.6792H5.06665L5.73498 18.7639C5.89067 19.7153 6.7275 20.4151 7.7097 20.4151C7.78763 20.4151 7.86465 20.4107 7.94048 20.4021Z" fill="#333333"/>
<path fill-rule="evenodd" clip-rule="evenodd" d="M6.77118 12.717H4V11.283H6.74185L7.7097 3.39623L8.76553 11.283L10.1923 1.96226L11.7047 11.283L12.4467 4.83019L13.5025 11.283L14.4385 7.69811L15.3231 11.283H15.588L16.5558 3.39623L17.6117 11.283L19.0385 1.96226L20.5509 11.283L21.2928 4.83019L22.3486 11.283L23.2846 7.69811L24.1692 11.283H27V12.717H24.1692L23.2846 16.3019L22.3486 12.717L21.2928 18.4528L20.5509 12.717L19.0385 22.0377L17.7136 12.717H17.4943L16.5558 18.4528L15.6173 12.717H15.3231L14.4385 16.3019L13.5025 12.717L12.4467 18.4528L11.7047 12.717L10.1923 22.0377L8.86744 12.717H8.64821L7.7097 18.4528L6.77118 12.717Z" fill="white"/>
<path fill-rule="evenodd" clip-rule="evenodd" d="M7.7097 18.4528L6.77118 12.717H4V11.283H6.74185L7.7097 3.39623L8.76553 11.283L10.1923 1.96226L11.7047 11.283L12.4467 4.83019L13.5025 11.283L14.4385 7.69811L15.3231 11.283H15.588L16.5558 3.39623L17.6117 11.283L19.0385 1.96226L20.5509 11.283L21.2928 4.83019L22.3486 11.283L23.2846 7.69811L24.1692 11.283H27V12.717H24.1692L23.2846 16.3019L22.3486 12.717L21.2928 18.4528L20.5509 12.717L19.0385 22.0377L17.7136 12.717H17.4943L16.5558 18.4528L15.6173 12.717H15.3231L14.4385 16.3019L13.5025 12.717L12.4467 18.4528L11.7047 12.717L10.1923 22.0377L8.86744 12.717H8.64821L7.7097 18.4528ZM8.69605 18.6144C8.61566 19.087 8.19871 19.434 7.7097 19.434C7.2186 19.434 6.80018 19.0841 6.72234 18.6083L5.91891 13.6981H4C3.44772 13.6981 3 13.2588 3 12.717V11.283C3 10.7412 3.44772 10.3019 4 10.3019H5.85503L6.71687 3.27894C6.77712 2.788 7.20032 2.41777 7.70431 2.41511C8.2083 2.41244 8.63555 2.77818 8.70118 3.26845L8.8318 4.24417L9.20342 1.81654C9.27668 1.33796 9.69467 0.983271 10.1879 0.981142C10.6812 0.979012 11.1023 1.33008 11.1799 1.80801L11.5885 4.32626C11.7602 4.04512 12.0704 3.85743 12.4233 3.84933C12.9231 3.83784 13.3548 4.19032 13.434 4.67467L13.8046 6.9393C13.9805 6.79788 14.205 6.71544 14.4451 6.717C14.698 6.71864 14.9323 6.81323 15.1099 6.97103L15.563 3.27895C15.6232 2.788 16.0464 2.41777 16.5504 2.41511C17.0544 2.41244 17.4817 2.77818 17.5473 3.26845L17.6779 4.24417L18.0495 1.81654C18.1228 1.33796 18.5408 0.983271 19.0341 0.981142C19.5273 0.979012 19.9485 1.33008 20.026 1.80801L20.4346 4.32626C20.6063 4.04512 20.9166 3.85743 21.2694 3.84933C21.7692 3.83784 22.2009 4.19032 22.2802 4.67467L22.6507 6.9393C22.8266 6.79788 23.0511 6.71544 23.2912 6.717C23.7504 6.71998 24.1485 7.02938 24.2565 7.46725L24.956 10.3019H27C27.5523 10.3019 28 10.7412 28 11.283V12.717C28 13.2588 27.5523 13.6981 27 13.6981H24.956L24.2565 16.5328C24.1485 16.9706 23.7504 17.28 23.2912 17.283C23.0163 17.2848 22.7617 17.1764 22.5772 16.9954L22.2769 18.6272C22.1891 19.1038 21.7601 19.4463 21.2666 19.4336C20.9729 19.4261 20.7087 19.294 20.5298 19.0871L20.026 22.192C19.9482 22.6719 19.524 23.0235 19.0288 23.0188C18.5336 23.0141 18.1165 22.6545 18.048 22.1733L17.5422 18.6144C17.4618 19.087 17.0448 19.434 16.5558 19.434C16.0647 19.434 15.6463 19.0841 15.5685 18.6083L15.2783 16.8347C15.0992 17.1064 14.7893 17.2808 14.4451 17.283C14.1701 17.2848 13.9156 17.1764 13.7311 16.9954L13.4308 18.6272C13.343 19.1038 12.9139 19.4463 12.4205 19.4336C12.1268 19.4261 11.8626 19.294 11.6837 19.0871L11.1799 22.192C11.102 22.6719 10.6779 23.0235 10.1827 23.0188C9.68745 23.0141 9.27032 22.6545 9.20191 22.1733L8.69605 18.6144Z" fill="#00A976"/>
</svg>
