<svg width="51" height="50" viewBox="0 0 51 50" fill="none" xmlns="http://www.w3.org/2000/svg">
<g clip-path="url(#clip0_183_3796)">
<path d="M6.58336 0C3.12555 0 0.333359 2.79219 0.333359 6.25V18.9688H6.28961C6.82717 18.9652 7.36007 19.0685 7.8574 19.2726C8.35472 19.4767 8.80655 19.7775 9.18667 20.1576C9.56679 20.5377 9.86762 20.9896 10.0717 21.4869C10.2758 21.9842 10.3791 22.5171 10.3755 23.0547V23.1047C12.0693 22.9 13.1115 22.3625 13.8677 21.6797C14.7302 20.8813 15.3099 19.7844 15.9849 18.5547C16.6599 17.325 17.4662 15.9594 18.9224 14.9672C20.1177 14.1438 21.7365 13.6234 23.8865 13.5344V12.5984C23.8846 12.058 23.9895 11.5224 24.1952 11.0226C24.4008 10.5228 24.7032 10.0685 25.0848 9.68578C25.4665 9.3031 25.92 8.99955 26.4193 8.79258C26.9186 8.5856 27.4538 8.47927 27.9943 8.47969H44.4334C44.9745 8.47886 45.5104 8.58484 46.0105 8.79153C46.5106 8.99823 46.965 9.30158 47.3476 9.68421C47.7302 10.0668 48.0336 10.5212 48.2403 11.0213C48.447 11.5214 48.5529 12.0573 48.5521 12.5984V16.6422C48.5521 18.9125 46.713 20.875 44.4334 20.875H27.9943C25.7177 20.875 23.8865 18.9125 23.8865 16.6422V15.6984C22.1037 15.7719 20.949 16.1875 20.1427 16.7484C19.1412 17.4312 18.5224 18.4172 17.8802 19.5969C17.2287 20.7781 16.5615 22.1453 15.3318 23.2766L15.1693 23.4141C21.5646 24.2766 24.4709 26.6531 26.9443 28.8188C29.8334 31.35 32.0959 33.5547 40.063 33.5875V32.6266C40.063 30.3469 41.9271 28.575 44.2068 28.575H50.3334V6.25156C50.3334 2.79375 47.5412 0.0015625 44.0834 0.0015625L6.58336 0ZM27.9943 11.2703C27.2209 11.2703 26.563 11.8328 26.563 12.5969V16.6406C26.563 17.4047 27.2209 17.9672 27.9943 17.9672H44.4334C44.609 17.9724 44.7838 17.9416 44.9471 17.8768C45.1104 17.812 45.2587 17.7144 45.3829 17.5902C45.5072 17.466 45.6047 17.3176 45.6695 17.1544C45.7343 16.9911 45.7651 16.8162 45.7599 16.6406V12.5969C45.7653 12.4212 45.7347 12.2463 45.67 12.0829C45.6052 11.9195 45.5077 11.7711 45.3834 11.6468C45.2592 11.5225 45.1107 11.425 44.9473 11.3603C44.784 11.2955 44.609 11.2649 44.4334 11.2703H27.9943ZM0.333359 21.7688V28.5734H6.28961C6.6656 28.5629 7.02273 28.4065 7.28547 28.1373C7.54821 27.8682 7.69595 27.5074 7.69742 27.1313V23.0875C7.69742 22.3234 7.05523 21.7688 6.28961 21.7688H0.333359ZM10.3755 25.2437V27.1313C10.3793 27.6704 10.2763 28.205 10.0727 28.7042C9.8691 29.2035 9.56879 29.6575 9.18907 30.0403C8.80935 30.4231 8.3577 30.727 7.86011 30.9346C7.36251 31.1422 6.82878 31.2494 6.28961 31.25H0.333359V43.75C0.333359 47.2078 3.12555 50 6.58336 50H44.0834C47.5412 50 50.3334 47.2078 50.3334 43.75V40.8438H44.2068C41.9271 40.8438 40.063 38.9484 40.063 36.6703V35.7406C31.6396 35.6766 28.4021 32.9656 25.5209 30.4422C22.5255 27.8219 19.7912 25.3813 10.3755 25.2422V25.2437ZM44.2068 31.25C44.0271 31.2493 43.8492 31.2846 43.6833 31.3538C43.5175 31.4229 43.3672 31.5246 43.2413 31.6527C43.1153 31.7808 43.0163 31.9329 42.95 32.0998C42.8837 32.2668 42.8515 32.4454 42.8552 32.625V36.6703C42.8552 37.4344 43.4349 37.9469 44.2068 37.9469H50.3334V31.2484L44.2068 31.25Z" fill="#0FA958"/>
</g>
<defs>
<clipPath id="clip0_183_3796">
<rect width="50" height="50" fill="white" transform="translate(0.333359)"/>
</clipPath>
</defs>
</svg>
