<svg width="32" height="24" viewBox="0 0 32 24" fill="none" xmlns="http://www.w3.org/2000/svg">
<path fill-rule="evenodd" clip-rule="evenodd" d="M9.66667 7V18.6667H18.8333V20.3333H8V7H9.66667ZM20.8333 19V20.3333C20.8333 21.4379 19.9379 22.3333 18.8333 22.3333H8C6.89543 22.3333 6 21.4379 6 20.3333V7C6 5.89543 6.89543 5 8 5H9.33333V2C9.33333 0.89543 10.2288 0 11.3333 0H18.8333C19.3638 0 19.8725 0.210714 20.2475 0.585786L25.2475 5.58579C25.6226 5.96086 25.8333 6.46957 25.8333 7V17C25.8333 18.1046 24.9379 19 23.8333 19H20.8333ZM23.8333 17V7L18.8333 2H11.3333V17H23.8333ZM18 7.83333H22.1667L18 3.66667V7.83333Z" fill="#333333"/>
<path d="M11.3333 17V2H18.8333L23.8333 7V17H11.3333ZM8 20.3333V7H9.66667V18.6667H18.8333V20.3333H8ZM18 7.83333H22.1667L18 3.66667V7.83333Z" fill="white"/>
<path fill-rule="evenodd" clip-rule="evenodd" d="M10.3333 6.25463C10.1564 6.09628 9.92279 6 9.66667 6H8C7.44772 6 7 6.44772 7 7V20.3333C7 20.8856 7.44772 21.3333 8 21.3333H18.8333C19.3856 21.3333 19.8333 20.8856 19.8333 20.3333V18.6667C19.8333 18.4105 19.7371 18.1769 19.5787 18H23.8333C24.3856 18 24.8333 17.5523 24.8333 17V7C24.8333 6.73478 24.728 6.48043 24.5404 6.29289L19.5404 1.29289C19.3529 1.10536 19.0986 1 18.8333 1H11.3333C10.781 1 10.3333 1.44772 10.3333 2V6.25463ZM9.66667 18.6667V7H8V20.3333H18.8333V18.6667H9.66667ZM23.8333 7V17H11.3333V2H18.8333L23.8333 7ZM22.1667 7.83333L18 3.66667V7.83333H22.1667ZM19 6.83333H19.7525L19 6.08088V6.83333Z" fill="#6B00BE"/>
</svg>
