<svg width="51" height="50" viewBox="0 0 51 50" fill="none" xmlns="http://www.w3.org/2000/svg">
<path d="M25.6667 45.8334C14.1604 45.8334 4.83334 36.5063 4.83334 25C4.83334 13.4938 14.1604 4.16669 25.6667 4.16669C37.1729 4.16669 46.5 13.4938 46.5 25C46.5 36.5063 37.1729 45.8334 25.6667 45.8334ZM18.375 29.1667V33.3334H23.5833V37.5H27.75V33.3334H29.8333C31.2147 33.3334 32.5394 32.7846 33.5162 31.8079C34.4929 30.8311 35.0417 29.5064 35.0417 28.125C35.0417 26.7437 34.4929 25.4189 33.5162 24.4422C32.5394 23.4654 31.2147 22.9167 29.8333 22.9167H21.5C21.2237 22.9167 20.9588 22.8069 20.7634 22.6116C20.5681 22.4162 20.4583 22.1513 20.4583 21.875C20.4583 21.5988 20.5681 21.3338 20.7634 21.1384C20.9588 20.9431 21.2237 20.8334 21.5 20.8334H32.9583V16.6667H27.75V12.5H23.5833V16.6667H21.5C20.1187 16.6667 18.7939 17.2154 17.8172 18.1922C16.8404 19.1689 16.2917 20.4937 16.2917 21.875C16.2917 23.2564 16.8404 24.5811 17.8172 25.5579C18.7939 26.5346 20.1187 27.0834 21.5 27.0834H29.8333C30.1096 27.0834 30.3746 27.1931 30.5699 27.3884C30.7653 27.5838 30.875 27.8488 30.875 28.125C30.875 28.4013 30.7653 28.6662 30.5699 28.8616C30.3746 29.0569 30.1096 29.1667 29.8333 29.1667H18.375Z" fill="#E4A951"/>
</svg>
