<svg width="32" height="24" viewBox="0 0 32 24" fill="none" xmlns="http://www.w3.org/2000/svg">
<path fill-rule="evenodd" clip-rule="evenodd" d="M18.1281 17.6284C18.0704 17.6568 18.0117 17.6841 17.9522 17.7104C17.9456 17.7133 17.9389 17.7163 17.9322 17.7192C17.6078 17.8607 17.2569 17.971 16.8795 18.05C16.402 18.15 15.8822 18.2001 15.32 18.2001C15.2666 18.2001 15.2132 18.1997 15.16 18.1989C14.7162 18.1923 14.2792 18.1584 13.849 18.0972C13.8229 18.0935 13.7968 18.0897 13.7708 18.0858C13.6969 18.0746 13.6232 18.0627 13.5497 18.05C13.285 18.0041 13.0228 17.9478 12.7633 17.8809C12.7622 17.8806 12.7611 17.8803 12.76 17.88C11.9467 17.6667 11.3 17.36 10.82 16.96L11.18 13.98L12.96 14.16L12.92 15.76C12.9388 15.7697 12.9575 15.7792 12.9761 15.7886C13.114 15.8581 13.2479 15.9195 13.3779 15.973C13.6417 16.0816 13.8891 16.1573 14.12 16.2001C14.4933 16.2534 14.84 16.2801 15.16 16.2801C15.214 16.2801 15.2673 16.2795 15.32 16.2783C16.022 16.2627 16.6087 16.1433 17.08 15.92C17.1197 15.9007 17.1578 15.88 17.1945 15.8578C17.6382 15.589 17.86 15.1098 17.86 14.42C17.86 13.6067 17.5667 13.0667 16.98 12.8C16.3933 12.52 15.72 12.3067 14.96 12.16C14.3467 12.04 13.7267 11.88 13.1 11.68C12.4733 11.48 11.9533 11.1467 11.54 10.68C11.1267 10.2134 10.92 9.52672 10.92 8.62005C10.92 7.26005 11.38 6.28672 12.3 5.70005C12.7131 5.4345 13.1471 5.22772 13.6019 5.0797C13.7553 5.02978 13.911 4.98655 14.0692 4.95C14.5017 4.85003 14.952 4.80005 15.42 4.80005C15.44 4.80005 15.46 4.80012 15.48 4.80027C15.9755 4.804 16.4607 4.85391 16.9356 4.95C16.9478 4.95245 16.9599 4.95494 16.972 4.95745C17.2311 5.01121 17.4871 5.07875 17.74 5.16005C17.8187 5.18489 17.8955 5.21051 17.9706 5.23692C18.5608 5.44452 19.0408 5.70065 19.4104 6.00533C19.4481 6.0364 19.4846 6.06797 19.52 6.10005L19.64 8.84005L17.86 9.00005L17.68 7.32005C17.6429 7.29887 17.6059 7.27835 17.5688 7.25849C17.463 7.20175 17.3571 7.15038 17.2513 7.10437C17.2144 7.08833 17.1775 7.07294 17.1406 7.0582C17.1374 7.05694 17.1343 7.05568 17.1311 7.05443C16.9407 6.97897 16.7504 6.92084 16.56 6.88005C16.1867 6.80005 15.8267 6.76005 15.48 6.76005C15.4599 6.76005 15.4399 6.76018 15.42 6.76044C14.983 6.76617 14.5991 6.83486 14.2682 6.96649C14.1447 7.01559 14.0287 7.07344 13.92 7.14005C13.5067 7.39338 13.3 7.80005 13.3 8.36005C13.3 9.01338 13.5533 9.46005 14.06 9.70005C14.58 9.92672 15.16 10.1134 15.8 10.26C15.8618 10.2736 15.9245 10.2877 15.9881 10.3022C16.4877 10.4167 17.045 10.5626 17.66 10.74C17.7856 10.7763 17.9081 10.8178 18.0276 10.8645C18.1116 10.8973 18.194 10.9328 18.275 10.9708C18.7146 11.1774 19.1096 11.4605 19.46 11.82C19.98 12.3267 20.24 13.1134 20.24 14.18C20.24 15.4734 19.7867 16.4667 18.88 17.16C18.649 17.3394 18.3983 17.4955 18.1281 17.6284ZM22.15 20.05C23.1993 20.05 24.05 19.1993 24.05 18.15V4.85C24.05 3.80066 23.1993 2.95 22.15 2.95H8.85C7.80066 2.95 6.95 3.80066 6.95 4.85V18.15C6.95 19.1993 7.80066 20.05 8.85 20.05H22.15ZM9.00385 18.05H8.95V18.0051L9.00385 18.05ZM8.95 15.7636L9.42969 11.7929L9.90418 11.8408C9.30462 11.0857 9.03379 10.1852 8.95 9.28509V15.7636ZM14.9595 14.2058L14.9578 14.275C15.029 14.2784 15.0963 14.2801 15.16 14.2801C15.1874 14.2801 15.2141 14.2798 15.2404 14.2794C15.1499 14.2538 15.0563 14.2292 14.9595 14.2058ZM10.1417 4.95H8.95V7.95209C9.05285 6.83142 9.42509 5.78941 10.1417 4.95ZM21.2293 4.95L21.4816 5.17861L21.7217 10.661L21.155 10.7119C21.6037 11.2536 21.8861 11.8767 22.05 12.5291V4.95H21.2293ZM22.05 15.7771C21.8377 16.6213 21.4441 17.3916 20.8532 18.05H22.05V15.7771ZM4 4.85C4 2.17142 6.17142 0 8.85 0H22.15C24.8286 0 27 2.17142 27 4.85V18.15C27 20.8286 24.8286 23 22.15 23H8.85C6.17142 23 4 20.8286 4 18.15V4.85ZM16.4372 7.45321L16.5529 6.91311L16.4372 7.45321ZM6 4.85C6 3.27599 7.27599 2 8.85 2H22.15C23.724 2 25 3.27599 25 4.85V18.15C25 19.724 23.724 21 22.15 21H8.85C7.27599 21 6 19.724 6 18.15V4.85Z" fill="#333333"/>
<path fill-rule="evenodd" clip-rule="evenodd" d="M22.15 2.95H8.85C7.80066 2.95 6.95 3.80066 6.95 4.85V18.15C6.95 19.1993 7.80066 20.05 8.85 20.05H22.15C23.1993 20.05 24.05 19.1993 24.05 18.15V4.85C24.05 3.80066 23.1993 2.95 22.15 2.95ZM8.85 2C7.27599 2 6 3.27599 6 4.85V18.15C6 19.724 7.27599 21 8.85 21H22.15C23.724 21 25 19.724 25 18.15V4.85C25 3.27599 23.724 2 22.15 2H8.85Z" fill="white"/>
<path d="M20.24 14.18C20.24 15.4734 19.7867 16.4667 18.88 17.16C17.9867 17.8534 16.8 18.2001 15.32 18.2001C14.44 18.2001 13.5867 18.0934 12.76 17.88C11.9467 17.6667 11.3 17.36 10.82 16.96L11.18 13.98L12.96 14.16L12.92 15.76C13.36 15.9867 13.76 16.1334 14.12 16.2001C14.4933 16.2534 14.84 16.2801 15.16 16.2801C15.9333 16.2801 16.5733 16.16 17.08 15.92C17.6 15.6667 17.86 15.1667 17.86 14.42C17.86 13.6067 17.5667 13.0667 16.98 12.8C16.3933 12.52 15.72 12.3067 14.96 12.16C14.3467 12.04 13.7267 11.88 13.1 11.68C12.4733 11.48 11.9533 11.1467 11.54 10.68C11.1267 10.2134 10.92 9.52672 10.92 8.62005C10.92 7.26005 11.38 6.28672 12.3 5.70005C13.2333 5.10005 14.2733 4.80005 15.42 4.80005C16.22 4.80005 16.9933 4.92005 17.74 5.16005C18.5 5.40005 19.0933 5.71338 19.52 6.10005L19.64 8.84005L17.86 9.00005L17.68 7.32005C17.3067 7.10672 16.9333 6.96005 16.56 6.88005C16.1867 6.80005 15.8267 6.76005 15.48 6.76005C14.8533 6.76005 14.3333 6.88672 13.92 7.14005C13.5067 7.39338 13.3 7.80005 13.3 8.36005C13.3 9.01338 13.5533 9.46005 14.06 9.70005C14.58 9.92672 15.16 10.1134 15.8 10.26C16.3467 10.38 16.9667 10.54 17.66 10.74C18.3533 10.94 18.9533 11.3 19.46 11.82C19.98 12.3267 20.24 13.1134 20.24 14.18Z" fill="white"/>
<path fill-rule="evenodd" clip-rule="evenodd" d="M12.6351 18.3642L12.6332 18.3637C11.7722 18.1379 11.0522 17.8044 10.4999 17.3442L10.291 17.1701L10.7424 13.4332L13.4714 13.7092L13.4279 15.4502C13.7177 15.5804 13.975 15.6637 14.2013 15.7066C14.5511 15.7561 14.8703 15.7801 15.16 15.7801C15.8842 15.7801 16.4442 15.6673 16.8633 15.4694C17.1578 15.325 17.36 15.04 17.36 14.42C17.36 14.0707 17.2967 13.8206 17.2006 13.6437C17.1085 13.4741 16.9726 13.3459 16.7731 13.2552L16.7646 13.2514C16.2228 12.9928 15.5912 12.7911 14.8653 12.651L14.864 12.6507C14.2308 12.5269 13.5921 12.3619 12.948 12.1564C12.2405 11.9306 11.6421 11.5494 11.1657 11.0116C10.6413 10.4195 10.42 9.59432 10.42 8.62005C10.42 7.13776 10.9306 5.9807 12.0304 5.27896C13.047 4.62565 14.1812 4.30005 15.42 4.30005C16.2705 4.30005 17.0951 4.42769 17.8918 4.68364C18.6952 4.93747 19.3596 5.27993 19.8558 5.72956L20.0104 5.86969L20.1604 9.29529L17.4152 9.54205L17.2111 7.63668C16.9539 7.51009 16.7021 7.42185 16.4552 7.36895C16.1129 7.29559 15.7881 7.26005 15.48 7.26005C14.9191 7.26005 14.4961 7.3734 14.1813 7.56635C13.9416 7.71328 13.8 7.94212 13.8 8.36005C13.8 8.62334 13.851 8.80808 13.9249 8.93838C13.9952 9.06235 14.102 9.1653 14.2675 9.24507C14.7526 9.45586 15.2992 9.6322 15.9095 9.77217C16.4686 9.89498 17.0986 10.0577 17.7986 10.2596C18.5738 10.4833 19.2478 10.8873 19.8137 11.4666C20.4644 12.1038 20.74 13.0446 20.74 14.18C20.74 15.6048 20.2322 16.7548 19.1852 17.5561C18.1805 18.3352 16.8759 18.7001 15.32 18.7001C14.3992 18.7001 13.5038 18.5884 12.6351 18.3642ZM18.88 17.16C19.7867 16.4667 20.24 15.4734 20.24 14.18C20.24 13.1134 19.98 12.3267 19.46 11.82C18.9533 11.3 18.3533 10.94 17.66 10.74C16.9667 10.54 16.3467 10.38 15.8 10.26C15.16 10.1134 14.58 9.92672 14.06 9.70005C13.5533 9.46005 13.3 9.01338 13.3 8.36005C13.3 7.80005 13.5067 7.39338 13.92 7.14005C14.3333 6.88672 14.8533 6.76005 15.48 6.76005C15.8267 6.76005 16.1867 6.80005 16.56 6.88005C16.9333 6.96005 17.3067 7.10672 17.68 7.32005L17.86 9.00005L19.64 8.84005L19.52 6.10005C19.0933 5.71338 18.5 5.40005 17.74 5.16005C16.9933 4.92005 16.22 4.80005 15.42 4.80005C14.2733 4.80005 13.2333 5.10005 12.3 5.70005C11.38 6.28672 10.92 7.26005 10.92 8.62005C10.92 9.52672 11.1267 10.2134 11.54 10.68C11.9533 11.1467 12.4733 11.48 13.1 11.68C13.7267 11.88 14.3467 12.04 14.96 12.16C15.72 12.3067 16.3933 12.52 16.98 12.8C17.5667 13.0667 17.86 13.6067 17.86 14.42C17.86 15.1667 17.6 15.6667 17.08 15.92C16.5733 16.16 15.9333 16.2801 15.16 16.2801C14.84 16.2801 14.4933 16.2534 14.12 16.2001C13.76 16.1334 13.36 15.9867 12.92 15.76L12.96 14.16L11.18 13.98L10.82 16.96C11.3 17.36 11.9467 17.6667 12.76 17.88C13.5867 18.0934 14.44 18.2001 15.32 18.2001C16.8 18.2001 17.9867 17.8534 18.88 17.16ZM22.15 3.45H8.85C8.0768 3.45 7.45 4.0768 7.45 4.85V18.15C7.45 18.9232 8.0768 19.55 8.85 19.55H22.15C22.9232 19.55 23.55 18.9232 23.55 18.15V4.85C23.55 4.0768 22.9232 3.45 22.15 3.45ZM5.5 4.85C5.5 2.99985 6.99985 1.5 8.85 1.5H22.15C24.0002 1.5 25.5 2.99985 25.5 4.85V18.15C25.5 20.0002 24.0002 21.5 22.15 21.5H8.85C6.99985 21.5 5.5 20.0002 5.5 18.15V4.85ZM8.85 2.95H22.15C23.1993 2.95 24.05 3.80066 24.05 4.85V18.15C24.05 19.1993 23.1993 20.05 22.15 20.05H8.85C7.80066 20.05 6.95 19.1993 6.95 18.15V4.85C6.95 3.80066 7.80066 2.95 8.85 2.95ZM6 4.85C6 3.27599 7.27599 2 8.85 2H22.15C23.724 2 25 3.27599 25 4.85V18.15C25 19.724 23.724 21 22.15 21H8.85C7.27599 21 6 19.724 6 18.15V4.85Z" fill="url(#paint0_linear_25_329)"/>
<defs>
<linearGradient id="paint0_linear_25_329" x1="27.92" y1="-1.84" x2="4" y2="24.38" gradientUnits="userSpaceOnUse">
<stop stop-color="#FA00FF"/>
<stop offset="0.5" stop-color="#EBFF00"/>
<stop offset="1" stop-color="#00FF94"/>
</linearGradient>
</defs>
</svg>
