<svg width="50" height="50" viewBox="0 0 50 50" fill="none" xmlns="http://www.w3.org/2000/svg">
<g clip-path="url(#clip0_183_3791)">
<path fill-rule="evenodd" clip-rule="evenodd" d="M1.53514e-05 18.3334C1.53514e-05 15.2392 1.22918 12.2717 3.4171 10.0838C5.60503 7.89585 8.57249 6.66669 11.6667 6.66669H38.3333C41.4275 6.66669 44.395 7.89585 46.5829 10.0838C48.7709 12.2717 50 15.2392 50 18.3334V33.4267C49.9996 35.658 49.2458 37.8239 47.8609 39.5734C46.476 41.323 44.541 42.5537 42.3693 43.0664C40.1977 43.579 37.9165 43.3435 35.8954 42.398C33.8743 41.4524 32.2316 39.8523 31.2333 37.8567L30.6333 36.6667H19.3633L18.7667 37.8567C17.7683 39.8525 16.1253 41.4528 14.1038 42.3983C12.0824 43.3438 9.80093 43.5791 7.62908 43.066C5.45722 42.5529 3.52221 41.3216 2.13756 39.5715C0.7529 37.8214 -0.000289608 35.655 1.53514e-05 33.4234V18.3334ZM13.3333 26.6667V23.3334H10V20H13.3333V16.6667H16.6667V20H20V23.3334H16.6667V26.6667H13.3333ZM33.3333 26.6667H30V23.3334H33.3333V26.6667ZM36.6667 20H40V16.6667H36.6667V20Z" fill="#699BF7"/>
</g>
<defs>
<clipPath id="clip0_183_3791">
<rect width="50" height="50" fill="white"/>
</clipPath>
</defs>
</svg>
