<?xml version="1.0" standalone="no"?>
<!DOCTYPE svg PUBLIC "-//W3C//DTD SVG 20010904//EN"
 "http://www.w3.org/TR/2001/REC-SVG-20010904/DTD/svg10.dtd">
<svg version="1.0" xmlns="http://www.w3.org/2000/svg"
 width="700.000000pt" height="700.000000pt" viewBox="0 0 700.000000 700.000000"
 preserveAspectRatio="xMidYMid meet">
<metadata>
Created by potrace 1.14, written by Peter Selinger 2001-2017
</metadata>
<g transform="translate(0.000000,700.000000) scale(0.100000,-0.100000)"
fill="#000000" stroke="none">
<path d="M2725 6444 c-49 -14 -97 -26 -105 -29 -156 -41 -374 -120 -528 -191
l-84 -38 6 -131 c9 -173 18 -299 33 -425 3 -30 6 -75 7 -99 l1 -44 -141 -91
c-78 -50 -157 -103 -175 -118 -19 -14 -70 -54 -114 -89 -44 -34 -99 -80 -123
-101 -25 -23 -47 -36 -55 -32 -6 4 -37 24 -67 44 -91 60 -268 164 -379 222
l-104 54 -56 -60 c-144 -156 -330 -394 -426 -546 -26 -41 -56 -88 -67 -104
-20 -28 -20 -30 -3 -60 43 -73 202 -307 283 -415 l87 -116 1 -1110 c0 -610 4
-1130 8 -1155 17 -113 54 -243 82 -287 8 -12 14 -27 14 -34 0 -6 29 -56 65
-110 209 -320 624 -571 1185 -718 101 -27 200 -50 280 -64 176 -33 268 -47
410 -62 30 -3 73 -8 94 -11 232 -32 915 -38 1191 -10 17 2 64 7 105 10 41 4
86 9 100 11 14 2 50 7 80 10 60 7 88 11 170 25 30 5 71 12 90 15 186 29 519
121 696 190 598 237 930 585 990 1040 4 28 8 547 8 1155 l2 1105 85 115 c69
92 260 371 293 427 8 15 0 32 -72 143 -110 170 -296 408 -424 545 -26 27 -48
53 -48 58 0 4 -7 7 -16 7 -27 0 -297 -150 -471 -262 l-93 -60 -57 52 c-106 97
-311 248 -446 327 l-98 58 7 65 c3 36 8 79 10 95 2 17 6 64 9 105 3 41 8 91
10 110 2 19 7 101 10 181 l6 146 -79 36 c-118 54 -223 95 -354 138 -127 42
-373 109 -400 109 -11 0 -36 -34 -71 -97 -59 -105 -176 -336 -226 -445 -26
-58 -33 -66 -53 -63 -127 25 -482 27 -604 4 -30 -5 -44 6 -64 54 -34 78 -140
291 -150 301 -6 6 -10 15 -10 21 0 7 -28 60 -61 118 -49 85 -66 107 -83 106
-11 0 -61 -12 -111 -25z"/>
</g>
</svg>
