<svg width="68" height="64" viewBox="0 0 68 64" fill="none" xmlns="http://www.w3.org/2000/svg">
<path d="M63.7159 43.6072C63.7159 43.6072 63.6169 43.0001 63.5591 43.0056L52.5445 44.0684C51.6681 44.153 50.9874 44.8519 50.9259 45.7302L50.6233 50.0673L42.1019 50.6752L41.5223 46.7445C41.3932 45.8702 40.6298 45.2112 39.746 45.2112H28.1208C27.2373 45.2112 26.4738 45.8702 26.3448 46.7445L25.7648 50.6752L17.2435 50.0673L16.9409 45.7302C16.8794 44.8516 16.1987 44.1527 15.3223 44.0681L4.3022 43.0056C4.24528 43.0001 4.20358 43.6078 4.14665 43.6078L4.13173 45.9914L13.4647 47.4965L13.7703 51.8722C13.8321 52.7581 14.5469 53.4744 15.4334 53.538L27.1691 54.3752C27.2136 54.3782 27.2574 54.38 27.3013 54.38C28.1832 54.38 28.9454 53.7207 29.0745 52.8464L29.6709 48.8018H38.1962L38.7926 52.8464C38.9213 53.7204 39.6845 54.3797 40.5676 54.3797C40.6109 54.3797 40.6541 54.3782 40.6964 54.3752L52.4337 53.538C53.3199 53.4744 54.035 52.7581 54.0968 51.8722L54.4021 47.4965L63.7311 45.9847L63.7159 43.6072Z" fill="white"/>
<path d="M4.14653 25.6338V40.0981V41.9353V43.6072C4.1794 43.6075 4.21228 43.6087 4.24485 43.6118L15.2637 44.6742C15.8409 44.7299 16.2933 45.1944 16.3334 45.7728L16.6732 50.6369L26.285 51.3228L26.9471 46.8334C27.0329 46.2514 27.5322 45.82 28.1209 45.82H39.7462C40.3346 45.82 40.8339 46.2514 40.9197 46.8334L41.5819 51.3228L51.194 50.6369L51.5334 45.7728C51.5739 45.1944 52.026 44.7302 52.6031 44.6742L63.6177 43.6118C63.6503 43.6087 63.6829 43.6075 63.7157 43.6072V42.1731L63.7203 42.1715V25.6338C65.2719 23.6805 66.7412 21.5259 67.8668 19.7131C66.1466 16.7846 64.0387 14.1675 61.7857 11.7428C59.6962 12.7945 57.6666 13.9861 55.7496 15.254C54.7904 14.3005 53.71 13.5206 52.6488 12.7054C51.6062 11.8679 50.4311 11.2539 49.3166 10.5385C49.6484 8.06749 49.8125 5.63485 49.8786 3.09598C47.003 1.64876 43.9366 0.689221 40.8348 1.02798e-05C39.5964 2.08134 38.464 4.33528 37.4776 6.53868C36.3081 6.34324 35.133 6.27079 33.9564 6.25679V6.25496C33.9482 6.25496 33.9406 6.25679 33.9336 6.25679C33.9263 6.25679 33.9187 6.25496 33.9114 6.25496V6.25679C32.7326 6.27079 31.5585 6.34324 30.3886 6.53868C29.4029 4.33528 28.271 2.08134 27.0308 1.02798e-05C23.9306 0.689221 20.8638 1.64876 17.9886 3.09598C18.0543 5.63485 18.2184 8.06749 18.5511 10.5385C17.4345 11.2539 16.261 11.8679 15.218 12.7054C14.1583 13.5206 13.0761 14.3005 12.1166 15.254C10.1996 13.9861 8.17068 12.7945 6.08052 11.7428C3.82749 14.1675 1.7209 16.7846 0 19.7131C1.35244 21.8361 2.80311 23.9698 4.14653 25.6338Z" fill="#FC2F14"/>
<path d="M53.8306 46.9399L53.4894 51.8298C53.4483 52.4192 52.9795 52.8883 52.3901 52.9306L40.6531 53.7681C40.6245 53.7702 40.5959 53.7711 40.5676 53.7711C39.9843 53.7711 39.4811 53.3431 39.395 52.7574L38.7219 48.1929H29.1451L28.472 52.7574C28.3816 53.3717 27.8324 53.8134 27.2138 53.7681L15.4769 52.9306C14.8875 52.8883 14.4187 52.4192 14.3776 51.8298L14.0363 46.9399L4.12832 45.9846C4.13289 47.0495 4.14659 48.216 4.14659 48.4483C4.14659 58.9125 17.4209 63.9422 33.9132 64H33.9333H33.9537C50.4461 63.9422 63.7158 58.9125 63.7158 48.4483C63.7158 48.2118 63.7301 47.0501 63.735 45.9846L53.8306 46.9399Z" fill="#FC2F14"/>
<path d="M24.9538 32.9298C24.9538 36.5987 21.9812 39.5708 18.3135 39.5708C14.6476 39.5708 11.6741 36.5987 11.6741 32.9298C11.6741 29.2634 14.6476 26.2928 18.3135 26.2928C21.9812 26.2928 24.9538 29.2634 24.9538 32.9298Z" fill="white"/>
<path d="M23.3561 33.3237C23.3561 35.7572 21.3837 37.7296 18.9483 37.7296C16.5142 37.7296 14.5406 35.7572 14.5406 33.3237C14.5406 30.8901 16.5142 28.9159 18.9483 28.9159C21.3837 28.9159 23.3561 30.8901 23.3561 33.3237Z" fill="#414042"/>
<path d="M33.9329 40.1749C32.7524 40.1749 31.7956 39.3049 31.7956 38.2324V32.1193C31.7956 31.0477 32.7524 30.1768 33.9329 30.1768C35.1135 30.1768 36.0724 31.0477 36.0724 32.1193V38.2324C36.0724 39.3049 35.1135 40.1749 33.9329 40.1749Z" fill="white"/>
<path d="M42.9131 32.9298C42.9131 36.5987 45.8858 39.5708 49.5541 39.5708C53.2196 39.5708 56.1929 36.5987 56.1929 32.9298C56.1929 29.2634 53.2196 26.2928 49.5541 26.2928C45.8858 26.2928 42.9131 29.2634 42.9131 32.9298Z" fill="white"/>
<path d="M44.5113 33.3237C44.5113 35.7572 46.4831 37.7296 48.9166 37.7296C51.3526 37.7296 53.3243 35.7572 53.3243 33.3237C53.3243 30.8901 51.3526 28.9159 48.9166 28.9159C46.4831 28.9159 44.5113 30.8901 44.5113 33.3237Z" fill="#414042"/>
</svg>
