<svg width="288" height="64" viewBox="0 0 288 64" fill="none" xmlns="http://www.w3.org/2000/svg">
<path d="M100.844 43.6719C99.8229 44.0885 98.4948 44.4948 96.8594 44.8906C95.2344 45.2865 93.6302 45.4844 92.0469 45.4844C88.3906 45.4844 85.474 44.4323 83.2969 42.3281C81.1302 40.2135 80.0469 37.2188 80.0469 33.3438C80.0469 29.6979 81.1302 26.776 83.2969 24.5781C85.474 22.3802 88.4479 21.2812 92.2188 21.2812C94.1667 21.2812 95.75 21.4688 96.9688 21.8438C98.1875 22.2083 99.4479 22.7083 100.75 23.3438V28.7969H100.219C99.9375 28.5781 99.5312 28.2708 99 27.875C98.4792 27.4688 97.9688 27.125 97.4688 26.8438C96.8854 26.5104 96.2083 26.224 95.4375 25.9844C94.6771 25.7448 93.8698 25.625 93.0156 25.625C92.0156 25.625 91.1042 25.7812 90.2812 26.0938C89.4583 26.4062 88.724 26.8854 88.0781 27.5312C87.4635 28.1562 86.974 28.9479 86.6094 29.9062C86.2552 30.8646 86.0781 31.9792 86.0781 33.25C86.0781 35.9688 86.7604 37.974 88.125 39.2656C89.4896 40.5573 91.3542 41.2031 93.7188 41.2031C93.9271 41.2031 94.1719 41.1979 94.4531 41.1875C94.7344 41.1771 94.9792 41.1615 95.1875 41.1406V36.5781H90.6719V32.2188H100.844V43.6719ZM121.781 36.2344C121.781 39.1198 120.99 41.3958 119.406 43.0625C117.833 44.7188 115.604 45.5469 112.719 45.5469C109.854 45.5469 107.625 44.7188 106.031 43.0625C104.448 41.3958 103.656 39.1198 103.656 36.2344C103.656 33.3177 104.448 31.0365 106.031 29.3906C107.625 27.7344 109.854 26.9062 112.719 26.9062C115.594 26.9062 117.823 27.7396 119.406 29.4062C120.99 31.0625 121.781 33.3385 121.781 36.2344ZM116.172 36.2656C116.172 35.224 116.083 34.3594 115.906 33.6719C115.74 32.974 115.505 32.4167 115.203 32C114.88 31.5625 114.516 31.2604 114.109 31.0938C113.703 30.9167 113.24 30.8281 112.719 30.8281C112.229 30.8281 111.786 30.9062 111.391 31.0625C110.995 31.2083 110.63 31.4948 110.297 31.9219C109.984 32.3281 109.734 32.8854 109.547 33.5938C109.359 34.3021 109.266 35.1927 109.266 36.2656C109.266 37.3385 109.354 38.2083 109.531 38.875C109.708 39.5312 109.938 40.0573 110.219 40.4531C110.51 40.8594 110.875 41.1562 111.312 41.3438C111.75 41.5312 112.234 41.625 112.766 41.625C113.203 41.625 113.646 41.5312 114.094 41.3438C114.552 41.1562 114.917 40.875 115.188 40.5C115.51 40.0521 115.755 39.5156 115.922 38.8906C116.089 38.2552 116.172 37.3802 116.172 36.2656ZM140.641 45H135.172V43.1719C134.818 43.4635 134.411 43.776 133.953 44.1094C133.505 44.4427 133.109 44.6927 132.766 44.8594C132.328 45.0677 131.896 45.224 131.469 45.3281C131.042 45.4323 130.531 45.4844 129.938 45.4844C127.938 45.4844 126.354 44.6562 125.188 43C124.021 41.3438 123.438 39.1302 123.438 36.3594C123.438 34.8281 123.635 33.5 124.031 32.375C124.427 31.25 124.974 30.2708 125.672 29.4375C126.307 28.6771 127.078 28.0781 127.984 27.6406C128.891 27.1927 129.849 26.9688 130.859 26.9688C131.776 26.9688 132.526 27.0677 133.109 27.2656C133.703 27.4531 134.391 27.75 135.172 28.1562V20.6875H140.641V45ZM135.172 40.1562V31.5469C134.901 31.4115 134.547 31.3021 134.109 31.2188C133.672 31.125 133.297 31.0781 132.984 31.0781C131.672 31.0781 130.682 31.5365 130.016 32.4531C129.359 33.3698 129.031 34.651 129.031 36.2969C129.031 38.026 129.292 39.276 129.812 40.0469C130.344 40.8177 131.198 41.2031 132.375 41.2031C132.854 41.2031 133.339 41.1094 133.828 40.9219C134.318 40.7344 134.766 40.4792 135.172 40.1562ZM161.688 36.2344C161.688 39.1198 160.896 41.3958 159.312 43.0625C157.74 44.7188 155.51 45.5469 152.625 45.5469C149.76 45.5469 147.531 44.7188 145.938 43.0625C144.354 41.3958 143.562 39.1198 143.562 36.2344C143.562 33.3177 144.354 31.0365 145.938 29.3906C147.531 27.7344 149.76 26.9062 152.625 26.9062C155.5 26.9062 157.729 27.7396 159.312 29.4062C160.896 31.0625 161.688 33.3385 161.688 36.2344ZM156.078 36.2656C156.078 35.224 155.99 34.3594 155.812 33.6719C155.646 32.974 155.411 32.4167 155.109 32C154.786 31.5625 154.422 31.2604 154.016 31.0938C153.609 30.9167 153.146 30.8281 152.625 30.8281C152.135 30.8281 151.693 30.9062 151.297 31.0625C150.901 31.2083 150.536 31.4948 150.203 31.9219C149.891 32.3281 149.641 32.8854 149.453 33.5938C149.266 34.3021 149.172 35.1927 149.172 36.2656C149.172 37.3385 149.26 38.2083 149.438 38.875C149.615 39.5312 149.844 40.0573 150.125 40.4531C150.417 40.8594 150.781 41.1562 151.219 41.3438C151.656 41.5312 152.141 41.625 152.672 41.625C153.109 41.625 153.552 41.5312 154 41.3438C154.458 41.1562 154.823 40.875 155.094 40.5C155.417 40.0521 155.661 39.5156 155.828 38.8906C155.995 38.2552 156.078 37.3802 156.078 36.2656ZM171.312 45.3438C169.083 45.3438 167.458 44.8854 166.438 43.9688C165.427 43.0521 164.922 41.5521 164.922 39.4688V31.2656H162.828V27.4531H164.922V22.4375H170.391V27.4531H175.656V31.2656H170.391V37.4844C170.391 38.099 170.396 38.6354 170.406 39.0938C170.417 39.5521 170.5 39.9635 170.656 40.3281C170.802 40.6927 171.057 40.9844 171.422 41.2031C171.797 41.4115 172.339 41.5156 173.047 41.5156C173.339 41.5156 173.719 41.4531 174.188 41.3281C174.667 41.2031 175 41.0885 175.188 40.9844H175.656V44.8438C175.062 45 174.432 45.1198 173.766 45.2031C173.099 45.2969 172.281 45.3438 171.312 45.3438ZM199.094 38.1719C199.094 39.1823 198.922 40.1354 198.578 41.0312C198.234 41.9167 197.714 42.6719 197.016 43.2969C196.234 44.0052 195.312 44.526 194.25 44.8594C193.188 45.1927 191.964 45.3594 190.578 45.3594C189.547 45.3594 188.578 45.3177 187.672 45.2344C186.766 45.1615 185.969 45.0521 185.281 44.9062V40.1875H185.812C186.281 40.375 186.771 40.5521 187.281 40.7188C187.792 40.875 188.448 40.9531 189.25 40.9531C190.281 40.9531 191.073 40.8073 191.625 40.5156C192.188 40.224 192.583 39.8177 192.812 39.2969C193.052 38.7865 193.182 38.1979 193.203 37.5312C193.234 36.8542 193.25 36.1042 193.25 35.2812V25.9531H187.922V21.7344H199.094V38.1719ZM212.984 40.4219V36.7656C212.057 36.8594 211.307 36.9427 210.734 37.0156C210.161 37.0781 209.599 37.2083 209.047 37.4062C208.568 37.5729 208.193 37.8281 207.922 38.1719C207.661 38.5052 207.531 38.9531 207.531 39.5156C207.531 40.3385 207.75 40.9062 208.188 41.2188C208.635 41.5208 209.292 41.6719 210.156 41.6719C210.635 41.6719 211.125 41.5625 211.625 41.3438C212.125 41.125 212.578 40.8177 212.984 40.4219ZM212.984 43.1406C212.609 43.4531 212.271 43.7344 211.969 43.9844C211.677 44.2344 211.281 44.4844 210.781 44.7344C210.292 44.974 209.812 45.1562 209.344 45.2812C208.885 45.4062 208.24 45.4688 207.406 45.4688C205.854 45.4688 204.562 44.9479 203.531 43.9062C202.51 42.8646 202 41.5521 202 39.9688C202 38.6667 202.26 37.6146 202.781 36.8125C203.302 36.0104 204.052 35.375 205.031 34.9062C206.021 34.4271 207.203 34.0938 208.578 33.9062C209.953 33.7188 211.432 33.5729 213.016 33.4688V33.375C213.016 32.4062 212.656 31.7396 211.938 31.375C211.229 31 210.161 30.8125 208.734 30.8125C208.089 30.8125 207.333 30.9323 206.469 31.1719C205.604 31.401 204.76 31.6979 203.938 32.0625H203.469V27.8281C204.01 27.6719 204.885 27.4896 206.094 27.2812C207.302 27.0625 208.521 26.9531 209.75 26.9531C212.771 26.9531 214.969 27.4583 216.344 28.4688C217.729 29.4688 218.422 31 218.422 33.0625V45H212.984V43.1406ZM239.672 35.9844C239.672 38.7865 238.958 41.0469 237.531 42.7656C236.115 44.4844 234.365 45.3438 232.281 45.3438C231.406 45.3438 230.646 45.2448 230 45.0469C229.354 44.849 228.667 44.5417 227.938 44.125V51.4375H222.469V27.4531H227.938V29.2812C228.74 28.5938 229.557 28.0365 230.391 27.6094C231.224 27.1823 232.188 26.9688 233.281 26.9688C235.312 26.9688 236.885 27.776 238 29.3906C239.115 31.0052 239.672 33.2031 239.672 35.9844ZM234.078 36.0938C234.078 34.3854 233.812 33.1458 233.281 32.375C232.76 31.6042 231.943 31.2188 230.828 31.2188C230.339 31.2188 229.849 31.2969 229.359 31.4531C228.88 31.6094 228.406 31.8438 227.938 32.1562V40.9844C228.229 41.1094 228.547 41.1979 228.891 41.25C229.245 41.3021 229.661 41.3281 230.141 41.3281C231.474 41.3281 232.464 40.8958 233.109 40.0312C233.755 39.1562 234.078 37.8438 234.078 36.0938ZM252.297 40.4219V36.7656C251.37 36.8594 250.62 36.9427 250.047 37.0156C249.474 37.0781 248.911 37.2083 248.359 37.4062C247.88 37.5729 247.505 37.8281 247.234 38.1719C246.974 38.5052 246.844 38.9531 246.844 39.5156C246.844 40.3385 247.062 40.9062 247.5 41.2188C247.948 41.5208 248.604 41.6719 249.469 41.6719C249.948 41.6719 250.438 41.5625 250.938 41.3438C251.438 41.125 251.891 40.8177 252.297 40.4219ZM252.297 43.1406C251.922 43.4531 251.583 43.7344 251.281 43.9844C250.99 44.2344 250.594 44.4844 250.094 44.7344C249.604 44.974 249.125 45.1562 248.656 45.2812C248.198 45.4062 247.552 45.4688 246.719 45.4688C245.167 45.4688 243.875 44.9479 242.844 43.9062C241.823 42.8646 241.312 41.5521 241.312 39.9688C241.312 38.6667 241.573 37.6146 242.094 36.8125C242.615 36.0104 243.365 35.375 244.344 34.9062C245.333 34.4271 246.516 34.0938 247.891 33.9062C249.266 33.7188 250.745 33.5729 252.328 33.4688V33.375C252.328 32.4062 251.969 31.7396 251.25 31.375C250.542 31 249.474 30.8125 248.047 30.8125C247.401 30.8125 246.646 30.9323 245.781 31.1719C244.917 31.401 244.073 31.6979 243.25 32.0625H242.781V27.8281C243.323 27.6719 244.198 27.4896 245.406 27.2812C246.615 27.0625 247.833 26.9531 249.062 26.9531C252.083 26.9531 254.281 27.4583 255.656 28.4688C257.042 29.4688 257.734 31 257.734 33.0625V45H252.297V43.1406ZM278.219 45H272.719V36.2969C272.719 35.5885 272.688 34.8854 272.625 34.1875C272.573 33.4792 272.469 32.9583 272.312 32.625C272.125 32.2292 271.854 31.9479 271.5 31.7812C271.146 31.6042 270.672 31.5156 270.078 31.5156C269.63 31.5156 269.177 31.599 268.719 31.7656C268.26 31.9323 267.771 32.1979 267.25 32.5625V45H261.781V27.4531H267.25V29.3906C268.146 28.6302 269.016 28.0365 269.859 27.6094C270.714 27.1823 271.656 26.9688 272.688 26.9688C274.479 26.9688 275.849 27.5365 276.797 28.6719C277.745 29.7969 278.219 31.4323 278.219 33.5781V45Z" fill="#EBEBEB"/>
<path d="M63.7159 43.6072C63.7159 43.6072 63.6169 43.0001 63.5591 43.0056L52.5445 44.0684C51.6681 44.153 50.9874 44.8519 50.9259 45.7302L50.6233 50.0673L42.1019 50.6752L41.5223 46.7445C41.3932 45.8702 40.6298 45.2112 39.746 45.2112H28.1208C27.2373 45.2112 26.4738 45.8702 26.3448 46.7445L25.7648 50.6752L17.2435 50.0673L16.9409 45.7302C16.8794 44.8516 16.1987 44.1527 15.3223 44.0681L4.3022 43.0056C4.24528 43.0001 4.20358 43.6078 4.14665 43.6078L4.13173 45.9914L13.4647 47.4965L13.7703 51.8722C13.8321 52.7581 14.5469 53.4744 15.4334 53.538L27.1691 54.3752C27.2136 54.3782 27.2574 54.38 27.3013 54.38C28.1832 54.38 28.9454 53.7207 29.0745 52.8464L29.6709 48.8018H38.1962L38.7926 52.8464C38.9213 53.7204 39.6845 54.3797 40.5676 54.3797C40.6109 54.3797 40.6541 54.3782 40.6964 54.3752L52.4337 53.538C53.3199 53.4744 54.035 52.7581 54.0968 51.8722L54.4021 47.4965L63.7311 45.9847L63.7159 43.6072Z" fill="white"/>
<path d="M4.14653 25.6338V40.0981V41.9353V43.6072C4.1794 43.6075 4.21228 43.6087 4.24485 43.6118L15.2637 44.6742C15.8409 44.7299 16.2933 45.1944 16.3334 45.7728L16.6732 50.6369L26.285 51.3228L26.9471 46.8334C27.0329 46.2514 27.5322 45.82 28.1209 45.82H39.7462C40.3346 45.82 40.8339 46.2514 40.9197 46.8334L41.5819 51.3228L51.194 50.6369L51.5334 45.7728C51.5739 45.1944 52.026 44.7302 52.6031 44.6742L63.6177 43.6118C63.6503 43.6087 63.6829 43.6075 63.7157 43.6072V42.1731L63.7203 42.1715V25.6338C65.2719 23.6805 66.7412 21.5259 67.8668 19.7131C66.1466 16.7846 64.0387 14.1675 61.7857 11.7428C59.6962 12.7945 57.6666 13.9861 55.7496 15.254C54.7904 14.3005 53.71 13.5206 52.6488 12.7054C51.6062 11.8679 50.4311 11.2539 49.3166 10.5385C49.6484 8.06749 49.8125 5.63485 49.8786 3.09598C47.003 1.64876 43.9366 0.689221 40.8348 1.02798e-05C39.5964 2.08134 38.464 4.33528 37.4776 6.53868C36.3081 6.34324 35.133 6.27079 33.9564 6.25679V6.25496C33.9482 6.25496 33.9406 6.25679 33.9336 6.25679C33.9263 6.25679 33.9187 6.25496 33.9114 6.25496V6.25679C32.7326 6.27079 31.5585 6.34324 30.3886 6.53868C29.4029 4.33528 28.271 2.08134 27.0308 1.02798e-05C23.9306 0.689221 20.8638 1.64876 17.9886 3.09598C18.0543 5.63485 18.2184 8.06749 18.5511 10.5385C17.4345 11.2539 16.261 11.8679 15.218 12.7054C14.1583 13.5206 13.0761 14.3005 12.1166 15.254C10.1996 13.9861 8.17068 12.7945 6.08052 11.7428C3.82749 14.1675 1.7209 16.7846 0 19.7131C1.35244 21.8361 2.80311 23.9698 4.14653 25.6338Z" fill="#FC2F14"/>
<path d="M53.8306 46.9399L53.4894 51.8298C53.4483 52.4192 52.9795 52.8883 52.3901 52.9306L40.6531 53.7681C40.6245 53.7702 40.5959 53.7711 40.5676 53.7711C39.9843 53.7711 39.4811 53.3431 39.395 52.7574L38.7219 48.1929H29.1451L28.472 52.7574C28.3816 53.3717 27.8324 53.8134 27.2138 53.7681L15.4769 52.9306C14.8875 52.8883 14.4187 52.4192 14.3776 51.8298L14.0363 46.9399L4.12833 45.9846C4.13289 47.0495 4.1466 48.216 4.1466 48.4483C4.1466 58.9125 17.4209 63.9422 33.9132 64H33.9333H33.9537C50.4461 63.9422 63.7158 58.9125 63.7158 48.4483C63.7158 48.2118 63.7301 47.0501 63.735 45.9846L53.8306 46.9399Z" fill="#FC2F14"/>
<path d="M24.9538 32.9298C24.9538 36.5987 21.9812 39.5708 18.3135 39.5708C14.6476 39.5708 11.6741 36.5987 11.6741 32.9298C11.6741 29.2634 14.6476 26.2928 18.3135 26.2928C21.9812 26.2928 24.9538 29.2634 24.9538 32.9298Z" fill="white"/>
<path d="M23.3561 33.3237C23.3561 35.7572 21.3837 37.7296 18.9483 37.7296C16.5142 37.7296 14.5406 35.7572 14.5406 33.3237C14.5406 30.8901 16.5142 28.9159 18.9483 28.9159C21.3837 28.9159 23.3561 30.8901 23.3561 33.3237Z" fill="#414042"/>
<path d="M33.9329 40.1749C32.7524 40.1749 31.7956 39.3049 31.7956 38.2324V32.1193C31.7956 31.0477 32.7524 30.1768 33.9329 30.1768C35.1135 30.1768 36.0724 31.0477 36.0724 32.1193V38.2324C36.0724 39.3049 35.1135 40.1749 33.9329 40.1749Z" fill="white"/>
<path d="M42.9131 32.9298C42.9131 36.5987 45.8858 39.5708 49.5541 39.5708C53.2196 39.5708 56.1929 36.5987 56.1929 32.9298C56.1929 29.2634 53.2196 26.2928 49.5541 26.2928C45.8858 26.2928 42.9131 29.2634 42.9131 32.9298Z" fill="white"/>
<path d="M44.5113 33.3237C44.5113 35.7572 46.4831 37.7296 48.9166 37.7296C51.3526 37.7296 53.3243 35.7572 53.3243 33.3237C53.3243 30.8901 51.3526 28.9159 48.9166 28.9159C46.4831 28.9159 44.5113 30.8901 44.5113 33.3237Z" fill="#414042"/>
</svg>
